<?xml version="1.0" encoding="utf-8" standalone="no"?>
<!DOCTYPE svg PUBLIC "-//W3C//DTD SVG 1.1//EN"
  "http://www.w3.org/Graphics/SVG/1.1/DTD/svg11.dtd">
<svg xmlns:xlink="http://www.w3.org/1999/xlink" width="480pt" height="384pt" viewBox="0 0 480 384" xmlns="http://www.w3.org/2000/svg" version="1.1">
 <metadata>
  <rdf:RDF xmlns:dc="http://purl.org/dc/elements/1.1/" xmlns:cc="http://creativecommons.org/ns#" xmlns:rdf="http://www.w3.org/1999/02/22-rdf-syntax-ns#">
   <cc:Work>
    <dc:type rdf:resource="http://purl.org/dc/dcmitype/StillImage"/>
    <dc:date>2024-05-22T19:23:26.586710</dc:date>
    <dc:format>image/svg+xml</dc:format>
    <dc:creator>
     <cc:Agent>
      <dc:title>Matplotlib v3.8.0, https://matplotlib.org/</dc:title>
     </cc:Agent>
    </dc:creator>
   </cc:Work>
  </rdf:RDF>
 </metadata>
 <defs>
  <style type="text/css">*{stroke-linejoin: round; stroke-linecap: butt}</style>
 </defs>
 <g id="figure_1">
  <g id="patch_1">
   <path d="M 0 384 
L 480 384 
L 480 0 
L 0 0 
z
" style="fill: #ffffff"/>
  </g>
  <g id="axes_1">
   <g id="patch_2">
    <path d="M 62.12 330.52 
L 464.88 330.52 
L 464.88 34.08 
L 62.12 34.08 
z
" style="fill: #ffffff"/>
   </g>
   <g id="matplotlib.axis_1">
    <g id="xtick_1">
     <g id="line2d_1">
      <defs>
       <path id="m82ff594334" d="M 0 0 
L 0 3.5 
" style="stroke: #000000; stroke-width: 0.8"/>
      </defs>
      <g>
       <use xlink:href="#m82ff594334" x="80.427273" y="330.52" style="stroke: #000000; stroke-width: 0.8"/>
      </g>
     </g>
     <g id="text_1">
      <!-- 0.0 -->
      <g transform="translate(69.295085 348.157812) scale(0.14 -0.14)">
       <defs>
        <path id="DejaVuSans-30" d="M 2034 4250 
Q 1547 4250 1301 3770 
Q 1056 3291 1056 2328 
Q 1056 1369 1301 889 
Q 1547 409 2034 409 
Q 2525 409 2770 889 
Q 3016 1369 3016 2328 
Q 3016 3291 2770 3770 
Q 2525 4250 2034 4250 
z
M 2034 4750 
Q 2819 4750 3233 4129 
Q 3647 3509 3647 2328 
Q 3647 1150 3233 529 
Q 2819 -91 2034 -91 
Q 1250 -91 836 529 
Q 422 1150 422 2328 
Q 422 3509 836 4129 
Q 1250 4750 2034 4750 
z
" transform="scale(0.015625)"/>
        <path id="DejaVuSans-2e" d="M 684 794 
L 1344 794 
L 1344 0 
L 684 0 
L 684 794 
z
" transform="scale(0.015625)"/>
       </defs>
       <use xlink:href="#DejaVuSans-30"/>
       <use xlink:href="#DejaVuSans-2e" x="63.623047"/>
       <use xlink:href="#DejaVuSans-30" x="95.410156"/>
      </g>
     </g>
    </g>
    <g id="xtick_2">
     <g id="line2d_2">
      <g>
       <use xlink:href="#m82ff594334" x="153.656364" y="330.52" style="stroke: #000000; stroke-width: 0.8"/>
      </g>
     </g>
     <g id="text_2">
      <!-- 0.2 -->
      <g transform="translate(142.524176 348.157812) scale(0.14 -0.14)">
       <defs>
        <path id="DejaVuSans-32" d="M 1228 531 
L 3431 531 
L 3431 0 
L 469 0 
L 469 531 
Q 828 903 1448 1529 
Q 2069 2156 2228 2338 
Q 2531 2678 2651 2914 
Q 2772 3150 2772 3378 
Q 2772 3750 2511 3984 
Q 2250 4219 1831 4219 
Q 1534 4219 1204 4116 
Q 875 4013 500 3803 
L 500 4441 
Q 881 4594 1212 4672 
Q 1544 4750 1819 4750 
Q 2544 4750 2975 4387 
Q 3406 4025 3406 3419 
Q 3406 3131 3298 2873 
Q 3191 2616 2906 2266 
Q 2828 2175 2409 1742 
Q 1991 1309 1228 531 
z
" transform="scale(0.015625)"/>
       </defs>
       <use xlink:href="#DejaVuSans-30"/>
       <use xlink:href="#DejaVuSans-2e" x="63.623047"/>
       <use xlink:href="#DejaVuSans-32" x="95.410156"/>
      </g>
     </g>
    </g>
    <g id="xtick_3">
     <g id="line2d_3">
      <g>
       <use xlink:href="#m82ff594334" x="226.885455" y="330.52" style="stroke: #000000; stroke-width: 0.8"/>
      </g>
     </g>
     <g id="text_3">
      <!-- 0.4 -->
      <g transform="translate(215.753267 348.157812) scale(0.14 -0.14)">
       <defs>
        <path id="DejaVuSans-34" d="M 2419 4116 
L 825 1625 
L 2419 1625 
L 2419 4116 
z
M 2253 4666 
L 3047 4666 
L 3047 1625 
L 3713 1625 
L 3713 1100 
L 3047 1100 
L 3047 0 
L 2419 0 
L 2419 1100 
L 313 1100 
L 313 1709 
L 2253 4666 
z
" transform="scale(0.015625)"/>
       </defs>
       <use xlink:href="#DejaVuSans-30"/>
       <use xlink:href="#DejaVuSans-2e" x="63.623047"/>
       <use xlink:href="#DejaVuSans-34" x="95.410156"/>
      </g>
     </g>
    </g>
    <g id="xtick_4">
     <g id="line2d_4">
      <g>
       <use xlink:href="#m82ff594334" x="300.114545" y="330.52" style="stroke: #000000; stroke-width: 0.8"/>
      </g>
     </g>
     <g id="text_4">
      <!-- 0.6 -->
      <g transform="translate(288.982358 348.157812) scale(0.14 -0.14)">
       <defs>
        <path id="DejaVuSans-36" d="M 2113 2584 
Q 1688 2584 1439 2293 
Q 1191 2003 1191 1497 
Q 1191 994 1439 701 
Q 1688 409 2113 409 
Q 2538 409 2786 701 
Q 3034 994 3034 1497 
Q 3034 2003 2786 2293 
Q 2538 2584 2113 2584 
z
M 3366 4563 
L 3366 3988 
Q 3128 4100 2886 4159 
Q 2644 4219 2406 4219 
Q 1781 4219 1451 3797 
Q 1122 3375 1075 2522 
Q 1259 2794 1537 2939 
Q 1816 3084 2150 3084 
Q 2853 3084 3261 2657 
Q 3669 2231 3669 1497 
Q 3669 778 3244 343 
Q 2819 -91 2113 -91 
Q 1303 -91 875 529 
Q 447 1150 447 2328 
Q 447 3434 972 4092 
Q 1497 4750 2381 4750 
Q 2619 4750 2861 4703 
Q 3103 4656 3366 4563 
z
" transform="scale(0.015625)"/>
       </defs>
       <use xlink:href="#DejaVuSans-30"/>
       <use xlink:href="#DejaVuSans-2e" x="63.623047"/>
       <use xlink:href="#DejaVuSans-36" x="95.410156"/>
      </g>
     </g>
    </g>
    <g id="xtick_5">
     <g id="line2d_5">
      <g>
       <use xlink:href="#m82ff594334" x="373.343636" y="330.52" style="stroke: #000000; stroke-width: 0.8"/>
      </g>
     </g>
     <g id="text_5">
      <!-- 0.8 -->
      <g transform="translate(362.211449 348.157812) scale(0.14 -0.14)">
       <defs>
        <path id="DejaVuSans-38" d="M 2034 2216 
Q 1584 2216 1326 1975 
Q 1069 1734 1069 1313 
Q 1069 891 1326 650 
Q 1584 409 2034 409 
Q 2484 409 2743 651 
Q 3003 894 3003 1313 
Q 3003 1734 2745 1975 
Q 2488 2216 2034 2216 
z
M 1403 2484 
Q 997 2584 770 2862 
Q 544 3141 544 3541 
Q 544 4100 942 4425 
Q 1341 4750 2034 4750 
Q 2731 4750 3128 4425 
Q 3525 4100 3525 3541 
Q 3525 3141 3298 2862 
Q 3072 2584 2669 2484 
Q 3125 2378 3379 2068 
Q 3634 1759 3634 1313 
Q 3634 634 3220 271 
Q 2806 -91 2034 -91 
Q 1263 -91 848 271 
Q 434 634 434 1313 
Q 434 1759 690 2068 
Q 947 2378 1403 2484 
z
M 1172 3481 
Q 1172 3119 1398 2916 
Q 1625 2713 2034 2713 
Q 2441 2713 2670 2916 
Q 2900 3119 2900 3481 
Q 2900 3844 2670 4047 
Q 2441 4250 2034 4250 
Q 1625 4250 1398 4047 
Q 1172 3844 1172 3481 
z
" transform="scale(0.015625)"/>
       </defs>
       <use xlink:href="#DejaVuSans-30"/>
       <use xlink:href="#DejaVuSans-2e" x="63.623047"/>
       <use xlink:href="#DejaVuSans-38" x="95.410156"/>
      </g>
     </g>
    </g>
    <g id="xtick_6">
     <g id="line2d_6">
      <g>
       <use xlink:href="#m82ff594334" x="446.572727" y="330.52" style="stroke: #000000; stroke-width: 0.8"/>
      </g>
     </g>
     <g id="text_6">
      <!-- 1.0 -->
      <g transform="translate(435.44054 348.157812) scale(0.14 -0.14)">
       <defs>
        <path id="DejaVuSans-31" d="M 794 531 
L 1825 531 
L 1825 4091 
L 703 3866 
L 703 4441 
L 1819 4666 
L 2450 4666 
L 2450 531 
L 3481 531 
L 3481 0 
L 794 0 
L 794 531 
z
" transform="scale(0.015625)"/>
       </defs>
       <use xlink:href="#DejaVuSans-31"/>
       <use xlink:href="#DejaVuSans-2e" x="63.623047"/>
       <use xlink:href="#DejaVuSans-30" x="95.410156"/>
      </g>
     </g>
    </g>
    <g id="text_7">
     <!-- False Positive Rate -->
     <g transform="translate(198.447031 365.707187) scale(0.14 -0.14)">
      <defs>
       <path id="DejaVuSans-46" d="M 628 4666 
L 3309 4666 
L 3309 4134 
L 1259 4134 
L 1259 2759 
L 3109 2759 
L 3109 2228 
L 1259 2228 
L 1259 0 
L 628 0 
L 628 4666 
z
" transform="scale(0.015625)"/>
       <path id="DejaVuSans-61" d="M 2194 1759 
Q 1497 1759 1228 1600 
Q 959 1441 959 1056 
Q 959 750 1161 570 
Q 1363 391 1709 391 
Q 2188 391 2477 730 
Q 2766 1069 2766 1631 
L 2766 1759 
L 2194 1759 
z
M 3341 1997 
L 3341 0 
L 2766 0 
L 2766 531 
Q 2569 213 2275 61 
Q 1981 -91 1556 -91 
Q 1019 -91 701 211 
Q 384 513 384 1019 
Q 384 1609 779 1909 
Q 1175 2209 1959 2209 
L 2766 2209 
L 2766 2266 
Q 2766 2663 2505 2880 
Q 2244 3097 1772 3097 
Q 1472 3097 1187 3025 
Q 903 2953 641 2809 
L 641 3341 
Q 956 3463 1253 3523 
Q 1550 3584 1831 3584 
Q 2591 3584 2966 3190 
Q 3341 2797 3341 1997 
z
" transform="scale(0.015625)"/>
       <path id="DejaVuSans-6c" d="M 603 4863 
L 1178 4863 
L 1178 0 
L 603 0 
L 603 4863 
z
" transform="scale(0.015625)"/>
       <path id="DejaVuSans-73" d="M 2834 3397 
L 2834 2853 
Q 2591 2978 2328 3040 
Q 2066 3103 1784 3103 
Q 1356 3103 1142 2972 
Q 928 2841 928 2578 
Q 928 2378 1081 2264 
Q 1234 2150 1697 2047 
L 1894 2003 
Q 2506 1872 2764 1633 
Q 3022 1394 3022 966 
Q 3022 478 2636 193 
Q 2250 -91 1575 -91 
Q 1294 -91 989 -36 
Q 684 19 347 128 
L 347 722 
Q 666 556 975 473 
Q 1284 391 1588 391 
Q 1994 391 2212 530 
Q 2431 669 2431 922 
Q 2431 1156 2273 1281 
Q 2116 1406 1581 1522 
L 1381 1569 
Q 847 1681 609 1914 
Q 372 2147 372 2553 
Q 372 3047 722 3315 
Q 1072 3584 1716 3584 
Q 2034 3584 2315 3537 
Q 2597 3491 2834 3397 
z
" transform="scale(0.015625)"/>
       <path id="DejaVuSans-65" d="M 3597 1894 
L 3597 1613 
L 953 1613 
Q 991 1019 1311 708 
Q 1631 397 2203 397 
Q 2534 397 2845 478 
Q 3156 559 3463 722 
L 3463 178 
Q 3153 47 2828 -22 
Q 2503 -91 2169 -91 
Q 1331 -91 842 396 
Q 353 884 353 1716 
Q 353 2575 817 3079 
Q 1281 3584 2069 3584 
Q 2775 3584 3186 3129 
Q 3597 2675 3597 1894 
z
M 3022 2063 
Q 3016 2534 2758 2815 
Q 2500 3097 2075 3097 
Q 1594 3097 1305 2825 
Q 1016 2553 972 2059 
L 3022 2063 
z
" transform="scale(0.015625)"/>
       <path id="DejaVuSans-20" transform="scale(0.015625)"/>
       <path id="DejaVuSans-50" d="M 1259 4147 
L 1259 2394 
L 2053 2394 
Q 2494 2394 2734 2622 
Q 2975 2850 2975 3272 
Q 2975 3691 2734 3919 
Q 2494 4147 2053 4147 
L 1259 4147 
z
M 628 4666 
L 2053 4666 
Q 2838 4666 3239 4311 
Q 3641 3956 3641 3272 
Q 3641 2581 3239 2228 
Q 2838 1875 2053 1875 
L 1259 1875 
L 1259 0 
L 628 0 
L 628 4666 
z
" transform="scale(0.015625)"/>
       <path id="DejaVuSans-6f" d="M 1959 3097 
Q 1497 3097 1228 2736 
Q 959 2375 959 1747 
Q 959 1119 1226 758 
Q 1494 397 1959 397 
Q 2419 397 2687 759 
Q 2956 1122 2956 1747 
Q 2956 2369 2687 2733 
Q 2419 3097 1959 3097 
z
M 1959 3584 
Q 2709 3584 3137 3096 
Q 3566 2609 3566 1747 
Q 3566 888 3137 398 
Q 2709 -91 1959 -91 
Q 1206 -91 779 398 
Q 353 888 353 1747 
Q 353 2609 779 3096 
Q 1206 3584 1959 3584 
z
" transform="scale(0.015625)"/>
       <path id="DejaVuSans-69" d="M 603 3500 
L 1178 3500 
L 1178 0 
L 603 0 
L 603 3500 
z
M 603 4863 
L 1178 4863 
L 1178 4134 
L 603 4134 
L 603 4863 
z
" transform="scale(0.015625)"/>
       <path id="DejaVuSans-74" d="M 1172 4494 
L 1172 3500 
L 2356 3500 
L 2356 3053 
L 1172 3053 
L 1172 1153 
Q 1172 725 1289 603 
Q 1406 481 1766 481 
L 2356 481 
L 2356 0 
L 1766 0 
Q 1100 0 847 248 
Q 594 497 594 1153 
L 594 3053 
L 172 3053 
L 172 3500 
L 594 3500 
L 594 4494 
L 1172 4494 
z
" transform="scale(0.015625)"/>
       <path id="DejaVuSans-76" d="M 191 3500 
L 800 3500 
L 1894 563 
L 2988 3500 
L 3597 3500 
L 2284 0 
L 1503 0 
L 191 3500 
z
" transform="scale(0.015625)"/>
       <path id="DejaVuSans-52" d="M 2841 2188 
Q 3044 2119 3236 1894 
Q 3428 1669 3622 1275 
L 4263 0 
L 3584 0 
L 2988 1197 
Q 2756 1666 2539 1819 
Q 2322 1972 1947 1972 
L 1259 1972 
L 1259 0 
L 628 0 
L 628 4666 
L 2053 4666 
Q 2853 4666 3247 4331 
Q 3641 3997 3641 3322 
Q 3641 2881 3436 2590 
Q 3231 2300 2841 2188 
z
M 1259 4147 
L 1259 2491 
L 2053 2491 
Q 2509 2491 2742 2702 
Q 2975 2913 2975 3322 
Q 2975 3731 2742 3939 
Q 2509 4147 2053 4147 
L 1259 4147 
z
" transform="scale(0.015625)"/>
      </defs>
      <use xlink:href="#DejaVuSans-46"/>
      <use xlink:href="#DejaVuSans-61" x="48.394531"/>
      <use xlink:href="#DejaVuSans-6c" x="109.673828"/>
      <use xlink:href="#DejaVuSans-73" x="137.457031"/>
      <use xlink:href="#DejaVuSans-65" x="189.556641"/>
      <use xlink:href="#DejaVuSans-20" x="251.080078"/>
      <use xlink:href="#DejaVuSans-50" x="282.867188"/>
      <use xlink:href="#DejaVuSans-6f" x="339.544922"/>
      <use xlink:href="#DejaVuSans-73" x="400.726562"/>
      <use xlink:href="#DejaVuSans-69" x="452.826172"/>
      <use xlink:href="#DejaVuSans-74" x="480.609375"/>
      <use xlink:href="#DejaVuSans-69" x="519.818359"/>
      <use xlink:href="#DejaVuSans-76" x="547.601562"/>
      <use xlink:href="#DejaVuSans-65" x="606.78125"/>
      <use xlink:href="#DejaVuSans-20" x="668.304688"/>
      <use xlink:href="#DejaVuSans-52" x="700.091797"/>
      <use xlink:href="#DejaVuSans-61" x="767.324219"/>
      <use xlink:href="#DejaVuSans-74" x="828.603516"/>
      <use xlink:href="#DejaVuSans-65" x="867.8125"/>
     </g>
    </g>
   </g>
   <g id="matplotlib.axis_2">
    <g id="ytick_1">
     <g id="line2d_7">
      <defs>
       <path id="m3b6ee741c8" d="M 0 0 
L -3.5 0 
" style="stroke: #000000; stroke-width: 0.8"/>
      </defs>
      <g>
       <use xlink:href="#m3b6ee741c8" x="62.12" y="317.045455" style="stroke: #000000; stroke-width: 0.8"/>
      </g>
     </g>
     <g id="text_8">
      <!-- 0.0 -->
      <g transform="translate(32.855625 322.364361) scale(0.14 -0.14)">
       <use xlink:href="#DejaVuSans-30"/>
       <use xlink:href="#DejaVuSans-2e" x="63.623047"/>
       <use xlink:href="#DejaVuSans-30" x="95.410156"/>
      </g>
     </g>
    </g>
    <g id="ytick_2">
     <g id="line2d_8">
      <g>
       <use xlink:href="#m3b6ee741c8" x="62.12" y="263.147273" style="stroke: #000000; stroke-width: 0.8"/>
      </g>
     </g>
     <g id="text_9">
      <!-- 0.2 -->
      <g transform="translate(32.855625 268.466179) scale(0.14 -0.14)">
       <use xlink:href="#DejaVuSans-30"/>
       <use xlink:href="#DejaVuSans-2e" x="63.623047"/>
       <use xlink:href="#DejaVuSans-32" x="95.410156"/>
      </g>
     </g>
    </g>
    <g id="ytick_3">
     <g id="line2d_9">
      <g>
       <use xlink:href="#m3b6ee741c8" x="62.12" y="209.249091" style="stroke: #000000; stroke-width: 0.8"/>
      </g>
     </g>
     <g id="text_10">
      <!-- 0.4 -->
      <g transform="translate(32.855625 214.567997) scale(0.14 -0.14)">
       <use xlink:href="#DejaVuSans-30"/>
       <use xlink:href="#DejaVuSans-2e" x="63.623047"/>
       <use xlink:href="#DejaVuSans-34" x="95.410156"/>
      </g>
     </g>
    </g>
    <g id="ytick_4">
     <g id="line2d_10">
      <g>
       <use xlink:href="#m3b6ee741c8" x="62.12" y="155.350909" style="stroke: #000000; stroke-width: 0.8"/>
      </g>
     </g>
     <g id="text_11">
      <!-- 0.6 -->
      <g transform="translate(32.855625 160.669815) scale(0.14 -0.14)">
       <use xlink:href="#DejaVuSans-30"/>
       <use xlink:href="#DejaVuSans-2e" x="63.623047"/>
       <use xlink:href="#DejaVuSans-36" x="95.410156"/>
      </g>
     </g>
    </g>
    <g id="ytick_5">
     <g id="line2d_11">
      <g>
       <use xlink:href="#m3b6ee741c8" x="62.12" y="101.452727" style="stroke: #000000; stroke-width: 0.8"/>
      </g>
     </g>
     <g id="text_12">
      <!-- 0.8 -->
      <g transform="translate(32.855625 106.771634) scale(0.14 -0.14)">
       <use xlink:href="#DejaVuSans-30"/>
       <use xlink:href="#DejaVuSans-2e" x="63.623047"/>
       <use xlink:href="#DejaVuSans-38" x="95.410156"/>
      </g>
     </g>
    </g>
    <g id="ytick_6">
     <g id="line2d_12">
      <g>
       <use xlink:href="#m3b6ee741c8" x="62.12" y="47.554545" style="stroke: #000000; stroke-width: 0.8"/>
      </g>
     </g>
     <g id="text_13">
      <!-- 1.0 -->
      <g transform="translate(32.855625 52.873452) scale(0.14 -0.14)">
       <use xlink:href="#DejaVuSans-31"/>
       <use xlink:href="#DejaVuSans-2e" x="63.623047"/>
       <use xlink:href="#DejaVuSans-30" x="95.410156"/>
      </g>
     </g>
    </g>
    <g id="text_14">
     <!-- True Positive Rate -->
     <g transform="translate(25.944063 244.641563) rotate(-90) scale(0.14 -0.14)">
      <defs>
       <path id="DejaVuSans-54" d="M -19 4666 
L 3928 4666 
L 3928 4134 
L 2272 4134 
L 2272 0 
L 1638 0 
L 1638 4134 
L -19 4134 
L -19 4666 
z
" transform="scale(0.015625)"/>
       <path id="DejaVuSans-72" d="M 2631 2963 
Q 2534 3019 2420 3045 
Q 2306 3072 2169 3072 
Q 1681 3072 1420 2755 
Q 1159 2438 1159 1844 
L 1159 0 
L 581 0 
L 581 3500 
L 1159 3500 
L 1159 2956 
Q 1341 3275 1631 3429 
Q 1922 3584 2338 3584 
Q 2397 3584 2469 3576 
Q 2541 3569 2628 3553 
L 2631 2963 
z
" transform="scale(0.015625)"/>
       <path id="DejaVuSans-75" d="M 544 1381 
L 544 3500 
L 1119 3500 
L 1119 1403 
Q 1119 906 1312 657 
Q 1506 409 1894 409 
Q 2359 409 2629 706 
Q 2900 1003 2900 1516 
L 2900 3500 
L 3475 3500 
L 3475 0 
L 2900 0 
L 2900 538 
Q 2691 219 2414 64 
Q 2138 -91 1772 -91 
Q 1169 -91 856 284 
Q 544 659 544 1381 
z
M 1991 3584 
L 1991 3584 
z
" transform="scale(0.015625)"/>
      </defs>
      <use xlink:href="#DejaVuSans-54"/>
      <use xlink:href="#DejaVuSans-72" x="46.333984"/>
      <use xlink:href="#DejaVuSans-75" x="87.447266"/>
      <use xlink:href="#DejaVuSans-65" x="150.826172"/>
      <use xlink:href="#DejaVuSans-20" x="212.349609"/>
      <use xlink:href="#DejaVuSans-50" x="244.136719"/>
      <use xlink:href="#DejaVuSans-6f" x="300.814453"/>
      <use xlink:href="#DejaVuSans-73" x="361.996094"/>
      <use xlink:href="#DejaVuSans-69" x="414.095703"/>
      <use xlink:href="#DejaVuSans-74" x="441.878906"/>
      <use xlink:href="#DejaVuSans-69" x="481.087891"/>
      <use xlink:href="#DejaVuSans-76" x="508.871094"/>
      <use xlink:href="#DejaVuSans-65" x="568.050781"/>
      <use xlink:href="#DejaVuSans-20" x="629.574219"/>
      <use xlink:href="#DejaVuSans-52" x="661.361328"/>
      <use xlink:href="#DejaVuSans-61" x="728.59375"/>
      <use xlink:href="#DejaVuSans-74" x="789.873047"/>
      <use xlink:href="#DejaVuSans-65" x="829.082031"/>
     </g>
    </g>
   </g>
   <g id="line2d_13">
    <path d="M 80.427273 317.045455 
L 80.427273 314.17853 
L 80.427273 302.710832 
L 83.5302 302.710832 
L 83.5302 299.843907 
L 86.633128 299.843907 
L 86.633128 296.976983 
L 89.736055 296.976983 
L 89.736055 288.376209 
L 95.941911 288.376209 
L 95.941911 276.908511 
L 99.044838 276.908511 
L 99.044838 265.440812 
L 105.250693 265.440812 
L 105.250693 262.573888 
L 111.456549 262.573888 
L 111.456549 259.706963 
L 117.662404 259.706963 
L 117.662404 256.840039 
L 120.765331 256.840039 
L 120.765331 245.37234 
L 123.868259 245.37234 
L 123.868259 242.505416 
L 126.971186 242.505416 
L 126.971186 239.638491 
L 130.074114 239.638491 
L 130.074114 231.037718 
L 136.279969 231.037718 
L 136.279969 219.570019 
L 145.588752 219.570019 
L 145.588752 216.703095 
L 148.69168 216.703095 
L 148.69168 210.969246 
L 151.794607 210.969246 
L 151.794607 208.102321 
L 154.897535 208.102321 
L 154.897535 199.501547 
L 161.10339 199.501547 
L 161.10339 188.033849 
L 170.412173 188.033849 
L 170.412173 182.3 
L 176.618028 182.3 
L 176.618028 179.433075 
L 179.720955 179.433075 
L 179.720955 176.566151 
L 189.029738 176.566151 
L 189.029738 173.699226 
L 198.338521 173.699226 
L 198.338521 170.832302 
L 204.544376 170.832302 
L 204.544376 167.965377 
L 229.367797 167.965377 
L 229.367797 165.098453 
L 241.779507 165.098453 
L 241.779507 159.364603 
L 254.191217 159.364603 
L 254.191217 156.497679 
L 263.5 156.497679 
L 263.5 153.630754 
L 266.602928 153.630754 
L 266.602928 150.76383 
L 275.91171 150.76383 
L 275.91171 145.029981 
L 300.735131 145.029981 
L 300.735131 136.429207 
L 303.838059 136.429207 
L 303.838059 127.828433 
L 325.558552 127.828433 
L 325.558552 124.961509 
L 337.970262 124.961509 
L 337.970262 122.094584 
L 344.176117 122.094584 
L 344.176117 110.626886 
L 347.279045 110.626886 
L 347.279045 107.759961 
L 353.4849 107.759961 
L 353.4849 99.159188 
L 362.793683 99.159188 
L 362.793683 96.292263 
L 375.205393 96.292263 
L 375.205393 93.425338 
L 381.411248 93.425338 
L 381.411248 90.558414 
L 387.617103 90.558414 
L 387.617103 81.95764 
L 390.720031 81.95764 
L 390.720031 79.090716 
L 400.028814 79.090716 
L 400.028814 64.756093 
L 418.646379 64.756093 
L 418.646379 59.022244 
L 431.058089 59.022244 
L 431.058089 56.155319 
L 434.161017 56.155319 
L 434.161017 53.288395 
L 437.263945 53.288395 
L 437.263945 50.42147 
L 446.572727 50.42147 
L 446.572727 47.554545 
" clip-path="url(#p8d490c37de)" style="fill: none; stroke: #1f77b4; stroke-opacity: 0.66; stroke-width: 1.5; stroke-linecap: square"/>
   </g>
   <g id="line2d_14">
    <path d="M 80.427273 317.045455 
L 86.06028 317.045455 
L 86.06028 305.328458 
L 102.959301 305.328458 
L 102.959301 293.611462 
L 108.592308 293.611462 
L 108.592308 246.743478 
L 119.858322 246.743478 
L 119.858322 223.309486 
L 136.757343 223.309486 
L 136.757343 211.59249 
L 181.821399 211.59249 
L 181.821399 188.158498 
L 187.454406 188.158498 
L 187.454406 176.441502 
L 193.087413 176.441502 
L 193.087413 164.724506 
L 215.619441 164.724506 
L 215.619441 153.00751 
L 277.582517 153.00751 
L 277.582517 141.290514 
L 305.747552 141.290514 
L 305.747552 117.856522 
L 317.013566 117.856522 
L 317.013566 106.139526 
L 328.27958 106.139526 
L 328.27958 94.42253 
L 333.912587 94.42253 
L 333.912587 82.705534 
L 345.178601 82.705534 
L 345.178601 70.988538 
L 350.811608 70.988538 
L 350.811608 59.271542 
L 367.710629 59.271542 
L 367.710629 47.554545 
L 446.572727 47.554545 
" clip-path="url(#p8d490c37de)" style="fill: none; stroke: #ff7f0e; stroke-opacity: 0.66; stroke-width: 1.5; stroke-linecap: square"/>
   </g>
   <g id="line2d_15">
    <path d="M 80.427273 317.045455 
L 80.427273 313.023202 
L 80.427273 309.00095 
L 83.478485 309.00095 
L 83.478485 296.934193 
L 86.529697 296.934193 
L 86.529697 288.889688 
L 89.580909 288.889688 
L 89.580909 272.800678 
L 92.632121 272.800678 
L 92.632121 256.711669 
L 95.683333 256.711669 
L 95.683333 252.689417 
L 98.734545 252.689417 
L 98.734545 248.667164 
L 104.83697 248.667164 
L 104.83697 232.578155 
L 107.888182 232.578155 
L 107.888182 228.555902 
L 110.939394 228.555902 
L 110.939394 220.511398 
L 117.041818 220.511398 
L 117.041818 216.489145 
L 120.09303 216.489145 
L 120.09303 212.466893 
L 123.144242 212.466893 
L 123.144242 208.44464 
L 141.451515 208.44464 
L 141.451515 200.400136 
L 147.553939 200.400136 
L 147.553939 188.333379 
L 153.656364 188.333379 
L 153.656364 184.311126 
L 156.707576 184.311126 
L 156.707576 180.288874 
L 159.758788 180.288874 
L 159.758788 176.266621 
L 165.861212 176.266621 
L 165.861212 172.244369 
L 171.963636 172.244369 
L 171.963636 168.222117 
L 175.014848 168.222117 
L 175.014848 164.199864 
L 184.168485 164.199864 
L 184.168485 160.177612 
L 202.475758 160.177612 
L 202.475758 152.133107 
L 211.629394 152.133107 
L 211.629394 148.110855 
L 214.680606 148.110855 
L 214.680606 136.044098 
L 217.731818 136.044098 
L 217.731818 123.977341 
L 223.834242 123.977341 
L 223.834242 119.955088 
L 226.885455 119.955088 
L 226.885455 99.843826 
L 232.987879 99.843826 
L 232.987879 95.821574 
L 236.039091 95.821574 
L 236.039091 91.799322 
L 260.448788 91.799322 
L 260.448788 87.777069 
L 281.807273 87.777069 
L 281.807273 83.754817 
L 290.960909 83.754817 
L 290.960909 79.732564 
L 294.012121 79.732564 
L 294.012121 75.710312 
L 297.063333 75.710312 
L 297.063333 67.665807 
L 315.370606 67.665807 
L 315.370606 63.643555 
L 336.729091 63.643555 
L 336.729091 55.59905 
L 364.19 55.59905 
L 364.19 47.554545 
L 446.572727 47.554545 
" clip-path="url(#p8d490c37de)" style="fill: none; stroke: #2ca02c; stroke-opacity: 0.66; stroke-width: 1.5; stroke-linecap: square"/>
   </g>
   <g id="line2d_16">
    <path d="M 80.427273 317.045455 
L 80.427273 314.761633 
L 80.427273 312.477812 
L 83.611146 312.477812 
L 83.611146 307.910169 
L 89.978893 307.910169 
L 89.978893 298.774884 
L 99.530514 298.774884 
L 99.530514 291.923421 
L 102.714387 291.923421 
L 102.714387 289.639599 
L 105.898261 289.639599 
L 105.898261 262.233744 
L 121.817628 262.233744 
L 121.817628 257.666102 
L 128.185375 257.666102 
L 128.185375 255.38228 
L 131.369249 255.38228 
L 131.369249 253.098459 
L 134.553123 253.098459 
L 134.553123 250.814638 
L 137.736996 250.814638 
L 137.736996 248.530817 
L 140.92087 248.530817 
L 140.92087 246.246995 
L 144.104743 246.246995 
L 144.104743 243.963174 
L 156.840237 243.963174 
L 156.840237 241.679353 
L 166.391858 241.679353 
L 166.391858 239.395532 
L 169.575731 239.395532 
L 169.575731 234.827889 
L 175.943478 234.827889 
L 175.943478 232.544068 
L 191.862846 232.544068 
L 191.862846 230.260247 
L 198.230593 230.260247 
L 198.230593 225.692604 
L 204.59834 225.692604 
L 204.59834 221.124961 
L 226.885455 221.124961 
L 226.885455 218.84114 
L 230.069328 218.84114 
L 230.069328 214.273498 
L 233.253202 214.273498 
L 233.253202 211.989676 
L 236.437075 211.989676 
L 236.437075 209.705855 
L 245.988696 209.705855 
L 245.988696 207.422034 
L 249.172569 207.422034 
L 249.172569 205.138213 
L 258.72419 205.138213 
L 258.72419 193.719106 
L 261.908063 193.719106 
L 261.908063 189.151464 
L 265.091937 189.151464 
L 265.091937 186.867643 
L 274.643557 186.867643 
L 274.643557 177.732357 
L 281.011304 177.732357 
L 281.011304 175.448536 
L 293.746798 175.448536 
L 293.746798 168.597072 
L 300.114545 168.597072 
L 300.114545 166.313251 
L 306.482292 166.313251 
L 306.482292 161.745609 
L 312.85004 161.745609 
L 312.85004 159.461787 
L 316.033913 159.461787 
L 316.033913 148.042681 
L 319.217787 148.042681 
L 319.217787 143.475039 
L 322.40166 143.475039 
L 322.40166 141.191217 
L 325.585534 141.191217 
L 325.585534 138.907396 
L 331.953281 138.907396 
L 331.953281 132.055932 
L 335.137154 132.055932 
L 335.137154 129.772111 
L 338.321028 129.772111 
L 338.321028 127.48829 
L 341.504901 127.48829 
L 341.504901 120.636826 
L 344.688775 120.636826 
L 344.688775 111.501541 
L 347.872648 111.501541 
L 347.872648 109.21772 
L 351.056522 109.21772 
L 351.056522 104.650077 
L 360.608142 104.650077 
L 360.608142 102.366256 
L 363.792016 102.366256 
L 363.792016 95.514792 
L 366.975889 95.514792 
L 366.975889 93.230971 
L 370.159763 93.230971 
L 370.159763 81.811864 
L 376.52751 81.811864 
L 376.52751 77.244222 
L 379.711383 77.244222 
L 379.711383 68.108937 
L 382.895257 68.108937 
L 382.895257 65.825116 
L 386.07913 65.825116 
L 386.07913 63.541294 
L 389.263004 63.541294 
L 389.263004 61.257473 
L 398.814625 61.257473 
L 398.814625 58.973652 
L 411.550119 58.973652 
L 411.550119 56.689831 
L 414.733992 56.689831 
L 414.733992 54.406009 
L 424.285613 54.406009 
L 424.285613 52.122188 
L 427.469486 52.122188 
L 427.469486 49.838367 
L 430.65336 49.838367 
L 430.65336 47.554545 
L 446.572727 47.554545 
" clip-path="url(#p8d490c37de)" style="fill: none; stroke: #d62728; stroke-opacity: 0.66; stroke-width: 1.5; stroke-linecap: square"/>
   </g>
   <g id="line2d_17">
    <path d="M 80.427273 317.045455 
L 82.36455 317.045455 
L 82.36455 310.536012 
L 84.301828 310.536012 
L 84.301828 309.234124 
L 86.239105 309.234124 
L 86.239105 307.932235 
L 88.176383 307.932235 
L 88.176383 304.02657 
L 90.11366 304.02657 
L 90.11366 301.422793 
L 92.050938 301.422793 
L 92.050938 300.120905 
L 93.988215 300.120905 
L 93.988215 291.007686 
L 95.925493 291.007686 
L 95.925493 289.705797 
L 97.862771 289.705797 
L 97.862771 287.10202 
L 99.800048 287.10202 
L 99.800048 285.800132 
L 103.674603 285.800132 
L 103.674603 283.196355 
L 105.611881 283.196355 
L 105.611881 281.894466 
L 107.549158 281.894466 
L 107.549158 280.592578 
L 109.486436 280.592578 
L 109.486436 279.29069 
L 111.423713 279.29069 
L 111.423713 270.17747 
L 115.298268 270.17747 
L 115.298268 268.875582 
L 117.235546 268.875582 
L 117.235546 254.554809 
L 119.172823 254.554809 
L 119.172823 251.951032 
L 123.047379 251.951032 
L 123.047379 246.743478 
L 128.859211 246.743478 
L 128.859211 242.837813 
L 130.796489 242.837813 
L 130.796489 240.234036 
L 132.733766 240.234036 
L 132.733766 237.630259 
L 134.671044 237.630259 
L 134.671044 233.724594 
L 138.545599 233.724594 
L 138.545599 231.120817 
L 142.420154 231.120817 
L 142.420154 229.818928 
L 146.294709 229.818928 
L 146.294709 227.215152 
L 150.169264 227.215152 
L 150.169264 222.007598 
L 163.730207 222.007598 
L 163.730207 216.800044 
L 165.667484 216.800044 
L 165.667484 214.196267 
L 167.604762 214.196267 
L 167.604762 210.290602 
L 171.479317 210.290602 
L 171.479317 207.686825 
L 173.416595 207.686825 
L 173.416595 206.384936 
L 175.353872 206.384936 
L 175.353872 195.969829 
L 177.29115 195.969829 
L 177.29115 194.66794 
L 179.228427 194.66794 
L 179.228427 192.064163 
L 190.852092 192.064163 
L 190.852092 190.762275 
L 194.726647 190.762275 
L 194.726647 185.554721 
L 196.663925 185.554721 
L 196.663925 184.252833 
L 200.53848 184.252833 
L 200.53848 180.347167 
L 202.475758 180.347167 
L 202.475758 179.045279 
L 204.413035 179.045279 
L 204.413035 177.74339 
L 206.350313 177.74339 
L 206.350313 173.837725 
L 212.162145 173.837725 
L 212.162145 172.535837 
L 217.973978 172.535837 
L 217.973978 171.233948 
L 219.911255 171.233948 
L 219.911255 166.026394 
L 225.723088 166.026394 
L 225.723088 163.422617 
L 231.534921 163.422617 
L 231.534921 160.818841 
L 235.409476 160.818841 
L 235.409476 156.913175 
L 237.346753 156.913175 
L 237.346753 149.101845 
L 241.221308 149.101845 
L 241.221308 147.799956 
L 243.158586 147.799956 
L 243.158586 143.894291 
L 245.095863 143.894291 
L 245.095863 141.290514 
L 247.033141 141.290514 
L 247.033141 139.988625 
L 250.907696 139.988625 
L 250.907696 137.384848 
L 256.719529 137.384848 
L 256.719529 136.08296 
L 258.656806 136.08296 
L 258.656806 132.177295 
L 264.468639 132.177295 
L 264.468639 130.875406 
L 278.029582 130.875406 
L 278.029582 129.573518 
L 285.778692 129.573518 
L 285.778692 128.271629 
L 295.465079 128.271629 
L 295.465079 123.064076 
L 299.339634 123.064076 
L 299.339634 120.460299 
L 307.088745 120.460299 
L 307.088745 115.252745 
L 309.026022 115.252745 
L 309.026022 112.648968 
L 312.900577 112.648968 
L 312.900577 108.743303 
L 314.837855 108.743303 
L 314.837855 104.837637 
L 320.649687 104.837637 
L 320.649687 100.931972 
L 322.586965 100.931972 
L 322.586965 94.42253 
L 328.398797 94.42253 
L 328.398797 90.516864 
L 332.273353 90.516864 
L 332.273353 87.913087 
L 336.147908 87.913087 
L 336.147908 86.611199 
L 341.95974 86.611199 
L 341.95974 85.30931 
L 355.520683 85.30931 
L 355.520683 84.007422 
L 357.457961 84.007422 
L 357.457961 77.49798 
L 365.207071 77.49798 
L 365.207071 74.894203 
L 369.081626 74.894203 
L 369.081626 72.290426 
L 371.018903 72.290426 
L 371.018903 70.988538 
L 376.830736 70.988538 
L 376.830736 69.686649 
L 380.705291 69.686649 
L 380.705291 67.082872 
L 382.642569 67.082872 
L 382.642569 65.780984 
L 384.579846 65.780984 
L 384.579846 64.479095 
L 388.454401 64.479095 
L 388.454401 63.177207 
L 394.266234 63.177207 
L 394.266234 61.875318 
L 396.203511 61.875318 
L 396.203511 57.969653 
L 405.889899 57.969653 
L 405.889899 55.365876 
L 415.576287 55.365876 
L 415.576287 54.063988 
L 419.450842 54.063988 
L 419.450842 50.158322 
L 423.325397 50.158322 
L 423.325397 48.856434 
L 438.823617 48.856434 
L 438.823617 47.554545 
L 446.572727 47.554545 
L 446.572727 47.554545 
" clip-path="url(#p8d490c37de)" style="fill: none; stroke: #9467bd; stroke-opacity: 0.66; stroke-width: 1.5; stroke-linecap: square"/>
   </g>
   <g id="line2d_18">
    <path d="M 80.427273 317.045455 
L 80.427273 315.441342 
L 80.427273 249.672727 
L 84.588017 249.672727 
L 84.588017 236.839827 
L 88.74876 236.839827 
L 88.74876 235.235714 
L 92.909504 235.235714 
L 92.909504 209.569913 
L 97.070248 209.569913 
L 97.070248 183.904113 
L 101.230992 183.904113 
L 101.230992 180.695887 
L 109.552479 180.695887 
L 109.552479 148.613636 
L 117.873967 148.613636 
L 117.873967 143.801299 
L 126.195455 143.801299 
L 126.195455 132.572511 
L 130.356198 132.572511 
L 130.356198 129.364286 
L 134.516942 129.364286 
L 134.516942 127.760173 
L 138.677686 127.760173 
L 138.677686 122.947835 
L 142.83843 122.947835 
L 142.83843 116.531385 
L 151.159917 116.531385 
L 151.159917 110.114935 
L 155.320661 110.114935 
L 155.320661 100.49026 
L 163.642149 100.49026 
L 163.642149 98.886147 
L 171.963636 98.886147 
L 171.963636 94.07381 
L 176.12438 94.07381 
L 176.12438 89.261472 
L 184.445868 89.261472 
L 184.445868 82.845022 
L 196.928099 82.845022 
L 196.928099 73.220346 
L 201.088843 73.220346 
L 201.088843 66.803896 
L 205.249587 66.803896 
L 205.249587 61.991558 
L 213.571074 61.991558 
L 213.571074 60.387446 
L 230.21405 60.387446 
L 230.21405 55.575108 
L 263.5 55.575108 
L 263.5 53.970996 
L 330.071901 53.970996 
L 330.071901 52.366883 
L 342.554132 52.366883 
L 342.554132 50.762771 
L 346.714876 50.762771 
L 346.714876 49.158658 
L 371.679339 49.158658 
L 371.679339 47.554545 
L 446.572727 47.554545 
" clip-path="url(#p8d490c37de)" style="fill: none; stroke: #8c564b; stroke-opacity: 0.66; stroke-width: 1.5; stroke-linecap: square"/>
   </g>
   <g id="line2d_19">
    <path d="M 80.427273 317.045455 
L 80.427273 315.453189 
L 80.954101 315.453189 
L 80.954101 309.880261 
L 81.480929 309.880261 
L 81.480929 307.889929 
L 82.007757 307.889929 
L 82.007757 307.491862 
L 82.534585 307.491862 
L 82.534585 306.297663 
L 83.588241 306.297663 
L 83.588241 303.511199 
L 84.115069 303.511199 
L 84.115069 301.122801 
L 84.641897 301.122801 
L 84.641897 297.93827 
L 85.168725 297.93827 
L 85.168725 295.947939 
L 85.695553 295.947939 
L 85.695553 293.957607 
L 86.222381 293.957607 
L 86.222381 291.569209 
L 86.749209 291.569209 
L 86.749209 289.976944 
L 87.276037 289.976944 
L 87.276037 289.180811 
L 87.802865 289.180811 
L 87.802865 287.588546 
L 88.329693 287.588546 
L 88.329693 287.190479 
L 89.383349 287.190479 
L 89.383349 284.802081 
L 89.910177 284.802081 
L 89.910177 284.005949 
L 90.437005 284.005949 
L 90.437005 280.423352 
L 90.963833 280.423352 
L 90.963833 272.860091 
L 91.490661 272.860091 
L 91.490661 271.267826 
L 92.017489 271.267826 
L 92.017489 270.073627 
L 92.544317 270.073627 
L 92.544317 269.277494 
L 93.071145 269.277494 
L 93.071145 266.49103 
L 93.597973 266.49103 
L 93.597973 266.092964 
L 94.124801 266.092964 
L 94.124801 262.908433 
L 95.178457 262.908433 
L 95.178457 262.1123 
L 95.705284 262.1123 
L 95.705284 261.714234 
L 96.75894 261.714234 
L 96.75894 258.92777 
L 97.285768 258.92777 
L 97.285768 258.529703 
L 98.866252 258.529703 
L 98.866252 257.733571 
L 99.39308 257.733571 
L 99.39308 253.354841 
L 99.919908 253.354841 
L 99.919908 252.558708 
L 100.446736 252.558708 
L 100.446736 251.364509 
L 100.973564 251.364509 
L 100.973564 250.568377 
L 102.554048 250.568377 
L 102.554048 250.17031 
L 103.607704 250.17031 
L 103.607704 244.199315 
L 104.134532 244.199315 
L 104.134532 243.403182 
L 104.66136 243.403182 
L 104.66136 243.005116 
L 105.715016 243.005116 
L 105.715016 241.810917 
L 106.241844 241.810917 
L 106.241844 240.616718 
L 106.768672 240.616718 
L 106.768672 239.820585 
L 107.822328 239.820585 
L 107.822328 237.432187 
L 108.349156 237.432187 
L 108.349156 235.839922 
L 109.402812 235.839922 
L 109.402812 235.043789 
L 109.92964 235.043789 
L 109.92964 234.645723 
L 110.456468 234.645723 
L 110.456468 234.247657 
L 110.983296 234.247657 
L 110.983296 233.053458 
L 111.510124 233.053458 
L 111.510124 232.257325 
L 112.56378 232.257325 
L 112.56378 231.063126 
L 113.090608 231.063126 
L 113.090608 230.66506 
L 114.144264 230.66506 
L 114.144264 229.868927 
L 115.19792 229.868927 
L 115.19792 228.674728 
L 115.724748 228.674728 
L 115.724748 227.878595 
L 116.251576 227.878595 
L 116.251576 227.480529 
L 116.778404 227.480529 
L 116.778404 225.888264 
L 117.83206 225.888264 
L 117.83206 223.499866 
L 118.358888 223.499866 
L 118.358888 222.305667 
L 118.885716 222.305667 
L 118.885716 221.9076 
L 120.4662 221.9076 
L 120.4662 220.713401 
L 120.993028 220.713401 
L 120.993028 220.315335 
L 121.519856 220.315335 
L 121.519856 219.917269 
L 123.10034 219.917269 
L 123.10034 219.121136 
L 124.153996 219.121136 
L 124.153996 217.926937 
L 124.680824 217.926937 
L 124.680824 216.732738 
L 125.207652 216.732738 
L 125.207652 214.742406 
L 125.73448 214.742406 
L 125.73448 213.946274 
L 126.261308 213.946274 
L 126.261308 213.548207 
L 127.841792 213.548207 
L 127.841792 211.557876 
L 128.36862 211.557876 
L 128.36862 210.363677 
L 128.895448 210.363677 
L 128.895448 207.179146 
L 129.949104 207.179146 
L 129.949104 206.383013 
L 130.475932 206.383013 
L 130.475932 205.984947 
L 131.00276 205.984947 
L 131.00276 205.188814 
L 133.110072 205.188814 
L 133.110072 204.790748 
L 133.6369 204.790748 
L 133.6369 203.198483 
L 135.217384 203.198483 
L 135.217384 201.606217 
L 135.744212 201.606217 
L 135.744212 200.013952 
L 136.27104 200.013952 
L 136.27104 199.217819 
L 136.797868 199.217819 
L 136.797868 198.819753 
L 137.324696 198.819753 
L 137.324696 198.02362 
L 137.851524 198.02362 
L 137.851524 196.829421 
L 138.378352 196.829421 
L 138.378352 196.033289 
L 139.958836 196.033289 
L 139.958836 194.83909 
L 141.012492 194.83909 
L 141.012492 193.644891 
L 143.646632 193.644891 
L 143.646632 192.450692 
L 144.17346 192.450692 
L 144.17346 191.654559 
L 144.700288 191.654559 
L 144.700288 190.062294 
L 145.227116 190.062294 
L 145.227116 189.664227 
L 146.280772 189.664227 
L 146.280772 188.470028 
L 147.861256 188.470028 
L 147.861256 186.877763 
L 148.388084 186.877763 
L 148.388084 186.08163 
L 149.44174 186.08163 
L 149.44174 185.683564 
L 150.495396 185.683564 
L 150.495396 185.285498 
L 154.71002 185.285498 
L 154.71002 184.489365 
L 155.236848 184.489365 
L 155.236848 184.091299 
L 157.34416 184.091299 
L 157.34416 180.906768 
L 157.870988 180.906768 
L 157.870988 180.508701 
L 158.924644 180.508701 
L 158.924644 179.314502 
L 159.9783 179.314502 
L 159.9783 178.916436 
L 161.031956 178.916436 
L 161.031956 178.51837 
L 162.085612 178.51837 
L 162.085612 177.324171 
L 162.61244 177.324171 
L 162.61244 176.129972 
L 163.666095 176.129972 
L 163.666095 175.333839 
L 165.246579 175.333839 
L 165.246579 174.935773 
L 165.773407 174.935773 
L 165.773407 174.13964 
L 167.353891 174.13964 
L 167.353891 172.945441 
L 168.407547 172.945441 
L 168.407547 172.547375 
L 170.514859 172.547375 
L 170.514859 172.149308 
L 171.041687 172.149308 
L 171.041687 171.353176 
L 172.095343 171.353176 
L 172.095343 170.557043 
L 172.622171 170.557043 
L 172.622171 170.158977 
L 173.675827 170.158977 
L 173.675827 169.76091 
L 174.729483 169.76091 
L 174.729483 166.974446 
L 175.256311 166.974446 
L 175.256311 166.57638 
L 176.309967 166.57638 
L 176.309967 166.178313 
L 176.836795 166.178313 
L 176.836795 165.780247 
L 179.470935 165.780247 
L 179.470935 165.382181 
L 181.051419 165.382181 
L 181.051419 164.984114 
L 182.105075 164.984114 
L 182.105075 164.586048 
L 182.631903 164.586048 
L 182.631903 164.187982 
L 183.158731 164.187982 
L 183.158731 163.391849 
L 183.685559 163.391849 
L 183.685559 162.993783 
L 184.212387 162.993783 
L 184.212387 162.595716 
L 187.373355 162.595716 
L 187.373355 162.19765 
L 187.900183 162.19765 
L 187.900183 161.799584 
L 188.953839 161.799584 
L 188.953839 161.401517 
L 189.480667 161.401517 
L 189.480667 161.003451 
L 191.587979 161.003451 
L 191.587979 160.605385 
L 196.329431 160.605385 
L 196.329431 159.411186 
L 197.909915 159.411186 
L 197.909915 159.013119 
L 198.963571 159.013119 
L 198.963571 157.81892 
L 199.490399 157.81892 
L 199.490399 157.420854 
L 201.070883 157.420854 
L 201.070883 157.022788 
L 203.705023 157.022788 
L 203.705023 156.624721 
L 204.231851 156.624721 
L 204.231851 154.63439 
L 207.919647 154.63439 
L 207.919647 154.236323 
L 210.026959 154.236323 
L 210.026959 153.042124 
L 210.553787 153.042124 
L 210.553787 150.653726 
L 213.714755 150.653726 
L 213.714755 150.25566 
L 215.295239 150.25566 
L 215.295239 149.061461 
L 215.822067 149.061461 
L 215.822067 147.469196 
L 217.929379 147.469196 
L 217.929379 147.071129 
L 221.617175 147.071129 
L 221.617175 146.673063 
L 222.144003 146.673063 
L 222.144003 145.87693 
L 223.197659 145.87693 
L 223.197659 145.478864 
L 224.778143 145.478864 
L 224.778143 145.080798 
L 226.358627 145.080798 
L 226.358627 144.284665 
L 228.992767 144.284665 
L 228.992767 143.488532 
L 230.046422 143.488532 
L 230.046422 143.090466 
L 233.20739 143.090466 
L 233.20739 142.6924 
L 233.734218 142.6924 
L 233.734218 141.100134 
L 235.314702 141.100134 
L 235.314702 140.304002 
L 235.84153 140.304002 
L 235.84153 139.507869 
L 236.368358 139.507869 
L 236.368358 139.109803 
L 236.895186 139.109803 
L 236.895186 138.711736 
L 239.529326 138.711736 
L 239.529326 138.31367 
L 240.056154 138.31367 
L 240.056154 137.517537 
L 241.10981 137.517537 
L 241.10981 137.119471 
L 241.636638 137.119471 
L 241.636638 136.323338 
L 242.163466 136.323338 
L 242.163466 135.129139 
L 243.217122 135.129139 
L 243.217122 134.731073 
L 244.270778 134.731073 
L 244.270778 134.333007 
L 246.37809 134.333007 
L 246.37809 133.536874 
L 246.904918 133.536874 
L 246.904918 132.342675 
L 248.485402 132.342675 
L 248.485402 131.546542 
L 249.539058 131.546542 
L 249.539058 131.148476 
L 250.065886 131.148476 
L 250.065886 130.75041 
L 251.119542 130.75041 
L 251.119542 130.352343 
L 251.64637 130.352343 
L 251.64637 128.760078 
L 253.226854 128.760078 
L 253.226854 128.362012 
L 253.753682 128.362012 
L 253.753682 127.963945 
L 255.860994 127.963945 
L 255.860994 126.769746 
L 256.387822 126.769746 
L 256.387822 126.37168 
L 257.968306 126.37168 
L 257.968306 125.973614 
L 259.54879 125.973614 
L 259.54879 124.381348 
L 260.075618 124.381348 
L 260.075618 123.983282 
L 262.709758 123.983282 
L 262.709758 123.585216 
L 263.236586 123.585216 
L 263.236586 123.187149 
L 265.343898 123.187149 
L 265.343898 122.391017 
L 268.504866 122.391017 
L 268.504866 121.594884 
L 269.031694 121.594884 
L 269.031694 120.400685 
L 270.08535 120.400685 
L 270.08535 120.002619 
L 272.192662 120.002619 
L 272.192662 118.410353 
L 273.773146 118.410353 
L 273.773146 118.012287 
L 275.35363 118.012287 
L 275.35363 117.61422 
L 275.880458 117.61422 
L 275.880458 117.216154 
L 278.514598 117.216154 
L 278.514598 116.818088 
L 279.568254 116.818088 
L 279.568254 116.420021 
L 280.095082 116.420021 
L 280.095082 116.021955 
L 281.148738 116.021955 
L 281.148738 115.225822 
L 281.675566 115.225822 
L 281.675566 114.827756 
L 282.729222 114.827756 
L 282.729222 114.42969 
L 285.363362 114.42969 
L 285.363362 114.031623 
L 286.417018 114.031623 
L 286.417018 113.633557 
L 287.470674 113.633557 
L 287.470674 113.235491 
L 289.577986 113.235491 
L 289.577986 112.837424 
L 291.685298 112.837424 
L 291.685298 112.439358 
L 292.212126 112.439358 
L 292.212126 112.041292 
L 292.738954 112.041292 
L 292.738954 110.847093 
L 297.480405 110.847093 
L 297.480405 110.449026 
L 298.007233 110.449026 
L 298.007233 109.652894 
L 303.802341 109.652894 
L 303.802341 109.254827 
L 304.329169 109.254827 
L 304.329169 108.458695 
L 304.855997 108.458695 
L 304.855997 107.264496 
L 305.382825 107.264496 
L 305.382825 106.866429 
L 306.436481 106.866429 
L 306.436481 106.468363 
L 306.963309 106.468363 
L 306.963309 105.274164 
L 311.704761 105.274164 
L 311.704761 104.876098 
L 312.231589 104.876098 
L 312.231589 104.478031 
L 312.758417 104.478031 
L 312.758417 103.283832 
L 314.338901 103.283832 
L 314.338901 101.293501 
L 314.865729 101.293501 
L 314.865729 100.895434 
L 315.392557 100.895434 
L 315.392557 100.099302 
L 319.080353 100.099302 
L 319.080353 99.701235 
L 320.134009 99.701235 
L 320.134009 98.10897 
L 320.660837 98.10897 
L 320.660837 97.710904 
L 321.187665 97.710904 
L 321.187665 96.914771 
L 321.714493 96.914771 
L 321.714493 95.720572 
L 322.241321 95.720572 
L 322.241321 95.322506 
L 322.768149 95.322506 
L 322.768149 94.526373 
L 323.294977 94.526373 
L 323.294977 93.73024 
L 323.821805 93.73024 
L 323.821805 92.536041 
L 324.875461 92.536041 
L 324.875461 92.137975 
L 325.402289 92.137975 
L 325.402289 91.739909 
L 326.982773 91.739909 
L 326.982773 91.341842 
L 327.509601 91.341842 
L 327.509601 90.54571 
L 328.036429 90.54571 
L 328.036429 90.147643 
L 328.563257 90.147643 
L 328.563257 89.749577 
L 329.616913 89.749577 
L 329.616913 88.953444 
L 330.143741 88.953444 
L 330.143741 86.963113 
L 331.724225 86.963113 
L 331.724225 86.16698 
L 332.251053 86.16698 
L 332.251053 85.768914 
L 335.412021 85.768914 
L 335.412021 85.370847 
L 336.465677 85.370847 
L 336.465677 84.972781 
L 338.046161 84.972781 
L 338.046161 84.574715 
L 339.626645 84.574715 
L 339.626645 84.176648 
L 341.733957 84.176648 
L 341.733957 82.982449 
L 342.260785 82.982449 
L 342.260785 82.584383 
L 344.368097 82.584383 
L 344.368097 82.186317 
L 345.421753 82.186317 
L 345.421753 81.78825 
L 347.002237 81.78825 
L 347.002237 81.390184 
L 348.055893 81.390184 
L 348.055893 80.992118 
L 349.636377 80.992118 
L 349.636377 79.797919 
L 350.163205 79.797919 
L 350.163205 79.399852 
L 352.270517 79.399852 
L 352.270517 79.001786 
L 353.851001 79.001786 
L 353.851001 78.205653 
L 354.377829 78.205653 
L 354.377829 75.419189 
L 357.011969 75.419189 
L 357.011969 75.021123 
L 358.592453 75.021123 
L 358.592453 74.22499 
L 360.699765 74.22499 
L 360.699765 73.826924 
L 361.753421 73.826924 
L 361.753421 73.030791 
L 363.333905 73.030791 
L 363.333905 71.836592 
L 363.860733 71.836592 
L 363.860733 71.438526 
L 364.914388 71.438526 
L 364.914388 71.040459 
L 365.441216 71.040459 
L 365.441216 70.642393 
L 367.0217 70.642393 
L 367.0217 70.244327 
L 367.548528 70.244327 
L 367.548528 69.448194 
L 368.075356 69.448194 
L 368.075356 69.050128 
L 368.602184 69.050128 
L 368.602184 67.855929 
L 369.129012 67.855929 
L 369.129012 67.457862 
L 370.182668 67.457862 
L 370.182668 66.263663 
L 371.236324 66.263663 
L 371.236324 65.467531 
L 372.28998 65.467531 
L 372.28998 65.069464 
L 373.870464 65.069464 
L 373.870464 64.273332 
L 374.397292 64.273332 
L 374.397292 63.875265 
L 375.450948 63.875265 
L 375.450948 63.477199 
L 375.977776 63.477199 
L 375.977776 61.884934 
L 378.085088 61.884934 
L 378.085088 60.690735 
L 379.665572 60.690735 
L 379.665572 60.292668 
L 380.1924 60.292668 
L 380.1924 59.894602 
L 381.246056 59.894602 
L 381.246056 57.90427 
L 384.407024 57.90427 
L 384.407024 57.506204 
L 387.041164 57.506204 
L 387.041164 57.108138 
L 387.567992 57.108138 
L 387.567992 56.710071 
L 388.09482 56.710071 
L 388.09482 55.515872 
L 392.836272 55.515872 
L 392.836272 54.321673 
L 393.889928 54.321673 
L 393.889928 53.923607 
L 399.685036 53.923607 
L 399.685036 53.52554 
L 400.738692 53.52554 
L 400.738692 53.127474 
L 403.89966 53.127474 
L 403.89966 51.933275 
L 405.480144 51.933275 
L 405.480144 51.535209 
L 406.5338 51.535209 
L 406.5338 51.137142 
L 409.16794 51.137142 
L 409.16794 50.739076 
L 409.694768 50.739076 
L 409.694768 50.34101 
L 411.80208 50.34101 
L 411.80208 49.942943 
L 412.855736 49.942943 
L 412.855736 49.544877 
L 414.963048 49.544877 
L 414.963048 49.146811 
L 415.489876 49.146811 
L 415.489876 48.748744 
L 418.650844 48.748744 
L 418.650844 48.350678 
L 423.919124 48.350678 
L 423.919124 47.952612 
L 433.402027 47.952612 
L 433.402027 47.554545 
L 446.572727 47.554545 
L 446.572727 47.554545 
" clip-path="url(#p8d490c37de)" style="fill: none; stroke: #000000; stroke-width: 1.5; stroke-linecap: square"/>
   </g>
   <g id="line2d_20">
    <path d="M -1 376.977674 
L 2.760055 374.210193 
L 13.855372 366.043802 
L 24.950689 357.87741 
L 36.046006 349.711019 
L 47.141322 341.544628 
L 58.236639 333.378237 
L 69.331956 325.211846 
L 80.427273 317.045455 
L 91.52259 308.879063 
L 102.617906 300.712672 
L 113.713223 292.546281 
L 124.80854 284.37989 
L 135.903857 276.213499 
L 146.999174 268.047107 
L 158.09449 259.880716 
L 169.189807 251.714325 
L 180.285124 243.547934 
L 191.380441 235.381543 
L 202.475758 227.215152 
L 213.571074 219.04876 
L 224.666391 210.882369 
L 235.761708 202.715978 
L 246.857025 194.549587 
L 257.952342 186.383196 
L 269.047658 178.216804 
L 280.142975 170.050413 
L 291.238292 161.884022 
L 302.333609 153.717631 
L 313.428926 145.55124 
L 324.524242 137.384848 
L 335.619559 129.218457 
L 346.714876 121.052066 
L 357.810193 112.885675 
L 368.90551 104.719284 
L 380.000826 96.552893 
L 391.096143 88.386501 
L 402.19146 80.22011 
L 413.286777 72.053719 
L 424.382094 63.887328 
L 435.47741 55.720937 
L 446.572727 47.554545 
L 457.668044 39.388154 
L 468.763361 31.221763 
L 479.858678 23.055372 
L 481 22.215334 
" clip-path="url(#p8d490c37de)" style="fill: none; stroke-dasharray: 5.55,2.4; stroke-dashoffset: 0; stroke: #000000; stroke-width: 1.5"/>
   </g>
   <g id="patch_3">
    <path d="M 62.12 330.52 
L 62.12 34.08 
" style="fill: none; stroke: #000000; stroke-width: 0.8; stroke-linejoin: miter; stroke-linecap: square"/>
   </g>
   <g id="patch_4">
    <path d="M 62.12 330.52 
L 464.88 330.52 
" style="fill: none; stroke: #000000; stroke-width: 0.8; stroke-linejoin: miter; stroke-linecap: square"/>
   </g>
   <g id="text_15">
    <!-- No Tuning -->
    <g transform="translate(221.9095 28.08) scale(0.168 -0.168)">
     <defs>
      <path id="DejaVuSans-4e" d="M 628 4666 
L 1478 4666 
L 3547 763 
L 3547 4666 
L 4159 4666 
L 4159 0 
L 3309 0 
L 1241 3903 
L 1241 0 
L 628 0 
L 628 4666 
z
" transform="scale(0.015625)"/>
      <path id="DejaVuSans-6e" d="M 3513 2113 
L 3513 0 
L 2938 0 
L 2938 2094 
Q 2938 2591 2744 2837 
Q 2550 3084 2163 3084 
Q 1697 3084 1428 2787 
Q 1159 2491 1159 1978 
L 1159 0 
L 581 0 
L 581 3500 
L 1159 3500 
L 1159 2956 
Q 1366 3272 1645 3428 
Q 1925 3584 2291 3584 
Q 2894 3584 3203 3211 
Q 3513 2838 3513 2113 
z
" transform="scale(0.015625)"/>
      <path id="DejaVuSans-67" d="M 2906 1791 
Q 2906 2416 2648 2759 
Q 2391 3103 1925 3103 
Q 1463 3103 1205 2759 
Q 947 2416 947 1791 
Q 947 1169 1205 825 
Q 1463 481 1925 481 
Q 2391 481 2648 825 
Q 2906 1169 2906 1791 
z
M 3481 434 
Q 3481 -459 3084 -895 
Q 2688 -1331 1869 -1331 
Q 1566 -1331 1297 -1286 
Q 1028 -1241 775 -1147 
L 775 -588 
Q 1028 -725 1275 -790 
Q 1522 -856 1778 -856 
Q 2344 -856 2625 -561 
Q 2906 -266 2906 331 
L 2906 616 
Q 2728 306 2450 153 
Q 2172 0 1784 0 
Q 1141 0 747 490 
Q 353 981 353 1791 
Q 353 2603 747 3093 
Q 1141 3584 1784 3584 
Q 2172 3584 2450 3431 
Q 2728 3278 2906 2969 
L 2906 3500 
L 3481 3500 
L 3481 434 
z
" transform="scale(0.015625)"/>
     </defs>
     <use xlink:href="#DejaVuSans-4e"/>
     <use xlink:href="#DejaVuSans-6f" x="74.804688"/>
     <use xlink:href="#DejaVuSans-20" x="135.986328"/>
     <use xlink:href="#DejaVuSans-54" x="167.773438"/>
     <use xlink:href="#DejaVuSans-75" x="213.732422"/>
     <use xlink:href="#DejaVuSans-6e" x="277.111328"/>
     <use xlink:href="#DejaVuSans-69" x="340.490234"/>
     <use xlink:href="#DejaVuSans-6e" x="368.273438"/>
     <use xlink:href="#DejaVuSans-67" x="431.652344"/>
    </g>
   </g>
   <g id="legend_1">
    <g id="patch_5">
     <path d="M 339.149063 323.52 
L 455.08 323.52 
Q 457.88 323.52 457.88 320.72 
L 457.88 178.274375 
Q 457.88 175.474375 455.08 175.474375 
L 339.149063 175.474375 
Q 336.349063 175.474375 336.349063 178.274375 
L 336.349063 320.72 
Q 336.349063 323.52 339.149063 323.52 
z
" style="fill: #ffffff; opacity: 0.8; stroke: #cccccc; stroke-linejoin: miter"/>
    </g>
    <g id="line2d_21">
     <path d="M 341.949063 186.812187 
L 355.949063 186.812187 
L 369.949063 186.812187 
" style="fill: none; stroke: #1f77b4; stroke-opacity: 0.66; stroke-width: 1.5; stroke-linecap: square"/>
    </g>
    <g id="text_16">
     <!-- S1 -->
     <g transform="translate(381.149063 191.712187) scale(0.14 -0.14)">
      <defs>
       <path id="DejaVuSans-53" d="M 3425 4513 
L 3425 3897 
Q 3066 4069 2747 4153 
Q 2428 4238 2131 4238 
Q 1616 4238 1336 4038 
Q 1056 3838 1056 3469 
Q 1056 3159 1242 3001 
Q 1428 2844 1947 2747 
L 2328 2669 
Q 3034 2534 3370 2195 
Q 3706 1856 3706 1288 
Q 3706 609 3251 259 
Q 2797 -91 1919 -91 
Q 1588 -91 1214 -16 
Q 841 59 441 206 
L 441 856 
Q 825 641 1194 531 
Q 1563 422 1919 422 
Q 2459 422 2753 634 
Q 3047 847 3047 1241 
Q 3047 1584 2836 1778 
Q 2625 1972 2144 2069 
L 1759 2144 
Q 1053 2284 737 2584 
Q 422 2884 422 3419 
Q 422 4038 858 4394 
Q 1294 4750 2059 4750 
Q 2388 4750 2728 4690 
Q 3069 4631 3425 4513 
z
" transform="scale(0.015625)"/>
      </defs>
      <use xlink:href="#DejaVuSans-53"/>
      <use xlink:href="#DejaVuSans-31" x="63.476562"/>
     </g>
    </g>
    <g id="line2d_22">
     <path d="M 341.949063 207.361562 
L 355.949063 207.361562 
L 369.949063 207.361562 
" style="fill: none; stroke: #ff7f0e; stroke-opacity: 0.66; stroke-width: 1.5; stroke-linecap: square"/>
    </g>
    <g id="text_17">
     <!-- S2 -->
     <g transform="translate(381.149063 212.261562) scale(0.14 -0.14)">
      <use xlink:href="#DejaVuSans-53"/>
      <use xlink:href="#DejaVuSans-32" x="63.476562"/>
     </g>
    </g>
    <g id="line2d_23">
     <path d="M 341.949063 227.910937 
L 355.949063 227.910937 
L 369.949063 227.910937 
" style="fill: none; stroke: #2ca02c; stroke-opacity: 0.66; stroke-width: 1.5; stroke-linecap: square"/>
    </g>
    <g id="text_18">
     <!-- S3 -->
     <g transform="translate(381.149063 232.810937) scale(0.14 -0.14)">
      <defs>
       <path id="DejaVuSans-33" d="M 2597 2516 
Q 3050 2419 3304 2112 
Q 3559 1806 3559 1356 
Q 3559 666 3084 287 
Q 2609 -91 1734 -91 
Q 1441 -91 1130 -33 
Q 819 25 488 141 
L 488 750 
Q 750 597 1062 519 
Q 1375 441 1716 441 
Q 2309 441 2620 675 
Q 2931 909 2931 1356 
Q 2931 1769 2642 2001 
Q 2353 2234 1838 2234 
L 1294 2234 
L 1294 2753 
L 1863 2753 
Q 2328 2753 2575 2939 
Q 2822 3125 2822 3475 
Q 2822 3834 2567 4026 
Q 2313 4219 1838 4219 
Q 1578 4219 1281 4162 
Q 984 4106 628 3988 
L 628 4550 
Q 988 4650 1302 4700 
Q 1616 4750 1894 4750 
Q 2613 4750 3031 4423 
Q 3450 4097 3450 3541 
Q 3450 3153 3228 2886 
Q 3006 2619 2597 2516 
z
" transform="scale(0.015625)"/>
      </defs>
      <use xlink:href="#DejaVuSans-53"/>
      <use xlink:href="#DejaVuSans-33" x="63.476562"/>
     </g>
    </g>
    <g id="line2d_24">
     <path d="M 341.949063 248.460312 
L 355.949063 248.460312 
L 369.949063 248.460312 
" style="fill: none; stroke: #d62728; stroke-opacity: 0.66; stroke-width: 1.5; stroke-linecap: square"/>
    </g>
    <g id="text_19">
     <!-- S4 -->
     <g transform="translate(381.149063 253.360312) scale(0.14 -0.14)">
      <use xlink:href="#DejaVuSans-53"/>
      <use xlink:href="#DejaVuSans-34" x="63.476562"/>
     </g>
    </g>
    <g id="line2d_25">
     <path d="M 341.949063 269.009687 
L 355.949063 269.009687 
L 369.949063 269.009687 
" style="fill: none; stroke: #9467bd; stroke-opacity: 0.66; stroke-width: 1.5; stroke-linecap: square"/>
    </g>
    <g id="text_20">
     <!-- S5 -->
     <g transform="translate(381.149063 273.909687) scale(0.14 -0.14)">
      <defs>
       <path id="DejaVuSans-35" d="M 691 4666 
L 3169 4666 
L 3169 4134 
L 1269 4134 
L 1269 2991 
Q 1406 3038 1543 3061 
Q 1681 3084 1819 3084 
Q 2600 3084 3056 2656 
Q 3513 2228 3513 1497 
Q 3513 744 3044 326 
Q 2575 -91 1722 -91 
Q 1428 -91 1123 -41 
Q 819 9 494 109 
L 494 744 
Q 775 591 1075 516 
Q 1375 441 1709 441 
Q 2250 441 2565 725 
Q 2881 1009 2881 1497 
Q 2881 1984 2565 2268 
Q 2250 2553 1709 2553 
Q 1456 2553 1204 2497 
Q 953 2441 691 2322 
L 691 4666 
z
" transform="scale(0.015625)"/>
      </defs>
      <use xlink:href="#DejaVuSans-53"/>
      <use xlink:href="#DejaVuSans-35" x="63.476562"/>
     </g>
    </g>
    <g id="line2d_26">
     <path d="M 341.949063 289.559062 
L 355.949063 289.559062 
L 369.949063 289.559062 
" style="fill: none; stroke: #8c564b; stroke-opacity: 0.66; stroke-width: 1.5; stroke-linecap: square"/>
    </g>
    <g id="text_21">
     <!-- S6 -->
     <g transform="translate(381.149063 294.459062) scale(0.14 -0.14)">
      <use xlink:href="#DejaVuSans-53"/>
      <use xlink:href="#DejaVuSans-36" x="63.476562"/>
     </g>
    </g>
    <g id="line2d_27">
     <path d="M 341.949063 310.108438 
L 355.949063 310.108438 
L 369.949063 310.108438 
" style="fill: none; stroke: #000000; stroke-width: 1.5; stroke-linecap: square"/>
    </g>
    <g id="text_22">
     <!-- Combined -->
     <g transform="translate(381.149063 315.008438) scale(0.14 -0.14)">
      <defs>
       <path id="DejaVuSans-43" d="M 4122 4306 
L 4122 3641 
Q 3803 3938 3442 4084 
Q 3081 4231 2675 4231 
Q 1875 4231 1450 3742 
Q 1025 3253 1025 2328 
Q 1025 1406 1450 917 
Q 1875 428 2675 428 
Q 3081 428 3442 575 
Q 3803 722 4122 1019 
L 4122 359 
Q 3791 134 3420 21 
Q 3050 -91 2638 -91 
Q 1578 -91 968 557 
Q 359 1206 359 2328 
Q 359 3453 968 4101 
Q 1578 4750 2638 4750 
Q 3056 4750 3426 4639 
Q 3797 4528 4122 4306 
z
" transform="scale(0.015625)"/>
       <path id="DejaVuSans-6d" d="M 3328 2828 
Q 3544 3216 3844 3400 
Q 4144 3584 4550 3584 
Q 5097 3584 5394 3201 
Q 5691 2819 5691 2113 
L 5691 0 
L 5113 0 
L 5113 2094 
Q 5113 2597 4934 2840 
Q 4756 3084 4391 3084 
Q 3944 3084 3684 2787 
Q 3425 2491 3425 1978 
L 3425 0 
L 2847 0 
L 2847 2094 
Q 2847 2600 2669 2842 
Q 2491 3084 2119 3084 
Q 1678 3084 1418 2786 
Q 1159 2488 1159 1978 
L 1159 0 
L 581 0 
L 581 3500 
L 1159 3500 
L 1159 2956 
Q 1356 3278 1631 3431 
Q 1906 3584 2284 3584 
Q 2666 3584 2933 3390 
Q 3200 3197 3328 2828 
z
" transform="scale(0.015625)"/>
       <path id="DejaVuSans-62" d="M 3116 1747 
Q 3116 2381 2855 2742 
Q 2594 3103 2138 3103 
Q 1681 3103 1420 2742 
Q 1159 2381 1159 1747 
Q 1159 1113 1420 752 
Q 1681 391 2138 391 
Q 2594 391 2855 752 
Q 3116 1113 3116 1747 
z
M 1159 2969 
Q 1341 3281 1617 3432 
Q 1894 3584 2278 3584 
Q 2916 3584 3314 3078 
Q 3713 2572 3713 1747 
Q 3713 922 3314 415 
Q 2916 -91 2278 -91 
Q 1894 -91 1617 61 
Q 1341 213 1159 525 
L 1159 0 
L 581 0 
L 581 4863 
L 1159 4863 
L 1159 2969 
z
" transform="scale(0.015625)"/>
       <path id="DejaVuSans-64" d="M 2906 2969 
L 2906 4863 
L 3481 4863 
L 3481 0 
L 2906 0 
L 2906 525 
Q 2725 213 2448 61 
Q 2172 -91 1784 -91 
Q 1150 -91 751 415 
Q 353 922 353 1747 
Q 353 2572 751 3078 
Q 1150 3584 1784 3584 
Q 2172 3584 2448 3432 
Q 2725 3281 2906 2969 
z
M 947 1747 
Q 947 1113 1208 752 
Q 1469 391 1925 391 
Q 2381 391 2643 752 
Q 2906 1113 2906 1747 
Q 2906 2381 2643 2742 
Q 2381 3103 1925 3103 
Q 1469 3103 1208 2742 
Q 947 2381 947 1747 
z
" transform="scale(0.015625)"/>
      </defs>
      <use xlink:href="#DejaVuSans-43"/>
      <use xlink:href="#DejaVuSans-6f" x="69.824219"/>
      <use xlink:href="#DejaVuSans-6d" x="131.005859"/>
      <use xlink:href="#DejaVuSans-62" x="228.417969"/>
      <use xlink:href="#DejaVuSans-69" x="291.894531"/>
      <use xlink:href="#DejaVuSans-6e" x="319.677734"/>
      <use xlink:href="#DejaVuSans-65" x="383.056641"/>
      <use xlink:href="#DejaVuSans-64" x="444.580078"/>
     </g>
    </g>
   </g>
  </g>
 </g>
 <defs>
  <clipPath id="p8d490c37de">
   <rect x="62.12" y="34.08" width="402.76" height="296.44"/>
  </clipPath>
 </defs>
</svg>
