<?xml version="1.0" encoding="utf-8" standalone="no"?>
<!DOCTYPE svg PUBLIC "-//W3C//DTD SVG 1.1//EN"
  "http://www.w3.org/Graphics/SVG/1.1/DTD/svg11.dtd">
<svg xmlns:xlink="http://www.w3.org/1999/xlink" width="480pt" height="384pt" viewBox="0 0 480 384" xmlns="http://www.w3.org/2000/svg" version="1.1">
 <metadata>
  <rdf:RDF xmlns:dc="http://purl.org/dc/elements/1.1/" xmlns:cc="http://creativecommons.org/ns#" xmlns:rdf="http://www.w3.org/1999/02/22-rdf-syntax-ns#">
   <cc:Work>
    <dc:type rdf:resource="http://purl.org/dc/dcmitype/StillImage"/>
    <dc:date>2024-03-11T14:33:37.413320</dc:date>
    <dc:format>image/svg+xml</dc:format>
    <dc:creator>
     <cc:Agent>
      <dc:title>Matplotlib v3.8.0, https://matplotlib.org/</dc:title>
     </cc:Agent>
    </dc:creator>
   </cc:Work>
  </rdf:RDF>
 </metadata>
 <defs>
  <style type="text/css">*{stroke-linejoin: round; stroke-linecap: butt}</style>
 </defs>
 <g id="figure_1">
  <g id="patch_1">
   <path d="M 0 384 
L 480 384 
L 480 0 
L 0 0 
z
" style="fill: #ffffff"/>
  </g>
  <g id="axes_1">
   <g id="patch_2">
    <path d="M 62.12 330.52 
L 464.88 330.52 
L 464.88 35.52 
L 62.12 35.52 
z
" style="fill: #ffffff"/>
   </g>
   <g id="matplotlib.axis_1">
    <g id="xtick_1">
     <g id="line2d_1">
      <defs>
       <path id="m57b43d0766" d="M 0 0 
L 0 3.5 
" style="stroke: #000000; stroke-width: 0.8"/>
      </defs>
      <g>
       <use xlink:href="#m57b43d0766" x="80.427273" y="330.52" style="stroke: #000000; stroke-width: 0.8"/>
      </g>
     </g>
     <g id="text_1">
      <!-- 0.0 -->
      <g transform="translate(69.295085 348.157812) scale(0.14 -0.14)">
       <defs>
        <path id="DejaVuSans-30" d="M 2034 4250 
Q 1547 4250 1301 3770 
Q 1056 3291 1056 2328 
Q 1056 1369 1301 889 
Q 1547 409 2034 409 
Q 2525 409 2770 889 
Q 3016 1369 3016 2328 
Q 3016 3291 2770 3770 
Q 2525 4250 2034 4250 
z
M 2034 4750 
Q 2819 4750 3233 4129 
Q 3647 3509 3647 2328 
Q 3647 1150 3233 529 
Q 2819 -91 2034 -91 
Q 1250 -91 836 529 
Q 422 1150 422 2328 
Q 422 3509 836 4129 
Q 1250 4750 2034 4750 
z
" transform="scale(0.015625)"/>
        <path id="DejaVuSans-2e" d="M 684 794 
L 1344 794 
L 1344 0 
L 684 0 
L 684 794 
z
" transform="scale(0.015625)"/>
       </defs>
       <use xlink:href="#DejaVuSans-30"/>
       <use xlink:href="#DejaVuSans-2e" x="63.623047"/>
       <use xlink:href="#DejaVuSans-30" x="95.410156"/>
      </g>
     </g>
    </g>
    <g id="xtick_2">
     <g id="line2d_2">
      <g>
       <use xlink:href="#m57b43d0766" x="153.656364" y="330.52" style="stroke: #000000; stroke-width: 0.8"/>
      </g>
     </g>
     <g id="text_2">
      <!-- 0.2 -->
      <g transform="translate(142.524176 348.157812) scale(0.14 -0.14)">
       <defs>
        <path id="DejaVuSans-32" d="M 1228 531 
L 3431 531 
L 3431 0 
L 469 0 
L 469 531 
Q 828 903 1448 1529 
Q 2069 2156 2228 2338 
Q 2531 2678 2651 2914 
Q 2772 3150 2772 3378 
Q 2772 3750 2511 3984 
Q 2250 4219 1831 4219 
Q 1534 4219 1204 4116 
Q 875 4013 500 3803 
L 500 4441 
Q 881 4594 1212 4672 
Q 1544 4750 1819 4750 
Q 2544 4750 2975 4387 
Q 3406 4025 3406 3419 
Q 3406 3131 3298 2873 
Q 3191 2616 2906 2266 
Q 2828 2175 2409 1742 
Q 1991 1309 1228 531 
z
" transform="scale(0.015625)"/>
       </defs>
       <use xlink:href="#DejaVuSans-30"/>
       <use xlink:href="#DejaVuSans-2e" x="63.623047"/>
       <use xlink:href="#DejaVuSans-32" x="95.410156"/>
      </g>
     </g>
    </g>
    <g id="xtick_3">
     <g id="line2d_3">
      <g>
       <use xlink:href="#m57b43d0766" x="226.885455" y="330.52" style="stroke: #000000; stroke-width: 0.8"/>
      </g>
     </g>
     <g id="text_3">
      <!-- 0.4 -->
      <g transform="translate(215.753267 348.157812) scale(0.14 -0.14)">
       <defs>
        <path id="DejaVuSans-34" d="M 2419 4116 
L 825 1625 
L 2419 1625 
L 2419 4116 
z
M 2253 4666 
L 3047 4666 
L 3047 1625 
L 3713 1625 
L 3713 1100 
L 3047 1100 
L 3047 0 
L 2419 0 
L 2419 1100 
L 313 1100 
L 313 1709 
L 2253 4666 
z
" transform="scale(0.015625)"/>
       </defs>
       <use xlink:href="#DejaVuSans-30"/>
       <use xlink:href="#DejaVuSans-2e" x="63.623047"/>
       <use xlink:href="#DejaVuSans-34" x="95.410156"/>
      </g>
     </g>
    </g>
    <g id="xtick_4">
     <g id="line2d_4">
      <g>
       <use xlink:href="#m57b43d0766" x="300.114545" y="330.52" style="stroke: #000000; stroke-width: 0.8"/>
      </g>
     </g>
     <g id="text_4">
      <!-- 0.6 -->
      <g transform="translate(288.982358 348.157812) scale(0.14 -0.14)">
       <defs>
        <path id="DejaVuSans-36" d="M 2113 2584 
Q 1688 2584 1439 2293 
Q 1191 2003 1191 1497 
Q 1191 994 1439 701 
Q 1688 409 2113 409 
Q 2538 409 2786 701 
Q 3034 994 3034 1497 
Q 3034 2003 2786 2293 
Q 2538 2584 2113 2584 
z
M 3366 4563 
L 3366 3988 
Q 3128 4100 2886 4159 
Q 2644 4219 2406 4219 
Q 1781 4219 1451 3797 
Q 1122 3375 1075 2522 
Q 1259 2794 1537 2939 
Q 1816 3084 2150 3084 
Q 2853 3084 3261 2657 
Q 3669 2231 3669 1497 
Q 3669 778 3244 343 
Q 2819 -91 2113 -91 
Q 1303 -91 875 529 
Q 447 1150 447 2328 
Q 447 3434 972 4092 
Q 1497 4750 2381 4750 
Q 2619 4750 2861 4703 
Q 3103 4656 3366 4563 
z
" transform="scale(0.015625)"/>
       </defs>
       <use xlink:href="#DejaVuSans-30"/>
       <use xlink:href="#DejaVuSans-2e" x="63.623047"/>
       <use xlink:href="#DejaVuSans-36" x="95.410156"/>
      </g>
     </g>
    </g>
    <g id="xtick_5">
     <g id="line2d_5">
      <g>
       <use xlink:href="#m57b43d0766" x="373.343636" y="330.52" style="stroke: #000000; stroke-width: 0.8"/>
      </g>
     </g>
     <g id="text_5">
      <!-- 0.8 -->
      <g transform="translate(362.211449 348.157812) scale(0.14 -0.14)">
       <defs>
        <path id="DejaVuSans-38" d="M 2034 2216 
Q 1584 2216 1326 1975 
Q 1069 1734 1069 1313 
Q 1069 891 1326 650 
Q 1584 409 2034 409 
Q 2484 409 2743 651 
Q 3003 894 3003 1313 
Q 3003 1734 2745 1975 
Q 2488 2216 2034 2216 
z
M 1403 2484 
Q 997 2584 770 2862 
Q 544 3141 544 3541 
Q 544 4100 942 4425 
Q 1341 4750 2034 4750 
Q 2731 4750 3128 4425 
Q 3525 4100 3525 3541 
Q 3525 3141 3298 2862 
Q 3072 2584 2669 2484 
Q 3125 2378 3379 2068 
Q 3634 1759 3634 1313 
Q 3634 634 3220 271 
Q 2806 -91 2034 -91 
Q 1263 -91 848 271 
Q 434 634 434 1313 
Q 434 1759 690 2068 
Q 947 2378 1403 2484 
z
M 1172 3481 
Q 1172 3119 1398 2916 
Q 1625 2713 2034 2713 
Q 2441 2713 2670 2916 
Q 2900 3119 2900 3481 
Q 2900 3844 2670 4047 
Q 2441 4250 2034 4250 
Q 1625 4250 1398 4047 
Q 1172 3844 1172 3481 
z
" transform="scale(0.015625)"/>
       </defs>
       <use xlink:href="#DejaVuSans-30"/>
       <use xlink:href="#DejaVuSans-2e" x="63.623047"/>
       <use xlink:href="#DejaVuSans-38" x="95.410156"/>
      </g>
     </g>
    </g>
    <g id="xtick_6">
     <g id="line2d_6">
      <g>
       <use xlink:href="#m57b43d0766" x="446.572727" y="330.52" style="stroke: #000000; stroke-width: 0.8"/>
      </g>
     </g>
     <g id="text_6">
      <!-- 1.0 -->
      <g transform="translate(435.44054 348.157812) scale(0.14 -0.14)">
       <defs>
        <path id="DejaVuSans-31" d="M 794 531 
L 1825 531 
L 1825 4091 
L 703 3866 
L 703 4441 
L 1819 4666 
L 2450 4666 
L 2450 531 
L 3481 531 
L 3481 0 
L 794 0 
L 794 531 
z
" transform="scale(0.015625)"/>
       </defs>
       <use xlink:href="#DejaVuSans-31"/>
       <use xlink:href="#DejaVuSans-2e" x="63.623047"/>
       <use xlink:href="#DejaVuSans-30" x="95.410156"/>
      </g>
     </g>
    </g>
    <g id="text_7">
     <!-- False Positive Rate -->
     <g transform="translate(198.447031 365.707187) scale(0.14 -0.14)">
      <defs>
       <path id="DejaVuSans-46" d="M 628 4666 
L 3309 4666 
L 3309 4134 
L 1259 4134 
L 1259 2759 
L 3109 2759 
L 3109 2228 
L 1259 2228 
L 1259 0 
L 628 0 
L 628 4666 
z
" transform="scale(0.015625)"/>
       <path id="DejaVuSans-61" d="M 2194 1759 
Q 1497 1759 1228 1600 
Q 959 1441 959 1056 
Q 959 750 1161 570 
Q 1363 391 1709 391 
Q 2188 391 2477 730 
Q 2766 1069 2766 1631 
L 2766 1759 
L 2194 1759 
z
M 3341 1997 
L 3341 0 
L 2766 0 
L 2766 531 
Q 2569 213 2275 61 
Q 1981 -91 1556 -91 
Q 1019 -91 701 211 
Q 384 513 384 1019 
Q 384 1609 779 1909 
Q 1175 2209 1959 2209 
L 2766 2209 
L 2766 2266 
Q 2766 2663 2505 2880 
Q 2244 3097 1772 3097 
Q 1472 3097 1187 3025 
Q 903 2953 641 2809 
L 641 3341 
Q 956 3463 1253 3523 
Q 1550 3584 1831 3584 
Q 2591 3584 2966 3190 
Q 3341 2797 3341 1997 
z
" transform="scale(0.015625)"/>
       <path id="DejaVuSans-6c" d="M 603 4863 
L 1178 4863 
L 1178 0 
L 603 0 
L 603 4863 
z
" transform="scale(0.015625)"/>
       <path id="DejaVuSans-73" d="M 2834 3397 
L 2834 2853 
Q 2591 2978 2328 3040 
Q 2066 3103 1784 3103 
Q 1356 3103 1142 2972 
Q 928 2841 928 2578 
Q 928 2378 1081 2264 
Q 1234 2150 1697 2047 
L 1894 2003 
Q 2506 1872 2764 1633 
Q 3022 1394 3022 966 
Q 3022 478 2636 193 
Q 2250 -91 1575 -91 
Q 1294 -91 989 -36 
Q 684 19 347 128 
L 347 722 
Q 666 556 975 473 
Q 1284 391 1588 391 
Q 1994 391 2212 530 
Q 2431 669 2431 922 
Q 2431 1156 2273 1281 
Q 2116 1406 1581 1522 
L 1381 1569 
Q 847 1681 609 1914 
Q 372 2147 372 2553 
Q 372 3047 722 3315 
Q 1072 3584 1716 3584 
Q 2034 3584 2315 3537 
Q 2597 3491 2834 3397 
z
" transform="scale(0.015625)"/>
       <path id="DejaVuSans-65" d="M 3597 1894 
L 3597 1613 
L 953 1613 
Q 991 1019 1311 708 
Q 1631 397 2203 397 
Q 2534 397 2845 478 
Q 3156 559 3463 722 
L 3463 178 
Q 3153 47 2828 -22 
Q 2503 -91 2169 -91 
Q 1331 -91 842 396 
Q 353 884 353 1716 
Q 353 2575 817 3079 
Q 1281 3584 2069 3584 
Q 2775 3584 3186 3129 
Q 3597 2675 3597 1894 
z
M 3022 2063 
Q 3016 2534 2758 2815 
Q 2500 3097 2075 3097 
Q 1594 3097 1305 2825 
Q 1016 2553 972 2059 
L 3022 2063 
z
" transform="scale(0.015625)"/>
       <path id="DejaVuSans-20" transform="scale(0.015625)"/>
       <path id="DejaVuSans-50" d="M 1259 4147 
L 1259 2394 
L 2053 2394 
Q 2494 2394 2734 2622 
Q 2975 2850 2975 3272 
Q 2975 3691 2734 3919 
Q 2494 4147 2053 4147 
L 1259 4147 
z
M 628 4666 
L 2053 4666 
Q 2838 4666 3239 4311 
Q 3641 3956 3641 3272 
Q 3641 2581 3239 2228 
Q 2838 1875 2053 1875 
L 1259 1875 
L 1259 0 
L 628 0 
L 628 4666 
z
" transform="scale(0.015625)"/>
       <path id="DejaVuSans-6f" d="M 1959 3097 
Q 1497 3097 1228 2736 
Q 959 2375 959 1747 
Q 959 1119 1226 758 
Q 1494 397 1959 397 
Q 2419 397 2687 759 
Q 2956 1122 2956 1747 
Q 2956 2369 2687 2733 
Q 2419 3097 1959 3097 
z
M 1959 3584 
Q 2709 3584 3137 3096 
Q 3566 2609 3566 1747 
Q 3566 888 3137 398 
Q 2709 -91 1959 -91 
Q 1206 -91 779 398 
Q 353 888 353 1747 
Q 353 2609 779 3096 
Q 1206 3584 1959 3584 
z
" transform="scale(0.015625)"/>
       <path id="DejaVuSans-69" d="M 603 3500 
L 1178 3500 
L 1178 0 
L 603 0 
L 603 3500 
z
M 603 4863 
L 1178 4863 
L 1178 4134 
L 603 4134 
L 603 4863 
z
" transform="scale(0.015625)"/>
       <path id="DejaVuSans-74" d="M 1172 4494 
L 1172 3500 
L 2356 3500 
L 2356 3053 
L 1172 3053 
L 1172 1153 
Q 1172 725 1289 603 
Q 1406 481 1766 481 
L 2356 481 
L 2356 0 
L 1766 0 
Q 1100 0 847 248 
Q 594 497 594 1153 
L 594 3053 
L 172 3053 
L 172 3500 
L 594 3500 
L 594 4494 
L 1172 4494 
z
" transform="scale(0.015625)"/>
       <path id="DejaVuSans-76" d="M 191 3500 
L 800 3500 
L 1894 563 
L 2988 3500 
L 3597 3500 
L 2284 0 
L 1503 0 
L 191 3500 
z
" transform="scale(0.015625)"/>
       <path id="DejaVuSans-52" d="M 2841 2188 
Q 3044 2119 3236 1894 
Q 3428 1669 3622 1275 
L 4263 0 
L 3584 0 
L 2988 1197 
Q 2756 1666 2539 1819 
Q 2322 1972 1947 1972 
L 1259 1972 
L 1259 0 
L 628 0 
L 628 4666 
L 2053 4666 
Q 2853 4666 3247 4331 
Q 3641 3997 3641 3322 
Q 3641 2881 3436 2590 
Q 3231 2300 2841 2188 
z
M 1259 4147 
L 1259 2491 
L 2053 2491 
Q 2509 2491 2742 2702 
Q 2975 2913 2975 3322 
Q 2975 3731 2742 3939 
Q 2509 4147 2053 4147 
L 1259 4147 
z
" transform="scale(0.015625)"/>
      </defs>
      <use xlink:href="#DejaVuSans-46"/>
      <use xlink:href="#DejaVuSans-61" x="48.394531"/>
      <use xlink:href="#DejaVuSans-6c" x="109.673828"/>
      <use xlink:href="#DejaVuSans-73" x="137.457031"/>
      <use xlink:href="#DejaVuSans-65" x="189.556641"/>
      <use xlink:href="#DejaVuSans-20" x="251.080078"/>
      <use xlink:href="#DejaVuSans-50" x="282.867188"/>
      <use xlink:href="#DejaVuSans-6f" x="339.544922"/>
      <use xlink:href="#DejaVuSans-73" x="400.726562"/>
      <use xlink:href="#DejaVuSans-69" x="452.826172"/>
      <use xlink:href="#DejaVuSans-74" x="480.609375"/>
      <use xlink:href="#DejaVuSans-69" x="519.818359"/>
      <use xlink:href="#DejaVuSans-76" x="547.601562"/>
      <use xlink:href="#DejaVuSans-65" x="606.78125"/>
      <use xlink:href="#DejaVuSans-20" x="668.304688"/>
      <use xlink:href="#DejaVuSans-52" x="700.091797"/>
      <use xlink:href="#DejaVuSans-61" x="767.324219"/>
      <use xlink:href="#DejaVuSans-74" x="828.603516"/>
      <use xlink:href="#DejaVuSans-65" x="867.8125"/>
     </g>
    </g>
   </g>
   <g id="matplotlib.axis_2">
    <g id="ytick_1">
     <g id="line2d_7">
      <defs>
       <path id="mfe0d9b8b6e" d="M 0 0 
L -3.5 0 
" style="stroke: #000000; stroke-width: 0.8"/>
      </defs>
      <g>
       <use xlink:href="#mfe0d9b8b6e" x="62.12" y="317.110909" style="stroke: #000000; stroke-width: 0.8"/>
      </g>
     </g>
     <g id="text_8">
      <!-- 0.0 -->
      <g transform="translate(32.855625 322.429815) scale(0.14 -0.14)">
       <use xlink:href="#DejaVuSans-30"/>
       <use xlink:href="#DejaVuSans-2e" x="63.623047"/>
       <use xlink:href="#DejaVuSans-30" x="95.410156"/>
      </g>
     </g>
    </g>
    <g id="ytick_2">
     <g id="line2d_8">
      <g>
       <use xlink:href="#mfe0d9b8b6e" x="62.12" y="263.474545" style="stroke: #000000; stroke-width: 0.8"/>
      </g>
     </g>
     <g id="text_9">
      <!-- 0.2 -->
      <g transform="translate(32.855625 268.793452) scale(0.14 -0.14)">
       <use xlink:href="#DejaVuSans-30"/>
       <use xlink:href="#DejaVuSans-2e" x="63.623047"/>
       <use xlink:href="#DejaVuSans-32" x="95.410156"/>
      </g>
     </g>
    </g>
    <g id="ytick_3">
     <g id="line2d_9">
      <g>
       <use xlink:href="#mfe0d9b8b6e" x="62.12" y="209.838182" style="stroke: #000000; stroke-width: 0.8"/>
      </g>
     </g>
     <g id="text_10">
      <!-- 0.4 -->
      <g transform="translate(32.855625 215.157088) scale(0.14 -0.14)">
       <use xlink:href="#DejaVuSans-30"/>
       <use xlink:href="#DejaVuSans-2e" x="63.623047"/>
       <use xlink:href="#DejaVuSans-34" x="95.410156"/>
      </g>
     </g>
    </g>
    <g id="ytick_4">
     <g id="line2d_10">
      <g>
       <use xlink:href="#mfe0d9b8b6e" x="62.12" y="156.201818" style="stroke: #000000; stroke-width: 0.8"/>
      </g>
     </g>
     <g id="text_11">
      <!-- 0.6 -->
      <g transform="translate(32.855625 161.520724) scale(0.14 -0.14)">
       <use xlink:href="#DejaVuSans-30"/>
       <use xlink:href="#DejaVuSans-2e" x="63.623047"/>
       <use xlink:href="#DejaVuSans-36" x="95.410156"/>
      </g>
     </g>
    </g>
    <g id="ytick_5">
     <g id="line2d_11">
      <g>
       <use xlink:href="#mfe0d9b8b6e" x="62.12" y="102.565455" style="stroke: #000000; stroke-width: 0.8"/>
      </g>
     </g>
     <g id="text_12">
      <!-- 0.8 -->
      <g transform="translate(32.855625 107.884361) scale(0.14 -0.14)">
       <use xlink:href="#DejaVuSans-30"/>
       <use xlink:href="#DejaVuSans-2e" x="63.623047"/>
       <use xlink:href="#DejaVuSans-38" x="95.410156"/>
      </g>
     </g>
    </g>
    <g id="ytick_6">
     <g id="line2d_12">
      <g>
       <use xlink:href="#mfe0d9b8b6e" x="62.12" y="48.929091" style="stroke: #000000; stroke-width: 0.8"/>
      </g>
     </g>
     <g id="text_13">
      <!-- 1.0 -->
      <g transform="translate(32.855625 54.247997) scale(0.14 -0.14)">
       <use xlink:href="#DejaVuSans-31"/>
       <use xlink:href="#DejaVuSans-2e" x="63.623047"/>
       <use xlink:href="#DejaVuSans-30" x="95.410156"/>
      </g>
     </g>
    </g>
    <g id="text_14">
     <!-- True Positive Rate -->
     <g transform="translate(25.944063 245.361563) rotate(-90) scale(0.14 -0.14)">
      <defs>
       <path id="DejaVuSans-54" d="M -19 4666 
L 3928 4666 
L 3928 4134 
L 2272 4134 
L 2272 0 
L 1638 0 
L 1638 4134 
L -19 4134 
L -19 4666 
z
" transform="scale(0.015625)"/>
       <path id="DejaVuSans-72" d="M 2631 2963 
Q 2534 3019 2420 3045 
Q 2306 3072 2169 3072 
Q 1681 3072 1420 2755 
Q 1159 2438 1159 1844 
L 1159 0 
L 581 0 
L 581 3500 
L 1159 3500 
L 1159 2956 
Q 1341 3275 1631 3429 
Q 1922 3584 2338 3584 
Q 2397 3584 2469 3576 
Q 2541 3569 2628 3553 
L 2631 2963 
z
" transform="scale(0.015625)"/>
       <path id="DejaVuSans-75" d="M 544 1381 
L 544 3500 
L 1119 3500 
L 1119 1403 
Q 1119 906 1312 657 
Q 1506 409 1894 409 
Q 2359 409 2629 706 
Q 2900 1003 2900 1516 
L 2900 3500 
L 3475 3500 
L 3475 0 
L 2900 0 
L 2900 538 
Q 2691 219 2414 64 
Q 2138 -91 1772 -91 
Q 1169 -91 856 284 
Q 544 659 544 1381 
z
M 1991 3584 
L 1991 3584 
z
" transform="scale(0.015625)"/>
      </defs>
      <use xlink:href="#DejaVuSans-54"/>
      <use xlink:href="#DejaVuSans-72" x="46.333984"/>
      <use xlink:href="#DejaVuSans-75" x="87.447266"/>
      <use xlink:href="#DejaVuSans-65" x="150.826172"/>
      <use xlink:href="#DejaVuSans-20" x="212.349609"/>
      <use xlink:href="#DejaVuSans-50" x="244.136719"/>
      <use xlink:href="#DejaVuSans-6f" x="300.814453"/>
      <use xlink:href="#DejaVuSans-73" x="361.996094"/>
      <use xlink:href="#DejaVuSans-69" x="414.095703"/>
      <use xlink:href="#DejaVuSans-74" x="441.878906"/>
      <use xlink:href="#DejaVuSans-69" x="481.087891"/>
      <use xlink:href="#DejaVuSans-76" x="508.871094"/>
      <use xlink:href="#DejaVuSans-65" x="568.050781"/>
      <use xlink:href="#DejaVuSans-20" x="629.574219"/>
      <use xlink:href="#DejaVuSans-52" x="661.361328"/>
      <use xlink:href="#DejaVuSans-61" x="728.59375"/>
      <use xlink:href="#DejaVuSans-74" x="789.873047"/>
      <use xlink:href="#DejaVuSans-65" x="829.082031"/>
     </g>
    </g>
   </g>
   <g id="line2d_13">
    <path d="M 80.427273 317.110909 
L 80.427273 314.257911 
L 80.427273 305.698917 
L 83.5302 305.698917 
L 83.5302 297.139923 
L 86.633128 297.139923 
L 86.633128 282.874932 
L 89.736055 282.874932 
L 89.736055 280.021934 
L 92.838983 280.021934 
L 92.838983 254.344952 
L 95.941911 254.344952 
L 95.941911 231.520967 
L 99.044838 231.520967 
L 99.044838 197.28499 
L 102.147766 197.28499 
L 102.147766 165.902012 
L 105.250693 165.902012 
L 105.250693 157.343017 
L 108.353621 157.343017 
L 108.353621 154.490019 
L 120.765331 154.490019 
L 120.765331 151.637021 
L 126.971186 151.637021 
L 126.971186 148.784023 
L 130.074114 148.784023 
L 130.074114 134.519033 
L 133.177042 134.519033 
L 133.177042 131.666035 
L 139.382897 131.666035 
L 139.382897 125.960039 
L 151.794607 125.960039 
L 151.794607 120.254043 
L 167.309245 120.254043 
L 167.309245 117.401044 
L 170.412173 117.401044 
L 170.412173 100.283056 
L 173.5151 100.283056 
L 173.5151 97.430058 
L 185.92681 97.430058 
L 185.92681 94.57706 
L 198.338521 94.57706 
L 198.338521 86.018066 
L 201.441448 86.018066 
L 201.441448 83.165068 
L 210.750231 83.165068 
L 210.750231 80.31207 
L 213.853159 80.31207 
L 213.853159 77.459072 
L 216.956086 77.459072 
L 216.956086 74.606074 
L 220.059014 74.606074 
L 220.059014 66.047079 
L 226.264869 66.047079 
L 226.264869 63.194081 
L 241.779507 63.194081 
L 241.779507 57.488085 
L 251.08829 57.488085 
L 251.08829 54.635087 
L 263.5 54.635087 
L 263.5 51.782089 
L 266.602928 51.782089 
L 266.602928 48.929091 
L 446.572727 48.929091 
" clip-path="url(#pcc5b885b05)" style="fill: none; stroke: #1f77b4; stroke-opacity: 0.66; stroke-width: 1.5; stroke-linecap: square"/>
   </g>
   <g id="line2d_14">
    <path d="M 80.427273 317.110909 
L 80.427273 305.45083 
L 80.427273 270.470593 
L 86.06028 270.470593 
L 86.06028 212.170198 
L 91.693287 212.170198 
L 91.693287 107.229486 
L 97.326294 107.229486 
L 97.326294 95.569407 
L 136.757343 95.569407 
L 136.757343 83.909328 
L 159.289371 83.909328 
L 159.289371 72.249249 
L 181.821399 72.249249 
L 181.821399 60.58917 
L 209.986434 60.58917 
L 209.986434 48.929091 
L 446.572727 48.929091 
" clip-path="url(#pcc5b885b05)" style="fill: none; stroke: #ff7f0e; stroke-opacity: 0.66; stroke-width: 1.5; stroke-linecap: square"/>
   </g>
   <g id="line2d_15">
    <path d="M 80.427273 317.110909 
L 80.427273 313.108195 
L 83.478485 313.108195 
L 83.478485 309.105482 
L 86.529697 309.105482 
L 86.529697 305.102768 
L 89.580909 305.102768 
L 89.580909 293.094627 
L 92.632121 293.094627 
L 92.632121 281.086486 
L 95.683333 281.086486 
L 95.683333 277.083772 
L 98.734545 277.083772 
L 98.734545 273.081058 
L 104.83697 273.081058 
L 104.83697 237.056635 
L 110.939394 237.056635 
L 110.939394 233.053921 
L 113.990606 233.053921 
L 113.990606 229.051208 
L 123.144242 229.051208 
L 123.144242 201.032212 
L 129.246667 201.032212 
L 129.246667 177.015929 
L 132.297879 177.015929 
L 132.297879 173.013216 
L 135.349091 173.013216 
L 135.349091 169.010502 
L 141.451515 169.010502 
L 141.451515 165.007788 
L 162.81 165.007788 
L 162.81 161.005075 
L 165.861212 161.005075 
L 165.861212 152.999647 
L 168.912424 152.999647 
L 168.912424 144.99422 
L 184.168485 144.99422 
L 184.168485 140.991506 
L 190.270909 140.991506 
L 190.270909 124.980651 
L 202.475758 124.980651 
L 202.475758 120.977938 
L 205.52697 120.977938 
L 205.52697 116.975224 
L 251.295152 116.975224 
L 251.295152 108.969796 
L 263.5 108.969796 
L 263.5 100.964369 
L 266.551212 100.964369 
L 266.551212 96.961655 
L 281.807273 96.961655 
L 281.807273 92.958942 
L 284.858485 92.958942 
L 284.858485 88.956228 
L 303.165758 88.956228 
L 303.165758 76.948087 
L 309.268182 76.948087 
L 309.268182 68.942659 
L 321.47303 68.942659 
L 321.47303 60.937232 
L 327.575455 60.937232 
L 327.575455 56.934518 
L 370.292424 56.934518 
L 370.292424 52.931805 
L 373.343636 52.931805 
L 373.343636 48.929091 
L 446.572727 48.929091 
" clip-path="url(#pcc5b885b05)" style="fill: none; stroke: #2ca02c; stroke-opacity: 0.66; stroke-width: 1.5; stroke-linecap: square"/>
   </g>
   <g id="line2d_16">
    <path d="M 80.427273 317.110909 
L 83.611146 317.110909 
L 83.611146 312.565455 
L 86.79502 312.565455 
L 86.79502 301.201818 
L 89.978893 301.201818 
L 89.978893 280.747273 
L 93.162767 280.747273 
L 93.162767 276.201818 
L 96.34664 276.201818 
L 96.34664 260.292727 
L 99.530514 260.292727 
L 99.530514 255.747273 
L 102.714387 255.747273 
L 102.714387 239.838182 
L 109.082134 239.838182 
L 109.082134 228.474545 
L 112.266008 228.474545 
L 112.266008 221.656364 
L 118.633755 221.656364 
L 118.633755 219.383636 
L 121.817628 219.383636 
L 121.817628 201.201818 
L 125.001502 201.201818 
L 125.001502 192.110909 
L 131.369249 192.110909 
L 131.369249 183.02 
L 134.553123 183.02 
L 134.553123 178.474545 
L 137.736996 178.474545 
L 137.736996 171.656364 
L 140.92087 171.656364 
L 140.92087 162.565455 
L 150.47249 162.565455 
L 150.47249 151.201818 
L 153.656364 151.201818 
L 153.656364 139.838182 
L 156.840237 139.838182 
L 156.840237 135.292727 
L 163.207984 135.292727 
L 163.207984 133.02 
L 172.759605 133.02 
L 172.759605 119.383636 
L 175.943478 119.383636 
L 175.943478 117.110909 
L 179.127352 117.110909 
L 179.127352 112.565455 
L 185.495099 112.565455 
L 185.495099 108.02 
L 188.678972 108.02 
L 188.678972 103.474545 
L 198.230593 103.474545 
L 198.230593 101.201818 
L 201.414466 101.201818 
L 201.414466 96.656364 
L 204.59834 96.656364 
L 204.59834 94.383636 
L 210.966087 94.383636 
L 210.966087 89.838182 
L 217.333834 89.838182 
L 217.333834 87.565455 
L 220.517708 87.565455 
L 220.517708 85.292727 
L 223.701581 85.292727 
L 223.701581 83.02 
L 230.069328 83.02 
L 230.069328 78.474545 
L 239.620949 78.474545 
L 239.620949 76.201818 
L 249.172569 76.201818 
L 249.172569 71.656364 
L 255.540316 71.656364 
L 255.540316 69.383636 
L 261.908063 69.383636 
L 261.908063 67.110909 
L 274.643557 67.110909 
L 274.643557 62.565455 
L 287.379051 62.565455 
L 287.379051 58.02 
L 316.033913 58.02 
L 316.033913 51.201818 
L 328.769407 51.201818 
L 328.769407 48.929091 
L 446.572727 48.929091 
" clip-path="url(#pcc5b885b05)" style="fill: none; stroke: #d62728; stroke-opacity: 0.66; stroke-width: 1.5; stroke-linecap: square"/>
   </g>
   <g id="line2d_17">
    <path d="M 80.427273 317.110909 
L 80.427273 305.45083 
L 82.36455 305.45083 
L 82.36455 295.086315 
L 84.301828 295.086315 
L 84.301828 293.790751 
L 86.239105 293.790751 
L 86.239105 273.061722 
L 88.176383 273.061722 
L 88.176383 269.175029 
L 90.11366 269.175029 
L 90.11366 256.219385 
L 92.050938 256.219385 
L 92.050938 245.85487 
L 93.988215 245.85487 
L 93.988215 244.559306 
L 95.925493 244.559306 
L 95.925493 243.263742 
L 97.862771 243.263742 
L 97.862771 235.490356 
L 99.800048 235.490356 
L 99.800048 227.71697 
L 103.674603 227.71697 
L 103.674603 225.125841 
L 105.611881 225.125841 
L 105.611881 219.943584 
L 107.549158 219.943584 
L 107.549158 218.648019 
L 109.486436 218.648019 
L 109.486436 217.352455 
L 111.423713 217.352455 
L 111.423713 216.056891 
L 113.360991 216.056891 
L 113.360991 214.761326 
L 117.235546 214.761326 
L 117.235546 213.465762 
L 121.110101 213.465762 
L 121.110101 209.579069 
L 123.047379 209.579069 
L 123.047379 208.283505 
L 126.921934 208.283505 
L 126.921934 204.396812 
L 128.859211 204.396812 
L 128.859211 203.101247 
L 134.671044 203.101247 
L 134.671044 200.510119 
L 136.608321 200.510119 
L 136.608321 196.623426 
L 138.545599 196.623426 
L 138.545599 187.554475 
L 140.482876 187.554475 
L 140.482876 186.258911 
L 142.420154 186.258911 
L 142.420154 178.485525 
L 144.357431 178.485525 
L 144.357431 177.18996 
L 146.294709 177.18996 
L 146.294709 174.598832 
L 148.231987 174.598832 
L 148.231987 173.303267 
L 155.981097 173.303267 
L 155.981097 172.007703 
L 161.792929 172.007703 
L 161.792929 169.416574 
L 163.730207 169.416574 
L 163.730207 165.529881 
L 165.667484 165.529881 
L 165.667484 162.938753 
L 167.604762 162.938753 
L 167.604762 161.643188 
L 171.479317 161.643188 
L 171.479317 153.869802 
L 175.353872 153.869802 
L 175.353872 152.574238 
L 177.29115 152.574238 
L 177.29115 151.278674 
L 181.165705 151.278674 
L 181.165705 149.983109 
L 183.102982 149.983109 
L 183.102982 148.687545 
L 190.852092 148.687545 
L 190.852092 144.800852 
L 192.78937 144.800852 
L 192.78937 143.505288 
L 194.726647 143.505288 
L 194.726647 142.209723 
L 198.601203 142.209723 
L 198.601203 140.914159 
L 200.53848 140.914159 
L 200.53848 134.436337 
L 202.475758 134.436337 
L 202.475758 133.140773 
L 204.413035 133.140773 
L 204.413035 131.845209 
L 206.350313 131.845209 
L 206.350313 130.549644 
L 216.0367 130.549644 
L 216.0367 129.25408 
L 221.848533 129.25408 
L 221.848533 127.958516 
L 223.78581 127.958516 
L 223.78581 126.662951 
L 227.660366 126.662951 
L 227.660366 124.071823 
L 231.534921 124.071823 
L 231.534921 118.889565 
L 233.472198 118.889565 
L 233.472198 116.298437 
L 237.346753 116.298437 
L 237.346753 113.707308 
L 239.284031 113.707308 
L 239.284031 111.116179 
L 243.158586 111.116179 
L 243.158586 105.933922 
L 247.033141 105.933922 
L 247.033141 104.638357 
L 250.907696 104.638357 
L 250.907696 100.751664 
L 258.656806 100.751664 
L 258.656806 99.4561 
L 260.594084 99.4561 
L 260.594084 98.160536 
L 262.531361 98.160536 
L 262.531361 96.864971 
L 268.343194 96.864971 
L 268.343194 94.273843 
L 274.155026 94.273843 
L 274.155026 91.682714 
L 276.092304 91.682714 
L 276.092304 86.500457 
L 278.029582 86.500457 
L 278.029582 85.204892 
L 291.590524 85.204892 
L 291.590524 82.613764 
L 295.465079 82.613764 
L 295.465079 81.318199 
L 297.402357 81.318199 
L 297.402357 80.022635 
L 305.151467 80.022635 
L 305.151467 78.727071 
L 307.088745 78.727071 
L 307.088745 77.431506 
L 312.900577 77.431506 
L 312.900577 74.840378 
L 314.837855 74.840378 
L 314.837855 72.249249 
L 324.524242 72.249249 
L 324.524242 68.362556 
L 328.398797 68.362556 
L 328.398797 64.475863 
L 334.21063 64.475863 
L 334.21063 60.58917 
L 343.897018 60.58917 
L 343.897018 59.293606 
L 353.583405 59.293606 
L 353.583405 57.998041 
L 357.457961 57.998041 
L 357.457961 56.702477 
L 365.207071 56.702477 
L 365.207071 55.406913 
L 369.081626 55.406913 
L 369.081626 54.111348 
L 380.705291 54.111348 
L 380.705291 52.815784 
L 409.764454 52.815784 
L 409.764454 51.52022 
L 438.823617 51.52022 
L 438.823617 48.929091 
L 446.572727 48.929091 
L 446.572727 48.929091 
" clip-path="url(#pcc5b885b05)" style="fill: none; stroke: #9467bd; stroke-opacity: 0.66; stroke-width: 1.5; stroke-linecap: square"/>
   </g>
   <g id="line2d_18">
    <path d="M 80.427273 317.110909 
L 84.588017 317.110909 
L 84.588017 310.725628 
L 88.74876 310.725628 
L 88.74876 305.936667 
L 92.909504 305.936667 
L 92.909504 294.762424 
L 97.070248 294.762424 
L 97.070248 267.624978 
L 101.230992 267.624978 
L 101.230992 250.065455 
L 105.391736 250.065455 
L 105.391736 246.872814 
L 109.552479 246.872814 
L 109.552479 238.891212 
L 113.713223 238.891212 
L 113.713223 222.928009 
L 117.873967 222.928009 
L 117.873967 189.405281 
L 122.034711 189.405281 
L 122.034711 168.653117 
L 130.356198 168.653117 
L 130.356198 162.267835 
L 138.677686 162.267835 
L 138.677686 154.286234 
L 142.83843 154.286234 
L 142.83843 151.093593 
L 155.320661 151.093593 
L 155.320661 146.304632 
L 159.481405 146.304632 
L 159.481405 135.13039 
L 163.642149 135.13039 
L 163.642149 131.937749 
L 171.963636 131.937749 
L 171.963636 125.552468 
L 176.12438 125.552468 
L 176.12438 115.974545 
L 180.285124 115.974545 
L 180.285124 103.203983 
L 192.767355 103.203983 
L 192.767355 101.607662 
L 196.928099 101.607662 
L 196.928099 98.415022 
L 201.088843 98.415022 
L 201.088843 95.222381 
L 205.249587 95.222381 
L 205.249587 90.43342 
L 213.571074 90.43342 
L 213.571074 77.662857 
L 221.892562 77.662857 
L 221.892562 76.066537 
L 226.053306 76.066537 
L 226.053306 72.873896 
L 230.21405 72.873896 
L 230.21405 68.084935 
L 234.374793 68.084935 
L 234.374793 64.892294 
L 242.696281 64.892294 
L 242.696281 61.699654 
L 246.857025 61.699654 
L 246.857025 60.103333 
L 271.821488 60.103333 
L 271.821488 58.507013 
L 280.142975 58.507013 
L 280.142975 56.910693 
L 284.303719 56.910693 
L 284.303719 55.314372 
L 371.679339 55.314372 
L 371.679339 53.718052 
L 380.000826 53.718052 
L 380.000826 52.121732 
L 404.965289 52.121732 
L 404.965289 50.525411 
L 425.769008 50.525411 
L 425.769008 48.929091 
L 446.572727 48.929091 
" clip-path="url(#pcc5b885b05)" style="fill: none; stroke: #8c564b; stroke-opacity: 0.66; stroke-width: 1.5; stroke-linecap: square"/>
   </g>
   <g id="line2d_19">
    <path d="M 80.427273 317.110909 
L 80.427273 315.526378 
L 80.954101 315.526378 
L 80.954101 315.130246 
L 81.480929 315.130246 
L 81.480929 313.941848 
L 82.007757 313.941848 
L 82.007757 312.75345 
L 82.534585 312.75345 
L 82.534585 309.188256 
L 83.061413 309.188256 
L 83.061413 307.999858 
L 83.588241 307.999858 
L 83.588241 305.226929 
L 84.641897 305.226929 
L 84.641897 300.473337 
L 85.168725 300.473337 
L 85.168725 299.681072 
L 85.695553 299.681072 
L 85.695553 297.304276 
L 86.222381 297.304276 
L 86.222381 289.381622 
L 86.749209 289.381622 
L 86.749209 288.589357 
L 87.276037 288.589357 
L 87.276037 287.004826 
L 87.802865 287.004826 
L 87.802865 285.816428 
L 88.329693 285.816428 
L 88.329693 284.62803 
L 88.856521 284.62803 
L 88.856521 274.724713 
L 89.910177 274.724713 
L 89.910177 269.971121 
L 90.437005 269.971121 
L 90.437005 269.178856 
L 90.963833 269.178856 
L 90.963833 266.80206 
L 91.490661 266.80206 
L 91.490661 266.405927 
L 92.017489 266.405927 
L 92.017489 265.217529 
L 92.544317 265.217529 
L 92.544317 258.879406 
L 93.071145 258.879406 
L 93.071145 254.521947 
L 93.597973 254.521947 
L 93.597973 252.541284 
L 94.651629 252.541284 
L 94.651629 250.956753 
L 95.178457 250.956753 
L 95.178457 247.787692 
L 95.705284 247.787692 
L 95.705284 246.995426 
L 96.232112 246.995426 
L 96.232112 246.203161 
L 96.75894 246.203161 
L 96.75894 244.61863 
L 97.285768 244.61863 
L 97.285768 244.222498 
L 98.339424 244.222498 
L 98.339424 242.241834 
L 98.866252 242.241834 
L 98.866252 241.449569 
L 99.39308 241.449569 
L 99.39308 241.053436 
L 99.919908 241.053436 
L 99.919908 240.657304 
L 100.446736 240.657304 
L 100.446736 240.261171 
L 100.973564 240.261171 
L 100.973564 239.072773 
L 101.500392 239.072773 
L 101.500392 238.280508 
L 102.02722 238.280508 
L 102.02722 236.299844 
L 102.554048 236.299844 
L 102.554048 231.15012 
L 103.080876 231.15012 
L 103.080876 229.961721 
L 104.134532 229.961721 
L 104.134532 229.169456 
L 105.188188 229.169456 
L 105.188188 228.377191 
L 105.715016 228.377191 
L 105.715016 227.188793 
L 106.241844 227.188793 
L 106.241844 226.79266 
L 107.2955 226.79266 
L 107.2955 226.396527 
L 107.822328 226.396527 
L 107.822328 225.604262 
L 108.349156 225.604262 
L 108.349156 225.208129 
L 109.92964 225.208129 
L 109.92964 224.415864 
L 110.456468 224.415864 
L 110.456468 223.623599 
L 110.983296 223.623599 
L 110.983296 222.831333 
L 111.510124 222.831333 
L 111.510124 221.642935 
L 112.036952 221.642935 
L 112.036952 220.454537 
L 112.56378 220.454537 
L 112.56378 217.681609 
L 113.090608 217.681609 
L 113.090608 212.531884 
L 113.617436 212.531884 
L 113.617436 210.155088 
L 114.144264 210.155088 
L 114.144264 209.362823 
L 114.671092 209.362823 
L 114.671092 208.96669 
L 115.19792 208.96669 
L 115.19792 208.174425 
L 115.724748 208.174425 
L 115.724748 206.986027 
L 116.251576 206.986027 
L 116.251576 205.005363 
L 116.778404 205.005363 
L 116.778404 203.816965 
L 118.358888 203.816965 
L 118.358888 203.420833 
L 118.885716 203.420833 
L 118.885716 203.0247 
L 119.412544 203.0247 
L 119.412544 202.232435 
L 119.939372 202.232435 
L 119.939372 201.836302 
L 120.4662 201.836302 
L 120.4662 201.440169 
L 120.993028 201.440169 
L 120.993028 200.647904 
L 121.519856 200.647904 
L 121.519856 200.251771 
L 122.573512 200.251771 
L 122.573512 199.063373 
L 123.10034 199.063373 
L 123.10034 198.66724 
L 124.153996 198.66724 
L 124.153996 197.874975 
L 124.680824 197.874975 
L 124.680824 197.478842 
L 125.207652 197.478842 
L 125.207652 196.686577 
L 125.73448 196.686577 
L 125.73448 194.309781 
L 126.261308 194.309781 
L 126.261308 193.913648 
L 127.841792 193.913648 
L 127.841792 193.121383 
L 128.895448 193.121383 
L 128.895448 191.932985 
L 129.422276 191.932985 
L 129.422276 190.348454 
L 129.949104 190.348454 
L 129.949104 189.556189 
L 130.475932 189.556189 
L 130.475932 185.594862 
L 132.056416 185.594862 
L 132.056416 184.010332 
L 132.583244 184.010332 
L 132.583244 183.614199 
L 133.110072 183.614199 
L 133.110072 182.425801 
L 133.6369 182.425801 
L 133.6369 181.633536 
L 134.163728 181.633536 
L 134.163728 181.237403 
L 134.690556 181.237403 
L 134.690556 179.652872 
L 136.27104 179.652872 
L 136.27104 178.464474 
L 136.797868 178.464474 
L 136.797868 177.672209 
L 137.324696 177.672209 
L 137.324696 177.276076 
L 138.378352 177.276076 
L 138.378352 176.087678 
L 138.90518 176.087678 
L 138.90518 174.503148 
L 139.432008 174.503148 
L 139.432008 174.107015 
L 139.958836 174.107015 
L 139.958836 173.710882 
L 140.485664 173.710882 
L 140.485664 173.31475 
L 141.012492 173.31475 
L 141.012492 172.126352 
L 141.53932 172.126352 
L 141.53932 171.334086 
L 142.066148 171.334086 
L 142.066148 170.937954 
L 142.592976 170.937954 
L 142.592976 169.353423 
L 143.646632 169.353423 
L 143.646632 168.95729 
L 144.17346 168.95729 
L 144.17346 168.561158 
L 146.280772 168.561158 
L 146.280772 167.768892 
L 147.334428 167.768892 
L 147.334428 167.37276 
L 148.914912 167.37276 
L 148.914912 166.580494 
L 149.44174 166.580494 
L 149.44174 164.995963 
L 149.968568 164.995963 
L 149.968568 164.599831 
L 151.022224 164.599831 
L 151.022224 162.223035 
L 152.07588 162.223035 
L 152.07588 161.430769 
L 152.602708 161.430769 
L 152.602708 160.242371 
L 153.656364 160.242371 
L 153.656364 159.846239 
L 155.763676 159.846239 
L 155.763676 159.450106 
L 156.290504 159.450106 
L 156.290504 159.053973 
L 156.817332 159.053973 
L 156.817332 156.281045 
L 157.34416 156.281045 
L 157.34416 154.300381 
L 157.870988 154.300381 
L 157.870988 153.508116 
L 158.397816 153.508116 
L 158.397816 153.111983 
L 158.924644 153.111983 
L 158.924644 151.923585 
L 161.558784 151.923585 
L 161.558784 148.358391 
L 163.139267 148.358391 
L 163.139267 147.962259 
L 165.773407 147.962259 
L 165.773407 147.169993 
L 166.300235 147.169993 
L 166.300235 145.981595 
L 166.827063 145.981595 
L 166.827063 145.585463 
L 167.353891 145.585463 
L 167.353891 145.18933 
L 168.407547 145.18933 
L 168.407547 144.793197 
L 168.934375 144.793197 
L 168.934375 144.397065 
L 170.514859 144.397065 
L 170.514859 144.000932 
L 171.568515 144.000932 
L 171.568515 143.604799 
L 172.622171 143.604799 
L 172.622171 143.208667 
L 174.202655 143.208667 
L 174.202655 142.416401 
L 174.729483 142.416401 
L 174.729483 142.020269 
L 175.256311 142.020269 
L 175.256311 141.228003 
L 176.309967 141.228003 
L 176.309967 140.435738 
L 176.836795 140.435738 
L 176.836795 139.24734 
L 177.890451 139.24734 
L 177.890451 138.058942 
L 178.417279 138.058942 
L 178.417279 136.870544 
L 179.997763 136.870544 
L 179.997763 135.682146 
L 182.105075 135.682146 
L 182.105075 135.286013 
L 183.685559 135.286013 
L 183.685559 134.493748 
L 184.212387 134.493748 
L 184.212387 132.909217 
L 184.739215 132.909217 
L 184.739215 132.513084 
L 185.792871 132.513084 
L 185.792871 131.720819 
L 186.319699 131.720819 
L 186.319699 130.928554 
L 187.373355 130.928554 
L 187.373355 130.532421 
L 187.900183 130.532421 
L 187.900183 126.967227 
L 190.007495 126.967227 
L 190.007495 124.986564 
L 192.114807 124.986564 
L 192.114807 124.590431 
L 193.695291 124.590431 
L 193.695291 124.194298 
L 194.748947 124.194298 
L 194.748947 123.402033 
L 195.802603 123.402033 
L 195.802603 121.817502 
L 196.329431 121.817502 
L 196.329431 121.42137 
L 196.856259 121.42137 
L 196.856259 121.025237 
L 197.383087 121.025237 
L 197.383087 120.629104 
L 197.909915 120.629104 
L 197.909915 120.232972 
L 198.436743 120.232972 
L 198.436743 119.836839 
L 199.490399 119.836839 
L 199.490399 119.440706 
L 200.017227 119.440706 
L 200.017227 119.044574 
L 201.597711 119.044574 
L 201.597711 118.252308 
L 202.124539 118.252308 
L 202.124539 117.856176 
L 203.178195 117.856176 
L 203.178195 116.667778 
L 203.705023 116.667778 
L 203.705023 115.875512 
L 204.231851 115.875512 
L 204.231851 115.47938 
L 205.285507 115.47938 
L 205.285507 115.083247 
L 205.812335 115.083247 
L 205.812335 114.687114 
L 206.339163 114.687114 
L 206.339163 113.894849 
L 206.865991 113.894849 
L 206.865991 112.310318 
L 207.392819 112.310318 
L 207.392819 111.518053 
L 207.919647 111.518053 
L 207.919647 110.329655 
L 208.446475 110.329655 
L 208.446475 109.53739 
L 209.500131 109.53739 
L 209.500131 108.745124 
L 210.026959 108.745124 
L 210.026959 108.348992 
L 210.553787 108.348992 
L 210.553787 107.160594 
L 211.607443 107.160594 
L 211.607443 106.764461 
L 212.134271 106.764461 
L 212.134271 106.368328 
L 214.768411 106.368328 
L 214.768411 105.972196 
L 215.295239 105.972196 
L 215.295239 105.17993 
L 215.822067 105.17993 
L 215.822067 104.387665 
L 218.456207 104.387665 
L 218.456207 103.595399 
L 218.983035 103.595399 
L 218.983035 102.010869 
L 220.563519 102.010869 
L 220.563519 101.614736 
L 221.617175 101.614736 
L 221.617175 101.218603 
L 223.197659 101.218603 
L 223.197659 100.426338 
L 223.724487 100.426338 
L 223.724487 98.841807 
L 224.251315 98.841807 
L 224.251315 98.445675 
L 224.778143 98.445675 
L 224.778143 97.653409 
L 225.304971 97.653409 
L 225.304971 97.257277 
L 226.885455 97.257277 
L 226.885455 96.465011 
L 229.519595 96.465011 
L 229.519595 95.672746 
L 230.046422 95.672746 
L 230.046422 95.276613 
L 230.57325 95.276613 
L 230.57325 94.880481 
L 231.626906 94.880481 
L 231.626906 94.088215 
L 235.314702 94.088215 
L 235.314702 93.692083 
L 235.84153 93.692083 
L 235.84153 92.503685 
L 236.368358 92.503685 
L 236.368358 92.107552 
L 236.895186 92.107552 
L 236.895186 91.711419 
L 238.47567 91.711419 
L 238.47567 91.315287 
L 239.529326 91.315287 
L 239.529326 90.126889 
L 241.10981 90.126889 
L 241.10981 89.730756 
L 242.163466 89.730756 
L 242.163466 88.938491 
L 243.74395 88.938491 
L 243.74395 88.542358 
L 244.270778 88.542358 
L 244.270778 88.146225 
L 245.324434 88.146225 
L 245.324434 86.957827 
L 245.851262 86.957827 
L 245.851262 86.561695 
L 246.37809 86.561695 
L 246.37809 86.165562 
L 246.904918 86.165562 
L 246.904918 85.373297 
L 247.958574 85.373297 
L 247.958574 84.977164 
L 248.485402 84.977164 
L 248.485402 84.581031 
L 249.539058 84.581031 
L 249.539058 84.184899 
L 250.592714 84.184899 
L 250.592714 82.996501 
L 252.173198 82.996501 
L 252.173198 81.808103 
L 253.753682 81.808103 
L 253.753682 81.41197 
L 256.387822 81.41197 
L 256.387822 81.015837 
L 256.91465 81.015837 
L 256.91465 80.619705 
L 260.602446 80.619705 
L 260.602446 80.223572 
L 261.656102 80.223572 
L 261.656102 79.431307 
L 262.18293 79.431307 
L 262.18293 79.035174 
L 262.709758 79.035174 
L 262.709758 78.639041 
L 263.763414 78.639041 
L 263.763414 76.262245 
L 264.290242 76.262245 
L 264.290242 74.677715 
L 264.81707 74.677715 
L 264.81707 74.281582 
L 265.343898 74.281582 
L 265.343898 73.885449 
L 269.031694 73.885449 
L 269.031694 73.093184 
L 270.08535 73.093184 
L 270.08535 72.300918 
L 274.299974 72.300918 
L 274.299974 71.904786 
L 275.35363 71.904786 
L 275.35363 70.320255 
L 276.407286 70.320255 
L 276.407286 69.924122 
L 276.934114 69.924122 
L 276.934114 69.52799 
L 278.514598 69.52799 
L 278.514598 69.131857 
L 279.568254 69.131857 
L 279.568254 68.735724 
L 282.202394 68.735724 
L 282.202394 67.547326 
L 282.729222 67.547326 
L 282.729222 67.151194 
L 286.943846 67.151194 
L 286.943846 66.755061 
L 287.470674 66.755061 
L 287.470674 66.358928 
L 288.52433 66.358928 
L 288.52433 65.962796 
L 289.577986 65.962796 
L 289.577986 65.566663 
L 290.104814 65.566663 
L 290.104814 64.774398 
L 292.212126 64.774398 
L 292.212126 64.378265 
L 298.534061 64.378265 
L 298.534061 63.586 
L 299.587717 63.586 
L 299.587717 63.189867 
L 306.436481 63.189867 
L 306.436481 62.793734 
L 308.543793 62.793734 
L 308.543793 62.397602 
L 309.070621 62.397602 
L 309.070621 62.001469 
L 311.177933 62.001469 
L 311.177933 61.209204 
L 323.294977 61.209204 
L 323.294977 60.813071 
L 328.563257 60.813071 
L 328.563257 60.416938 
L 332.777881 60.416938 
L 332.777881 60.020806 
L 333.304709 60.020806 
L 333.304709 59.624673 
L 334.358365 59.624673 
L 334.358365 58.832408 
L 336.465677 58.832408 
L 336.465677 58.436275 
L 338.572989 58.436275 
L 338.572989 58.040142 
L 339.626645 58.040142 
L 339.626645 57.64401 
L 346.475409 57.64401 
L 346.475409 57.247877 
L 358.592453 57.247877 
L 358.592453 56.455612 
L 362.807077 56.455612 
L 362.807077 56.059479 
L 365.441216 56.059479 
L 365.441216 55.663346 
L 367.548528 55.663346 
L 367.548528 55.267214 
L 372.816808 55.267214 
L 372.816808 54.871081 
L 375.977776 54.871081 
L 375.977776 54.474948 
L 377.55826 54.474948 
L 377.55826 54.078816 
L 387.567992 54.078816 
L 387.567992 53.682683 
L 389.675304 53.682683 
L 389.675304 52.890418 
L 390.72896 52.890418 
L 390.72896 52.494285 
L 392.309444 52.494285 
L 392.309444 52.098152 
L 393.889928 52.098152 
L 393.889928 51.70202 
L 395.470412 51.70202 
L 395.470412 51.305887 
L 398.63138 51.305887 
L 398.63138 50.909754 
L 407.060628 50.909754 
L 407.060628 50.513622 
L 407.587456 50.513622 
L 407.587456 50.117489 
L 413.909392 50.117489 
L 413.909392 49.721356 
L 429.714232 49.721356 
L 429.714232 49.325224 
L 430.24106 49.325224 
L 430.24106 48.929091 
L 446.572727 48.929091 
L 446.572727 48.929091 
" clip-path="url(#pcc5b885b05)" style="fill: none; stroke: #000000; stroke-width: 1.5; stroke-linecap: square"/>
   </g>
   <g id="line2d_20">
    <path d="M -1 376.751999 
L 2.760055 373.997961 
L 13.855372 365.87124 
L 24.950689 357.744518 
L 36.046006 349.617796 
L 47.141322 341.491074 
L 58.236639 333.364353 
L 69.331956 325.237631 
L 80.427273 317.110909 
L 91.52259 308.984187 
L 102.617906 300.857466 
L 113.713223 292.730744 
L 124.80854 284.604022 
L 135.903857 276.4773 
L 146.999174 268.350579 
L 158.09449 260.223857 
L 169.189807 252.097135 
L 180.285124 243.970413 
L 191.380441 235.843691 
L 202.475758 227.71697 
L 213.571074 219.590248 
L 224.666391 211.463526 
L 235.761708 203.336804 
L 246.857025 195.210083 
L 257.952342 187.083361 
L 269.047658 178.956639 
L 280.142975 170.829917 
L 291.238292 162.703196 
L 302.333609 154.576474 
L 313.428926 146.449752 
L 324.524242 138.32303 
L 335.619559 130.196309 
L 346.714876 122.069587 
L 357.810193 113.942865 
L 368.90551 105.816143 
L 380.000826 97.689421 
L 391.096143 89.5627 
L 402.19146 81.435978 
L 413.286777 73.309256 
L 424.382094 65.182534 
L 435.47741 57.055813 
L 446.572727 48.929091 
L 457.668044 40.802369 
L 468.763361 32.675647 
L 479.858678 24.548926 
L 481 23.712969 
" clip-path="url(#pcc5b885b05)" style="fill: none; stroke-dasharray: 5.55,2.4; stroke-dashoffset: 0; stroke: #000000; stroke-width: 1.5"/>
   </g>
   <g id="patch_3">
    <path d="M 62.12 330.52 
L 62.12 35.52 
" style="fill: none; stroke: #000000; stroke-width: 0.8; stroke-linejoin: miter; stroke-linecap: square"/>
   </g>
   <g id="patch_4">
    <path d="M 62.12 330.52 
L 464.88 330.52 
" style="fill: none; stroke: #000000; stroke-width: 0.8; stroke-linejoin: miter; stroke-linecap: square"/>
   </g>
   <g id="text_15">
    <!-- Synthetic + $\mathit{in}$ $\mathit{vivo}$ data -->
    <g transform="translate(162.112 29.52) scale(0.168 -0.168)">
     <defs>
      <path id="DejaVuSans-53" d="M 3425 4513 
L 3425 3897 
Q 3066 4069 2747 4153 
Q 2428 4238 2131 4238 
Q 1616 4238 1336 4038 
Q 1056 3838 1056 3469 
Q 1056 3159 1242 3001 
Q 1428 2844 1947 2747 
L 2328 2669 
Q 3034 2534 3370 2195 
Q 3706 1856 3706 1288 
Q 3706 609 3251 259 
Q 2797 -91 1919 -91 
Q 1588 -91 1214 -16 
Q 841 59 441 206 
L 441 856 
Q 825 641 1194 531 
Q 1563 422 1919 422 
Q 2459 422 2753 634 
Q 3047 847 3047 1241 
Q 3047 1584 2836 1778 
Q 2625 1972 2144 2069 
L 1759 2144 
Q 1053 2284 737 2584 
Q 422 2884 422 3419 
Q 422 4038 858 4394 
Q 1294 4750 2059 4750 
Q 2388 4750 2728 4690 
Q 3069 4631 3425 4513 
z
" transform="scale(0.015625)"/>
      <path id="DejaVuSans-79" d="M 2059 -325 
Q 1816 -950 1584 -1140 
Q 1353 -1331 966 -1331 
L 506 -1331 
L 506 -850 
L 844 -850 
Q 1081 -850 1212 -737 
Q 1344 -625 1503 -206 
L 1606 56 
L 191 3500 
L 800 3500 
L 1894 763 
L 2988 3500 
L 3597 3500 
L 2059 -325 
z
" transform="scale(0.015625)"/>
      <path id="DejaVuSans-6e" d="M 3513 2113 
L 3513 0 
L 2938 0 
L 2938 2094 
Q 2938 2591 2744 2837 
Q 2550 3084 2163 3084 
Q 1697 3084 1428 2787 
Q 1159 2491 1159 1978 
L 1159 0 
L 581 0 
L 581 3500 
L 1159 3500 
L 1159 2956 
Q 1366 3272 1645 3428 
Q 1925 3584 2291 3584 
Q 2894 3584 3203 3211 
Q 3513 2838 3513 2113 
z
" transform="scale(0.015625)"/>
      <path id="DejaVuSans-68" d="M 3513 2113 
L 3513 0 
L 2938 0 
L 2938 2094 
Q 2938 2591 2744 2837 
Q 2550 3084 2163 3084 
Q 1697 3084 1428 2787 
Q 1159 2491 1159 1978 
L 1159 0 
L 581 0 
L 581 4863 
L 1159 4863 
L 1159 2956 
Q 1366 3272 1645 3428 
Q 1925 3584 2291 3584 
Q 2894 3584 3203 3211 
Q 3513 2838 3513 2113 
z
" transform="scale(0.015625)"/>
      <path id="DejaVuSans-63" d="M 3122 3366 
L 3122 2828 
Q 2878 2963 2633 3030 
Q 2388 3097 2138 3097 
Q 1578 3097 1268 2742 
Q 959 2388 959 1747 
Q 959 1106 1268 751 
Q 1578 397 2138 397 
Q 2388 397 2633 464 
Q 2878 531 3122 666 
L 3122 134 
Q 2881 22 2623 -34 
Q 2366 -91 2075 -91 
Q 1284 -91 818 406 
Q 353 903 353 1747 
Q 353 2603 823 3093 
Q 1294 3584 2113 3584 
Q 2378 3584 2631 3529 
Q 2884 3475 3122 3366 
z
" transform="scale(0.015625)"/>
      <path id="DejaVuSans-2b" d="M 2944 4013 
L 2944 2272 
L 4684 2272 
L 4684 1741 
L 2944 1741 
L 2944 0 
L 2419 0 
L 2419 1741 
L 678 1741 
L 678 2272 
L 2419 2272 
L 2419 4013 
L 2944 4013 
z
" transform="scale(0.015625)"/>
      <path id="DejaVuSans-Oblique-69" d="M 1172 4863 
L 1747 4863 
L 1606 4134 
L 1031 4134 
L 1172 4863 
z
M 909 3500 
L 1484 3500 
L 800 0 
L 225 0 
L 909 3500 
z
" transform="scale(0.015625)"/>
      <path id="DejaVuSans-Oblique-6e" d="M 3566 2113 
L 3156 0 
L 2578 0 
L 2988 2091 
Q 3016 2238 3031 2350 
Q 3047 2463 3047 2528 
Q 3047 2791 2881 2937 
Q 2716 3084 2419 3084 
Q 1956 3084 1622 2776 
Q 1288 2469 1184 1941 
L 800 0 
L 225 0 
L 903 3500 
L 1478 3500 
L 1363 2950 
Q 1603 3253 1940 3418 
Q 2278 3584 2650 3584 
Q 3113 3584 3367 3334 
Q 3622 3084 3622 2631 
Q 3622 2519 3608 2391 
Q 3594 2263 3566 2113 
z
" transform="scale(0.015625)"/>
      <path id="DejaVuSans-Oblique-76" d="M 459 3500 
L 1069 3500 
L 1581 525 
L 3256 3500 
L 3866 3500 
L 1875 0 
L 1100 0 
L 459 3500 
z
" transform="scale(0.015625)"/>
      <path id="DejaVuSans-Oblique-6f" d="M 1625 -91 
Q 1009 -91 651 289 
Q 294 669 294 1325 
Q 294 1706 417 2101 
Q 541 2497 738 2766 
Q 1047 3184 1428 3384 
Q 1809 3584 2291 3584 
Q 2888 3584 3255 3212 
Q 3622 2841 3622 2241 
Q 3622 1825 3500 1412 
Q 3378 1000 3181 728 
Q 2875 309 2494 109 
Q 2113 -91 1625 -91 
z
M 891 1344 
Q 891 869 1089 633 
Q 1288 397 1691 397 
Q 2269 397 2648 901 
Q 3028 1406 3028 2181 
Q 3028 2634 2825 2865 
Q 2622 3097 2228 3097 
Q 1903 3097 1650 2945 
Q 1397 2794 1197 2484 
Q 1050 2253 970 1956 
Q 891 1659 891 1344 
z
" transform="scale(0.015625)"/>
      <path id="DejaVuSans-64" d="M 2906 2969 
L 2906 4863 
L 3481 4863 
L 3481 0 
L 2906 0 
L 2906 525 
Q 2725 213 2448 61 
Q 2172 -91 1784 -91 
Q 1150 -91 751 415 
Q 353 922 353 1747 
Q 353 2572 751 3078 
Q 1150 3584 1784 3584 
Q 2172 3584 2448 3432 
Q 2725 3281 2906 2969 
z
M 947 1747 
Q 947 1113 1208 752 
Q 1469 391 1925 391 
Q 2381 391 2643 752 
Q 2906 1113 2906 1747 
Q 2906 2381 2643 2742 
Q 2381 3103 1925 3103 
Q 1469 3103 1208 2742 
Q 947 2381 947 1747 
z
" transform="scale(0.015625)"/>
     </defs>
     <use xlink:href="#DejaVuSans-53" transform="translate(0 0.015625)"/>
     <use xlink:href="#DejaVuSans-79" transform="translate(63.476562 0.015625)"/>
     <use xlink:href="#DejaVuSans-6e" transform="translate(122.65625 0.015625)"/>
     <use xlink:href="#DejaVuSans-74" transform="translate(186.035156 0.015625)"/>
     <use xlink:href="#DejaVuSans-68" transform="translate(225.244141 0.015625)"/>
     <use xlink:href="#DejaVuSans-65" transform="translate(288.623047 0.015625)"/>
     <use xlink:href="#DejaVuSans-74" transform="translate(350.146484 0.015625)"/>
     <use xlink:href="#DejaVuSans-69" transform="translate(389.355469 0.015625)"/>
     <use xlink:href="#DejaVuSans-63" transform="translate(417.138672 0.015625)"/>
     <use xlink:href="#DejaVuSans-20" transform="translate(472.119141 0.015625)"/>
     <use xlink:href="#DejaVuSans-2b" transform="translate(503.90625 0.015625)"/>
     <use xlink:href="#DejaVuSans-20" transform="translate(587.695312 0.015625)"/>
     <use xlink:href="#DejaVuSans-Oblique-69" transform="translate(619.482422 0.015625)"/>
     <use xlink:href="#DejaVuSans-Oblique-6e" transform="translate(647.265625 0.015625)"/>
     <use xlink:href="#DejaVuSans-20" transform="translate(710.644531 0.015625)"/>
     <use xlink:href="#DejaVuSans-Oblique-76" transform="translate(742.431641 0.015625)"/>
     <use xlink:href="#DejaVuSans-Oblique-69" transform="translate(801.611328 0.015625)"/>
     <use xlink:href="#DejaVuSans-Oblique-76" transform="translate(829.394531 0.015625)"/>
     <use xlink:href="#DejaVuSans-Oblique-6f" transform="translate(888.574219 0.015625)"/>
     <use xlink:href="#DejaVuSans-20" transform="translate(949.755859 0.015625)"/>
     <use xlink:href="#DejaVuSans-64" transform="translate(981.542969 0.015625)"/>
     <use xlink:href="#DejaVuSans-61" transform="translate(1045.019531 0.015625)"/>
     <use xlink:href="#DejaVuSans-74" transform="translate(1106.298828 0.015625)"/>
     <use xlink:href="#DejaVuSans-61" transform="translate(1145.507812 0.015625)"/>
    </g>
   </g>
  </g>
 </g>
 <defs>
  <clipPath id="pcc5b885b05">
   <rect x="62.12" y="35.52" width="402.76" height="295"/>
  </clipPath>
 </defs>
</svg>
