<?xml version="1.0" encoding="utf-8" standalone="no"?>
<!DOCTYPE svg PUBLIC "-//W3C//DTD SVG 1.1//EN"
  "http://www.w3.org/Graphics/SVG/1.1/DTD/svg11.dtd">
<svg xmlns:xlink="http://www.w3.org/1999/xlink" width="480pt" height="384pt" viewBox="0 0 480 384" xmlns="http://www.w3.org/2000/svg" version="1.1">
 <metadata>
  <rdf:RDF xmlns:dc="http://purl.org/dc/elements/1.1/" xmlns:cc="http://creativecommons.org/ns#" xmlns:rdf="http://www.w3.org/1999/02/22-rdf-syntax-ns#">
   <cc:Work>
    <dc:type rdf:resource="http://purl.org/dc/dcmitype/StillImage"/>
    <dc:date>2024-05-22T19:17:44.005336</dc:date>
    <dc:format>image/svg+xml</dc:format>
    <dc:creator>
     <cc:Agent>
      <dc:title>Matplotlib v3.8.0, https://matplotlib.org/</dc:title>
     </cc:Agent>
    </dc:creator>
   </cc:Work>
  </rdf:RDF>
 </metadata>
 <defs>
  <style type="text/css">*{stroke-linejoin: round; stroke-linecap: butt}</style>
 </defs>
 <g id="figure_1">
  <g id="patch_1">
   <path d="M 0 384 
L 480 384 
L 480 0 
L 0 0 
z
" style="fill: #ffffff"/>
  </g>
  <g id="axes_1">
   <g id="patch_2">
    <path d="M 62.12 330.52 
L 464.88 330.52 
L 464.88 34.08 
L 62.12 34.08 
z
" style="fill: #ffffff"/>
   </g>
   <g id="matplotlib.axis_1">
    <g id="xtick_1">
     <g id="line2d_1">
      <defs>
       <path id="m2d381b5465" d="M 0 0 
L 0 3.5 
" style="stroke: #000000; stroke-width: 0.8"/>
      </defs>
      <g>
       <use xlink:href="#m2d381b5465" x="80.427273" y="330.52" style="stroke: #000000; stroke-width: 0.8"/>
      </g>
     </g>
     <g id="text_1">
      <!-- 0.0 -->
      <g transform="translate(69.295085 348.157812) scale(0.14 -0.14)">
       <defs>
        <path id="DejaVuSans-30" d="M 2034 4250 
Q 1547 4250 1301 3770 
Q 1056 3291 1056 2328 
Q 1056 1369 1301 889 
Q 1547 409 2034 409 
Q 2525 409 2770 889 
Q 3016 1369 3016 2328 
Q 3016 3291 2770 3770 
Q 2525 4250 2034 4250 
z
M 2034 4750 
Q 2819 4750 3233 4129 
Q 3647 3509 3647 2328 
Q 3647 1150 3233 529 
Q 2819 -91 2034 -91 
Q 1250 -91 836 529 
Q 422 1150 422 2328 
Q 422 3509 836 4129 
Q 1250 4750 2034 4750 
z
" transform="scale(0.015625)"/>
        <path id="DejaVuSans-2e" d="M 684 794 
L 1344 794 
L 1344 0 
L 684 0 
L 684 794 
z
" transform="scale(0.015625)"/>
       </defs>
       <use xlink:href="#DejaVuSans-30"/>
       <use xlink:href="#DejaVuSans-2e" x="63.623047"/>
       <use xlink:href="#DejaVuSans-30" x="95.410156"/>
      </g>
     </g>
    </g>
    <g id="xtick_2">
     <g id="line2d_2">
      <g>
       <use xlink:href="#m2d381b5465" x="153.656364" y="330.52" style="stroke: #000000; stroke-width: 0.8"/>
      </g>
     </g>
     <g id="text_2">
      <!-- 0.2 -->
      <g transform="translate(142.524176 348.157812) scale(0.14 -0.14)">
       <defs>
        <path id="DejaVuSans-32" d="M 1228 531 
L 3431 531 
L 3431 0 
L 469 0 
L 469 531 
Q 828 903 1448 1529 
Q 2069 2156 2228 2338 
Q 2531 2678 2651 2914 
Q 2772 3150 2772 3378 
Q 2772 3750 2511 3984 
Q 2250 4219 1831 4219 
Q 1534 4219 1204 4116 
Q 875 4013 500 3803 
L 500 4441 
Q 881 4594 1212 4672 
Q 1544 4750 1819 4750 
Q 2544 4750 2975 4387 
Q 3406 4025 3406 3419 
Q 3406 3131 3298 2873 
Q 3191 2616 2906 2266 
Q 2828 2175 2409 1742 
Q 1991 1309 1228 531 
z
" transform="scale(0.015625)"/>
       </defs>
       <use xlink:href="#DejaVuSans-30"/>
       <use xlink:href="#DejaVuSans-2e" x="63.623047"/>
       <use xlink:href="#DejaVuSans-32" x="95.410156"/>
      </g>
     </g>
    </g>
    <g id="xtick_3">
     <g id="line2d_3">
      <g>
       <use xlink:href="#m2d381b5465" x="226.885455" y="330.52" style="stroke: #000000; stroke-width: 0.8"/>
      </g>
     </g>
     <g id="text_3">
      <!-- 0.4 -->
      <g transform="translate(215.753267 348.157812) scale(0.14 -0.14)">
       <defs>
        <path id="DejaVuSans-34" d="M 2419 4116 
L 825 1625 
L 2419 1625 
L 2419 4116 
z
M 2253 4666 
L 3047 4666 
L 3047 1625 
L 3713 1625 
L 3713 1100 
L 3047 1100 
L 3047 0 
L 2419 0 
L 2419 1100 
L 313 1100 
L 313 1709 
L 2253 4666 
z
" transform="scale(0.015625)"/>
       </defs>
       <use xlink:href="#DejaVuSans-30"/>
       <use xlink:href="#DejaVuSans-2e" x="63.623047"/>
       <use xlink:href="#DejaVuSans-34" x="95.410156"/>
      </g>
     </g>
    </g>
    <g id="xtick_4">
     <g id="line2d_4">
      <g>
       <use xlink:href="#m2d381b5465" x="300.114545" y="330.52" style="stroke: #000000; stroke-width: 0.8"/>
      </g>
     </g>
     <g id="text_4">
      <!-- 0.6 -->
      <g transform="translate(288.982358 348.157812) scale(0.14 -0.14)">
       <defs>
        <path id="DejaVuSans-36" d="M 2113 2584 
Q 1688 2584 1439 2293 
Q 1191 2003 1191 1497 
Q 1191 994 1439 701 
Q 1688 409 2113 409 
Q 2538 409 2786 701 
Q 3034 994 3034 1497 
Q 3034 2003 2786 2293 
Q 2538 2584 2113 2584 
z
M 3366 4563 
L 3366 3988 
Q 3128 4100 2886 4159 
Q 2644 4219 2406 4219 
Q 1781 4219 1451 3797 
Q 1122 3375 1075 2522 
Q 1259 2794 1537 2939 
Q 1816 3084 2150 3084 
Q 2853 3084 3261 2657 
Q 3669 2231 3669 1497 
Q 3669 778 3244 343 
Q 2819 -91 2113 -91 
Q 1303 -91 875 529 
Q 447 1150 447 2328 
Q 447 3434 972 4092 
Q 1497 4750 2381 4750 
Q 2619 4750 2861 4703 
Q 3103 4656 3366 4563 
z
" transform="scale(0.015625)"/>
       </defs>
       <use xlink:href="#DejaVuSans-30"/>
       <use xlink:href="#DejaVuSans-2e" x="63.623047"/>
       <use xlink:href="#DejaVuSans-36" x="95.410156"/>
      </g>
     </g>
    </g>
    <g id="xtick_5">
     <g id="line2d_5">
      <g>
       <use xlink:href="#m2d381b5465" x="373.343636" y="330.52" style="stroke: #000000; stroke-width: 0.8"/>
      </g>
     </g>
     <g id="text_5">
      <!-- 0.8 -->
      <g transform="translate(362.211449 348.157812) scale(0.14 -0.14)">
       <defs>
        <path id="DejaVuSans-38" d="M 2034 2216 
Q 1584 2216 1326 1975 
Q 1069 1734 1069 1313 
Q 1069 891 1326 650 
Q 1584 409 2034 409 
Q 2484 409 2743 651 
Q 3003 894 3003 1313 
Q 3003 1734 2745 1975 
Q 2488 2216 2034 2216 
z
M 1403 2484 
Q 997 2584 770 2862 
Q 544 3141 544 3541 
Q 544 4100 942 4425 
Q 1341 4750 2034 4750 
Q 2731 4750 3128 4425 
Q 3525 4100 3525 3541 
Q 3525 3141 3298 2862 
Q 3072 2584 2669 2484 
Q 3125 2378 3379 2068 
Q 3634 1759 3634 1313 
Q 3634 634 3220 271 
Q 2806 -91 2034 -91 
Q 1263 -91 848 271 
Q 434 634 434 1313 
Q 434 1759 690 2068 
Q 947 2378 1403 2484 
z
M 1172 3481 
Q 1172 3119 1398 2916 
Q 1625 2713 2034 2713 
Q 2441 2713 2670 2916 
Q 2900 3119 2900 3481 
Q 2900 3844 2670 4047 
Q 2441 4250 2034 4250 
Q 1625 4250 1398 4047 
Q 1172 3844 1172 3481 
z
" transform="scale(0.015625)"/>
       </defs>
       <use xlink:href="#DejaVuSans-30"/>
       <use xlink:href="#DejaVuSans-2e" x="63.623047"/>
       <use xlink:href="#DejaVuSans-38" x="95.410156"/>
      </g>
     </g>
    </g>
    <g id="xtick_6">
     <g id="line2d_6">
      <g>
       <use xlink:href="#m2d381b5465" x="446.572727" y="330.52" style="stroke: #000000; stroke-width: 0.8"/>
      </g>
     </g>
     <g id="text_6">
      <!-- 1.0 -->
      <g transform="translate(435.44054 348.157812) scale(0.14 -0.14)">
       <defs>
        <path id="DejaVuSans-31" d="M 794 531 
L 1825 531 
L 1825 4091 
L 703 3866 
L 703 4441 
L 1819 4666 
L 2450 4666 
L 2450 531 
L 3481 531 
L 3481 0 
L 794 0 
L 794 531 
z
" transform="scale(0.015625)"/>
       </defs>
       <use xlink:href="#DejaVuSans-31"/>
       <use xlink:href="#DejaVuSans-2e" x="63.623047"/>
       <use xlink:href="#DejaVuSans-30" x="95.410156"/>
      </g>
     </g>
    </g>
    <g id="text_7">
     <!-- False Positive Rate -->
     <g transform="translate(198.447031 365.707187) scale(0.14 -0.14)">
      <defs>
       <path id="DejaVuSans-46" d="M 628 4666 
L 3309 4666 
L 3309 4134 
L 1259 4134 
L 1259 2759 
L 3109 2759 
L 3109 2228 
L 1259 2228 
L 1259 0 
L 628 0 
L 628 4666 
z
" transform="scale(0.015625)"/>
       <path id="DejaVuSans-61" d="M 2194 1759 
Q 1497 1759 1228 1600 
Q 959 1441 959 1056 
Q 959 750 1161 570 
Q 1363 391 1709 391 
Q 2188 391 2477 730 
Q 2766 1069 2766 1631 
L 2766 1759 
L 2194 1759 
z
M 3341 1997 
L 3341 0 
L 2766 0 
L 2766 531 
Q 2569 213 2275 61 
Q 1981 -91 1556 -91 
Q 1019 -91 701 211 
Q 384 513 384 1019 
Q 384 1609 779 1909 
Q 1175 2209 1959 2209 
L 2766 2209 
L 2766 2266 
Q 2766 2663 2505 2880 
Q 2244 3097 1772 3097 
Q 1472 3097 1187 3025 
Q 903 2953 641 2809 
L 641 3341 
Q 956 3463 1253 3523 
Q 1550 3584 1831 3584 
Q 2591 3584 2966 3190 
Q 3341 2797 3341 1997 
z
" transform="scale(0.015625)"/>
       <path id="DejaVuSans-6c" d="M 603 4863 
L 1178 4863 
L 1178 0 
L 603 0 
L 603 4863 
z
" transform="scale(0.015625)"/>
       <path id="DejaVuSans-73" d="M 2834 3397 
L 2834 2853 
Q 2591 2978 2328 3040 
Q 2066 3103 1784 3103 
Q 1356 3103 1142 2972 
Q 928 2841 928 2578 
Q 928 2378 1081 2264 
Q 1234 2150 1697 2047 
L 1894 2003 
Q 2506 1872 2764 1633 
Q 3022 1394 3022 966 
Q 3022 478 2636 193 
Q 2250 -91 1575 -91 
Q 1294 -91 989 -36 
Q 684 19 347 128 
L 347 722 
Q 666 556 975 473 
Q 1284 391 1588 391 
Q 1994 391 2212 530 
Q 2431 669 2431 922 
Q 2431 1156 2273 1281 
Q 2116 1406 1581 1522 
L 1381 1569 
Q 847 1681 609 1914 
Q 372 2147 372 2553 
Q 372 3047 722 3315 
Q 1072 3584 1716 3584 
Q 2034 3584 2315 3537 
Q 2597 3491 2834 3397 
z
" transform="scale(0.015625)"/>
       <path id="DejaVuSans-65" d="M 3597 1894 
L 3597 1613 
L 953 1613 
Q 991 1019 1311 708 
Q 1631 397 2203 397 
Q 2534 397 2845 478 
Q 3156 559 3463 722 
L 3463 178 
Q 3153 47 2828 -22 
Q 2503 -91 2169 -91 
Q 1331 -91 842 396 
Q 353 884 353 1716 
Q 353 2575 817 3079 
Q 1281 3584 2069 3584 
Q 2775 3584 3186 3129 
Q 3597 2675 3597 1894 
z
M 3022 2063 
Q 3016 2534 2758 2815 
Q 2500 3097 2075 3097 
Q 1594 3097 1305 2825 
Q 1016 2553 972 2059 
L 3022 2063 
z
" transform="scale(0.015625)"/>
       <path id="DejaVuSans-20" transform="scale(0.015625)"/>
       <path id="DejaVuSans-50" d="M 1259 4147 
L 1259 2394 
L 2053 2394 
Q 2494 2394 2734 2622 
Q 2975 2850 2975 3272 
Q 2975 3691 2734 3919 
Q 2494 4147 2053 4147 
L 1259 4147 
z
M 628 4666 
L 2053 4666 
Q 2838 4666 3239 4311 
Q 3641 3956 3641 3272 
Q 3641 2581 3239 2228 
Q 2838 1875 2053 1875 
L 1259 1875 
L 1259 0 
L 628 0 
L 628 4666 
z
" transform="scale(0.015625)"/>
       <path id="DejaVuSans-6f" d="M 1959 3097 
Q 1497 3097 1228 2736 
Q 959 2375 959 1747 
Q 959 1119 1226 758 
Q 1494 397 1959 397 
Q 2419 397 2687 759 
Q 2956 1122 2956 1747 
Q 2956 2369 2687 2733 
Q 2419 3097 1959 3097 
z
M 1959 3584 
Q 2709 3584 3137 3096 
Q 3566 2609 3566 1747 
Q 3566 888 3137 398 
Q 2709 -91 1959 -91 
Q 1206 -91 779 398 
Q 353 888 353 1747 
Q 353 2609 779 3096 
Q 1206 3584 1959 3584 
z
" transform="scale(0.015625)"/>
       <path id="DejaVuSans-69" d="M 603 3500 
L 1178 3500 
L 1178 0 
L 603 0 
L 603 3500 
z
M 603 4863 
L 1178 4863 
L 1178 4134 
L 603 4134 
L 603 4863 
z
" transform="scale(0.015625)"/>
       <path id="DejaVuSans-74" d="M 1172 4494 
L 1172 3500 
L 2356 3500 
L 2356 3053 
L 1172 3053 
L 1172 1153 
Q 1172 725 1289 603 
Q 1406 481 1766 481 
L 2356 481 
L 2356 0 
L 1766 0 
Q 1100 0 847 248 
Q 594 497 594 1153 
L 594 3053 
L 172 3053 
L 172 3500 
L 594 3500 
L 594 4494 
L 1172 4494 
z
" transform="scale(0.015625)"/>
       <path id="DejaVuSans-76" d="M 191 3500 
L 800 3500 
L 1894 563 
L 2988 3500 
L 3597 3500 
L 2284 0 
L 1503 0 
L 191 3500 
z
" transform="scale(0.015625)"/>
       <path id="DejaVuSans-52" d="M 2841 2188 
Q 3044 2119 3236 1894 
Q 3428 1669 3622 1275 
L 4263 0 
L 3584 0 
L 2988 1197 
Q 2756 1666 2539 1819 
Q 2322 1972 1947 1972 
L 1259 1972 
L 1259 0 
L 628 0 
L 628 4666 
L 2053 4666 
Q 2853 4666 3247 4331 
Q 3641 3997 3641 3322 
Q 3641 2881 3436 2590 
Q 3231 2300 2841 2188 
z
M 1259 4147 
L 1259 2491 
L 2053 2491 
Q 2509 2491 2742 2702 
Q 2975 2913 2975 3322 
Q 2975 3731 2742 3939 
Q 2509 4147 2053 4147 
L 1259 4147 
z
" transform="scale(0.015625)"/>
      </defs>
      <use xlink:href="#DejaVuSans-46"/>
      <use xlink:href="#DejaVuSans-61" x="48.394531"/>
      <use xlink:href="#DejaVuSans-6c" x="109.673828"/>
      <use xlink:href="#DejaVuSans-73" x="137.457031"/>
      <use xlink:href="#DejaVuSans-65" x="189.556641"/>
      <use xlink:href="#DejaVuSans-20" x="251.080078"/>
      <use xlink:href="#DejaVuSans-50" x="282.867188"/>
      <use xlink:href="#DejaVuSans-6f" x="339.544922"/>
      <use xlink:href="#DejaVuSans-73" x="400.726562"/>
      <use xlink:href="#DejaVuSans-69" x="452.826172"/>
      <use xlink:href="#DejaVuSans-74" x="480.609375"/>
      <use xlink:href="#DejaVuSans-69" x="519.818359"/>
      <use xlink:href="#DejaVuSans-76" x="547.601562"/>
      <use xlink:href="#DejaVuSans-65" x="606.78125"/>
      <use xlink:href="#DejaVuSans-20" x="668.304688"/>
      <use xlink:href="#DejaVuSans-52" x="700.091797"/>
      <use xlink:href="#DejaVuSans-61" x="767.324219"/>
      <use xlink:href="#DejaVuSans-74" x="828.603516"/>
      <use xlink:href="#DejaVuSans-65" x="867.8125"/>
     </g>
    </g>
   </g>
   <g id="matplotlib.axis_2">
    <g id="ytick_1">
     <g id="line2d_7">
      <defs>
       <path id="m1f8493f8ce" d="M 0 0 
L -3.5 0 
" style="stroke: #000000; stroke-width: 0.8"/>
      </defs>
      <g>
       <use xlink:href="#m1f8493f8ce" x="62.12" y="317.045455" style="stroke: #000000; stroke-width: 0.8"/>
      </g>
     </g>
     <g id="text_8">
      <!-- 0.0 -->
      <g transform="translate(32.855625 322.364361) scale(0.14 -0.14)">
       <use xlink:href="#DejaVuSans-30"/>
       <use xlink:href="#DejaVuSans-2e" x="63.623047"/>
       <use xlink:href="#DejaVuSans-30" x="95.410156"/>
      </g>
     </g>
    </g>
    <g id="ytick_2">
     <g id="line2d_8">
      <g>
       <use xlink:href="#m1f8493f8ce" x="62.12" y="263.147273" style="stroke: #000000; stroke-width: 0.8"/>
      </g>
     </g>
     <g id="text_9">
      <!-- 0.2 -->
      <g transform="translate(32.855625 268.466179) scale(0.14 -0.14)">
       <use xlink:href="#DejaVuSans-30"/>
       <use xlink:href="#DejaVuSans-2e" x="63.623047"/>
       <use xlink:href="#DejaVuSans-32" x="95.410156"/>
      </g>
     </g>
    </g>
    <g id="ytick_3">
     <g id="line2d_9">
      <g>
       <use xlink:href="#m1f8493f8ce" x="62.12" y="209.249091" style="stroke: #000000; stroke-width: 0.8"/>
      </g>
     </g>
     <g id="text_10">
      <!-- 0.4 -->
      <g transform="translate(32.855625 214.567997) scale(0.14 -0.14)">
       <use xlink:href="#DejaVuSans-30"/>
       <use xlink:href="#DejaVuSans-2e" x="63.623047"/>
       <use xlink:href="#DejaVuSans-34" x="95.410156"/>
      </g>
     </g>
    </g>
    <g id="ytick_4">
     <g id="line2d_10">
      <g>
       <use xlink:href="#m1f8493f8ce" x="62.12" y="155.350909" style="stroke: #000000; stroke-width: 0.8"/>
      </g>
     </g>
     <g id="text_11">
      <!-- 0.6 -->
      <g transform="translate(32.855625 160.669815) scale(0.14 -0.14)">
       <use xlink:href="#DejaVuSans-30"/>
       <use xlink:href="#DejaVuSans-2e" x="63.623047"/>
       <use xlink:href="#DejaVuSans-36" x="95.410156"/>
      </g>
     </g>
    </g>
    <g id="ytick_5">
     <g id="line2d_11">
      <g>
       <use xlink:href="#m1f8493f8ce" x="62.12" y="101.452727" style="stroke: #000000; stroke-width: 0.8"/>
      </g>
     </g>
     <g id="text_12">
      <!-- 0.8 -->
      <g transform="translate(32.855625 106.771634) scale(0.14 -0.14)">
       <use xlink:href="#DejaVuSans-30"/>
       <use xlink:href="#DejaVuSans-2e" x="63.623047"/>
       <use xlink:href="#DejaVuSans-38" x="95.410156"/>
      </g>
     </g>
    </g>
    <g id="ytick_6">
     <g id="line2d_12">
      <g>
       <use xlink:href="#m1f8493f8ce" x="62.12" y="47.554545" style="stroke: #000000; stroke-width: 0.8"/>
      </g>
     </g>
     <g id="text_13">
      <!-- 1.0 -->
      <g transform="translate(32.855625 52.873452) scale(0.14 -0.14)">
       <use xlink:href="#DejaVuSans-31"/>
       <use xlink:href="#DejaVuSans-2e" x="63.623047"/>
       <use xlink:href="#DejaVuSans-30" x="95.410156"/>
      </g>
     </g>
    </g>
    <g id="text_14">
     <!-- True Positive Rate -->
     <g transform="translate(25.944063 244.641563) rotate(-90) scale(0.14 -0.14)">
      <defs>
       <path id="DejaVuSans-54" d="M -19 4666 
L 3928 4666 
L 3928 4134 
L 2272 4134 
L 2272 0 
L 1638 0 
L 1638 4134 
L -19 4134 
L -19 4666 
z
" transform="scale(0.015625)"/>
       <path id="DejaVuSans-72" d="M 2631 2963 
Q 2534 3019 2420 3045 
Q 2306 3072 2169 3072 
Q 1681 3072 1420 2755 
Q 1159 2438 1159 1844 
L 1159 0 
L 581 0 
L 581 3500 
L 1159 3500 
L 1159 2956 
Q 1341 3275 1631 3429 
Q 1922 3584 2338 3584 
Q 2397 3584 2469 3576 
Q 2541 3569 2628 3553 
L 2631 2963 
z
" transform="scale(0.015625)"/>
       <path id="DejaVuSans-75" d="M 544 1381 
L 544 3500 
L 1119 3500 
L 1119 1403 
Q 1119 906 1312 657 
Q 1506 409 1894 409 
Q 2359 409 2629 706 
Q 2900 1003 2900 1516 
L 2900 3500 
L 3475 3500 
L 3475 0 
L 2900 0 
L 2900 538 
Q 2691 219 2414 64 
Q 2138 -91 1772 -91 
Q 1169 -91 856 284 
Q 544 659 544 1381 
z
M 1991 3584 
L 1991 3584 
z
" transform="scale(0.015625)"/>
      </defs>
      <use xlink:href="#DejaVuSans-54"/>
      <use xlink:href="#DejaVuSans-72" x="46.333984"/>
      <use xlink:href="#DejaVuSans-75" x="87.447266"/>
      <use xlink:href="#DejaVuSans-65" x="150.826172"/>
      <use xlink:href="#DejaVuSans-20" x="212.349609"/>
      <use xlink:href="#DejaVuSans-50" x="244.136719"/>
      <use xlink:href="#DejaVuSans-6f" x="300.814453"/>
      <use xlink:href="#DejaVuSans-73" x="361.996094"/>
      <use xlink:href="#DejaVuSans-69" x="414.095703"/>
      <use xlink:href="#DejaVuSans-74" x="441.878906"/>
      <use xlink:href="#DejaVuSans-69" x="481.087891"/>
      <use xlink:href="#DejaVuSans-76" x="508.871094"/>
      <use xlink:href="#DejaVuSans-65" x="568.050781"/>
      <use xlink:href="#DejaVuSans-20" x="629.574219"/>
      <use xlink:href="#DejaVuSans-52" x="661.361328"/>
      <use xlink:href="#DejaVuSans-61" x="728.59375"/>
      <use xlink:href="#DejaVuSans-74" x="789.873047"/>
      <use xlink:href="#DejaVuSans-65" x="829.082031"/>
     </g>
    </g>
   </g>
   <g id="line2d_13">
    <path d="M 80.427273 317.045455 
L 80.427273 314.17853 
L 83.5302 314.17853 
L 83.5302 271.174662 
L 86.633128 271.174662 
L 86.633128 265.440812 
L 95.941911 265.440812 
L 95.941911 256.840039 
L 99.044838 256.840039 
L 99.044838 251.10619 
L 102.147766 251.10619 
L 102.147766 242.505416 
L 111.456549 242.505416 
L 111.456549 228.170793 
L 117.662404 228.170793 
L 117.662404 225.303868 
L 130.074114 225.303868 
L 130.074114 219.570019 
L 133.177042 219.570019 
L 133.177042 208.102321 
L 136.279969 208.102321 
L 136.279969 193.767698 
L 139.382897 193.767698 
L 139.382897 182.3 
L 142.485824 182.3 
L 142.485824 179.433075 
L 148.69168 179.433075 
L 148.69168 176.566151 
L 154.897535 176.566151 
L 154.897535 173.699226 
L 158.000462 173.699226 
L 158.000462 159.364603 
L 161.10339 159.364603 
L 161.10339 153.630754 
L 164.206317 153.630754 
L 164.206317 150.76383 
L 170.412173 150.76383 
L 170.412173 139.296132 
L 189.029738 139.296132 
L 189.029738 133.562282 
L 192.132666 133.562282 
L 192.132666 130.695358 
L 195.235593 130.695358 
L 195.235593 127.828433 
L 201.441448 127.828433 
L 201.441448 124.961509 
L 210.750231 124.961509 
L 210.750231 122.094584 
L 216.956086 122.094584 
L 216.956086 119.22766 
L 220.059014 119.22766 
L 220.059014 116.360735 
L 223.161941 116.360735 
L 223.161941 107.759961 
L 226.264869 107.759961 
L 226.264869 93.425338 
L 229.367797 93.425338 
L 229.367797 84.824565 
L 241.779507 84.824565 
L 241.779507 81.95764 
L 247.985362 81.95764 
L 247.985362 79.090716 
L 251.08829 79.090716 
L 251.08829 76.223791 
L 254.191217 76.223791 
L 254.191217 67.623017 
L 266.602928 67.623017 
L 266.602928 61.889168 
L 269.705855 61.889168 
L 269.705855 59.022244 
L 272.808783 59.022244 
L 272.808783 56.155319 
L 275.91171 56.155319 
L 275.91171 50.42147 
L 306.940986 50.42147 
L 306.940986 47.554545 
L 446.572727 47.554545 
" clip-path="url(#p338f02a7c8)" style="fill: none; stroke: #1f77b4; stroke-opacity: 0.66; stroke-width: 1.5; stroke-linecap: square"/>
   </g>
   <g id="line2d_14">
    <path d="M 80.427273 317.045455 
L 86.06028 317.045455 
L 86.06028 235.026482 
L 91.693287 235.026482 
L 91.693287 211.59249 
L 97.326294 211.59249 
L 97.326294 129.573518 
L 108.592308 129.573518 
L 108.592308 106.139526 
L 114.225315 106.139526 
L 114.225315 82.705534 
L 119.858322 82.705534 
L 119.858322 70.988538 
L 131.124336 70.988538 
L 131.124336 59.271542 
L 181.821399 59.271542 
L 181.821399 47.554545 
L 446.572727 47.554545 
" clip-path="url(#p338f02a7c8)" style="fill: none; stroke: #ff7f0e; stroke-opacity: 0.66; stroke-width: 1.5; stroke-linecap: square"/>
   </g>
   <g id="line2d_15">
    <path d="M 80.427273 317.045455 
L 83.478485 317.045455 
L 83.478485 313.023202 
L 89.580909 313.023202 
L 89.580909 309.00095 
L 95.683333 309.00095 
L 95.683333 300.956445 
L 98.734545 300.956445 
L 98.734545 292.91194 
L 101.785758 292.91194 
L 101.785758 280.845183 
L 104.83697 280.845183 
L 104.83697 268.778426 
L 110.939394 268.778426 
L 110.939394 236.600407 
L 113.990606 236.600407 
L 113.990606 224.53365 
L 117.041818 224.53365 
L 117.041818 208.44464 
L 120.09303 208.44464 
L 120.09303 204.422388 
L 129.246667 204.422388 
L 129.246667 200.400136 
L 135.349091 200.400136 
L 135.349091 184.311126 
L 144.502727 184.311126 
L 144.502727 180.288874 
L 147.553939 180.288874 
L 147.553939 176.266621 
L 150.605152 176.266621 
L 150.605152 172.244369 
L 156.707576 172.244369 
L 156.707576 152.133107 
L 159.758788 152.133107 
L 159.758788 136.044098 
L 165.861212 136.044098 
L 165.861212 132.021845 
L 168.912424 132.021845 
L 168.912424 127.999593 
L 178.066061 127.999593 
L 178.066061 123.977341 
L 196.373333 123.977341 
L 196.373333 115.932836 
L 205.52697 115.932836 
L 205.52697 107.888331 
L 214.680606 107.888331 
L 214.680606 99.843826 
L 220.78303 99.843826 
L 220.78303 91.799322 
L 229.936667 91.799322 
L 229.936667 87.777069 
L 236.039091 87.777069 
L 236.039091 83.754817 
L 239.090303 83.754817 
L 239.090303 79.732564 
L 248.243939 79.732564 
L 248.243939 75.710312 
L 251.295152 75.710312 
L 251.295152 71.68806 
L 272.653636 71.68806 
L 272.653636 67.665807 
L 303.165758 67.665807 
L 303.165758 59.621303 
L 306.21697 59.621303 
L 306.21697 55.59905 
L 321.47303 55.59905 
L 321.47303 51.576798 
L 358.087576 51.576798 
L 358.087576 47.554545 
L 446.572727 47.554545 
" clip-path="url(#p338f02a7c8)" style="fill: none; stroke: #2ca02c; stroke-opacity: 0.66; stroke-width: 1.5; stroke-linecap: square"/>
   </g>
   <g id="line2d_16">
    <path d="M 80.427273 317.045455 
L 80.427273 314.761633 
L 86.79502 314.761633 
L 86.79502 303.342527 
L 89.978893 303.342527 
L 89.978893 289.639599 
L 96.34664 289.639599 
L 96.34664 282.788136 
L 99.530514 282.788136 
L 99.530514 275.936672 
L 102.714387 275.936672 
L 102.714387 264.517565 
L 105.898261 264.517565 
L 105.898261 257.666102 
L 109.082134 257.666102 
L 109.082134 253.098459 
L 115.449881 253.098459 
L 115.449881 241.679353 
L 121.817628 241.679353 
L 121.817628 239.395532 
L 134.553123 239.395532 
L 134.553123 237.11171 
L 137.736996 237.11171 
L 137.736996 225.692604 
L 140.92087 225.692604 
L 140.92087 223.408783 
L 144.104743 223.408783 
L 144.104743 216.557319 
L 147.288617 216.557319 
L 147.288617 214.273498 
L 150.47249 214.273498 
L 150.47249 200.57057 
L 156.840237 200.57057 
L 156.840237 198.286749 
L 160.024111 198.286749 
L 160.024111 196.002928 
L 163.207984 196.002928 
L 163.207984 189.151464 
L 166.391858 189.151464 
L 166.391858 177.732357 
L 169.575731 177.732357 
L 169.575731 166.313251 
L 172.759605 166.313251 
L 172.759605 164.02943 
L 175.943478 164.02943 
L 175.943478 161.745609 
L 179.127352 161.745609 
L 179.127352 154.894145 
L 182.311225 154.894145 
L 182.311225 150.326502 
L 185.495099 150.326502 
L 185.495099 145.75886 
L 198.230593 145.75886 
L 198.230593 138.907396 
L 207.782213 138.907396 
L 207.782213 129.772111 
L 217.333834 129.772111 
L 217.333834 127.48829 
L 220.517708 127.48829 
L 220.517708 125.204468 
L 223.701581 125.204468 
L 223.701581 113.785362 
L 226.885455 113.785362 
L 226.885455 109.21772 
L 230.069328 109.21772 
L 230.069328 106.933898 
L 233.253202 106.933898 
L 233.253202 93.230971 
L 242.804822 93.230971 
L 242.804822 84.095686 
L 245.988696 84.095686 
L 245.988696 70.392758 
L 255.540316 70.392758 
L 255.540316 68.108937 
L 265.091937 68.108937 
L 265.091937 65.825116 
L 271.459684 65.825116 
L 271.459684 63.541294 
L 281.011304 63.541294 
L 281.011304 61.257473 
L 284.195178 61.257473 
L 284.195178 56.689831 
L 290.562925 56.689831 
L 290.562925 54.406009 
L 296.930672 54.406009 
L 296.930672 52.122188 
L 306.482292 52.122188 
L 306.482292 49.838367 
L 325.585534 49.838367 
L 325.585534 47.554545 
L 446.572727 47.554545 
" clip-path="url(#p338f02a7c8)" style="fill: none; stroke: #d62728; stroke-opacity: 0.66; stroke-width: 1.5; stroke-linecap: square"/>
   </g>
   <g id="line2d_17">
    <path d="M 80.427273 317.045455 
L 80.427273 304.02657 
L 82.36455 304.02657 
L 82.36455 288.403909 
L 84.301828 288.403909 
L 84.301828 287.10202 
L 88.176383 287.10202 
L 88.176383 272.781247 
L 90.11366 272.781247 
L 90.11366 259.762363 
L 93.988215 259.762363 
L 93.988215 255.856697 
L 95.925493 255.856697 
L 95.925493 250.649144 
L 97.862771 250.649144 
L 97.862771 248.045367 
L 103.674603 248.045367 
L 103.674603 242.837813 
L 107.549158 242.837813 
L 107.549158 233.724594 
L 109.486436 233.724594 
L 109.486436 212.894379 
L 111.423713 212.894379 
L 111.423713 210.290602 
L 113.360991 210.290602 
L 113.360991 202.479271 
L 115.298268 202.479271 
L 115.298268 201.177383 
L 119.172823 201.177383 
L 119.172823 199.875494 
L 123.047379 199.875494 
L 123.047379 197.271717 
L 128.859211 197.271717 
L 128.859211 194.66794 
L 130.796489 194.66794 
L 130.796489 189.460386 
L 132.733766 189.460386 
L 132.733766 188.158498 
L 134.671044 188.158498 
L 134.671044 186.85661 
L 138.545599 186.85661 
L 138.545599 182.950944 
L 144.357431 182.950944 
L 144.357431 179.045279 
L 146.294709 179.045279 
L 146.294709 177.74339 
L 148.231987 177.74339 
L 148.231987 176.441502 
L 150.169264 176.441502 
L 150.169264 171.233948 
L 154.043819 171.233948 
L 154.043819 167.328283 
L 155.981097 167.328283 
L 155.981097 163.422617 
L 157.918374 163.422617 
L 157.918374 156.913175 
L 161.792929 156.913175 
L 161.792929 155.611287 
L 163.730207 155.611287 
L 163.730207 154.309398 
L 169.542039 154.309398 
L 169.542039 153.00751 
L 175.353872 153.00751 
L 175.353872 150.403733 
L 179.228427 150.403733 
L 179.228427 149.101845 
L 181.165705 149.101845 
L 181.165705 146.498068 
L 186.977537 146.498068 
L 186.977537 142.592402 
L 188.914815 142.592402 
L 188.914815 138.686737 
L 192.78937 138.686737 
L 192.78937 137.384848 
L 200.53848 137.384848 
L 200.53848 136.08296 
L 202.475758 136.08296 
L 202.475758 134.781072 
L 206.350313 134.781072 
L 206.350313 132.177295 
L 210.224868 132.177295 
L 210.224868 128.271629 
L 212.162145 128.271629 
L 212.162145 126.969741 
L 214.099423 126.969741 
L 214.099423 125.667852 
L 216.0367 125.667852 
L 216.0367 124.365964 
L 219.911255 124.365964 
L 219.911255 115.252745 
L 221.848533 115.252745 
L 221.848533 113.950856 
L 223.78581 113.950856 
L 223.78581 110.045191 
L 227.660366 110.045191 
L 227.660366 108.743303 
L 231.534921 108.743303 
L 231.534921 107.441414 
L 235.409476 107.441414 
L 235.409476 106.139526 
L 237.346753 106.139526 
L 237.346753 104.837637 
L 250.907696 104.837637 
L 250.907696 99.630083 
L 252.844974 99.630083 
L 252.844974 97.026307 
L 254.782251 97.026307 
L 254.782251 93.120641 
L 262.531361 93.120641 
L 262.531361 91.818753 
L 268.343194 91.818753 
L 268.343194 90.516864 
L 270.280471 90.516864 
L 270.280471 85.30931 
L 274.155026 85.30931 
L 274.155026 84.007422 
L 278.029582 84.007422 
L 278.029582 82.705534 
L 279.966859 82.705534 
L 279.966859 80.101757 
L 281.904137 80.101757 
L 281.904137 78.799868 
L 285.778692 78.799868 
L 285.778692 77.49798 
L 293.527802 77.49798 
L 293.527802 73.592314 
L 295.465079 73.592314 
L 295.465079 72.290426 
L 301.276912 72.290426 
L 301.276912 70.988538 
L 307.088745 70.988538 
L 307.088745 68.384761 
L 309.026022 68.384761 
L 309.026022 67.082872 
L 312.900577 67.082872 
L 312.900577 65.780984 
L 316.775132 65.780984 
L 316.775132 64.479095 
L 324.524242 64.479095 
L 324.524242 61.875318 
L 326.46152 61.875318 
L 326.46152 59.271542 
L 330.336075 59.271542 
L 330.336075 56.667765 
L 341.95974 56.667765 
L 341.95974 55.365876 
L 343.897018 55.365876 
L 343.897018 54.063988 
L 347.771573 54.063988 
L 347.771573 52.762099 
L 355.520683 52.762099 
L 355.520683 51.460211 
L 365.207071 51.460211 
L 365.207071 50.158322 
L 376.830736 50.158322 
L 376.830736 48.856434 
L 388.454401 48.856434 
L 388.454401 47.554545 
L 446.572727 47.554545 
L 446.572727 47.554545 
" clip-path="url(#p338f02a7c8)" style="fill: none; stroke: #9467bd; stroke-opacity: 0.66; stroke-width: 1.5; stroke-linecap: square"/>
   </g>
   <g id="line2d_18">
    <path d="M 80.427273 317.045455 
L 80.427273 315.441342 
L 80.427273 275.338528 
L 84.588017 275.338528 
L 84.588017 224.006926 
L 88.74876 224.006926 
L 88.74876 209.569913 
L 92.909504 209.569913 
L 92.909504 203.153463 
L 97.070248 203.153463 
L 97.070248 193.528788 
L 101.230992 193.528788 
L 101.230992 187.112338 
L 105.391736 187.112338 
L 105.391736 183.904113 
L 109.552479 183.904113 
L 109.552479 175.88355 
L 113.713223 175.88355 
L 113.713223 169.4671 
L 126.195455 169.4671 
L 126.195455 153.425974 
L 130.356198 153.425974 
L 130.356198 147.009524 
L 134.516942 147.009524 
L 134.516942 145.405411 
L 138.677686 145.405411 
L 138.677686 130.968398 
L 142.83843 130.968398 
L 142.83843 129.364286 
L 146.999174 129.364286 
L 146.999174 127.760173 
L 151.159917 127.760173 
L 151.159917 126.156061 
L 167.802893 126.156061 
L 167.802893 121.343723 
L 171.963636 121.343723 
L 171.963636 116.531385 
L 176.12438 116.531385 
L 176.12438 106.90671 
L 180.285124 106.90671 
L 180.285124 105.302597 
L 184.445868 105.302597 
L 184.445868 97.282035 
L 192.767355 97.282035 
L 192.767355 95.677922 
L 201.088843 95.677922 
L 201.088843 89.261472 
L 205.249587 89.261472 
L 205.249587 87.657359 
L 209.410331 87.657359 
L 209.410331 81.240909 
L 213.571074 81.240909 
L 213.571074 78.032684 
L 217.731818 78.032684 
L 217.731818 76.428571 
L 221.892562 76.428571 
L 221.892562 73.220346 
L 234.374793 73.220346 
L 234.374793 66.803896 
L 238.535537 66.803896 
L 238.535537 61.991558 
L 255.178512 61.991558 
L 255.178512 60.387446 
L 259.339256 60.387446 
L 259.339256 57.179221 
L 271.821488 57.179221 
L 271.821488 55.575108 
L 280.142975 55.575108 
L 280.142975 52.366883 
L 300.946694 52.366883 
L 300.946694 50.762771 
L 363.357851 50.762771 
L 363.357851 49.158658 
L 425.769008 49.158658 
L 425.769008 47.554545 
L 446.572727 47.554545 
" clip-path="url(#p338f02a7c8)" style="fill: none; stroke: #8c564b; stroke-opacity: 0.66; stroke-width: 1.5; stroke-linecap: square"/>
   </g>
   <g id="line2d_19">
    <path d="M 80.427273 317.045455 
L 80.427273 313.064791 
L 80.954101 313.064791 
L 80.954101 307.889929 
L 81.480929 307.889929 
L 81.480929 307.491862 
L 82.534585 307.491862 
L 82.534585 306.69573 
L 83.061413 306.69573 
L 83.061413 301.122801 
L 83.588241 301.122801 
L 83.588241 295.947939 
L 84.115069 295.947939 
L 84.115069 295.549872 
L 84.641897 295.549872 
L 84.641897 294.355673 
L 85.168725 294.355673 
L 85.168725 291.967275 
L 85.695553 291.967275 
L 85.695553 290.773076 
L 86.222381 290.773076 
L 86.222381 289.976944 
L 87.276037 289.976944 
L 87.276037 288.782745 
L 87.802865 288.782745 
L 87.802865 287.986612 
L 88.329693 287.986612 
L 88.329693 286.394347 
L 89.910177 286.394347 
L 89.910177 285.99628 
L 90.437005 285.99628 
L 90.437005 285.200148 
L 90.963833 285.200148 
L 90.963833 282.015617 
L 92.017489 282.015617 
L 92.017489 279.627219 
L 92.544317 279.627219 
L 92.544317 278.43302 
L 93.071145 278.43302 
L 93.071145 277.636887 
L 93.597973 277.636887 
L 93.597973 276.044622 
L 95.178457 276.044622 
L 95.178457 271.267826 
L 96.232112 271.267826 
L 96.232112 269.675561 
L 97.285768 269.675561 
L 97.285768 268.879428 
L 97.812596 268.879428 
L 97.812596 268.083295 
L 98.339424 268.083295 
L 98.339424 265.296831 
L 99.919908 265.296831 
L 99.919908 264.102632 
L 100.446736 264.102632 
L 100.446736 263.306499 
L 101.500392 263.306499 
L 101.500392 262.510367 
L 102.02722 262.510367 
L 102.02722 262.1123 
L 102.554048 262.1123 
L 102.554048 260.918101 
L 103.080876 260.918101 
L 103.080876 260.520035 
L 103.607704 260.520035 
L 103.607704 259.723902 
L 104.66136 259.723902 
L 104.66136 259.325836 
L 105.188188 259.325836 
L 105.188188 256.937438 
L 105.715016 256.937438 
L 105.715016 254.947106 
L 106.241844 254.947106 
L 106.241844 253.354841 
L 106.768672 253.354841 
L 106.768672 252.160642 
L 107.2955 252.160642 
L 107.2955 250.966443 
L 107.822328 250.966443 
L 107.822328 250.568377 
L 108.349156 250.568377 
L 108.349156 249.374178 
L 108.875984 249.374178 
L 108.875984 248.179979 
L 109.92964 248.179979 
L 109.92964 246.98578 
L 110.456468 246.98578 
L 110.456468 246.189647 
L 110.983296 246.189647 
L 110.983296 244.995448 
L 112.036952 244.995448 
L 112.036952 244.199315 
L 112.56378 244.199315 
L 112.56378 241.810917 
L 113.617436 241.810917 
L 113.617436 241.014784 
L 114.144264 241.014784 
L 114.144264 236.636055 
L 114.671092 236.636055 
L 114.671092 233.84959 
L 115.19792 233.84959 
L 115.19792 231.461192 
L 116.251576 231.461192 
L 116.251576 231.063126 
L 116.778404 231.063126 
L 116.778404 230.266993 
L 117.305232 230.266993 
L 117.305232 229.470861 
L 117.83206 229.470861 
L 117.83206 222.703733 
L 118.885716 222.703733 
L 118.885716 218.325003 
L 119.412544 218.325003 
L 119.412544 217.926937 
L 119.939372 217.926937 
L 119.939372 217.528871 
L 120.4662 217.528871 
L 120.4662 214.742406 
L 120.993028 214.742406 
L 120.993028 213.150141 
L 123.10034 213.150141 
L 123.10034 206.383013 
L 124.153996 206.383013 
L 124.153996 205.984947 
L 124.680824 205.984947 
L 124.680824 205.586881 
L 125.207652 205.586881 
L 125.207652 205.188814 
L 126.261308 205.188814 
L 126.261308 204.392682 
L 126.788136 204.392682 
L 126.788136 203.994615 
L 127.314964 203.994615 
L 127.314964 203.596549 
L 127.841792 203.596549 
L 127.841792 203.198483 
L 128.36862 203.198483 
L 128.36862 201.606217 
L 128.895448 201.606217 
L 128.895448 200.810085 
L 129.422276 200.810085 
L 129.422276 200.013952 
L 131.00276 200.013952 
L 131.00276 199.217819 
L 131.529588 199.217819 
L 131.529588 198.02362 
L 132.056416 198.02362 
L 132.056416 197.625554 
L 132.583244 197.625554 
L 132.583244 197.227488 
L 134.163728 197.227488 
L 134.163728 195.635222 
L 134.690556 195.635222 
L 134.690556 193.644891 
L 135.217384 193.644891 
L 135.217384 193.246824 
L 136.27104 193.246824 
L 136.27104 192.450692 
L 137.324696 192.450692 
L 137.324696 190.858426 
L 137.851524 190.858426 
L 137.851524 188.868095 
L 139.432008 188.868095 
L 139.432008 187.673896 
L 139.958836 187.673896 
L 139.958836 187.275829 
L 140.485664 187.275829 
L 140.485664 186.479697 
L 142.066148 186.479697 
L 142.066148 184.489365 
L 143.119804 184.489365 
L 143.119804 183.295166 
L 143.646632 183.295166 
L 143.646632 181.7029 
L 144.17346 181.7029 
L 144.17346 180.906768 
L 144.700288 180.906768 
L 144.700288 180.508701 
L 145.227116 180.508701 
L 145.227116 180.110635 
L 145.753944 180.110635 
L 145.753944 178.916436 
L 146.280772 178.916436 
L 146.280772 178.51837 
L 149.44174 178.51837 
L 149.44174 177.722237 
L 149.968568 177.722237 
L 149.968568 177.324171 
L 151.022224 177.324171 
L 151.022224 176.926104 
L 152.07588 176.926104 
L 152.07588 176.129972 
L 153.129536 176.129972 
L 153.129536 174.537706 
L 154.183192 174.537706 
L 154.183192 174.13964 
L 156.290504 174.13964 
L 156.290504 172.945441 
L 156.817332 172.945441 
L 156.817332 172.149308 
L 157.34416 172.149308 
L 157.34416 170.955109 
L 157.870988 170.955109 
L 157.870988 170.158977 
L 158.397816 170.158977 
L 158.397816 168.964778 
L 158.924644 168.964778 
L 158.924644 167.770579 
L 159.451472 167.770579 
L 159.451472 166.974446 
L 159.9783 166.974446 
L 159.9783 166.57638 
L 160.505128 166.57638 
L 160.505128 165.382181 
L 161.031956 165.382181 
L 161.031956 164.187982 
L 161.558784 164.187982 
L 161.558784 163.789915 
L 162.085612 163.789915 
L 162.085612 162.19765 
L 162.61244 162.19765 
L 162.61244 161.799584 
L 163.139267 161.799584 
L 163.139267 159.013119 
L 163.666095 159.013119 
L 163.666095 158.615053 
L 164.192923 158.615053 
L 164.192923 157.81892 
L 165.246579 157.81892 
L 165.246579 157.420854 
L 166.300235 157.420854 
L 166.300235 156.624721 
L 166.827063 156.624721 
L 166.827063 153.838257 
L 167.353891 153.838257 
L 167.353891 153.042124 
L 167.880719 153.042124 
L 167.880719 150.653726 
L 168.407547 150.653726 
L 168.407547 149.459527 
L 168.934375 149.459527 
L 168.934375 148.265328 
L 170.514859 148.265328 
L 170.514859 147.867262 
L 171.568515 147.867262 
L 171.568515 145.87693 
L 174.729483 145.87693 
L 174.729483 144.682731 
L 175.783139 144.682731 
L 175.783139 143.886599 
L 176.836795 143.886599 
L 176.836795 143.090466 
L 177.363623 143.090466 
L 177.363623 142.294333 
L 177.890451 142.294333 
L 177.890451 141.498201 
L 178.944107 141.498201 
L 178.944107 141.100134 
L 179.470935 141.100134 
L 179.470935 138.31367 
L 179.997763 138.31367 
L 179.997763 137.517537 
L 180.524591 137.517537 
L 180.524591 136.323338 
L 181.051419 136.323338 
L 181.051419 135.527206 
L 181.578247 135.527206 
L 181.578247 135.129139 
L 184.739215 135.129139 
L 184.739215 133.93494 
L 185.266043 133.93494 
L 185.266043 133.536874 
L 186.846527 133.536874 
L 186.846527 130.75041 
L 187.373355 130.75041 
L 187.373355 129.556211 
L 187.900183 129.556211 
L 187.900183 127.963945 
L 188.427011 127.963945 
L 188.427011 127.565879 
L 189.480667 127.565879 
L 189.480667 127.167813 
L 190.534323 127.167813 
L 190.534323 125.575547 
L 191.587979 125.575547 
L 191.587979 125.177481 
L 192.114807 125.177481 
L 192.114807 121.99295 
L 194.222119 121.99295 
L 194.222119 120.798751 
L 195.275775 120.798751 
L 195.275775 120.002619 
L 195.802603 120.002619 
L 195.802603 119.604552 
L 196.329431 119.604552 
L 196.329431 119.206486 
L 197.909915 119.206486 
L 197.909915 118.410353 
L 198.436743 118.410353 
L 198.436743 118.012287 
L 199.490399 118.012287 
L 199.490399 116.420021 
L 200.544055 116.420021 
L 200.544055 116.021955 
L 202.124539 116.021955 
L 202.124539 115.623889 
L 202.651367 115.623889 
L 202.651367 115.225822 
L 203.178195 115.225822 
L 203.178195 113.633557 
L 205.812335 113.633557 
L 205.812335 112.837424 
L 206.339163 112.837424 
L 206.339163 112.439358 
L 207.392819 112.439358 
L 207.392819 111.643225 
L 208.973303 111.643225 
L 208.973303 110.449026 
L 209.500131 110.449026 
L 209.500131 110.05096 
L 210.026959 110.05096 
L 210.026959 109.254827 
L 211.080615 109.254827 
L 211.080615 108.060628 
L 212.134271 108.060628 
L 212.134271 106.866429 
L 212.661099 106.866429 
L 212.661099 105.67223 
L 213.714755 105.67223 
L 213.714755 105.274164 
L 214.768411 105.274164 
L 214.768411 104.478031 
L 215.822067 104.478031 
L 215.822067 104.079965 
L 216.348895 104.079965 
L 216.348895 101.293501 
L 216.875723 101.293501 
L 216.875723 100.895434 
L 217.929379 100.895434 
L 217.929379 100.099302 
L 220.563519 100.099302 
L 220.563519 99.701235 
L 221.090347 99.701235 
L 221.090347 99.303169 
L 221.617175 99.303169 
L 221.617175 98.905103 
L 222.144003 98.905103 
L 222.144003 98.507036 
L 222.670831 98.507036 
L 222.670831 97.710904 
L 223.197659 97.710904 
L 223.197659 96.914771 
L 224.251315 96.914771 
L 224.251315 96.516705 
L 224.778143 96.516705 
L 224.778143 96.118638 
L 226.885455 96.118638 
L 226.885455 93.332174 
L 227.412283 93.332174 
L 227.412283 92.934108 
L 227.939111 92.934108 
L 227.939111 92.137975 
L 228.992767 92.137975 
L 228.992767 89.351511 
L 229.519595 89.351511 
L 229.519595 88.953444 
L 231.100078 88.953444 
L 231.100078 88.555378 
L 232.153734 88.555378 
L 232.153734 88.157312 
L 232.680562 88.157312 
L 232.680562 87.759245 
L 234.261046 87.759245 
L 234.261046 87.361179 
L 234.787874 87.361179 
L 234.787874 86.963113 
L 236.368358 86.963113 
L 236.368358 86.16698 
L 237.948842 86.16698 
L 237.948842 85.370847 
L 240.582982 85.370847 
L 240.582982 84.972781 
L 241.636638 84.972781 
L 241.636638 83.778582 
L 243.217122 83.778582 
L 243.217122 83.380516 
L 244.270778 83.380516 
L 244.270778 82.982449 
L 244.797606 82.982449 
L 244.797606 82.584383 
L 246.904918 82.584383 
L 246.904918 82.186317 
L 247.431746 82.186317 
L 247.431746 81.78825 
L 249.539058 81.78825 
L 249.539058 81.390184 
L 250.065886 81.390184 
L 250.065886 80.594051 
L 250.592714 80.594051 
L 250.592714 79.797919 
L 251.64637 79.797919 
L 251.64637 79.399852 
L 253.753682 79.399852 
L 253.753682 79.001786 
L 254.28051 79.001786 
L 254.28051 78.205653 
L 255.860994 78.205653 
L 255.860994 77.807587 
L 257.441478 77.807587 
L 257.441478 77.011454 
L 259.54879 77.011454 
L 259.54879 76.215322 
L 260.075618 76.215322 
L 260.075618 75.817255 
L 261.129274 75.817255 
L 261.129274 74.22499 
L 263.236586 74.22499 
L 263.236586 73.826924 
L 264.290242 73.826924 
L 264.290242 73.428857 
L 265.870726 73.428857 
L 265.870726 73.030791 
L 266.397554 73.030791 
L 266.397554 72.632725 
L 267.978038 72.632725 
L 267.978038 71.836592 
L 269.031694 71.836592 
L 269.031694 71.438526 
L 270.612178 71.438526 
L 270.612178 71.040459 
L 271.139006 71.040459 
L 271.139006 70.642393 
L 272.71949 70.642393 
L 272.71949 70.244327 
L 273.773146 70.244327 
L 273.773146 69.84626 
L 277.460942 69.84626 
L 277.460942 68.652061 
L 278.514598 68.652061 
L 278.514598 68.253995 
L 280.62191 68.253995 
L 280.62191 67.855929 
L 282.729222 67.855929 
L 282.729222 67.457862 
L 283.25605 67.457862 
L 283.25605 67.059796 
L 283.782878 67.059796 
L 283.782878 66.66173 
L 286.417018 66.66173 
L 286.417018 65.865597 
L 291.15847 65.865597 
L 291.15847 65.467531 
L 296.953578 65.467531 
L 296.953578 64.273332 
L 300.114545 64.273332 
L 300.114545 63.477199 
L 301.695029 63.477199 
L 301.695029 63.079133 
L 302.748685 63.079133 
L 302.748685 62.681066 
L 303.275513 62.681066 
L 303.275513 62.283 
L 308.543793 62.283 
L 308.543793 61.884934 
L 309.597449 61.884934 
L 309.597449 61.486867 
L 310.124277 61.486867 
L 310.124277 61.088801 
L 311.177933 61.088801 
L 311.177933 60.690735 
L 317.499869 60.690735 
L 317.499869 59.894602 
L 319.080353 59.894602 
L 319.080353 59.496536 
L 320.134009 59.496536 
L 320.134009 59.098469 
L 320.660837 59.098469 
L 320.660837 58.700403 
L 323.294977 58.700403 
L 323.294977 58.302337 
L 323.821805 58.302337 
L 323.821805 57.90427 
L 326.455945 57.90427 
L 326.455945 57.108138 
L 326.982773 57.108138 
L 326.982773 56.710071 
L 334.358365 56.710071 
L 334.358365 56.312005 
L 335.938849 56.312005 
L 335.938849 55.913938 
L 339.099817 55.913938 
L 339.099817 55.515872 
L 345.948581 55.515872 
L 345.948581 55.117806 
L 347.002237 55.117806 
L 347.002237 54.719739 
L 351.216861 54.719739 
L 351.216861 53.923607 
L 352.797345 53.923607 
L 352.797345 53.52554 
L 354.904657 53.52554 
L 354.904657 52.729408 
L 359.646109 52.729408 
L 359.646109 52.331341 
L 360.172937 52.331341 
L 360.172937 51.933275 
L 364.914388 51.933275 
L 364.914388 51.535209 
L 368.602184 51.535209 
L 368.602184 51.137142 
L 370.709496 51.137142 
L 370.709496 50.739076 
L 374.397292 50.739076 
L 374.397292 50.34101 
L 374.92412 50.34101 
L 374.92412 49.942943 
L 382.299712 49.942943 
L 382.299712 49.544877 
L 397.050896 49.544877 
L 397.050896 48.748744 
L 398.104552 48.748744 
L 398.104552 48.350678 
L 402.846004 48.350678 
L 402.846004 47.952612 
L 416.016704 47.952612 
L 416.016704 47.554545 
L 446.572727 47.554545 
L 446.572727 47.554545 
" clip-path="url(#p338f02a7c8)" style="fill: none; stroke: #000000; stroke-width: 1.5; stroke-linecap: square"/>
   </g>
   <g id="line2d_20">
    <path d="M -1 376.977674 
L 2.760055 374.210193 
L 13.855372 366.043802 
L 24.950689 357.87741 
L 36.046006 349.711019 
L 47.141322 341.544628 
L 58.236639 333.378237 
L 69.331956 325.211846 
L 80.427273 317.045455 
L 91.52259 308.879063 
L 102.617906 300.712672 
L 113.713223 292.546281 
L 124.80854 284.37989 
L 135.903857 276.213499 
L 146.999174 268.047107 
L 158.09449 259.880716 
L 169.189807 251.714325 
L 180.285124 243.547934 
L 191.380441 235.381543 
L 202.475758 227.215152 
L 213.571074 219.04876 
L 224.666391 210.882369 
L 235.761708 202.715978 
L 246.857025 194.549587 
L 257.952342 186.383196 
L 269.047658 178.216804 
L 280.142975 170.050413 
L 291.238292 161.884022 
L 302.333609 153.717631 
L 313.428926 145.55124 
L 324.524242 137.384848 
L 335.619559 129.218457 
L 346.714876 121.052066 
L 357.810193 112.885675 
L 368.90551 104.719284 
L 380.000826 96.552893 
L 391.096143 88.386501 
L 402.19146 80.22011 
L 413.286777 72.053719 
L 424.382094 63.887328 
L 435.47741 55.720937 
L 446.572727 47.554545 
L 457.668044 39.388154 
L 468.763361 31.221763 
L 479.858678 23.055372 
L 481 22.215334 
" clip-path="url(#p338f02a7c8)" style="fill: none; stroke-dasharray: 5.55,2.4; stroke-dashoffset: 0; stroke: #000000; stroke-width: 1.5"/>
   </g>
   <g id="patch_3">
    <path d="M 62.12 330.52 
L 62.12 34.08 
" style="fill: none; stroke: #000000; stroke-width: 0.8; stroke-linejoin: miter; stroke-linecap: square"/>
   </g>
   <g id="patch_4">
    <path d="M 62.12 330.52 
L 464.88 330.52 
" style="fill: none; stroke: #000000; stroke-width: 0.8; stroke-linejoin: miter; stroke-linecap: square"/>
   </g>
   <g id="text_15">
    <!-- Transfer Testing -->
    <g transform="translate(197.529812 28.08) scale(0.168 -0.168)">
     <defs>
      <path id="DejaVuSans-6e" d="M 3513 2113 
L 3513 0 
L 2938 0 
L 2938 2094 
Q 2938 2591 2744 2837 
Q 2550 3084 2163 3084 
Q 1697 3084 1428 2787 
Q 1159 2491 1159 1978 
L 1159 0 
L 581 0 
L 581 3500 
L 1159 3500 
L 1159 2956 
Q 1366 3272 1645 3428 
Q 1925 3584 2291 3584 
Q 2894 3584 3203 3211 
Q 3513 2838 3513 2113 
z
" transform="scale(0.015625)"/>
      <path id="DejaVuSans-66" d="M 2375 4863 
L 2375 4384 
L 1825 4384 
Q 1516 4384 1395 4259 
Q 1275 4134 1275 3809 
L 1275 3500 
L 2222 3500 
L 2222 3053 
L 1275 3053 
L 1275 0 
L 697 0 
L 697 3053 
L 147 3053 
L 147 3500 
L 697 3500 
L 697 3744 
Q 697 4328 969 4595 
Q 1241 4863 1831 4863 
L 2375 4863 
z
" transform="scale(0.015625)"/>
      <path id="DejaVuSans-67" d="M 2906 1791 
Q 2906 2416 2648 2759 
Q 2391 3103 1925 3103 
Q 1463 3103 1205 2759 
Q 947 2416 947 1791 
Q 947 1169 1205 825 
Q 1463 481 1925 481 
Q 2391 481 2648 825 
Q 2906 1169 2906 1791 
z
M 3481 434 
Q 3481 -459 3084 -895 
Q 2688 -1331 1869 -1331 
Q 1566 -1331 1297 -1286 
Q 1028 -1241 775 -1147 
L 775 -588 
Q 1028 -725 1275 -790 
Q 1522 -856 1778 -856 
Q 2344 -856 2625 -561 
Q 2906 -266 2906 331 
L 2906 616 
Q 2728 306 2450 153 
Q 2172 0 1784 0 
Q 1141 0 747 490 
Q 353 981 353 1791 
Q 353 2603 747 3093 
Q 1141 3584 1784 3584 
Q 2172 3584 2450 3431 
Q 2728 3278 2906 2969 
L 2906 3500 
L 3481 3500 
L 3481 434 
z
" transform="scale(0.015625)"/>
     </defs>
     <use xlink:href="#DejaVuSans-54"/>
     <use xlink:href="#DejaVuSans-72" x="46.333984"/>
     <use xlink:href="#DejaVuSans-61" x="87.447266"/>
     <use xlink:href="#DejaVuSans-6e" x="148.726562"/>
     <use xlink:href="#DejaVuSans-73" x="212.105469"/>
     <use xlink:href="#DejaVuSans-66" x="264.205078"/>
     <use xlink:href="#DejaVuSans-65" x="299.410156"/>
     <use xlink:href="#DejaVuSans-72" x="360.933594"/>
     <use xlink:href="#DejaVuSans-20" x="402.046875"/>
     <use xlink:href="#DejaVuSans-54" x="433.833984"/>
     <use xlink:href="#DejaVuSans-65" x="477.917969"/>
     <use xlink:href="#DejaVuSans-73" x="539.441406"/>
     <use xlink:href="#DejaVuSans-74" x="591.541016"/>
     <use xlink:href="#DejaVuSans-69" x="630.75"/>
     <use xlink:href="#DejaVuSans-6e" x="658.533203"/>
     <use xlink:href="#DejaVuSans-67" x="721.912109"/>
    </g>
   </g>
  </g>
 </g>
 <defs>
  <clipPath id="p338f02a7c8">
   <rect x="62.12" y="34.08" width="402.76" height="296.44"/>
  </clipPath>
 </defs>
</svg>
