<?xml version="1.0" encoding="utf-8" standalone="no"?>
<!DOCTYPE svg PUBLIC "-//W3C//DTD SVG 1.1//EN"
  "http://www.w3.org/Graphics/SVG/1.1/DTD/svg11.dtd">
<svg xmlns:xlink="http://www.w3.org/1999/xlink" width="480pt" height="384pt" viewBox="0 0 480 384" xmlns="http://www.w3.org/2000/svg" version="1.1">
 <metadata>
  <rdf:RDF xmlns:dc="http://purl.org/dc/elements/1.1/" xmlns:cc="http://creativecommons.org/ns#" xmlns:rdf="http://www.w3.org/1999/02/22-rdf-syntax-ns#">
   <cc:Work>
    <dc:type rdf:resource="http://purl.org/dc/dcmitype/StillImage"/>
    <dc:date>2024-02-27T11:04:50.184485</dc:date>
    <dc:format>image/svg+xml</dc:format>
    <dc:creator>
     <cc:Agent>
      <dc:title>Matplotlib v3.8.0, https://matplotlib.org/</dc:title>
     </cc:Agent>
    </dc:creator>
   </cc:Work>
  </rdf:RDF>
 </metadata>
 <defs>
  <style type="text/css">*{stroke-linejoin: round; stroke-linecap: butt}</style>
 </defs>
 <g id="figure_1">
  <g id="patch_1">
   <path d="M 0 384 
L 480 384 
L 480 0 
L 0 0 
z
" style="fill: #ffffff"/>
  </g>
  <g id="axes_1">
   <g id="patch_2">
    <path d="M 62.12 330.52 
L 464.88 330.52 
L 464.88 34.08 
L 62.12 34.08 
z
" style="fill: #ffffff"/>
   </g>
   <g id="PathCollection_1">
    <defs>
     <path id="m065e5033ed" d="M 0 4.031129 
C 1.069068 4.031129 2.094493 3.606384 2.850439 2.850439 
C 3.606384 2.094493 4.031129 1.069068 4.031129 0 
C 4.031129 -1.069068 3.606384 -2.094493 2.850439 -2.850439 
C 2.094493 -3.606384 1.069068 -4.031129 0 -4.031129 
C -1.069068 -4.031129 -2.094493 -3.606384 -2.850439 -2.850439 
C -3.606384 -2.094493 -4.031129 -1.069068 -4.031129 0 
C -4.031129 1.069068 -3.606384 2.094493 -2.850439 2.850439 
C -2.094493 3.606384 -1.069068 4.031129 0 4.031129 
z
" style="stroke: #ff0000"/>
    </defs>
    <g clip-path="url(#pf44852f014)">
     <use xlink:href="#m065e5033ed" x="288.52433" y="196.829421" style="fill: #ff0000; stroke: #ff0000"/>
    </g>
   </g>
   <g id="matplotlib.axis_1">
    <g id="xtick_1">
     <g id="line2d_1">
      <defs>
       <path id="m54acedf728" d="M 0 0 
L 0 3.5 
" style="stroke: #000000; stroke-width: 0.8"/>
      </defs>
      <g>
       <use xlink:href="#m54acedf728" x="80.427273" y="330.52" style="stroke: #000000; stroke-width: 0.8"/>
      </g>
     </g>
     <g id="text_1">
      <!-- 0.0 -->
      <g transform="translate(69.295085 348.157812) scale(0.14 -0.14)">
       <defs>
        <path id="DejaVuSans-30" d="M 2034 4250 
Q 1547 4250 1301 3770 
Q 1056 3291 1056 2328 
Q 1056 1369 1301 889 
Q 1547 409 2034 409 
Q 2525 409 2770 889 
Q 3016 1369 3016 2328 
Q 3016 3291 2770 3770 
Q 2525 4250 2034 4250 
z
M 2034 4750 
Q 2819 4750 3233 4129 
Q 3647 3509 3647 2328 
Q 3647 1150 3233 529 
Q 2819 -91 2034 -91 
Q 1250 -91 836 529 
Q 422 1150 422 2328 
Q 422 3509 836 4129 
Q 1250 4750 2034 4750 
z
" transform="scale(0.015625)"/>
        <path id="DejaVuSans-2e" d="M 684 794 
L 1344 794 
L 1344 0 
L 684 0 
L 684 794 
z
" transform="scale(0.015625)"/>
       </defs>
       <use xlink:href="#DejaVuSans-30"/>
       <use xlink:href="#DejaVuSans-2e" x="63.623047"/>
       <use xlink:href="#DejaVuSans-30" x="95.410156"/>
      </g>
     </g>
    </g>
    <g id="xtick_2">
     <g id="line2d_2">
      <g>
       <use xlink:href="#m54acedf728" x="153.656364" y="330.52" style="stroke: #000000; stroke-width: 0.8"/>
      </g>
     </g>
     <g id="text_2">
      <!-- 0.2 -->
      <g transform="translate(142.524176 348.157812) scale(0.14 -0.14)">
       <defs>
        <path id="DejaVuSans-32" d="M 1228 531 
L 3431 531 
L 3431 0 
L 469 0 
L 469 531 
Q 828 903 1448 1529 
Q 2069 2156 2228 2338 
Q 2531 2678 2651 2914 
Q 2772 3150 2772 3378 
Q 2772 3750 2511 3984 
Q 2250 4219 1831 4219 
Q 1534 4219 1204 4116 
Q 875 4013 500 3803 
L 500 4441 
Q 881 4594 1212 4672 
Q 1544 4750 1819 4750 
Q 2544 4750 2975 4387 
Q 3406 4025 3406 3419 
Q 3406 3131 3298 2873 
Q 3191 2616 2906 2266 
Q 2828 2175 2409 1742 
Q 1991 1309 1228 531 
z
" transform="scale(0.015625)"/>
       </defs>
       <use xlink:href="#DejaVuSans-30"/>
       <use xlink:href="#DejaVuSans-2e" x="63.623047"/>
       <use xlink:href="#DejaVuSans-32" x="95.410156"/>
      </g>
     </g>
    </g>
    <g id="xtick_3">
     <g id="line2d_3">
      <g>
       <use xlink:href="#m54acedf728" x="226.885455" y="330.52" style="stroke: #000000; stroke-width: 0.8"/>
      </g>
     </g>
     <g id="text_3">
      <!-- 0.4 -->
      <g transform="translate(215.753267 348.157812) scale(0.14 -0.14)">
       <defs>
        <path id="DejaVuSans-34" d="M 2419 4116 
L 825 1625 
L 2419 1625 
L 2419 4116 
z
M 2253 4666 
L 3047 4666 
L 3047 1625 
L 3713 1625 
L 3713 1100 
L 3047 1100 
L 3047 0 
L 2419 0 
L 2419 1100 
L 313 1100 
L 313 1709 
L 2253 4666 
z
" transform="scale(0.015625)"/>
       </defs>
       <use xlink:href="#DejaVuSans-30"/>
       <use xlink:href="#DejaVuSans-2e" x="63.623047"/>
       <use xlink:href="#DejaVuSans-34" x="95.410156"/>
      </g>
     </g>
    </g>
    <g id="xtick_4">
     <g id="line2d_4">
      <g>
       <use xlink:href="#m54acedf728" x="300.114545" y="330.52" style="stroke: #000000; stroke-width: 0.8"/>
      </g>
     </g>
     <g id="text_4">
      <!-- 0.6 -->
      <g transform="translate(288.982358 348.157812) scale(0.14 -0.14)">
       <defs>
        <path id="DejaVuSans-36" d="M 2113 2584 
Q 1688 2584 1439 2293 
Q 1191 2003 1191 1497 
Q 1191 994 1439 701 
Q 1688 409 2113 409 
Q 2538 409 2786 701 
Q 3034 994 3034 1497 
Q 3034 2003 2786 2293 
Q 2538 2584 2113 2584 
z
M 3366 4563 
L 3366 3988 
Q 3128 4100 2886 4159 
Q 2644 4219 2406 4219 
Q 1781 4219 1451 3797 
Q 1122 3375 1075 2522 
Q 1259 2794 1537 2939 
Q 1816 3084 2150 3084 
Q 2853 3084 3261 2657 
Q 3669 2231 3669 1497 
Q 3669 778 3244 343 
Q 2819 -91 2113 -91 
Q 1303 -91 875 529 
Q 447 1150 447 2328 
Q 447 3434 972 4092 
Q 1497 4750 2381 4750 
Q 2619 4750 2861 4703 
Q 3103 4656 3366 4563 
z
" transform="scale(0.015625)"/>
       </defs>
       <use xlink:href="#DejaVuSans-30"/>
       <use xlink:href="#DejaVuSans-2e" x="63.623047"/>
       <use xlink:href="#DejaVuSans-36" x="95.410156"/>
      </g>
     </g>
    </g>
    <g id="xtick_5">
     <g id="line2d_5">
      <g>
       <use xlink:href="#m54acedf728" x="373.343636" y="330.52" style="stroke: #000000; stroke-width: 0.8"/>
      </g>
     </g>
     <g id="text_5">
      <!-- 0.8 -->
      <g transform="translate(362.211449 348.157812) scale(0.14 -0.14)">
       <defs>
        <path id="DejaVuSans-38" d="M 2034 2216 
Q 1584 2216 1326 1975 
Q 1069 1734 1069 1313 
Q 1069 891 1326 650 
Q 1584 409 2034 409 
Q 2484 409 2743 651 
Q 3003 894 3003 1313 
Q 3003 1734 2745 1975 
Q 2488 2216 2034 2216 
z
M 1403 2484 
Q 997 2584 770 2862 
Q 544 3141 544 3541 
Q 544 4100 942 4425 
Q 1341 4750 2034 4750 
Q 2731 4750 3128 4425 
Q 3525 4100 3525 3541 
Q 3525 3141 3298 2862 
Q 3072 2584 2669 2484 
Q 3125 2378 3379 2068 
Q 3634 1759 3634 1313 
Q 3634 634 3220 271 
Q 2806 -91 2034 -91 
Q 1263 -91 848 271 
Q 434 634 434 1313 
Q 434 1759 690 2068 
Q 947 2378 1403 2484 
z
M 1172 3481 
Q 1172 3119 1398 2916 
Q 1625 2713 2034 2713 
Q 2441 2713 2670 2916 
Q 2900 3119 2900 3481 
Q 2900 3844 2670 4047 
Q 2441 4250 2034 4250 
Q 1625 4250 1398 4047 
Q 1172 3844 1172 3481 
z
" transform="scale(0.015625)"/>
       </defs>
       <use xlink:href="#DejaVuSans-30"/>
       <use xlink:href="#DejaVuSans-2e" x="63.623047"/>
       <use xlink:href="#DejaVuSans-38" x="95.410156"/>
      </g>
     </g>
    </g>
    <g id="xtick_6">
     <g id="line2d_6">
      <g>
       <use xlink:href="#m54acedf728" x="446.572727" y="330.52" style="stroke: #000000; stroke-width: 0.8"/>
      </g>
     </g>
     <g id="text_6">
      <!-- 1.0 -->
      <g transform="translate(435.44054 348.157812) scale(0.14 -0.14)">
       <defs>
        <path id="DejaVuSans-31" d="M 794 531 
L 1825 531 
L 1825 4091 
L 703 3866 
L 703 4441 
L 1819 4666 
L 2450 4666 
L 2450 531 
L 3481 531 
L 3481 0 
L 794 0 
L 794 531 
z
" transform="scale(0.015625)"/>
       </defs>
       <use xlink:href="#DejaVuSans-31"/>
       <use xlink:href="#DejaVuSans-2e" x="63.623047"/>
       <use xlink:href="#DejaVuSans-30" x="95.410156"/>
      </g>
     </g>
    </g>
    <g id="text_7">
     <!-- False Positive Rate -->
     <g transform="translate(198.447031 365.707187) scale(0.14 -0.14)">
      <defs>
       <path id="DejaVuSans-46" d="M 628 4666 
L 3309 4666 
L 3309 4134 
L 1259 4134 
L 1259 2759 
L 3109 2759 
L 3109 2228 
L 1259 2228 
L 1259 0 
L 628 0 
L 628 4666 
z
" transform="scale(0.015625)"/>
       <path id="DejaVuSans-61" d="M 2194 1759 
Q 1497 1759 1228 1600 
Q 959 1441 959 1056 
Q 959 750 1161 570 
Q 1363 391 1709 391 
Q 2188 391 2477 730 
Q 2766 1069 2766 1631 
L 2766 1759 
L 2194 1759 
z
M 3341 1997 
L 3341 0 
L 2766 0 
L 2766 531 
Q 2569 213 2275 61 
Q 1981 -91 1556 -91 
Q 1019 -91 701 211 
Q 384 513 384 1019 
Q 384 1609 779 1909 
Q 1175 2209 1959 2209 
L 2766 2209 
L 2766 2266 
Q 2766 2663 2505 2880 
Q 2244 3097 1772 3097 
Q 1472 3097 1187 3025 
Q 903 2953 641 2809 
L 641 3341 
Q 956 3463 1253 3523 
Q 1550 3584 1831 3584 
Q 2591 3584 2966 3190 
Q 3341 2797 3341 1997 
z
" transform="scale(0.015625)"/>
       <path id="DejaVuSans-6c" d="M 603 4863 
L 1178 4863 
L 1178 0 
L 603 0 
L 603 4863 
z
" transform="scale(0.015625)"/>
       <path id="DejaVuSans-73" d="M 2834 3397 
L 2834 2853 
Q 2591 2978 2328 3040 
Q 2066 3103 1784 3103 
Q 1356 3103 1142 2972 
Q 928 2841 928 2578 
Q 928 2378 1081 2264 
Q 1234 2150 1697 2047 
L 1894 2003 
Q 2506 1872 2764 1633 
Q 3022 1394 3022 966 
Q 3022 478 2636 193 
Q 2250 -91 1575 -91 
Q 1294 -91 989 -36 
Q 684 19 347 128 
L 347 722 
Q 666 556 975 473 
Q 1284 391 1588 391 
Q 1994 391 2212 530 
Q 2431 669 2431 922 
Q 2431 1156 2273 1281 
Q 2116 1406 1581 1522 
L 1381 1569 
Q 847 1681 609 1914 
Q 372 2147 372 2553 
Q 372 3047 722 3315 
Q 1072 3584 1716 3584 
Q 2034 3584 2315 3537 
Q 2597 3491 2834 3397 
z
" transform="scale(0.015625)"/>
       <path id="DejaVuSans-65" d="M 3597 1894 
L 3597 1613 
L 953 1613 
Q 991 1019 1311 708 
Q 1631 397 2203 397 
Q 2534 397 2845 478 
Q 3156 559 3463 722 
L 3463 178 
Q 3153 47 2828 -22 
Q 2503 -91 2169 -91 
Q 1331 -91 842 396 
Q 353 884 353 1716 
Q 353 2575 817 3079 
Q 1281 3584 2069 3584 
Q 2775 3584 3186 3129 
Q 3597 2675 3597 1894 
z
M 3022 2063 
Q 3016 2534 2758 2815 
Q 2500 3097 2075 3097 
Q 1594 3097 1305 2825 
Q 1016 2553 972 2059 
L 3022 2063 
z
" transform="scale(0.015625)"/>
       <path id="DejaVuSans-20" transform="scale(0.015625)"/>
       <path id="DejaVuSans-50" d="M 1259 4147 
L 1259 2394 
L 2053 2394 
Q 2494 2394 2734 2622 
Q 2975 2850 2975 3272 
Q 2975 3691 2734 3919 
Q 2494 4147 2053 4147 
L 1259 4147 
z
M 628 4666 
L 2053 4666 
Q 2838 4666 3239 4311 
Q 3641 3956 3641 3272 
Q 3641 2581 3239 2228 
Q 2838 1875 2053 1875 
L 1259 1875 
L 1259 0 
L 628 0 
L 628 4666 
z
" transform="scale(0.015625)"/>
       <path id="DejaVuSans-6f" d="M 1959 3097 
Q 1497 3097 1228 2736 
Q 959 2375 959 1747 
Q 959 1119 1226 758 
Q 1494 397 1959 397 
Q 2419 397 2687 759 
Q 2956 1122 2956 1747 
Q 2956 2369 2687 2733 
Q 2419 3097 1959 3097 
z
M 1959 3584 
Q 2709 3584 3137 3096 
Q 3566 2609 3566 1747 
Q 3566 888 3137 398 
Q 2709 -91 1959 -91 
Q 1206 -91 779 398 
Q 353 888 353 1747 
Q 353 2609 779 3096 
Q 1206 3584 1959 3584 
z
" transform="scale(0.015625)"/>
       <path id="DejaVuSans-69" d="M 603 3500 
L 1178 3500 
L 1178 0 
L 603 0 
L 603 3500 
z
M 603 4863 
L 1178 4863 
L 1178 4134 
L 603 4134 
L 603 4863 
z
" transform="scale(0.015625)"/>
       <path id="DejaVuSans-74" d="M 1172 4494 
L 1172 3500 
L 2356 3500 
L 2356 3053 
L 1172 3053 
L 1172 1153 
Q 1172 725 1289 603 
Q 1406 481 1766 481 
L 2356 481 
L 2356 0 
L 1766 0 
Q 1100 0 847 248 
Q 594 497 594 1153 
L 594 3053 
L 172 3053 
L 172 3500 
L 594 3500 
L 594 4494 
L 1172 4494 
z
" transform="scale(0.015625)"/>
       <path id="DejaVuSans-76" d="M 191 3500 
L 800 3500 
L 1894 563 
L 2988 3500 
L 3597 3500 
L 2284 0 
L 1503 0 
L 191 3500 
z
" transform="scale(0.015625)"/>
       <path id="DejaVuSans-52" d="M 2841 2188 
Q 3044 2119 3236 1894 
Q 3428 1669 3622 1275 
L 4263 0 
L 3584 0 
L 2988 1197 
Q 2756 1666 2539 1819 
Q 2322 1972 1947 1972 
L 1259 1972 
L 1259 0 
L 628 0 
L 628 4666 
L 2053 4666 
Q 2853 4666 3247 4331 
Q 3641 3997 3641 3322 
Q 3641 2881 3436 2590 
Q 3231 2300 2841 2188 
z
M 1259 4147 
L 1259 2491 
L 2053 2491 
Q 2509 2491 2742 2702 
Q 2975 2913 2975 3322 
Q 2975 3731 2742 3939 
Q 2509 4147 2053 4147 
L 1259 4147 
z
" transform="scale(0.015625)"/>
      </defs>
      <use xlink:href="#DejaVuSans-46"/>
      <use xlink:href="#DejaVuSans-61" x="48.394531"/>
      <use xlink:href="#DejaVuSans-6c" x="109.673828"/>
      <use xlink:href="#DejaVuSans-73" x="137.457031"/>
      <use xlink:href="#DejaVuSans-65" x="189.556641"/>
      <use xlink:href="#DejaVuSans-20" x="251.080078"/>
      <use xlink:href="#DejaVuSans-50" x="282.867188"/>
      <use xlink:href="#DejaVuSans-6f" x="339.544922"/>
      <use xlink:href="#DejaVuSans-73" x="400.726562"/>
      <use xlink:href="#DejaVuSans-69" x="452.826172"/>
      <use xlink:href="#DejaVuSans-74" x="480.609375"/>
      <use xlink:href="#DejaVuSans-69" x="519.818359"/>
      <use xlink:href="#DejaVuSans-76" x="547.601562"/>
      <use xlink:href="#DejaVuSans-65" x="606.78125"/>
      <use xlink:href="#DejaVuSans-20" x="668.304688"/>
      <use xlink:href="#DejaVuSans-52" x="700.091797"/>
      <use xlink:href="#DejaVuSans-61" x="767.324219"/>
      <use xlink:href="#DejaVuSans-74" x="828.603516"/>
      <use xlink:href="#DejaVuSans-65" x="867.8125"/>
     </g>
    </g>
   </g>
   <g id="matplotlib.axis_2">
    <g id="ytick_1">
     <g id="line2d_7">
      <defs>
       <path id="ma3ca91934c" d="M 0 0 
L -3.5 0 
" style="stroke: #000000; stroke-width: 0.8"/>
      </defs>
      <g>
       <use xlink:href="#ma3ca91934c" x="62.12" y="317.045455" style="stroke: #000000; stroke-width: 0.8"/>
      </g>
     </g>
     <g id="text_8">
      <!-- 0.0 -->
      <g transform="translate(32.855625 322.364361) scale(0.14 -0.14)">
       <use xlink:href="#DejaVuSans-30"/>
       <use xlink:href="#DejaVuSans-2e" x="63.623047"/>
       <use xlink:href="#DejaVuSans-30" x="95.410156"/>
      </g>
     </g>
    </g>
    <g id="ytick_2">
     <g id="line2d_8">
      <g>
       <use xlink:href="#ma3ca91934c" x="62.12" y="263.147273" style="stroke: #000000; stroke-width: 0.8"/>
      </g>
     </g>
     <g id="text_9">
      <!-- 0.2 -->
      <g transform="translate(32.855625 268.466179) scale(0.14 -0.14)">
       <use xlink:href="#DejaVuSans-30"/>
       <use xlink:href="#DejaVuSans-2e" x="63.623047"/>
       <use xlink:href="#DejaVuSans-32" x="95.410156"/>
      </g>
     </g>
    </g>
    <g id="ytick_3">
     <g id="line2d_9">
      <g>
       <use xlink:href="#ma3ca91934c" x="62.12" y="209.249091" style="stroke: #000000; stroke-width: 0.8"/>
      </g>
     </g>
     <g id="text_10">
      <!-- 0.4 -->
      <g transform="translate(32.855625 214.567997) scale(0.14 -0.14)">
       <use xlink:href="#DejaVuSans-30"/>
       <use xlink:href="#DejaVuSans-2e" x="63.623047"/>
       <use xlink:href="#DejaVuSans-34" x="95.410156"/>
      </g>
     </g>
    </g>
    <g id="ytick_4">
     <g id="line2d_10">
      <g>
       <use xlink:href="#ma3ca91934c" x="62.12" y="155.350909" style="stroke: #000000; stroke-width: 0.8"/>
      </g>
     </g>
     <g id="text_11">
      <!-- 0.6 -->
      <g transform="translate(32.855625 160.669815) scale(0.14 -0.14)">
       <use xlink:href="#DejaVuSans-30"/>
       <use xlink:href="#DejaVuSans-2e" x="63.623047"/>
       <use xlink:href="#DejaVuSans-36" x="95.410156"/>
      </g>
     </g>
    </g>
    <g id="ytick_5">
     <g id="line2d_11">
      <g>
       <use xlink:href="#ma3ca91934c" x="62.12" y="101.452727" style="stroke: #000000; stroke-width: 0.8"/>
      </g>
     </g>
     <g id="text_12">
      <!-- 0.8 -->
      <g transform="translate(32.855625 106.771634) scale(0.14 -0.14)">
       <use xlink:href="#DejaVuSans-30"/>
       <use xlink:href="#DejaVuSans-2e" x="63.623047"/>
       <use xlink:href="#DejaVuSans-38" x="95.410156"/>
      </g>
     </g>
    </g>
    <g id="ytick_6">
     <g id="line2d_12">
      <g>
       <use xlink:href="#ma3ca91934c" x="62.12" y="47.554545" style="stroke: #000000; stroke-width: 0.8"/>
      </g>
     </g>
     <g id="text_13">
      <!-- 1.0 -->
      <g transform="translate(32.855625 52.873452) scale(0.14 -0.14)">
       <use xlink:href="#DejaVuSans-31"/>
       <use xlink:href="#DejaVuSans-2e" x="63.623047"/>
       <use xlink:href="#DejaVuSans-30" x="95.410156"/>
      </g>
     </g>
    </g>
    <g id="text_14">
     <!-- True Positive Rate -->
     <g transform="translate(25.944063 244.641563) rotate(-90) scale(0.14 -0.14)">
      <defs>
       <path id="DejaVuSans-54" d="M -19 4666 
L 3928 4666 
L 3928 4134 
L 2272 4134 
L 2272 0 
L 1638 0 
L 1638 4134 
L -19 4134 
L -19 4666 
z
" transform="scale(0.015625)"/>
       <path id="DejaVuSans-72" d="M 2631 2963 
Q 2534 3019 2420 3045 
Q 2306 3072 2169 3072 
Q 1681 3072 1420 2755 
Q 1159 2438 1159 1844 
L 1159 0 
L 581 0 
L 581 3500 
L 1159 3500 
L 1159 2956 
Q 1341 3275 1631 3429 
Q 1922 3584 2338 3584 
Q 2397 3584 2469 3576 
Q 2541 3569 2628 3553 
L 2631 2963 
z
" transform="scale(0.015625)"/>
       <path id="DejaVuSans-75" d="M 544 1381 
L 544 3500 
L 1119 3500 
L 1119 1403 
Q 1119 906 1312 657 
Q 1506 409 1894 409 
Q 2359 409 2629 706 
Q 2900 1003 2900 1516 
L 2900 3500 
L 3475 3500 
L 3475 0 
L 2900 0 
L 2900 538 
Q 2691 219 2414 64 
Q 2138 -91 1772 -91 
Q 1169 -91 856 284 
Q 544 659 544 1381 
z
M 1991 3584 
L 1991 3584 
z
" transform="scale(0.015625)"/>
      </defs>
      <use xlink:href="#DejaVuSans-54"/>
      <use xlink:href="#DejaVuSans-72" x="46.333984"/>
      <use xlink:href="#DejaVuSans-75" x="87.447266"/>
      <use xlink:href="#DejaVuSans-65" x="150.826172"/>
      <use xlink:href="#DejaVuSans-20" x="212.349609"/>
      <use xlink:href="#DejaVuSans-50" x="244.136719"/>
      <use xlink:href="#DejaVuSans-6f" x="300.814453"/>
      <use xlink:href="#DejaVuSans-73" x="361.996094"/>
      <use xlink:href="#DejaVuSans-69" x="414.095703"/>
      <use xlink:href="#DejaVuSans-74" x="441.878906"/>
      <use xlink:href="#DejaVuSans-69" x="481.087891"/>
      <use xlink:href="#DejaVuSans-76" x="508.871094"/>
      <use xlink:href="#DejaVuSans-65" x="568.050781"/>
      <use xlink:href="#DejaVuSans-20" x="629.574219"/>
      <use xlink:href="#DejaVuSans-52" x="661.361328"/>
      <use xlink:href="#DejaVuSans-61" x="728.59375"/>
      <use xlink:href="#DejaVuSans-74" x="789.873047"/>
      <use xlink:href="#DejaVuSans-65" x="829.082031"/>
     </g>
    </g>
   </g>
   <g id="line2d_13">
    <path d="M 80.427273 317.045455 
L 83.5302 317.045455 
L 130.074114 317.045455 
L 130.074114 314.17853 
L 136.279969 314.17853 
L 136.279969 311.311605 
L 164.206317 311.311605 
L 164.206317 305.577756 
L 179.720955 305.577756 
L 179.720955 302.710832 
L 182.823883 302.710832 
L 182.823883 294.110058 
L 198.338521 294.110058 
L 198.338521 291.243133 
L 204.544376 291.243133 
L 204.544376 288.376209 
L 210.750231 288.376209 
L 210.750231 285.509284 
L 220.059014 285.509284 
L 220.059014 282.64236 
L 226.264869 282.64236 
L 226.264869 279.775435 
L 229.367797 279.775435 
L 229.367797 274.041586 
L 235.573652 274.041586 
L 235.573652 268.307737 
L 238.676579 268.307737 
L 238.676579 259.706963 
L 244.882435 259.706963 
L 244.882435 256.840039 
L 247.985362 256.840039 
L 247.985362 251.10619 
L 260.397072 251.10619 
L 260.397072 248.239265 
L 272.808783 248.239265 
L 272.808783 245.37234 
L 285.220493 245.37234 
L 285.220493 242.505416 
L 291.426348 242.505416 
L 291.426348 239.638491 
L 300.735131 239.638491 
L 300.735131 233.904642 
L 310.043914 233.904642 
L 310.043914 228.170793 
L 316.249769 228.170793 
L 316.249769 225.303868 
L 319.352696 225.303868 
L 319.352696 222.436944 
L 322.455624 222.436944 
L 322.455624 219.570019 
L 331.764407 219.570019 
L 331.764407 216.703095 
L 334.867334 216.703095 
L 334.867334 213.83617 
L 344.176117 213.83617 
L 344.176117 205.235397 
L 356.587827 205.235397 
L 356.587827 202.368472 
L 362.793683 202.368472 
L 362.793683 182.3 
L 365.89661 182.3 
L 365.89661 179.433075 
L 368.999538 179.433075 
L 368.999538 176.566151 
L 372.102465 176.566151 
L 372.102465 170.832302 
L 375.205393 170.832302 
L 375.205393 162.231528 
L 378.30832 162.231528 
L 378.30832 159.364603 
L 381.411248 159.364603 
L 381.411248 150.76383 
L 387.617103 150.76383 
L 387.617103 145.029981 
L 390.720031 145.029981 
L 390.720031 142.163056 
L 393.822958 142.163056 
L 393.822958 136.429207 
L 400.028814 136.429207 
L 400.028814 133.562282 
L 403.131741 133.562282 
L 403.131741 124.961509 
L 412.440524 124.961509 
L 412.440524 116.360735 
L 415.543451 116.360735 
L 415.543451 113.49381 
L 418.646379 113.49381 
L 418.646379 107.759961 
L 421.749307 107.759961 
L 421.749307 99.159188 
L 424.852234 99.159188 
L 424.852234 90.558414 
L 427.955162 90.558414 
L 427.955162 81.95764 
L 431.058089 81.95764 
L 431.058089 70.489942 
L 434.161017 70.489942 
L 434.161017 59.022244 
L 437.263945 59.022244 
L 437.263945 56.155319 
L 440.366872 56.155319 
L 440.366872 53.288395 
L 443.4698 53.288395 
L 443.4698 50.42147 
L 446.572727 50.42147 
L 446.572727 47.554545 
" clip-path="url(#pf44852f014)" style="fill: none; stroke: #1f77b4; stroke-opacity: 0.66; stroke-width: 1.5; stroke-linecap: square"/>
   </g>
   <g id="line2d_14">
    <path d="M 80.427273 317.045455 
L 86.06028 317.045455 
L 294.481538 317.045455 
L 294.481538 305.328458 
L 317.013566 305.328458 
L 317.013566 293.611462 
L 322.646573 293.611462 
L 322.646573 270.17747 
L 328.27958 270.17747 
L 328.27958 258.460474 
L 362.077622 258.460474 
L 362.077622 211.59249 
L 367.710629 211.59249 
L 367.710629 164.724506 
L 384.60965 164.724506 
L 384.60965 141.290514 
L 401.508671 141.290514 
L 401.508671 129.573518 
L 412.774685 129.573518 
L 412.774685 106.139526 
L 424.040699 106.139526 
L 424.040699 94.42253 
L 429.673706 94.42253 
L 429.673706 82.705534 
L 440.93972 82.705534 
L 440.93972 47.554545 
L 446.572727 47.554545 
" clip-path="url(#pf44852f014)" style="fill: none; stroke: #ff7f0e; stroke-opacity: 0.66; stroke-width: 1.5; stroke-linecap: square"/>
   </g>
   <g id="line2d_15">
    <path d="M 80.427273 317.045455 
L 83.478485 317.045455 
L 141.451515 317.045455 
L 141.451515 313.023202 
L 144.502727 313.023202 
L 144.502727 304.978697 
L 153.656364 304.978697 
L 153.656364 300.956445 
L 159.758788 300.956445 
L 159.758788 296.934193 
L 165.861212 296.934193 
L 165.861212 292.91194 
L 184.168485 292.91194 
L 184.168485 284.867436 
L 190.270909 284.867436 
L 190.270909 280.845183 
L 202.475758 280.845183 
L 202.475758 272.800678 
L 205.52697 272.800678 
L 205.52697 268.778426 
L 211.629394 268.778426 
L 211.629394 256.711669 
L 214.680606 256.711669 
L 214.680606 252.689417 
L 217.731818 252.689417 
L 217.731818 244.644912 
L 226.885455 244.644912 
L 226.885455 240.622659 
L 232.987879 240.622659 
L 232.987879 236.600407 
L 236.039091 236.600407 
L 236.039091 232.578155 
L 242.141515 232.578155 
L 242.141515 228.555902 
L 245.192727 228.555902 
L 245.192727 224.53365 
L 248.243939 224.53365 
L 248.243939 220.511398 
L 254.346364 220.511398 
L 254.346364 216.489145 
L 257.397576 216.489145 
L 257.397576 208.44464 
L 266.551212 208.44464 
L 266.551212 204.422388 
L 269.602424 204.422388 
L 269.602424 200.400136 
L 281.807273 200.400136 
L 281.807273 196.377883 
L 284.858485 196.377883 
L 284.858485 188.333379 
L 287.909697 188.333379 
L 287.909697 176.266621 
L 290.960909 176.266621 
L 290.960909 172.244369 
L 294.012121 172.244369 
L 294.012121 164.199864 
L 303.165758 164.199864 
L 303.165758 156.15536 
L 306.21697 156.15536 
L 306.21697 148.110855 
L 318.421818 148.110855 
L 318.421818 144.088602 
L 321.47303 144.088602 
L 321.47303 140.06635 
L 330.626667 140.06635 
L 330.626667 136.044098 
L 333.677879 136.044098 
L 333.677879 132.021845 
L 336.729091 132.021845 
L 336.729091 123.977341 
L 339.780303 123.977341 
L 339.780303 119.955088 
L 342.831515 119.955088 
L 342.831515 115.932836 
L 345.882727 115.932836 
L 345.882727 107.888331 
L 348.933939 107.888331 
L 348.933939 103.866079 
L 358.087576 103.866079 
L 358.087576 99.843826 
L 373.343636 99.843826 
L 373.343636 91.799322 
L 379.446061 91.799322 
L 379.446061 83.754817 
L 385.548485 83.754817 
L 385.548485 79.732564 
L 388.599697 79.732564 
L 388.599697 75.710312 
L 391.650909 75.710312 
L 391.650909 71.68806 
L 400.804545 71.68806 
L 400.804545 67.665807 
L 406.90697 67.665807 
L 406.90697 63.643555 
L 416.060606 63.643555 
L 416.060606 59.621303 
L 428.265455 59.621303 
L 428.265455 55.59905 
L 434.367879 55.59905 
L 434.367879 51.576798 
L 440.470303 51.576798 
L 440.470303 47.554545 
L 446.572727 47.554545 
" clip-path="url(#pf44852f014)" style="fill: none; stroke: #2ca02c; stroke-opacity: 0.66; stroke-width: 1.5; stroke-linecap: square"/>
   </g>
   <g id="line2d_16">
    <path d="M 80.427273 317.045455 
L 83.611146 317.045455 
L 140.92087 317.045455 
L 140.92087 314.761633 
L 166.391858 314.761633 
L 166.391858 312.477812 
L 172.759605 312.477812 
L 172.759605 310.193991 
L 175.943478 310.193991 
L 175.943478 307.910169 
L 204.59834 307.910169 
L 204.59834 301.058706 
L 210.966087 301.058706 
L 210.966087 287.355778 
L 217.333834 287.355778 
L 217.333834 285.071957 
L 223.701581 285.071957 
L 223.701581 280.504314 
L 226.885455 280.504314 
L 226.885455 278.220493 
L 230.069328 278.220493 
L 230.069328 273.652851 
L 236.437075 273.652851 
L 236.437075 266.801387 
L 239.620949 266.801387 
L 239.620949 264.517565 
L 242.804822 264.517565 
L 242.804822 248.530817 
L 249.172569 248.530817 
L 249.172569 241.679353 
L 258.72419 241.679353 
L 258.72419 239.395532 
L 265.091937 239.395532 
L 265.091937 209.705855 
L 274.643557 209.705855 
L 274.643557 191.435285 
L 277.827431 191.435285 
L 277.827431 184.583821 
L 284.195178 184.583821 
L 284.195178 180.016179 
L 287.379051 180.016179 
L 287.379051 177.732357 
L 290.562925 177.732357 
L 290.562925 173.164715 
L 293.746798 173.164715 
L 293.746798 161.745609 
L 300.114545 161.745609 
L 300.114545 157.177966 
L 303.298419 157.177966 
L 303.298419 154.894145 
L 306.482292 154.894145 
L 306.482292 152.610324 
L 309.666166 152.610324 
L 309.666166 150.326502 
L 312.85004 150.326502 
L 312.85004 148.042681 
L 322.40166 148.042681 
L 322.40166 138.907396 
L 325.585534 138.907396 
L 325.585534 127.48829 
L 331.953281 127.48829 
L 331.953281 122.920647 
L 344.688775 122.920647 
L 344.688775 118.353005 
L 347.872648 118.353005 
L 347.872648 111.501541 
L 354.240395 111.501541 
L 354.240395 106.933898 
L 370.159763 106.933898 
L 370.159763 95.514792 
L 379.711383 95.514792 
L 379.711383 90.947149 
L 386.07913 90.947149 
L 386.07913 88.663328 
L 392.446877 88.663328 
L 392.446877 84.095686 
L 405.182372 84.095686 
L 405.182372 74.960401 
L 408.366245 74.960401 
L 408.366245 72.676579 
L 411.550119 72.676579 
L 411.550119 70.392758 
L 417.917866 70.392758 
L 417.917866 68.108937 
L 421.101739 68.108937 
L 421.101739 63.541294 
L 424.285613 63.541294 
L 424.285613 61.257473 
L 430.65336 61.257473 
L 430.65336 58.973652 
L 437.021107 58.973652 
L 437.021107 56.689831 
L 440.20498 56.689831 
L 440.20498 52.122188 
L 443.388854 52.122188 
L 443.388854 49.838367 
L 446.572727 49.838367 
L 446.572727 47.554545 
" clip-path="url(#pf44852f014)" style="fill: none; stroke: #d62728; stroke-opacity: 0.66; stroke-width: 1.5; stroke-linecap: square"/>
   </g>
   <g id="line2d_17">
    <path d="M 80.427273 317.045455 
L 90.11366 317.045455 
L 90.11366 314.441678 
L 107.549158 314.441678 
L 107.549158 313.139789 
L 111.423713 313.139789 
L 111.423713 311.837901 
L 117.235546 311.837901 
L 117.235546 310.536012 
L 121.110101 310.536012 
L 121.110101 309.234124 
L 132.733766 309.234124 
L 132.733766 307.932235 
L 140.482876 307.932235 
L 140.482876 302.724682 
L 150.169264 302.724682 
L 150.169264 301.422793 
L 154.043819 301.422793 
L 154.043819 300.120905 
L 157.918374 300.120905 
L 157.918374 298.819016 
L 159.855652 298.819016 
L 159.855652 297.517128 
L 161.792929 297.517128 
L 161.792929 296.215239 
L 163.730207 296.215239 
L 163.730207 294.913351 
L 167.604762 294.913351 
L 167.604762 293.611462 
L 169.542039 293.611462 
L 169.542039 291.007686 
L 171.479317 291.007686 
L 171.479317 289.705797 
L 175.353872 289.705797 
L 175.353872 288.403909 
L 185.04026 288.403909 
L 185.04026 287.10202 
L 190.852092 287.10202 
L 190.852092 283.196355 
L 196.663925 283.196355 
L 196.663925 280.592578 
L 198.601203 280.592578 
L 198.601203 279.29069 
L 200.53848 279.29069 
L 200.53848 277.988801 
L 204.413035 277.988801 
L 204.413035 275.385024 
L 206.350313 275.385024 
L 206.350313 272.781247 
L 212.162145 272.781247 
L 212.162145 267.573693 
L 216.0367 267.573693 
L 216.0367 263.668028 
L 219.911255 263.668028 
L 219.911255 262.36614 
L 221.848533 262.36614 
L 221.848533 259.762363 
L 223.78581 259.762363 
L 223.78581 255.856697 
L 235.409476 255.856697 
L 235.409476 253.252921 
L 237.346753 253.252921 
L 237.346753 250.649144 
L 239.284031 250.649144 
L 239.284031 248.045367 
L 241.221308 248.045367 
L 241.221308 246.743478 
L 243.158586 246.743478 
L 243.158586 245.44159 
L 245.095863 245.44159 
L 245.095863 242.837813 
L 247.033141 242.837813 
L 247.033141 241.535924 
L 248.970418 241.535924 
L 248.970418 240.234036 
L 250.907696 240.234036 
L 250.907696 233.724594 
L 254.782251 233.724594 
L 254.782251 231.120817 
L 256.719529 231.120817 
L 256.719529 228.51704 
L 264.468639 228.51704 
L 264.468639 224.611375 
L 270.280471 224.611375 
L 270.280471 222.007598 
L 274.155026 222.007598 
L 274.155026 216.800044 
L 278.029582 216.800044 
L 278.029582 211.59249 
L 279.966859 211.59249 
L 279.966859 210.290602 
L 281.904137 210.290602 
L 281.904137 208.988713 
L 287.715969 208.988713 
L 287.715969 207.686825 
L 297.402357 207.686825 
L 297.402357 206.384936 
L 301.276912 206.384936 
L 301.276912 203.781159 
L 307.088745 203.781159 
L 307.088745 202.479271 
L 309.026022 202.479271 
L 309.026022 201.177383 
L 314.837855 201.177383 
L 314.837855 193.366052 
L 322.586965 193.366052 
L 322.586965 189.460386 
L 330.336075 189.460386 
L 330.336075 188.158498 
L 332.273353 188.158498 
L 332.273353 186.85661 
L 336.147908 186.85661 
L 336.147908 182.950944 
L 341.95974 182.950944 
L 341.95974 175.139614 
L 343.897018 175.139614 
L 343.897018 173.837725 
L 345.834295 173.837725 
L 345.834295 172.535837 
L 355.520683 172.535837 
L 355.520683 171.233948 
L 361.332516 171.233948 
L 361.332516 169.93206 
L 365.207071 169.93206 
L 365.207071 166.026394 
L 367.144348 166.026394 
L 367.144348 162.120729 
L 371.018903 162.120729 
L 371.018903 158.215064 
L 376.830736 158.215064 
L 376.830736 156.913175 
L 378.768013 156.913175 
L 378.768013 154.309398 
L 380.705291 154.309398 
L 380.705291 153.00751 
L 382.642569 153.00751 
L 382.642569 150.403733 
L 386.517124 150.403733 
L 386.517124 145.196179 
L 388.454401 145.196179 
L 388.454401 138.686737 
L 390.391679 138.686737 
L 390.391679 136.08296 
L 392.328956 136.08296 
L 392.328956 133.479183 
L 394.266234 133.479183 
L 394.266234 117.856522 
L 396.203511 117.856522 
L 396.203511 112.648968 
L 398.140789 112.648968 
L 398.140789 103.535749 
L 400.078066 103.535749 
L 400.078066 102.23386 
L 402.015344 102.23386 
L 402.015344 100.931972 
L 403.952621 100.931972 
L 403.952621 99.630083 
L 405.889899 99.630083 
L 405.889899 98.328195 
L 407.827177 98.328195 
L 407.827177 97.026307 
L 409.764454 97.026307 
L 409.764454 94.42253 
L 413.639009 94.42253 
L 413.639009 93.120641 
L 415.576287 93.120641 
L 415.576287 91.818753 
L 421.388119 91.818753 
L 421.388119 85.30931 
L 423.325397 85.30931 
L 423.325397 84.007422 
L 425.262674 84.007422 
L 425.262674 80.101757 
L 427.199952 80.101757 
L 427.199952 78.799868 
L 429.137229 78.799868 
L 429.137229 76.196091 
L 433.011785 76.196091 
L 433.011785 73.592314 
L 436.88634 73.592314 
L 436.88634 72.290426 
L 438.823617 72.290426 
L 438.823617 67.082872 
L 440.760895 67.082872 
L 440.760895 61.875318 
L 442.698172 61.875318 
L 442.698172 52.762099 
L 444.63545 52.762099 
L 444.63545 47.554545 
L 446.572727 47.554545 
L 446.572727 47.554545 
" clip-path="url(#pf44852f014)" style="fill: none; stroke: #9467bd; stroke-opacity: 0.66; stroke-width: 1.5; stroke-linecap: square"/>
   </g>
   <g id="line2d_18">
    <path d="M 80.427273 317.045455 
L 84.588017 317.045455 
L 138.677686 317.045455 
L 138.677686 310.629004 
L 163.642149 310.629004 
L 163.642149 309.024892 
L 171.963636 309.024892 
L 171.963636 307.420779 
L 180.285124 307.420779 
L 180.285124 305.816667 
L 205.249587 305.816667 
L 205.249587 304.212554 
L 217.731818 304.212554 
L 217.731818 301.004329 
L 221.892562 301.004329 
L 221.892562 299.400216 
L 230.21405 299.400216 
L 230.21405 297.796104 
L 238.535537 297.796104 
L 238.535537 296.191991 
L 242.696281 296.191991 
L 242.696281 291.379654 
L 251.017769 291.379654 
L 251.017769 284.963203 
L 255.178512 284.963203 
L 255.178512 276.942641 
L 259.339256 276.942641 
L 259.339256 273.734416 
L 267.660744 273.734416 
L 267.660744 270.52619 
L 271.821488 270.52619 
L 271.821488 265.713853 
L 275.982231 265.713853 
L 275.982231 260.901515 
L 280.142975 260.901515 
L 280.142975 256.089177 
L 288.464463 256.089177 
L 288.464463 236.839827 
L 292.625207 236.839827 
L 292.625207 228.819264 
L 296.78595 228.819264 
L 296.78595 227.215152 
L 300.946694 227.215152 
L 300.946694 220.798701 
L 305.107438 220.798701 
L 305.107438 215.986364 
L 309.268182 215.986364 
L 309.268182 214.382251 
L 313.428926 214.382251 
L 313.428926 212.778139 
L 317.589669 212.778139 
L 317.589669 207.965801 
L 321.750413 207.965801 
L 321.750413 199.945238 
L 325.911157 199.945238 
L 325.911157 193.528788 
L 330.071901 193.528788 
L 330.071901 191.924675 
L 334.232645 191.924675 
L 334.232645 188.71645 
L 338.393388 188.71645 
L 338.393388 182.3 
L 342.554132 182.3 
L 342.554132 174.279437 
L 350.87562 174.279437 
L 350.87562 167.862987 
L 355.036364 167.862987 
L 355.036364 164.654762 
L 359.197107 164.654762 
L 359.197107 156.634199 
L 363.357851 156.634199 
L 363.357851 153.425974 
L 367.518595 153.425974 
L 367.518595 150.217749 
L 371.679339 150.217749 
L 371.679339 147.009524 
L 375.840083 147.009524 
L 375.840083 143.801299 
L 380.000826 143.801299 
L 380.000826 142.197186 
L 388.322314 142.197186 
L 388.322314 132.572511 
L 392.483058 132.572511 
L 392.483058 108.510823 
L 396.643802 108.510823 
L 396.643802 106.90671 
L 400.804545 106.90671 
L 400.804545 100.49026 
L 404.965289 100.49026 
L 404.965289 95.677922 
L 409.126033 95.677922 
L 409.126033 87.657359 
L 413.286777 87.657359 
L 413.286777 82.845022 
L 417.447521 82.845022 
L 417.447521 81.240909 
L 425.769008 81.240909 
L 425.769008 74.824459 
L 429.929752 74.824459 
L 429.929752 68.408009 
L 434.090496 68.408009 
L 434.090496 63.595671 
L 438.25124 63.595671 
L 438.25124 58.783333 
L 442.411983 58.783333 
L 442.411983 50.762771 
L 446.572727 50.762771 
L 446.572727 47.554545 
" clip-path="url(#pf44852f014)" style="fill: none; stroke: #8c564b; stroke-opacity: 0.66; stroke-width: 1.5; stroke-linecap: square"/>
   </g>
   <g id="line2d_19">
    <path d="M 80.427273 317.045455 
L 103.607704 317.045455 
L 103.607704 316.647388 
L 104.134532 316.647388 
L 104.134532 316.249322 
L 107.2955 316.249322 
L 107.2955 315.851256 
L 111.510124 315.851256 
L 111.510124 315.453189 
L 112.036952 315.453189 
L 112.036952 315.055123 
L 112.56378 315.055123 
L 112.56378 314.657057 
L 123.627168 314.657057 
L 123.627168 314.25899 
L 126.788136 314.25899 
L 126.788136 313.860924 
L 127.841792 313.860924 
L 127.841792 313.462858 
L 129.422276 313.462858 
L 129.422276 313.064791 
L 134.163728 313.064791 
L 134.163728 312.666725 
L 135.744212 312.666725 
L 135.744212 312.268659 
L 139.958836 312.268659 
L 139.958836 311.472526 
L 152.07588 311.472526 
L 152.07588 311.07446 
L 152.602708 311.07446 
L 152.602708 310.676393 
L 153.129536 310.676393 
L 153.129536 310.278327 
L 157.34416 310.278327 
L 157.34416 309.880261 
L 159.451472 309.880261 
L 159.451472 309.084128 
L 160.505128 309.084128 
L 160.505128 308.686062 
L 161.558784 308.686062 
L 161.558784 308.287995 
L 162.085612 308.287995 
L 162.085612 307.889929 
L 163.139267 307.889929 
L 163.139267 306.69573 
L 163.666095 306.69573 
L 163.666095 306.297663 
L 164.719751 306.297663 
L 164.719751 305.899597 
L 165.246579 305.899597 
L 165.246579 305.501531 
L 167.353891 305.501531 
L 167.353891 304.307332 
L 168.407547 304.307332 
L 168.407547 303.909265 
L 171.568515 303.909265 
L 171.568515 303.511199 
L 173.675827 303.511199 
L 173.675827 303.113133 
L 174.729483 303.113133 
L 174.729483 302.317 
L 175.783139 302.317 
L 175.783139 301.918934 
L 176.309967 301.918934 
L 176.309967 301.122801 
L 176.836795 301.122801 
L 176.836795 300.724735 
L 177.890451 300.724735 
L 177.890451 300.326668 
L 178.417279 300.326668 
L 178.417279 299.530536 
L 178.944107 299.530536 
L 178.944107 298.734403 
L 182.105075 298.734403 
L 182.105075 297.93827 
L 182.631903 297.93827 
L 182.631903 297.142138 
L 183.158731 297.142138 
L 183.158731 296.744071 
L 183.685559 296.744071 
L 183.685559 295.947939 
L 186.319699 295.947939 
L 186.319699 295.549872 
L 188.953839 295.549872 
L 188.953839 295.151806 
L 189.480667 295.151806 
L 189.480667 294.355673 
L 190.007495 294.355673 
L 190.007495 292.763408 
L 192.114807 292.763408 
L 192.114807 291.569209 
L 193.168463 291.569209 
L 193.168463 291.171143 
L 193.695291 291.171143 
L 193.695291 289.976944 
L 195.275775 289.976944 
L 195.275775 289.578877 
L 196.329431 289.578877 
L 196.329431 289.180811 
L 196.856259 289.180811 
L 196.856259 288.782745 
L 197.383087 288.782745 
L 197.383087 288.384678 
L 197.909915 288.384678 
L 197.909915 287.588546 
L 198.963571 287.588546 
L 198.963571 287.190479 
L 200.017227 287.190479 
L 200.017227 286.394347 
L 201.070883 286.394347 
L 201.070883 285.99628 
L 202.124539 285.99628 
L 202.124539 284.802081 
L 204.758679 284.802081 
L 204.758679 284.404015 
L 205.285507 284.404015 
L 205.285507 283.209816 
L 207.919647 283.209816 
L 207.919647 282.015617 
L 209.500131 282.015617 
L 209.500131 280.423352 
L 210.026959 280.423352 
L 210.026959 280.025285 
L 211.080615 280.025285 
L 211.080615 278.831086 
L 211.607443 278.831086 
L 211.607443 278.43302 
L 212.661099 278.43302 
L 212.661099 276.442688 
L 213.187927 276.442688 
L 213.187927 274.452357 
L 214.241583 274.452357 
L 214.241583 274.05429 
L 214.768411 274.05429 
L 214.768411 273.258158 
L 216.348895 273.258158 
L 216.348895 272.462025 
L 216.875723 272.462025 
L 216.875723 271.267826 
L 217.402551 271.267826 
L 217.402551 270.86976 
L 218.456207 270.86976 
L 218.456207 270.471693 
L 219.509863 270.471693 
L 219.509863 270.073627 
L 220.563519 270.073627 
L 220.563519 268.879428 
L 222.144003 268.879428 
L 222.144003 267.685229 
L 223.197659 267.685229 
L 223.197659 266.889096 
L 223.724487 266.889096 
L 223.724487 265.694897 
L 226.885455 265.694897 
L 226.885455 263.704566 
L 227.412283 263.704566 
L 227.412283 263.306499 
L 228.992767 263.306499 
L 228.992767 262.908433 
L 229.519595 262.908433 
L 229.519595 262.510367 
L 231.100078 262.510367 
L 231.100078 260.918101 
L 233.20739 260.918101 
L 233.20739 260.520035 
L 234.787874 260.520035 
L 234.787874 260.121969 
L 235.84153 260.121969 
L 235.84153 259.325836 
L 236.368358 259.325836 
L 236.368358 258.92777 
L 236.895186 258.92777 
L 236.895186 258.529703 
L 237.422014 258.529703 
L 237.422014 257.335504 
L 238.47567 257.335504 
L 238.47567 256.937438 
L 239.002498 256.937438 
L 239.002498 256.141305 
L 239.529326 256.141305 
L 239.529326 255.743239 
L 240.582982 255.743239 
L 240.582982 254.150974 
L 241.10981 254.150974 
L 241.10981 252.160642 
L 242.163466 252.160642 
L 242.163466 251.762576 
L 242.690294 251.762576 
L 242.690294 250.966443 
L 243.74395 250.966443 
L 243.74395 250.568377 
L 244.270778 250.568377 
L 244.270778 250.17031 
L 244.797606 250.17031 
L 244.797606 248.976111 
L 245.851262 248.976111 
L 245.851262 248.578045 
L 246.37809 248.578045 
L 246.37809 247.383846 
L 247.431746 247.383846 
L 247.431746 245.791581 
L 247.958574 245.791581 
L 247.958574 245.393514 
L 249.01223 245.393514 
L 249.01223 244.199315 
L 249.539058 244.199315 
L 249.539058 241.810917 
L 250.065886 241.810917 
L 250.065886 241.412851 
L 250.592714 241.412851 
L 250.592714 240.616718 
L 251.64637 240.616718 
L 251.64637 239.820585 
L 252.700026 239.820585 
L 252.700026 238.22832 
L 253.753682 238.22832 
L 253.753682 237.830254 
L 254.807338 237.830254 
L 254.807338 237.034121 
L 255.334166 237.034121 
L 255.334166 236.237988 
L 256.91465 236.237988 
L 256.91465 235.839922 
L 257.441478 235.839922 
L 257.441478 234.645723 
L 257.968306 234.645723 
L 257.968306 231.063126 
L 260.075618 231.063126 
L 260.075618 230.66506 
L 260.602446 230.66506 
L 260.602446 229.470861 
L 261.129274 229.470861 
L 261.129274 228.276662 
L 261.656102 228.276662 
L 261.656102 227.878595 
L 262.18293 227.878595 
L 262.18293 226.684396 
L 262.709758 226.684396 
L 262.709758 226.28633 
L 266.924382 226.28633 
L 266.924382 225.490197 
L 268.504866 225.490197 
L 268.504866 224.694065 
L 269.031694 224.694065 
L 269.031694 223.897932 
L 270.612178 223.897932 
L 270.612178 222.703733 
L 271.139006 222.703733 
L 271.139006 220.315335 
L 272.192662 220.315335 
L 272.192662 219.519202 
L 273.246318 219.519202 
L 273.246318 218.325003 
L 274.299974 218.325003 
L 274.299974 217.926937 
L 275.35363 217.926937 
L 275.35363 216.334672 
L 275.880458 216.334672 
L 275.880458 215.936605 
L 276.934114 215.936605 
L 276.934114 214.742406 
L 277.460942 214.742406 
L 277.460942 214.34434 
L 278.514598 214.34434 
L 278.514598 213.548207 
L 279.041426 213.548207 
L 279.041426 212.752075 
L 280.095082 212.752075 
L 280.095082 210.761743 
L 281.148738 210.761743 
L 281.148738 209.169478 
L 281.675566 209.169478 
L 281.675566 207.577212 
L 282.202394 207.577212 
L 282.202394 206.78108 
L 283.25605 206.78108 
L 283.25605 206.383013 
L 283.782878 206.383013 
L 283.782878 205.188814 
L 284.309706 205.188814 
L 284.309706 203.994615 
L 284.836534 203.994615 
L 284.836534 202.40235 
L 285.363362 202.40235 
L 285.363362 200.412018 
L 285.89019 200.412018 
L 285.89019 199.217819 
L 286.417018 199.217819 
L 286.417018 198.819753 
L 286.943846 198.819753 
L 286.943846 198.421687 
L 287.470674 198.421687 
L 287.470674 198.02362 
L 288.52433 198.02362 
L 288.52433 194.83909 
L 291.15847 194.83909 
L 291.15847 194.441023 
L 291.685298 194.441023 
L 291.685298 193.246824 
L 292.738954 193.246824 
L 292.738954 192.052625 
L 293.79261 192.052625 
L 293.79261 191.654559 
L 296.42675 191.654559 
L 296.42675 190.46036 
L 296.953578 190.46036 
L 296.953578 187.673896 
L 298.534061 187.673896 
L 298.534061 186.877763 
L 299.060889 186.877763 
L 299.060889 185.285498 
L 299.587717 185.285498 
L 299.587717 184.887431 
L 300.641373 184.887431 
L 300.641373 184.091299 
L 301.695029 184.091299 
L 301.695029 182.499033 
L 303.275513 182.499033 
L 303.275513 180.110635 
L 303.802341 180.110635 
L 303.802341 179.314502 
L 304.329169 179.314502 
L 304.329169 178.51837 
L 305.382825 178.51837 
L 305.382825 177.324171 
L 305.909653 177.324171 
L 305.909653 175.731905 
L 306.436481 175.731905 
L 306.436481 174.935773 
L 306.963309 174.935773 
L 306.963309 174.13964 
L 308.016965 174.13964 
L 308.016965 172.149308 
L 308.543793 172.149308 
L 308.543793 171.353176 
L 310.124277 171.353176 
L 310.124277 170.557043 
L 311.177933 170.557043 
L 311.177933 169.76091 
L 312.758417 169.76091 
L 312.758417 168.964778 
L 314.338901 168.964778 
L 314.338901 168.566711 
L 314.865729 168.566711 
L 314.865729 167.770579 
L 315.919385 167.770579 
L 315.919385 166.974446 
L 319.607181 166.974446 
L 319.607181 166.57638 
L 321.714493 166.57638 
L 321.714493 165.780247 
L 322.241321 165.780247 
L 322.241321 165.382181 
L 323.294977 165.382181 
L 323.294977 164.586048 
L 323.821805 164.586048 
L 323.821805 162.993783 
L 325.929117 162.993783 
L 325.929117 162.19765 
L 328.036429 162.19765 
L 328.036429 161.401517 
L 328.563257 161.401517 
L 328.563257 161.003451 
L 329.090085 161.003451 
L 329.090085 160.605385 
L 329.616913 160.605385 
L 329.616913 159.411186 
L 330.143741 159.411186 
L 330.143741 158.216987 
L 330.670569 158.216987 
L 330.670569 157.81892 
L 331.197397 157.81892 
L 331.197397 157.420854 
L 332.251053 157.420854 
L 332.251053 157.022788 
L 332.777881 157.022788 
L 332.777881 156.624721 
L 333.304709 156.624721 
L 333.304709 155.828589 
L 335.938849 155.828589 
L 335.938849 155.430522 
L 336.465677 155.430522 
L 336.465677 153.838257 
L 336.992505 153.838257 
L 336.992505 153.440191 
L 338.046161 153.440191 
L 338.046161 152.245992 
L 338.572989 152.245992 
L 338.572989 151.847925 
L 339.626645 151.847925 
L 339.626645 150.25566 
L 340.153473 150.25566 
L 340.153473 149.061461 
L 342.260785 149.061461 
L 342.260785 148.663395 
L 342.787613 148.663395 
L 342.787613 147.867262 
L 343.841269 147.867262 
L 343.841269 147.469196 
L 344.368097 147.469196 
L 344.368097 146.673063 
L 345.948581 146.673063 
L 345.948581 145.478864 
L 348.055893 145.478864 
L 348.055893 145.080798 
L 348.582721 145.080798 
L 348.582721 144.682731 
L 349.636377 144.682731 
L 349.636377 143.488532 
L 350.690033 143.488532 
L 350.690033 142.6924 
L 351.216861 142.6924 
L 351.216861 142.294333 
L 353.324173 142.294333 
L 353.324173 141.896267 
L 353.851001 141.896267 
L 353.851001 141.498201 
L 355.431485 141.498201 
L 355.431485 140.702068 
L 355.958313 140.702068 
L 355.958313 140.304002 
L 356.485141 140.304002 
L 356.485141 139.507869 
L 357.011969 139.507869 
L 357.011969 137.915604 
L 357.538797 137.915604 
L 357.538797 137.119471 
L 358.065625 137.119471 
L 358.065625 136.721405 
L 360.172937 136.721405 
L 360.172937 135.129139 
L 361.753421 135.129139 
L 361.753421 133.536874 
L 363.333905 133.536874 
L 363.333905 133.138808 
L 364.914388 133.138808 
L 364.914388 132.342675 
L 365.441216 132.342675 
L 365.441216 131.944609 
L 366.494872 131.944609 
L 366.494872 131.148476 
L 367.0217 131.148476 
L 367.0217 130.75041 
L 369.65584 130.75041 
L 369.65584 129.954277 
L 371.763152 129.954277 
L 371.763152 129.556211 
L 373.343636 129.556211 
L 373.343636 129.158144 
L 373.870464 129.158144 
L 373.870464 128.362012 
L 374.92412 128.362012 
L 374.92412 127.565879 
L 375.977776 127.565879 
L 375.977776 127.167813 
L 376.504604 127.167813 
L 376.504604 126.37168 
L 378.611916 126.37168 
L 378.611916 125.575547 
L 380.1924 125.575547 
L 380.1924 123.983282 
L 381.246056 123.983282 
L 381.246056 123.585216 
L 382.299712 123.585216 
L 382.299712 123.187149 
L 382.82654 123.187149 
L 382.82654 122.789083 
L 383.353368 122.789083 
L 383.353368 122.391017 
L 383.880196 122.391017 
L 383.880196 120.400685 
L 384.933852 120.400685 
L 384.933852 118.808419 
L 385.46068 118.808419 
L 385.46068 116.420021 
L 385.987508 116.420021 
L 385.987508 115.225822 
L 386.514336 115.225822 
L 386.514336 114.42969 
L 389.148476 114.42969 
L 389.148476 114.031623 
L 389.675304 114.031623 
L 389.675304 113.235491 
L 391.255788 113.235491 
L 391.255788 112.439358 
L 392.836272 112.439358 
L 392.836272 112.041292 
L 393.3631 112.041292 
L 393.3631 110.847093 
L 394.416756 110.847093 
L 394.416756 110.05096 
L 394.943584 110.05096 
L 394.943584 109.254827 
L 395.99724 109.254827 
L 395.99724 107.662562 
L 397.577724 107.662562 
L 397.577724 106.866429 
L 399.158208 106.866429 
L 399.158208 106.070297 
L 400.211864 106.070297 
L 400.211864 103.681899 
L 401.26552 103.681899 
L 401.26552 103.283832 
L 402.319176 103.283832 
L 402.319176 101.293501 
L 403.89966 101.293501 
L 403.89966 100.099302 
L 404.426488 100.099302 
L 404.426488 98.10897 
L 405.480144 98.10897 
L 405.480144 96.914771 
L 406.5338 96.914771 
L 406.5338 96.516705 
L 407.060628 96.516705 
L 407.060628 96.118638 
L 407.587456 96.118638 
L 407.587456 95.720572 
L 408.114284 95.720572 
L 408.114284 94.526373 
L 408.641112 94.526373 
L 408.641112 94.128307 
L 410.221596 94.128307 
L 410.221596 92.536041 
L 410.748424 92.536041 
L 410.748424 92.137975 
L 411.80208 92.137975 
L 411.80208 91.341842 
L 412.328908 91.341842 
L 412.328908 90.147643 
L 412.855736 90.147643 
L 412.855736 88.953444 
L 413.382564 88.953444 
L 413.382564 86.565046 
L 413.909392 86.565046 
L 413.909392 86.16698 
L 414.43622 86.16698 
L 414.43622 85.370847 
L 414.963048 85.370847 
L 414.963048 84.972781 
L 415.489876 84.972781 
L 415.489876 83.778582 
L 417.597188 83.778582 
L 417.597188 83.380516 
L 419.177672 83.380516 
L 419.177672 82.186317 
L 419.7045 82.186317 
L 419.7045 79.797919 
L 420.231328 79.797919 
L 420.231328 79.001786 
L 421.284984 79.001786 
L 421.284984 78.60372 
L 422.33864 78.60372 
L 422.33864 77.807587 
L 422.865468 77.807587 
L 422.865468 77.011454 
L 424.445952 77.011454 
L 424.445952 76.613388 
L 424.97278 76.613388 
L 424.97278 75.817255 
L 426.553264 75.817255 
L 426.553264 74.623056 
L 427.60692 74.623056 
L 427.60692 73.826924 
L 428.660576 73.826924 
L 428.660576 73.030791 
L 429.187404 73.030791 
L 429.187404 71.836592 
L 430.24106 71.836592 
L 430.24106 71.040459 
L 432.348371 71.040459 
L 432.348371 68.253995 
L 432.875199 68.253995 
L 432.875199 67.059796 
L 433.928855 67.059796 
L 433.928855 66.66173 
L 434.455683 66.66173 
L 434.455683 65.069464 
L 434.982511 65.069464 
L 434.982511 64.671398 
L 436.036167 64.671398 
L 436.036167 63.477199 
L 436.562995 63.477199 
L 436.562995 63.079133 
L 437.089823 63.079133 
L 437.089823 61.486867 
L 439.197135 61.486867 
L 439.197135 60.690735 
L 439.723963 60.690735 
L 439.723963 59.496536 
L 440.250791 59.496536 
L 440.250791 58.700403 
L 440.777619 58.700403 
L 440.777619 57.506204 
L 441.304447 57.506204 
L 441.304447 57.108138 
L 441.831275 57.108138 
L 441.831275 55.117806 
L 442.358103 55.117806 
L 442.358103 54.719739 
L 442.884931 54.719739 
L 442.884931 52.729408 
L 443.411759 52.729408 
L 443.411759 51.933275 
L 443.938587 51.933275 
L 443.938587 50.739076 
L 444.465415 50.739076 
L 444.465415 49.942943 
L 445.519071 49.942943 
L 445.519071 47.952612 
L 446.572727 47.952612 
L 446.572727 47.554545 
L 446.572727 47.554545 
" clip-path="url(#pf44852f014)" style="fill: none; stroke: #000000; stroke-width: 1.5; stroke-linecap: square"/>
   </g>
   <g id="line2d_20">
    <path d="M -1 376.977674 
L 2.760055 374.210193 
L 13.855372 366.043802 
L 24.950689 357.87741 
L 36.046006 349.711019 
L 47.141322 341.544628 
L 58.236639 333.378237 
L 69.331956 325.211846 
L 80.427273 317.045455 
L 91.52259 308.879063 
L 102.617906 300.712672 
L 113.713223 292.546281 
L 124.80854 284.37989 
L 135.903857 276.213499 
L 146.999174 268.047107 
L 158.09449 259.880716 
L 169.189807 251.714325 
L 180.285124 243.547934 
L 191.380441 235.381543 
L 202.475758 227.215152 
L 213.571074 219.04876 
L 224.666391 210.882369 
L 235.761708 202.715978 
L 246.857025 194.549587 
L 257.952342 186.383196 
L 269.047658 178.216804 
L 280.142975 170.050413 
L 291.238292 161.884022 
L 302.333609 153.717631 
L 313.428926 145.55124 
L 324.524242 137.384848 
L 335.619559 129.218457 
L 346.714876 121.052066 
L 357.810193 112.885675 
L 368.90551 104.719284 
L 380.000826 96.552893 
L 391.096143 88.386501 
L 402.19146 80.22011 
L 413.286777 72.053719 
L 424.382094 63.887328 
L 435.47741 55.720937 
L 446.572727 47.554545 
L 457.668044 39.388154 
L 468.763361 31.221763 
L 479.858678 23.055372 
L 481 22.215334 
" clip-path="url(#pf44852f014)" style="fill: none; stroke-dasharray: 5.55,2.4; stroke-dashoffset: 0; stroke: #000000; stroke-width: 1.5"/>
   </g>
   <g id="patch_3">
    <path d="M 62.12 330.52 
L 62.12 34.08 
" style="fill: none; stroke: #000000; stroke-width: 0.8; stroke-linejoin: miter; stroke-linecap: square"/>
   </g>
   <g id="patch_4">
    <path d="M 62.12 330.52 
L 464.88 330.52 
" style="fill: none; stroke: #000000; stroke-width: 0.8; stroke-linejoin: miter; stroke-linecap: square"/>
   </g>
   <g id="text_15">
    <!-- LOO Tuning, auc: 0.3753 -->
    <g transform="translate(160.412312 28.08) scale(0.168 -0.168)">
     <defs>
      <path id="DejaVuSans-4c" d="M 628 4666 
L 1259 4666 
L 1259 531 
L 3531 531 
L 3531 0 
L 628 0 
L 628 4666 
z
" transform="scale(0.015625)"/>
      <path id="DejaVuSans-4f" d="M 2522 4238 
Q 1834 4238 1429 3725 
Q 1025 3213 1025 2328 
Q 1025 1447 1429 934 
Q 1834 422 2522 422 
Q 3209 422 3611 934 
Q 4013 1447 4013 2328 
Q 4013 3213 3611 3725 
Q 3209 4238 2522 4238 
z
M 2522 4750 
Q 3503 4750 4090 4092 
Q 4678 3434 4678 2328 
Q 4678 1225 4090 567 
Q 3503 -91 2522 -91 
Q 1538 -91 948 565 
Q 359 1222 359 2328 
Q 359 3434 948 4092 
Q 1538 4750 2522 4750 
z
" transform="scale(0.015625)"/>
      <path id="DejaVuSans-6e" d="M 3513 2113 
L 3513 0 
L 2938 0 
L 2938 2094 
Q 2938 2591 2744 2837 
Q 2550 3084 2163 3084 
Q 1697 3084 1428 2787 
Q 1159 2491 1159 1978 
L 1159 0 
L 581 0 
L 581 3500 
L 1159 3500 
L 1159 2956 
Q 1366 3272 1645 3428 
Q 1925 3584 2291 3584 
Q 2894 3584 3203 3211 
Q 3513 2838 3513 2113 
z
" transform="scale(0.015625)"/>
      <path id="DejaVuSans-67" d="M 2906 1791 
Q 2906 2416 2648 2759 
Q 2391 3103 1925 3103 
Q 1463 3103 1205 2759 
Q 947 2416 947 1791 
Q 947 1169 1205 825 
Q 1463 481 1925 481 
Q 2391 481 2648 825 
Q 2906 1169 2906 1791 
z
M 3481 434 
Q 3481 -459 3084 -895 
Q 2688 -1331 1869 -1331 
Q 1566 -1331 1297 -1286 
Q 1028 -1241 775 -1147 
L 775 -588 
Q 1028 -725 1275 -790 
Q 1522 -856 1778 -856 
Q 2344 -856 2625 -561 
Q 2906 -266 2906 331 
L 2906 616 
Q 2728 306 2450 153 
Q 2172 0 1784 0 
Q 1141 0 747 490 
Q 353 981 353 1791 
Q 353 2603 747 3093 
Q 1141 3584 1784 3584 
Q 2172 3584 2450 3431 
Q 2728 3278 2906 2969 
L 2906 3500 
L 3481 3500 
L 3481 434 
z
" transform="scale(0.015625)"/>
      <path id="DejaVuSans-2c" d="M 750 794 
L 1409 794 
L 1409 256 
L 897 -744 
L 494 -744 
L 750 256 
L 750 794 
z
" transform="scale(0.015625)"/>
      <path id="DejaVuSans-63" d="M 3122 3366 
L 3122 2828 
Q 2878 2963 2633 3030 
Q 2388 3097 2138 3097 
Q 1578 3097 1268 2742 
Q 959 2388 959 1747 
Q 959 1106 1268 751 
Q 1578 397 2138 397 
Q 2388 397 2633 464 
Q 2878 531 3122 666 
L 3122 134 
Q 2881 22 2623 -34 
Q 2366 -91 2075 -91 
Q 1284 -91 818 406 
Q 353 903 353 1747 
Q 353 2603 823 3093 
Q 1294 3584 2113 3584 
Q 2378 3584 2631 3529 
Q 2884 3475 3122 3366 
z
" transform="scale(0.015625)"/>
      <path id="DejaVuSans-3a" d="M 750 794 
L 1409 794 
L 1409 0 
L 750 0 
L 750 794 
z
M 750 3309 
L 1409 3309 
L 1409 2516 
L 750 2516 
L 750 3309 
z
" transform="scale(0.015625)"/>
      <path id="DejaVuSans-33" d="M 2597 2516 
Q 3050 2419 3304 2112 
Q 3559 1806 3559 1356 
Q 3559 666 3084 287 
Q 2609 -91 1734 -91 
Q 1441 -91 1130 -33 
Q 819 25 488 141 
L 488 750 
Q 750 597 1062 519 
Q 1375 441 1716 441 
Q 2309 441 2620 675 
Q 2931 909 2931 1356 
Q 2931 1769 2642 2001 
Q 2353 2234 1838 2234 
L 1294 2234 
L 1294 2753 
L 1863 2753 
Q 2328 2753 2575 2939 
Q 2822 3125 2822 3475 
Q 2822 3834 2567 4026 
Q 2313 4219 1838 4219 
Q 1578 4219 1281 4162 
Q 984 4106 628 3988 
L 628 4550 
Q 988 4650 1302 4700 
Q 1616 4750 1894 4750 
Q 2613 4750 3031 4423 
Q 3450 4097 3450 3541 
Q 3450 3153 3228 2886 
Q 3006 2619 2597 2516 
z
" transform="scale(0.015625)"/>
      <path id="DejaVuSans-37" d="M 525 4666 
L 3525 4666 
L 3525 4397 
L 1831 0 
L 1172 0 
L 2766 4134 
L 525 4134 
L 525 4666 
z
" transform="scale(0.015625)"/>
      <path id="DejaVuSans-35" d="M 691 4666 
L 3169 4666 
L 3169 4134 
L 1269 4134 
L 1269 2991 
Q 1406 3038 1543 3061 
Q 1681 3084 1819 3084 
Q 2600 3084 3056 2656 
Q 3513 2228 3513 1497 
Q 3513 744 3044 326 
Q 2575 -91 1722 -91 
Q 1428 -91 1123 -41 
Q 819 9 494 109 
L 494 744 
Q 775 591 1075 516 
Q 1375 441 1709 441 
Q 2250 441 2565 725 
Q 2881 1009 2881 1497 
Q 2881 1984 2565 2268 
Q 2250 2553 1709 2553 
Q 1456 2553 1204 2497 
Q 953 2441 691 2322 
L 691 4666 
z
" transform="scale(0.015625)"/>
     </defs>
     <use xlink:href="#DejaVuSans-4c"/>
     <use xlink:href="#DejaVuSans-4f" x="52.087891"/>
     <use xlink:href="#DejaVuSans-4f" x="130.798828"/>
     <use xlink:href="#DejaVuSans-20" x="209.509766"/>
     <use xlink:href="#DejaVuSans-54" x="241.296875"/>
     <use xlink:href="#DejaVuSans-75" x="287.255859"/>
     <use xlink:href="#DejaVuSans-6e" x="350.634766"/>
     <use xlink:href="#DejaVuSans-69" x="414.013672"/>
     <use xlink:href="#DejaVuSans-6e" x="441.796875"/>
     <use xlink:href="#DejaVuSans-67" x="505.175781"/>
     <use xlink:href="#DejaVuSans-2c" x="568.652344"/>
     <use xlink:href="#DejaVuSans-20" x="600.439453"/>
     <use xlink:href="#DejaVuSans-61" x="632.226562"/>
     <use xlink:href="#DejaVuSans-75" x="693.505859"/>
     <use xlink:href="#DejaVuSans-63" x="756.884766"/>
     <use xlink:href="#DejaVuSans-3a" x="811.865234"/>
     <use xlink:href="#DejaVuSans-20" x="845.556641"/>
     <use xlink:href="#DejaVuSans-30" x="877.34375"/>
     <use xlink:href="#DejaVuSans-2e" x="940.966797"/>
     <use xlink:href="#DejaVuSans-33" x="972.753906"/>
     <use xlink:href="#DejaVuSans-37" x="1036.376953"/>
     <use xlink:href="#DejaVuSans-35" x="1100"/>
     <use xlink:href="#DejaVuSans-33" x="1163.623047"/>
    </g>
   </g>
   <g id="legend_1">
    <g id="patch_5">
     <path d="M 71.92 168.57625 
L 197.996562 168.57625 
Q 200.796562 168.57625 200.796562 165.77625 
L 200.796562 43.88 
Q 200.796562 41.08 197.996562 41.08 
L 71.92 41.08 
Q 69.12 41.08 69.12 43.88 
L 69.12 165.77625 
Q 69.12 168.57625 71.92 168.57625 
z
" style="fill: #ffffff; opacity: 0.8; stroke: #cccccc; stroke-linejoin: miter"/>
    </g>
    <g id="line2d_21">
     <path d="M 74.72 52.417813 
L 88.72 52.417813 
L 102.72 52.417813 
" style="fill: none; stroke: #1f77b4; stroke-opacity: 0.66; stroke-width: 1.5; stroke-linecap: square"/>
    </g>
    <g id="text_16">
     <!-- pBECTS003 -->
     <g transform="translate(113.92 57.317813) scale(0.14 -0.14)">
      <defs>
       <path id="DejaVuSans-70" d="M 1159 525 
L 1159 -1331 
L 581 -1331 
L 581 3500 
L 1159 3500 
L 1159 2969 
Q 1341 3281 1617 3432 
Q 1894 3584 2278 3584 
Q 2916 3584 3314 3078 
Q 3713 2572 3713 1747 
Q 3713 922 3314 415 
Q 2916 -91 2278 -91 
Q 1894 -91 1617 61 
Q 1341 213 1159 525 
z
M 3116 1747 
Q 3116 2381 2855 2742 
Q 2594 3103 2138 3103 
Q 1681 3103 1420 2742 
Q 1159 2381 1159 1747 
Q 1159 1113 1420 752 
Q 1681 391 2138 391 
Q 2594 391 2855 752 
Q 3116 1113 3116 1747 
z
" transform="scale(0.015625)"/>
       <path id="DejaVuSans-42" d="M 1259 2228 
L 1259 519 
L 2272 519 
Q 2781 519 3026 730 
Q 3272 941 3272 1375 
Q 3272 1813 3026 2020 
Q 2781 2228 2272 2228 
L 1259 2228 
z
M 1259 4147 
L 1259 2741 
L 2194 2741 
Q 2656 2741 2882 2914 
Q 3109 3088 3109 3444 
Q 3109 3797 2882 3972 
Q 2656 4147 2194 4147 
L 1259 4147 
z
M 628 4666 
L 2241 4666 
Q 2963 4666 3353 4366 
Q 3744 4066 3744 3513 
Q 3744 3084 3544 2831 
Q 3344 2578 2956 2516 
Q 3422 2416 3680 2098 
Q 3938 1781 3938 1306 
Q 3938 681 3513 340 
Q 3088 0 2303 0 
L 628 0 
L 628 4666 
z
" transform="scale(0.015625)"/>
       <path id="DejaVuSans-45" d="M 628 4666 
L 3578 4666 
L 3578 4134 
L 1259 4134 
L 1259 2753 
L 3481 2753 
L 3481 2222 
L 1259 2222 
L 1259 531 
L 3634 531 
L 3634 0 
L 628 0 
L 628 4666 
z
" transform="scale(0.015625)"/>
       <path id="DejaVuSans-43" d="M 4122 4306 
L 4122 3641 
Q 3803 3938 3442 4084 
Q 3081 4231 2675 4231 
Q 1875 4231 1450 3742 
Q 1025 3253 1025 2328 
Q 1025 1406 1450 917 
Q 1875 428 2675 428 
Q 3081 428 3442 575 
Q 3803 722 4122 1019 
L 4122 359 
Q 3791 134 3420 21 
Q 3050 -91 2638 -91 
Q 1578 -91 968 557 
Q 359 1206 359 2328 
Q 359 3453 968 4101 
Q 1578 4750 2638 4750 
Q 3056 4750 3426 4639 
Q 3797 4528 4122 4306 
z
" transform="scale(0.015625)"/>
       <path id="DejaVuSans-53" d="M 3425 4513 
L 3425 3897 
Q 3066 4069 2747 4153 
Q 2428 4238 2131 4238 
Q 1616 4238 1336 4038 
Q 1056 3838 1056 3469 
Q 1056 3159 1242 3001 
Q 1428 2844 1947 2747 
L 2328 2669 
Q 3034 2534 3370 2195 
Q 3706 1856 3706 1288 
Q 3706 609 3251 259 
Q 2797 -91 1919 -91 
Q 1588 -91 1214 -16 
Q 841 59 441 206 
L 441 856 
Q 825 641 1194 531 
Q 1563 422 1919 422 
Q 2459 422 2753 634 
Q 3047 847 3047 1241 
Q 3047 1584 2836 1778 
Q 2625 1972 2144 2069 
L 1759 2144 
Q 1053 2284 737 2584 
Q 422 2884 422 3419 
Q 422 4038 858 4394 
Q 1294 4750 2059 4750 
Q 2388 4750 2728 4690 
Q 3069 4631 3425 4513 
z
" transform="scale(0.015625)"/>
      </defs>
      <use xlink:href="#DejaVuSans-70"/>
      <use xlink:href="#DejaVuSans-42" x="63.476562"/>
      <use xlink:href="#DejaVuSans-45" x="132.080078"/>
      <use xlink:href="#DejaVuSans-43" x="195.263672"/>
      <use xlink:href="#DejaVuSans-54" x="265.087891"/>
      <use xlink:href="#DejaVuSans-53" x="326.171875"/>
      <use xlink:href="#DejaVuSans-30" x="389.648438"/>
      <use xlink:href="#DejaVuSans-30" x="453.271484"/>
      <use xlink:href="#DejaVuSans-33" x="516.894531"/>
     </g>
    </g>
    <g id="line2d_22">
     <path d="M 74.72 72.967188 
L 88.72 72.967188 
L 102.72 72.967188 
" style="fill: none; stroke: #ff7f0e; stroke-opacity: 0.66; stroke-width: 1.5; stroke-linecap: square"/>
    </g>
    <g id="text_17">
     <!-- pBECTS007 -->
     <g transform="translate(113.92 77.867188) scale(0.14 -0.14)">
      <use xlink:href="#DejaVuSans-70"/>
      <use xlink:href="#DejaVuSans-42" x="63.476562"/>
      <use xlink:href="#DejaVuSans-45" x="132.080078"/>
      <use xlink:href="#DejaVuSans-43" x="195.263672"/>
      <use xlink:href="#DejaVuSans-54" x="265.087891"/>
      <use xlink:href="#DejaVuSans-53" x="326.171875"/>
      <use xlink:href="#DejaVuSans-30" x="389.648438"/>
      <use xlink:href="#DejaVuSans-30" x="453.271484"/>
      <use xlink:href="#DejaVuSans-37" x="516.894531"/>
     </g>
    </g>
    <g id="line2d_23">
     <path d="M 74.72 93.516563 
L 88.72 93.516563 
L 102.72 93.516563 
" style="fill: none; stroke: #2ca02c; stroke-opacity: 0.66; stroke-width: 1.5; stroke-linecap: square"/>
    </g>
    <g id="text_18">
     <!-- pBECTS011 -->
     <g transform="translate(113.92 98.416563) scale(0.14 -0.14)">
      <use xlink:href="#DejaVuSans-70"/>
      <use xlink:href="#DejaVuSans-42" x="63.476562"/>
      <use xlink:href="#DejaVuSans-45" x="132.080078"/>
      <use xlink:href="#DejaVuSans-43" x="195.263672"/>
      <use xlink:href="#DejaVuSans-54" x="265.087891"/>
      <use xlink:href="#DejaVuSans-53" x="326.171875"/>
      <use xlink:href="#DejaVuSans-30" x="389.648438"/>
      <use xlink:href="#DejaVuSans-31" x="453.271484"/>
      <use xlink:href="#DejaVuSans-31" x="516.894531"/>
     </g>
    </g>
    <g id="line2d_24">
     <path d="M 74.72 114.065938 
L 88.72 114.065938 
L 102.72 114.065938 
" style="fill: none; stroke: #d62728; stroke-opacity: 0.66; stroke-width: 1.5; stroke-linecap: square"/>
    </g>
    <g id="text_19">
     <!-- pBECTS015 -->
     <g transform="translate(113.92 118.965938) scale(0.14 -0.14)">
      <use xlink:href="#DejaVuSans-70"/>
      <use xlink:href="#DejaVuSans-42" x="63.476562"/>
      <use xlink:href="#DejaVuSans-45" x="132.080078"/>
      <use xlink:href="#DejaVuSans-43" x="195.263672"/>
      <use xlink:href="#DejaVuSans-54" x="265.087891"/>
      <use xlink:href="#DejaVuSans-53" x="326.171875"/>
      <use xlink:href="#DejaVuSans-30" x="389.648438"/>
      <use xlink:href="#DejaVuSans-31" x="453.271484"/>
      <use xlink:href="#DejaVuSans-35" x="516.894531"/>
     </g>
    </g>
    <g id="line2d_25">
     <path d="M 74.72 134.615313 
L 88.72 134.615313 
L 102.72 134.615313 
" style="fill: none; stroke: #9467bd; stroke-opacity: 0.66; stroke-width: 1.5; stroke-linecap: square"/>
    </g>
    <g id="text_20">
     <!-- pBECTS033 -->
     <g transform="translate(113.92 139.515313) scale(0.14 -0.14)">
      <use xlink:href="#DejaVuSans-70"/>
      <use xlink:href="#DejaVuSans-42" x="63.476562"/>
      <use xlink:href="#DejaVuSans-45" x="132.080078"/>
      <use xlink:href="#DejaVuSans-43" x="195.263672"/>
      <use xlink:href="#DejaVuSans-54" x="265.087891"/>
      <use xlink:href="#DejaVuSans-53" x="326.171875"/>
      <use xlink:href="#DejaVuSans-30" x="389.648438"/>
      <use xlink:href="#DejaVuSans-33" x="453.271484"/>
      <use xlink:href="#DejaVuSans-33" x="516.894531"/>
     </g>
    </g>
    <g id="line2d_26">
     <path d="M 74.72 155.164688 
L 88.72 155.164688 
L 102.72 155.164688 
" style="fill: none; stroke: #8c564b; stroke-opacity: 0.66; stroke-width: 1.5; stroke-linecap: square"/>
    </g>
    <g id="text_21">
     <!-- pBECTS043 -->
     <g transform="translate(113.92 160.064688) scale(0.14 -0.14)">
      <use xlink:href="#DejaVuSans-70"/>
      <use xlink:href="#DejaVuSans-42" x="63.476562"/>
      <use xlink:href="#DejaVuSans-45" x="132.080078"/>
      <use xlink:href="#DejaVuSans-43" x="195.263672"/>
      <use xlink:href="#DejaVuSans-54" x="265.087891"/>
      <use xlink:href="#DejaVuSans-53" x="326.171875"/>
      <use xlink:href="#DejaVuSans-30" x="389.648438"/>
      <use xlink:href="#DejaVuSans-34" x="453.271484"/>
      <use xlink:href="#DejaVuSans-33" x="516.894531"/>
     </g>
    </g>
   </g>
  </g>
 </g>
 <defs>
  <clipPath id="pf44852f014">
   <rect x="62.12" y="34.08" width="402.76" height="296.44"/>
  </clipPath>
 </defs>
</svg>
