<?xml version="1.0" encoding="utf-8" standalone="no"?>
<!DOCTYPE svg PUBLIC "-//W3C//DTD SVG 1.1//EN"
  "http://www.w3.org/Graphics/SVG/1.1/DTD/svg11.dtd">
<svg xmlns:xlink="http://www.w3.org/1999/xlink" width="480pt" height="384pt" viewBox="0 0 480 384" xmlns="http://www.w3.org/2000/svg" version="1.1">
 <metadata>
  <rdf:RDF xmlns:dc="http://purl.org/dc/elements/1.1/" xmlns:cc="http://creativecommons.org/ns#" xmlns:rdf="http://www.w3.org/1999/02/22-rdf-syntax-ns#">
   <cc:Work>
    <dc:type rdf:resource="http://purl.org/dc/dcmitype/StillImage"/>
    <dc:date>2024-02-27T11:33:01.177929</dc:date>
    <dc:format>image/svg+xml</dc:format>
    <dc:creator>
     <cc:Agent>
      <dc:title>Matplotlib v3.8.0, https://matplotlib.org/</dc:title>
     </cc:Agent>
    </dc:creator>
   </cc:Work>
  </rdf:RDF>
 </metadata>
 <defs>
  <style type="text/css">*{stroke-linejoin: round; stroke-linecap: butt}</style>
 </defs>
 <g id="figure_1">
  <g id="patch_1">
   <path d="M 0 384 
L 480 384 
L 480 0 
L 0 0 
z
" style="fill: #ffffff"/>
  </g>
  <g id="axes_1">
   <g id="patch_2">
    <path d="M 62.12 330.52 
L 464.88 330.52 
L 464.88 34.08 
L 62.12 34.08 
z
" style="fill: #ffffff"/>
   </g>
   <g id="PathCollection_1">
    <defs>
     <path id="mf427b99c4e" d="M 0 4.031129 
C 1.069068 4.031129 2.094493 3.606384 2.850439 2.850439 
C 3.606384 2.094493 4.031129 1.069068 4.031129 0 
C 4.031129 -1.069068 3.606384 -2.094493 2.850439 -2.850439 
C 2.094493 -3.606384 1.069068 -4.031129 0 -4.031129 
C -1.069068 -4.031129 -2.094493 -3.606384 -2.850439 -2.850439 
C -3.606384 -2.094493 -4.031129 -1.069068 -4.031129 0 
C -4.031129 1.069068 -3.606384 2.094493 -2.850439 2.850439 
C -2.094493 3.606384 -1.069068 4.031129 0 4.031129 
z
" style="stroke: #ff0000"/>
    </defs>
    <g clip-path="url(#p809a8adc60)">
     <use xlink:href="#mf427b99c4e" x="190.534323" y="126.37168" style="fill: #ff0000; stroke: #ff0000"/>
    </g>
   </g>
   <g id="matplotlib.axis_1">
    <g id="xtick_1">
     <g id="line2d_1">
      <defs>
       <path id="m035d480085" d="M 0 0 
L 0 3.5 
" style="stroke: #000000; stroke-width: 0.8"/>
      </defs>
      <g>
       <use xlink:href="#m035d480085" x="80.427273" y="330.52" style="stroke: #000000; stroke-width: 0.8"/>
      </g>
     </g>
     <g id="text_1">
      <!-- 0.0 -->
      <g transform="translate(69.295085 348.157812) scale(0.14 -0.14)">
       <defs>
        <path id="DejaVuSans-30" d="M 2034 4250 
Q 1547 4250 1301 3770 
Q 1056 3291 1056 2328 
Q 1056 1369 1301 889 
Q 1547 409 2034 409 
Q 2525 409 2770 889 
Q 3016 1369 3016 2328 
Q 3016 3291 2770 3770 
Q 2525 4250 2034 4250 
z
M 2034 4750 
Q 2819 4750 3233 4129 
Q 3647 3509 3647 2328 
Q 3647 1150 3233 529 
Q 2819 -91 2034 -91 
Q 1250 -91 836 529 
Q 422 1150 422 2328 
Q 422 3509 836 4129 
Q 1250 4750 2034 4750 
z
" transform="scale(0.015625)"/>
        <path id="DejaVuSans-2e" d="M 684 794 
L 1344 794 
L 1344 0 
L 684 0 
L 684 794 
z
" transform="scale(0.015625)"/>
       </defs>
       <use xlink:href="#DejaVuSans-30"/>
       <use xlink:href="#DejaVuSans-2e" x="63.623047"/>
       <use xlink:href="#DejaVuSans-30" x="95.410156"/>
      </g>
     </g>
    </g>
    <g id="xtick_2">
     <g id="line2d_2">
      <g>
       <use xlink:href="#m035d480085" x="153.656364" y="330.52" style="stroke: #000000; stroke-width: 0.8"/>
      </g>
     </g>
     <g id="text_2">
      <!-- 0.2 -->
      <g transform="translate(142.524176 348.157812) scale(0.14 -0.14)">
       <defs>
        <path id="DejaVuSans-32" d="M 1228 531 
L 3431 531 
L 3431 0 
L 469 0 
L 469 531 
Q 828 903 1448 1529 
Q 2069 2156 2228 2338 
Q 2531 2678 2651 2914 
Q 2772 3150 2772 3378 
Q 2772 3750 2511 3984 
Q 2250 4219 1831 4219 
Q 1534 4219 1204 4116 
Q 875 4013 500 3803 
L 500 4441 
Q 881 4594 1212 4672 
Q 1544 4750 1819 4750 
Q 2544 4750 2975 4387 
Q 3406 4025 3406 3419 
Q 3406 3131 3298 2873 
Q 3191 2616 2906 2266 
Q 2828 2175 2409 1742 
Q 1991 1309 1228 531 
z
" transform="scale(0.015625)"/>
       </defs>
       <use xlink:href="#DejaVuSans-30"/>
       <use xlink:href="#DejaVuSans-2e" x="63.623047"/>
       <use xlink:href="#DejaVuSans-32" x="95.410156"/>
      </g>
     </g>
    </g>
    <g id="xtick_3">
     <g id="line2d_3">
      <g>
       <use xlink:href="#m035d480085" x="226.885455" y="330.52" style="stroke: #000000; stroke-width: 0.8"/>
      </g>
     </g>
     <g id="text_3">
      <!-- 0.4 -->
      <g transform="translate(215.753267 348.157812) scale(0.14 -0.14)">
       <defs>
        <path id="DejaVuSans-34" d="M 2419 4116 
L 825 1625 
L 2419 1625 
L 2419 4116 
z
M 2253 4666 
L 3047 4666 
L 3047 1625 
L 3713 1625 
L 3713 1100 
L 3047 1100 
L 3047 0 
L 2419 0 
L 2419 1100 
L 313 1100 
L 313 1709 
L 2253 4666 
z
" transform="scale(0.015625)"/>
       </defs>
       <use xlink:href="#DejaVuSans-30"/>
       <use xlink:href="#DejaVuSans-2e" x="63.623047"/>
       <use xlink:href="#DejaVuSans-34" x="95.410156"/>
      </g>
     </g>
    </g>
    <g id="xtick_4">
     <g id="line2d_4">
      <g>
       <use xlink:href="#m035d480085" x="300.114545" y="330.52" style="stroke: #000000; stroke-width: 0.8"/>
      </g>
     </g>
     <g id="text_4">
      <!-- 0.6 -->
      <g transform="translate(288.982358 348.157812) scale(0.14 -0.14)">
       <defs>
        <path id="DejaVuSans-36" d="M 2113 2584 
Q 1688 2584 1439 2293 
Q 1191 2003 1191 1497 
Q 1191 994 1439 701 
Q 1688 409 2113 409 
Q 2538 409 2786 701 
Q 3034 994 3034 1497 
Q 3034 2003 2786 2293 
Q 2538 2584 2113 2584 
z
M 3366 4563 
L 3366 3988 
Q 3128 4100 2886 4159 
Q 2644 4219 2406 4219 
Q 1781 4219 1451 3797 
Q 1122 3375 1075 2522 
Q 1259 2794 1537 2939 
Q 1816 3084 2150 3084 
Q 2853 3084 3261 2657 
Q 3669 2231 3669 1497 
Q 3669 778 3244 343 
Q 2819 -91 2113 -91 
Q 1303 -91 875 529 
Q 447 1150 447 2328 
Q 447 3434 972 4092 
Q 1497 4750 2381 4750 
Q 2619 4750 2861 4703 
Q 3103 4656 3366 4563 
z
" transform="scale(0.015625)"/>
       </defs>
       <use xlink:href="#DejaVuSans-30"/>
       <use xlink:href="#DejaVuSans-2e" x="63.623047"/>
       <use xlink:href="#DejaVuSans-36" x="95.410156"/>
      </g>
     </g>
    </g>
    <g id="xtick_5">
     <g id="line2d_5">
      <g>
       <use xlink:href="#m035d480085" x="373.343636" y="330.52" style="stroke: #000000; stroke-width: 0.8"/>
      </g>
     </g>
     <g id="text_5">
      <!-- 0.8 -->
      <g transform="translate(362.211449 348.157812) scale(0.14 -0.14)">
       <defs>
        <path id="DejaVuSans-38" d="M 2034 2216 
Q 1584 2216 1326 1975 
Q 1069 1734 1069 1313 
Q 1069 891 1326 650 
Q 1584 409 2034 409 
Q 2484 409 2743 651 
Q 3003 894 3003 1313 
Q 3003 1734 2745 1975 
Q 2488 2216 2034 2216 
z
M 1403 2484 
Q 997 2584 770 2862 
Q 544 3141 544 3541 
Q 544 4100 942 4425 
Q 1341 4750 2034 4750 
Q 2731 4750 3128 4425 
Q 3525 4100 3525 3541 
Q 3525 3141 3298 2862 
Q 3072 2584 2669 2484 
Q 3125 2378 3379 2068 
Q 3634 1759 3634 1313 
Q 3634 634 3220 271 
Q 2806 -91 2034 -91 
Q 1263 -91 848 271 
Q 434 634 434 1313 
Q 434 1759 690 2068 
Q 947 2378 1403 2484 
z
M 1172 3481 
Q 1172 3119 1398 2916 
Q 1625 2713 2034 2713 
Q 2441 2713 2670 2916 
Q 2900 3119 2900 3481 
Q 2900 3844 2670 4047 
Q 2441 4250 2034 4250 
Q 1625 4250 1398 4047 
Q 1172 3844 1172 3481 
z
" transform="scale(0.015625)"/>
       </defs>
       <use xlink:href="#DejaVuSans-30"/>
       <use xlink:href="#DejaVuSans-2e" x="63.623047"/>
       <use xlink:href="#DejaVuSans-38" x="95.410156"/>
      </g>
     </g>
    </g>
    <g id="xtick_6">
     <g id="line2d_6">
      <g>
       <use xlink:href="#m035d480085" x="446.572727" y="330.52" style="stroke: #000000; stroke-width: 0.8"/>
      </g>
     </g>
     <g id="text_6">
      <!-- 1.0 -->
      <g transform="translate(435.44054 348.157812) scale(0.14 -0.14)">
       <defs>
        <path id="DejaVuSans-31" d="M 794 531 
L 1825 531 
L 1825 4091 
L 703 3866 
L 703 4441 
L 1819 4666 
L 2450 4666 
L 2450 531 
L 3481 531 
L 3481 0 
L 794 0 
L 794 531 
z
" transform="scale(0.015625)"/>
       </defs>
       <use xlink:href="#DejaVuSans-31"/>
       <use xlink:href="#DejaVuSans-2e" x="63.623047"/>
       <use xlink:href="#DejaVuSans-30" x="95.410156"/>
      </g>
     </g>
    </g>
    <g id="text_7">
     <!-- False Positive Rate -->
     <g transform="translate(198.447031 365.707187) scale(0.14 -0.14)">
      <defs>
       <path id="DejaVuSans-46" d="M 628 4666 
L 3309 4666 
L 3309 4134 
L 1259 4134 
L 1259 2759 
L 3109 2759 
L 3109 2228 
L 1259 2228 
L 1259 0 
L 628 0 
L 628 4666 
z
" transform="scale(0.015625)"/>
       <path id="DejaVuSans-61" d="M 2194 1759 
Q 1497 1759 1228 1600 
Q 959 1441 959 1056 
Q 959 750 1161 570 
Q 1363 391 1709 391 
Q 2188 391 2477 730 
Q 2766 1069 2766 1631 
L 2766 1759 
L 2194 1759 
z
M 3341 1997 
L 3341 0 
L 2766 0 
L 2766 531 
Q 2569 213 2275 61 
Q 1981 -91 1556 -91 
Q 1019 -91 701 211 
Q 384 513 384 1019 
Q 384 1609 779 1909 
Q 1175 2209 1959 2209 
L 2766 2209 
L 2766 2266 
Q 2766 2663 2505 2880 
Q 2244 3097 1772 3097 
Q 1472 3097 1187 3025 
Q 903 2953 641 2809 
L 641 3341 
Q 956 3463 1253 3523 
Q 1550 3584 1831 3584 
Q 2591 3584 2966 3190 
Q 3341 2797 3341 1997 
z
" transform="scale(0.015625)"/>
       <path id="DejaVuSans-6c" d="M 603 4863 
L 1178 4863 
L 1178 0 
L 603 0 
L 603 4863 
z
" transform="scale(0.015625)"/>
       <path id="DejaVuSans-73" d="M 2834 3397 
L 2834 2853 
Q 2591 2978 2328 3040 
Q 2066 3103 1784 3103 
Q 1356 3103 1142 2972 
Q 928 2841 928 2578 
Q 928 2378 1081 2264 
Q 1234 2150 1697 2047 
L 1894 2003 
Q 2506 1872 2764 1633 
Q 3022 1394 3022 966 
Q 3022 478 2636 193 
Q 2250 -91 1575 -91 
Q 1294 -91 989 -36 
Q 684 19 347 128 
L 347 722 
Q 666 556 975 473 
Q 1284 391 1588 391 
Q 1994 391 2212 530 
Q 2431 669 2431 922 
Q 2431 1156 2273 1281 
Q 2116 1406 1581 1522 
L 1381 1569 
Q 847 1681 609 1914 
Q 372 2147 372 2553 
Q 372 3047 722 3315 
Q 1072 3584 1716 3584 
Q 2034 3584 2315 3537 
Q 2597 3491 2834 3397 
z
" transform="scale(0.015625)"/>
       <path id="DejaVuSans-65" d="M 3597 1894 
L 3597 1613 
L 953 1613 
Q 991 1019 1311 708 
Q 1631 397 2203 397 
Q 2534 397 2845 478 
Q 3156 559 3463 722 
L 3463 178 
Q 3153 47 2828 -22 
Q 2503 -91 2169 -91 
Q 1331 -91 842 396 
Q 353 884 353 1716 
Q 353 2575 817 3079 
Q 1281 3584 2069 3584 
Q 2775 3584 3186 3129 
Q 3597 2675 3597 1894 
z
M 3022 2063 
Q 3016 2534 2758 2815 
Q 2500 3097 2075 3097 
Q 1594 3097 1305 2825 
Q 1016 2553 972 2059 
L 3022 2063 
z
" transform="scale(0.015625)"/>
       <path id="DejaVuSans-20" transform="scale(0.015625)"/>
       <path id="DejaVuSans-50" d="M 1259 4147 
L 1259 2394 
L 2053 2394 
Q 2494 2394 2734 2622 
Q 2975 2850 2975 3272 
Q 2975 3691 2734 3919 
Q 2494 4147 2053 4147 
L 1259 4147 
z
M 628 4666 
L 2053 4666 
Q 2838 4666 3239 4311 
Q 3641 3956 3641 3272 
Q 3641 2581 3239 2228 
Q 2838 1875 2053 1875 
L 1259 1875 
L 1259 0 
L 628 0 
L 628 4666 
z
" transform="scale(0.015625)"/>
       <path id="DejaVuSans-6f" d="M 1959 3097 
Q 1497 3097 1228 2736 
Q 959 2375 959 1747 
Q 959 1119 1226 758 
Q 1494 397 1959 397 
Q 2419 397 2687 759 
Q 2956 1122 2956 1747 
Q 2956 2369 2687 2733 
Q 2419 3097 1959 3097 
z
M 1959 3584 
Q 2709 3584 3137 3096 
Q 3566 2609 3566 1747 
Q 3566 888 3137 398 
Q 2709 -91 1959 -91 
Q 1206 -91 779 398 
Q 353 888 353 1747 
Q 353 2609 779 3096 
Q 1206 3584 1959 3584 
z
" transform="scale(0.015625)"/>
       <path id="DejaVuSans-69" d="M 603 3500 
L 1178 3500 
L 1178 0 
L 603 0 
L 603 3500 
z
M 603 4863 
L 1178 4863 
L 1178 4134 
L 603 4134 
L 603 4863 
z
" transform="scale(0.015625)"/>
       <path id="DejaVuSans-74" d="M 1172 4494 
L 1172 3500 
L 2356 3500 
L 2356 3053 
L 1172 3053 
L 1172 1153 
Q 1172 725 1289 603 
Q 1406 481 1766 481 
L 2356 481 
L 2356 0 
L 1766 0 
Q 1100 0 847 248 
Q 594 497 594 1153 
L 594 3053 
L 172 3053 
L 172 3500 
L 594 3500 
L 594 4494 
L 1172 4494 
z
" transform="scale(0.015625)"/>
       <path id="DejaVuSans-76" d="M 191 3500 
L 800 3500 
L 1894 563 
L 2988 3500 
L 3597 3500 
L 2284 0 
L 1503 0 
L 191 3500 
z
" transform="scale(0.015625)"/>
       <path id="DejaVuSans-52" d="M 2841 2188 
Q 3044 2119 3236 1894 
Q 3428 1669 3622 1275 
L 4263 0 
L 3584 0 
L 2988 1197 
Q 2756 1666 2539 1819 
Q 2322 1972 1947 1972 
L 1259 1972 
L 1259 0 
L 628 0 
L 628 4666 
L 2053 4666 
Q 2853 4666 3247 4331 
Q 3641 3997 3641 3322 
Q 3641 2881 3436 2590 
Q 3231 2300 2841 2188 
z
M 1259 4147 
L 1259 2491 
L 2053 2491 
Q 2509 2491 2742 2702 
Q 2975 2913 2975 3322 
Q 2975 3731 2742 3939 
Q 2509 4147 2053 4147 
L 1259 4147 
z
" transform="scale(0.015625)"/>
      </defs>
      <use xlink:href="#DejaVuSans-46"/>
      <use xlink:href="#DejaVuSans-61" x="48.394531"/>
      <use xlink:href="#DejaVuSans-6c" x="109.673828"/>
      <use xlink:href="#DejaVuSans-73" x="137.457031"/>
      <use xlink:href="#DejaVuSans-65" x="189.556641"/>
      <use xlink:href="#DejaVuSans-20" x="251.080078"/>
      <use xlink:href="#DejaVuSans-50" x="282.867188"/>
      <use xlink:href="#DejaVuSans-6f" x="339.544922"/>
      <use xlink:href="#DejaVuSans-73" x="400.726562"/>
      <use xlink:href="#DejaVuSans-69" x="452.826172"/>
      <use xlink:href="#DejaVuSans-74" x="480.609375"/>
      <use xlink:href="#DejaVuSans-69" x="519.818359"/>
      <use xlink:href="#DejaVuSans-76" x="547.601562"/>
      <use xlink:href="#DejaVuSans-65" x="606.78125"/>
      <use xlink:href="#DejaVuSans-20" x="668.304688"/>
      <use xlink:href="#DejaVuSans-52" x="700.091797"/>
      <use xlink:href="#DejaVuSans-61" x="767.324219"/>
      <use xlink:href="#DejaVuSans-74" x="828.603516"/>
      <use xlink:href="#DejaVuSans-65" x="867.8125"/>
     </g>
    </g>
   </g>
   <g id="matplotlib.axis_2">
    <g id="ytick_1">
     <g id="line2d_7">
      <defs>
       <path id="m1da81949f6" d="M 0 0 
L -3.5 0 
" style="stroke: #000000; stroke-width: 0.8"/>
      </defs>
      <g>
       <use xlink:href="#m1da81949f6" x="62.12" y="317.045455" style="stroke: #000000; stroke-width: 0.8"/>
      </g>
     </g>
     <g id="text_8">
      <!-- 0.0 -->
      <g transform="translate(32.855625 322.364361) scale(0.14 -0.14)">
       <use xlink:href="#DejaVuSans-30"/>
       <use xlink:href="#DejaVuSans-2e" x="63.623047"/>
       <use xlink:href="#DejaVuSans-30" x="95.410156"/>
      </g>
     </g>
    </g>
    <g id="ytick_2">
     <g id="line2d_8">
      <g>
       <use xlink:href="#m1da81949f6" x="62.12" y="263.147273" style="stroke: #000000; stroke-width: 0.8"/>
      </g>
     </g>
     <g id="text_9">
      <!-- 0.2 -->
      <g transform="translate(32.855625 268.466179) scale(0.14 -0.14)">
       <use xlink:href="#DejaVuSans-30"/>
       <use xlink:href="#DejaVuSans-2e" x="63.623047"/>
       <use xlink:href="#DejaVuSans-32" x="95.410156"/>
      </g>
     </g>
    </g>
    <g id="ytick_3">
     <g id="line2d_9">
      <g>
       <use xlink:href="#m1da81949f6" x="62.12" y="209.249091" style="stroke: #000000; stroke-width: 0.8"/>
      </g>
     </g>
     <g id="text_10">
      <!-- 0.4 -->
      <g transform="translate(32.855625 214.567997) scale(0.14 -0.14)">
       <use xlink:href="#DejaVuSans-30"/>
       <use xlink:href="#DejaVuSans-2e" x="63.623047"/>
       <use xlink:href="#DejaVuSans-34" x="95.410156"/>
      </g>
     </g>
    </g>
    <g id="ytick_4">
     <g id="line2d_10">
      <g>
       <use xlink:href="#m1da81949f6" x="62.12" y="155.350909" style="stroke: #000000; stroke-width: 0.8"/>
      </g>
     </g>
     <g id="text_11">
      <!-- 0.6 -->
      <g transform="translate(32.855625 160.669815) scale(0.14 -0.14)">
       <use xlink:href="#DejaVuSans-30"/>
       <use xlink:href="#DejaVuSans-2e" x="63.623047"/>
       <use xlink:href="#DejaVuSans-36" x="95.410156"/>
      </g>
     </g>
    </g>
    <g id="ytick_5">
     <g id="line2d_11">
      <g>
       <use xlink:href="#m1da81949f6" x="62.12" y="101.452727" style="stroke: #000000; stroke-width: 0.8"/>
      </g>
     </g>
     <g id="text_12">
      <!-- 0.8 -->
      <g transform="translate(32.855625 106.771634) scale(0.14 -0.14)">
       <use xlink:href="#DejaVuSans-30"/>
       <use xlink:href="#DejaVuSans-2e" x="63.623047"/>
       <use xlink:href="#DejaVuSans-38" x="95.410156"/>
      </g>
     </g>
    </g>
    <g id="ytick_6">
     <g id="line2d_12">
      <g>
       <use xlink:href="#m1da81949f6" x="62.12" y="47.554545" style="stroke: #000000; stroke-width: 0.8"/>
      </g>
     </g>
     <g id="text_13">
      <!-- 1.0 -->
      <g transform="translate(32.855625 52.873452) scale(0.14 -0.14)">
       <use xlink:href="#DejaVuSans-31"/>
       <use xlink:href="#DejaVuSans-2e" x="63.623047"/>
       <use xlink:href="#DejaVuSans-30" x="95.410156"/>
      </g>
     </g>
    </g>
    <g id="text_14">
     <!-- True Positive Rate -->
     <g transform="translate(25.944063 244.641563) rotate(-90) scale(0.14 -0.14)">
      <defs>
       <path id="DejaVuSans-54" d="M -19 4666 
L 3928 4666 
L 3928 4134 
L 2272 4134 
L 2272 0 
L 1638 0 
L 1638 4134 
L -19 4134 
L -19 4666 
z
" transform="scale(0.015625)"/>
       <path id="DejaVuSans-72" d="M 2631 2963 
Q 2534 3019 2420 3045 
Q 2306 3072 2169 3072 
Q 1681 3072 1420 2755 
Q 1159 2438 1159 1844 
L 1159 0 
L 581 0 
L 581 3500 
L 1159 3500 
L 1159 2956 
Q 1341 3275 1631 3429 
Q 1922 3584 2338 3584 
Q 2397 3584 2469 3576 
Q 2541 3569 2628 3553 
L 2631 2963 
z
" transform="scale(0.015625)"/>
       <path id="DejaVuSans-75" d="M 544 1381 
L 544 3500 
L 1119 3500 
L 1119 1403 
Q 1119 906 1312 657 
Q 1506 409 1894 409 
Q 2359 409 2629 706 
Q 2900 1003 2900 1516 
L 2900 3500 
L 3475 3500 
L 3475 0 
L 2900 0 
L 2900 538 
Q 2691 219 2414 64 
Q 2138 -91 1772 -91 
Q 1169 -91 856 284 
Q 544 659 544 1381 
z
M 1991 3584 
L 1991 3584 
z
" transform="scale(0.015625)"/>
      </defs>
      <use xlink:href="#DejaVuSans-54"/>
      <use xlink:href="#DejaVuSans-72" x="46.333984"/>
      <use xlink:href="#DejaVuSans-75" x="87.447266"/>
      <use xlink:href="#DejaVuSans-65" x="150.826172"/>
      <use xlink:href="#DejaVuSans-20" x="212.349609"/>
      <use xlink:href="#DejaVuSans-50" x="244.136719"/>
      <use xlink:href="#DejaVuSans-6f" x="300.814453"/>
      <use xlink:href="#DejaVuSans-73" x="361.996094"/>
      <use xlink:href="#DejaVuSans-69" x="414.095703"/>
      <use xlink:href="#DejaVuSans-74" x="441.878906"/>
      <use xlink:href="#DejaVuSans-69" x="481.087891"/>
      <use xlink:href="#DejaVuSans-76" x="508.871094"/>
      <use xlink:href="#DejaVuSans-65" x="568.050781"/>
      <use xlink:href="#DejaVuSans-20" x="629.574219"/>
      <use xlink:href="#DejaVuSans-52" x="661.361328"/>
      <use xlink:href="#DejaVuSans-61" x="728.59375"/>
      <use xlink:href="#DejaVuSans-74" x="789.873047"/>
      <use xlink:href="#DejaVuSans-65" x="829.082031"/>
     </g>
    </g>
   </g>
   <g id="line2d_13">
    <path d="M 80.427273 317.045455 
L 80.427273 314.17853 
L 80.427273 308.444681 
L 83.5302 308.444681 
L 83.5302 279.775435 
L 89.736055 279.775435 
L 89.736055 265.440812 
L 92.838983 265.440812 
L 92.838983 259.706963 
L 95.941911 259.706963 
L 95.941911 251.10619 
L 99.044838 251.10619 
L 99.044838 248.239265 
L 108.353621 248.239265 
L 108.353621 245.37234 
L 111.456549 245.37234 
L 111.456549 242.505416 
L 114.559476 242.505416 
L 114.559476 225.303868 
L 123.868259 225.303868 
L 123.868259 222.436944 
L 130.074114 222.436944 
L 130.074114 205.235397 
L 133.177042 205.235397 
L 133.177042 193.767698 
L 136.279969 193.767698 
L 136.279969 190.900774 
L 142.485824 190.900774 
L 142.485824 182.3 
L 145.588752 182.3 
L 145.588752 179.433075 
L 148.69168 179.433075 
L 148.69168 173.699226 
L 151.794607 173.699226 
L 151.794607 167.965377 
L 158.000462 167.965377 
L 158.000462 165.098453 
L 164.206317 165.098453 
L 164.206317 153.630754 
L 170.412173 153.630754 
L 170.412173 142.163056 
L 173.5151 142.163056 
L 173.5151 139.296132 
L 176.618028 139.296132 
L 176.618028 136.429207 
L 198.338521 136.429207 
L 198.338521 130.695358 
L 204.544376 130.695358 
L 204.544376 127.828433 
L 210.750231 127.828433 
L 210.750231 124.961509 
L 213.853159 124.961509 
L 213.853159 122.094584 
L 216.956086 122.094584 
L 216.956086 116.360735 
L 220.059014 116.360735 
L 220.059014 113.49381 
L 223.161941 113.49381 
L 223.161941 104.893037 
L 226.264869 104.893037 
L 226.264869 93.425338 
L 232.470724 93.425338 
L 232.470724 87.691489 
L 244.882435 87.691489 
L 244.882435 79.090716 
L 251.08829 79.090716 
L 251.08829 67.623017 
L 260.397072 67.623017 
L 260.397072 64.756093 
L 263.5 64.756093 
L 263.5 61.889168 
L 266.602928 61.889168 
L 266.602928 59.022244 
L 275.91171 59.022244 
L 275.91171 56.155319 
L 279.014638 56.155319 
L 279.014638 53.288395 
L 282.117565 53.288395 
L 282.117565 50.42147 
L 303.838059 50.42147 
L 303.838059 47.554545 
L 446.572727 47.554545 
" clip-path="url(#p809a8adc60)" style="fill: none; stroke: #1f77b4; stroke-opacity: 0.66; stroke-width: 1.5; stroke-linecap: square"/>
   </g>
   <g id="line2d_14">
    <path d="M 80.427273 317.045455 
L 86.06028 317.045455 
L 86.06028 211.59249 
L 97.326294 211.59249 
L 97.326294 129.573518 
L 108.592308 129.573518 
L 108.592308 117.856522 
L 119.858322 117.856522 
L 119.858322 70.988538 
L 131.124336 70.988538 
L 131.124336 59.271542 
L 170.555385 59.271542 
L 170.555385 47.554545 
L 446.572727 47.554545 
" clip-path="url(#p809a8adc60)" style="fill: none; stroke: #ff7f0e; stroke-opacity: 0.66; stroke-width: 1.5; stroke-linecap: square"/>
   </g>
   <g id="line2d_15">
    <path d="M 80.427273 317.045455 
L 83.478485 317.045455 
L 83.478485 313.023202 
L 89.580909 313.023202 
L 89.580909 309.00095 
L 92.632121 309.00095 
L 92.632121 304.978697 
L 98.734545 304.978697 
L 98.734545 296.934193 
L 101.785758 296.934193 
L 101.785758 276.822931 
L 104.83697 276.822931 
L 104.83697 264.756174 
L 107.888182 264.756174 
L 107.888182 252.689417 
L 110.939394 252.689417 
L 110.939394 228.555902 
L 117.041818 228.555902 
L 117.041818 220.511398 
L 120.09303 220.511398 
L 120.09303 204.422388 
L 129.246667 204.422388 
L 129.246667 200.400136 
L 135.349091 200.400136 
L 135.349091 188.333379 
L 138.400303 188.333379 
L 138.400303 184.311126 
L 144.502727 184.311126 
L 144.502727 180.288874 
L 147.553939 180.288874 
L 147.553939 176.266621 
L 153.656364 176.266621 
L 153.656364 164.199864 
L 156.707576 164.199864 
L 156.707576 156.15536 
L 159.758788 156.15536 
L 159.758788 136.044098 
L 162.81 136.044098 
L 162.81 132.021845 
L 171.963636 132.021845 
L 171.963636 127.999593 
L 181.117273 127.999593 
L 181.117273 123.977341 
L 196.373333 123.977341 
L 196.373333 115.932836 
L 202.475758 115.932836 
L 202.475758 111.910583 
L 211.629394 111.910583 
L 211.629394 103.866079 
L 214.680606 103.866079 
L 214.680606 99.843826 
L 229.936667 99.843826 
L 229.936667 87.777069 
L 236.039091 87.777069 
L 236.039091 83.754817 
L 242.141515 83.754817 
L 242.141515 79.732564 
L 248.243939 79.732564 
L 248.243939 75.710312 
L 251.295152 75.710312 
L 251.295152 71.68806 
L 278.756061 71.68806 
L 278.756061 67.665807 
L 300.114545 67.665807 
L 300.114545 63.643555 
L 303.165758 63.643555 
L 303.165758 59.621303 
L 312.319394 59.621303 
L 312.319394 55.59905 
L 327.575455 55.59905 
L 327.575455 51.576798 
L 355.036364 51.576798 
L 355.036364 47.554545 
L 446.572727 47.554545 
" clip-path="url(#p809a8adc60)" style="fill: none; stroke: #2ca02c; stroke-opacity: 0.66; stroke-width: 1.5; stroke-linecap: square"/>
   </g>
   <g id="line2d_16">
    <path d="M 80.427273 317.045455 
L 80.427273 314.761633 
L 86.79502 314.761633 
L 86.79502 310.193991 
L 89.978893 310.193991 
L 89.978893 296.491063 
L 93.162767 296.491063 
L 93.162767 285.071957 
L 99.530514 285.071957 
L 99.530514 271.369029 
L 102.714387 271.369029 
L 102.714387 257.666102 
L 105.898261 257.666102 
L 105.898261 250.814638 
L 112.266008 250.814638 
L 112.266008 246.246995 
L 115.449881 246.246995 
L 115.449881 243.963174 
L 118.633755 243.963174 
L 118.633755 241.679353 
L 131.369249 241.679353 
L 131.369249 234.827889 
L 137.736996 234.827889 
L 137.736996 232.544068 
L 140.92087 232.544068 
L 140.92087 218.84114 
L 144.104743 218.84114 
L 144.104743 205.138213 
L 150.47249 205.138213 
L 150.47249 202.854391 
L 156.840237 202.854391 
L 156.840237 200.57057 
L 163.207984 200.57057 
L 163.207984 182.3 
L 166.391858 182.3 
L 166.391858 175.448536 
L 172.759605 175.448536 
L 172.759605 164.02943 
L 179.127352 164.02943 
L 179.127352 159.461787 
L 182.311225 159.461787 
L 182.311225 154.894145 
L 188.678972 154.894145 
L 188.678972 152.610324 
L 191.862846 152.610324 
L 191.862846 148.042681 
L 195.046719 148.042681 
L 195.046719 138.907396 
L 201.414466 138.907396 
L 201.414466 136.623575 
L 204.59834 136.623575 
L 204.59834 134.339753 
L 207.782213 134.339753 
L 207.782213 127.48829 
L 210.966087 127.48829 
L 210.966087 125.204468 
L 217.333834 125.204468 
L 217.333834 120.636826 
L 226.885455 120.636826 
L 226.885455 97.798613 
L 233.253202 97.798613 
L 233.253202 90.947149 
L 236.437075 90.947149 
L 236.437075 77.244222 
L 239.620949 77.244222 
L 239.620949 74.960401 
L 242.804822 74.960401 
L 242.804822 68.108937 
L 261.908063 68.108937 
L 261.908063 63.541294 
L 277.827431 63.541294 
L 277.827431 61.257473 
L 284.195178 61.257473 
L 284.195178 52.122188 
L 303.298419 52.122188 
L 303.298419 49.838367 
L 309.666166 49.838367 
L 309.666166 47.554545 
L 446.572727 47.554545 
" clip-path="url(#p809a8adc60)" style="fill: none; stroke: #d62728; stroke-opacity: 0.66; stroke-width: 1.5; stroke-linecap: square"/>
   </g>
   <g id="line2d_17">
    <path d="M 80.427273 317.045455 
L 80.427273 302.724682 
L 82.36455 302.724682 
L 82.36455 289.705797 
L 88.176383 289.705797 
L 88.176383 276.686913 
L 90.11366 276.686913 
L 90.11366 257.158586 
L 92.050938 257.158586 
L 92.050938 254.554809 
L 93.988215 254.554809 
L 93.988215 251.951032 
L 95.925493 251.951032 
L 95.925493 248.045367 
L 101.737326 248.045367 
L 101.737326 242.837813 
L 103.674603 242.837813 
L 103.674603 238.932148 
L 107.549158 238.932148 
L 107.549158 229.818928 
L 109.486436 229.818928 
L 109.486436 206.384936 
L 113.360991 206.384936 
L 113.360991 202.479271 
L 119.172823 202.479271 
L 119.172823 198.573606 
L 121.110101 198.573606 
L 121.110101 197.271717 
L 126.921934 197.271717 
L 126.921934 195.969829 
L 130.796489 195.969829 
L 130.796489 193.366052 
L 132.733766 193.366052 
L 132.733766 188.158498 
L 140.482876 188.158498 
L 140.482876 186.85661 
L 142.420154 186.85661 
L 142.420154 182.950944 
L 144.357431 182.950944 
L 144.357431 179.045279 
L 146.294709 179.045279 
L 146.294709 169.93206 
L 150.169264 169.93206 
L 150.169264 168.630171 
L 155.981097 168.630171 
L 155.981097 164.724506 
L 157.918374 164.724506 
L 157.918374 163.422617 
L 161.792929 163.422617 
L 161.792929 158.215064 
L 163.730207 158.215064 
L 163.730207 154.309398 
L 165.667484 154.309398 
L 165.667484 151.705621 
L 167.604762 151.705621 
L 167.604762 150.403733 
L 169.542039 150.403733 
L 169.542039 149.101845 
L 175.353872 149.101845 
L 175.353872 147.799956 
L 185.04026 147.799956 
L 185.04026 143.894291 
L 186.977537 143.894291 
L 186.977537 141.290514 
L 190.852092 141.290514 
L 190.852092 138.686737 
L 194.726647 138.686737 
L 194.726647 136.08296 
L 196.663925 136.08296 
L 196.663925 134.781072 
L 198.601203 134.781072 
L 198.601203 133.479183 
L 210.224868 133.479183 
L 210.224868 128.271629 
L 217.973978 128.271629 
L 217.973978 126.969741 
L 219.911255 126.969741 
L 219.911255 124.365964 
L 221.848533 124.365964 
L 221.848533 115.252745 
L 223.78581 115.252745 
L 223.78581 111.347079 
L 235.409476 111.347079 
L 235.409476 107.441414 
L 237.346753 107.441414 
L 237.346753 106.139526 
L 239.284031 106.139526 
L 239.284031 104.837637 
L 241.221308 104.837637 
L 241.221308 103.535749 
L 248.970418 103.535749 
L 248.970418 100.931972 
L 252.844974 100.931972 
L 252.844974 99.630083 
L 256.719529 99.630083 
L 256.719529 98.328195 
L 258.656806 98.328195 
L 258.656806 94.42253 
L 260.594084 94.42253 
L 260.594084 93.120641 
L 262.531361 93.120641 
L 262.531361 91.818753 
L 264.468639 91.818753 
L 264.468639 90.516864 
L 268.343194 90.516864 
L 268.343194 87.913087 
L 272.217749 87.913087 
L 272.217749 85.30931 
L 274.155026 85.30931 
L 274.155026 82.705534 
L 281.904137 82.705534 
L 281.904137 81.403645 
L 285.778692 81.403645 
L 285.778692 77.49798 
L 291.590524 77.49798 
L 291.590524 76.196091 
L 293.527802 76.196091 
L 293.527802 74.894203 
L 295.465079 74.894203 
L 295.465079 73.592314 
L 299.339634 73.592314 
L 299.339634 69.686649 
L 301.276912 69.686649 
L 301.276912 68.384761 
L 312.900577 68.384761 
L 312.900577 67.082872 
L 316.775132 67.082872 
L 316.775132 65.780984 
L 318.71241 65.780984 
L 318.71241 64.479095 
L 326.46152 64.479095 
L 326.46152 59.271542 
L 328.398797 59.271542 
L 328.398797 57.969653 
L 334.21063 57.969653 
L 334.21063 56.667765 
L 343.897018 56.667765 
L 343.897018 55.365876 
L 347.771573 55.365876 
L 347.771573 54.063988 
L 349.70885 54.063988 
L 349.70885 52.762099 
L 353.583405 52.762099 
L 353.583405 51.460211 
L 365.207071 51.460211 
L 365.207071 50.158322 
L 378.768013 50.158322 
L 378.768013 48.856434 
L 390.391679 48.856434 
L 390.391679 47.554545 
L 446.572727 47.554545 
L 446.572727 47.554545 
" clip-path="url(#p809a8adc60)" style="fill: none; stroke: #9467bd; stroke-opacity: 0.66; stroke-width: 1.5; stroke-linecap: square"/>
   </g>
   <g id="line2d_18">
    <path d="M 80.427273 317.045455 
L 80.427273 315.441342 
L 80.427273 270.52619 
L 84.588017 270.52619 
L 84.588017 225.611039 
L 92.909504 225.611039 
L 92.909504 204.757576 
L 97.070248 204.757576 
L 97.070248 188.71645 
L 101.230992 188.71645 
L 101.230992 180.695887 
L 109.552479 180.695887 
L 109.552479 171.071212 
L 113.713223 171.071212 
L 113.713223 167.862987 
L 126.195455 167.862987 
L 126.195455 148.613636 
L 130.356198 148.613636 
L 130.356198 147.009524 
L 134.516942 147.009524 
L 134.516942 140.593074 
L 138.677686 140.593074 
L 138.677686 132.572511 
L 142.83843 132.572511 
L 142.83843 130.968398 
L 146.999174 130.968398 
L 146.999174 126.156061 
L 159.481405 126.156061 
L 159.481405 124.551948 
L 163.642149 124.551948 
L 163.642149 108.510823 
L 167.802893 108.510823 
L 167.802893 105.302597 
L 180.285124 105.302597 
L 180.285124 102.094372 
L 188.606612 102.094372 
L 188.606612 94.07381 
L 192.767355 94.07381 
L 192.767355 90.865584 
L 201.088843 90.865584 
L 201.088843 79.636797 
L 205.249587 79.636797 
L 205.249587 76.428571 
L 221.892562 76.428571 
L 221.892562 71.616234 
L 230.21405 71.616234 
L 230.21405 68.408009 
L 238.535537 68.408009 
L 238.535537 60.387446 
L 263.5 60.387446 
L 263.5 53.970996 
L 275.982231 53.970996 
L 275.982231 52.366883 
L 300.946694 52.366883 
L 300.946694 50.762771 
L 346.714876 50.762771 
L 346.714876 49.158658 
L 425.769008 49.158658 
L 425.769008 47.554545 
L 446.572727 47.554545 
" clip-path="url(#p809a8adc60)" style="fill: none; stroke: #8c564b; stroke-opacity: 0.66; stroke-width: 1.5; stroke-linecap: square"/>
   </g>
   <g id="line2d_19">
    <path d="M 80.427273 317.045455 
L 80.427273 312.666725 
L 80.954101 312.666725 
L 80.954101 308.287995 
L 82.534585 308.287995 
L 82.534585 305.103464 
L 83.061413 305.103464 
L 83.061413 302.317 
L 83.588241 302.317 
L 83.588241 294.75374 
L 84.115069 294.75374 
L 84.115069 293.957607 
L 84.641897 293.957607 
L 84.641897 293.161474 
L 85.168725 293.161474 
L 85.168725 292.365342 
L 85.695553 292.365342 
L 85.695553 290.37501 
L 86.222381 290.37501 
L 86.222381 289.976944 
L 88.329693 289.976944 
L 88.329693 286.792413 
L 88.856521 286.792413 
L 88.856521 286.394347 
L 89.383349 286.394347 
L 89.383349 284.802081 
L 89.910177 284.802081 
L 89.910177 284.005949 
L 90.963833 284.005949 
L 90.963833 282.015617 
L 91.490661 282.015617 
L 91.490661 280.423352 
L 92.544317 280.423352 
L 92.544317 279.627219 
L 93.071145 279.627219 
L 93.071145 279.229153 
L 94.124801 279.229153 
L 94.124801 278.43302 
L 94.651629 278.43302 
L 94.651629 277.636887 
L 95.178457 277.636887 
L 95.178457 274.850423 
L 95.705284 274.850423 
L 95.705284 271.267826 
L 96.232112 271.267826 
L 96.232112 270.86976 
L 96.75894 270.86976 
L 96.75894 269.277494 
L 97.285768 269.277494 
L 97.285768 268.083295 
L 97.812596 268.083295 
L 97.812596 266.092964 
L 99.39308 266.092964 
L 99.39308 263.704566 
L 100.446736 263.704566 
L 100.446736 263.306499 
L 100.973564 263.306499 
L 100.973564 260.918101 
L 102.554048 260.918101 
L 102.554048 258.92777 
L 103.080876 258.92777 
L 103.080876 258.529703 
L 104.66136 258.529703 
L 104.66136 257.335504 
L 105.188188 257.335504 
L 105.188188 255.743239 
L 105.715016 255.743239 
L 105.715016 254.947106 
L 106.768672 254.947106 
L 106.768672 253.354841 
L 107.2955 253.354841 
L 107.2955 252.956775 
L 107.822328 252.956775 
L 107.822328 252.558708 
L 108.349156 252.558708 
L 108.349156 250.966443 
L 108.875984 250.966443 
L 108.875984 250.568377 
L 109.402812 250.568377 
L 109.402812 247.383846 
L 109.92964 247.383846 
L 109.92964 246.98578 
L 110.983296 246.98578 
L 110.983296 246.587713 
L 112.036952 246.587713 
L 112.036952 245.791581 
L 112.56378 245.791581 
L 112.56378 244.597381 
L 113.090608 244.597381 
L 113.090608 243.403182 
L 113.617436 243.403182 
L 113.617436 243.005116 
L 114.144264 243.005116 
L 114.144264 241.014784 
L 114.671092 241.014784 
L 114.671092 238.22832 
L 115.19792 238.22832 
L 115.19792 237.034121 
L 115.724748 237.034121 
L 115.724748 235.839922 
L 116.251576 235.839922 
L 116.251576 232.655391 
L 117.83206 232.655391 
L 117.83206 232.257325 
L 118.358888 232.257325 
L 118.358888 224.295998 
L 118.885716 224.295998 
L 118.885716 223.897932 
L 119.939372 223.897932 
L 119.939372 223.101799 
L 120.4662 223.101799 
L 120.4662 222.703733 
L 121.519856 222.703733 
L 121.519856 222.305667 
L 122.046684 222.305667 
L 122.046684 221.509534 
L 122.573512 221.509534 
L 122.573512 221.111468 
L 123.10034 221.111468 
L 123.10034 213.548207 
L 123.627168 213.548207 
L 123.627168 212.752075 
L 124.153996 212.752075 
L 124.153996 212.354008 
L 124.680824 212.354008 
L 124.680824 211.955942 
L 125.207652 211.955942 
L 125.207652 211.557876 
L 125.73448 211.557876 
L 125.73448 210.761743 
L 126.788136 210.761743 
L 126.788136 209.96561 
L 127.314964 209.96561 
L 127.314964 209.169478 
L 127.841792 209.169478 
L 127.841792 207.975279 
L 128.36862 207.975279 
L 128.36862 207.179146 
L 129.422276 207.179146 
L 129.422276 205.984947 
L 129.949104 205.984947 
L 129.949104 205.586881 
L 130.475932 205.586881 
L 130.475932 202.800416 
L 131.00276 202.800416 
L 131.00276 200.810085 
L 131.529588 200.810085 
L 131.529588 200.013952 
L 133.6369 200.013952 
L 133.6369 198.819753 
L 134.163728 198.819753 
L 134.163728 198.02362 
L 134.690556 198.02362 
L 134.690556 197.227488 
L 135.744212 197.227488 
L 135.744212 196.829421 
L 136.27104 196.829421 
L 136.27104 195.237156 
L 136.797868 195.237156 
L 136.797868 194.441023 
L 137.324696 194.441023 
L 137.324696 193.246824 
L 137.851524 193.246824 
L 137.851524 192.848758 
L 138.378352 192.848758 
L 138.378352 191.654559 
L 139.958836 191.654559 
L 139.958836 189.664227 
L 140.485664 189.664227 
L 140.485664 189.266161 
L 141.012492 189.266161 
L 141.012492 188.470028 
L 142.592976 188.470028 
L 142.592976 187.673896 
L 143.119804 187.673896 
L 143.119804 187.275829 
L 143.646632 187.275829 
L 143.646632 186.08163 
L 144.700288 186.08163 
L 144.700288 184.887431 
L 145.227116 184.887431 
L 145.227116 183.693232 
L 145.753944 183.693232 
L 145.753944 183.295166 
L 146.280772 183.295166 
L 146.280772 182.8971 
L 147.334428 182.8971 
L 147.334428 181.7029 
L 149.44174 181.7029 
L 149.44174 181.304834 
L 149.968568 181.304834 
L 149.968568 180.110635 
L 150.495396 180.110635 
L 150.495396 179.712569 
L 151.022224 179.712569 
L 151.022224 178.120303 
L 151.549052 178.120303 
L 151.549052 177.324171 
L 152.602708 177.324171 
L 152.602708 174.935773 
L 153.129536 174.935773 
L 153.129536 174.537706 
L 154.183192 174.537706 
L 154.183192 172.547375 
L 154.71002 172.547375 
L 154.71002 172.149308 
L 155.236848 172.149308 
L 155.236848 171.353176 
L 156.290504 171.353176 
L 156.290504 170.158977 
L 157.34416 170.158977 
L 157.34416 168.964778 
L 158.397816 168.964778 
L 158.397816 168.168645 
L 158.924644 168.168645 
L 158.924644 166.974446 
L 159.451472 166.974446 
L 159.451472 166.178313 
L 161.031956 166.178313 
L 161.031956 165.780247 
L 161.558784 165.780247 
L 161.558784 164.984114 
L 162.61244 164.984114 
L 162.61244 162.19765 
L 163.666095 162.19765 
L 163.666095 161.799584 
L 164.719751 161.799584 
L 164.719751 161.401517 
L 165.773407 161.401517 
L 165.773407 159.013119 
L 166.300235 159.013119 
L 166.300235 155.032456 
L 167.353891 155.032456 
L 167.353891 154.236323 
L 168.934375 154.236323 
L 168.934375 151.847925 
L 169.988031 151.847925 
L 169.988031 147.867262 
L 170.514859 147.867262 
L 170.514859 146.673063 
L 171.041687 146.673063 
L 171.041687 145.080798 
L 171.568515 145.080798 
L 171.568515 143.886599 
L 172.095343 143.886599 
L 172.095343 143.090466 
L 172.622171 143.090466 
L 172.622171 141.498201 
L 173.148999 141.498201 
L 173.148999 141.100134 
L 174.202655 141.100134 
L 174.202655 140.702068 
L 176.836795 140.702068 
L 176.836795 140.304002 
L 177.890451 140.304002 
L 177.890451 139.905935 
L 178.944107 139.905935 
L 178.944107 139.109803 
L 179.470935 139.109803 
L 179.470935 138.711736 
L 180.524591 138.711736 
L 180.524591 137.119471 
L 181.051419 137.119471 
L 181.051419 136.721405 
L 183.158731 136.721405 
L 183.158731 135.129139 
L 184.212387 135.129139 
L 184.212387 134.333007 
L 184.739215 134.333007 
L 184.739215 133.536874 
L 185.266043 133.536874 
L 185.266043 132.342675 
L 186.319699 132.342675 
L 186.319699 131.148476 
L 186.846527 131.148476 
L 186.846527 129.954277 
L 188.953839 129.954277 
L 188.953839 127.167813 
L 189.480667 127.167813 
L 189.480667 126.769746 
L 190.007495 126.769746 
L 190.007495 126.37168 
L 190.534323 126.37168 
L 190.534323 125.177481 
L 191.061151 125.177481 
L 191.061151 124.779415 
L 192.114807 124.779415 
L 192.114807 123.983282 
L 193.695291 123.983282 
L 193.695291 123.585216 
L 194.748947 123.585216 
L 194.748947 121.99295 
L 198.963571 121.99295 
L 198.963571 120.400685 
L 199.490399 120.400685 
L 199.490399 116.420021 
L 200.017227 116.420021 
L 200.017227 115.225822 
L 200.544055 115.225822 
L 200.544055 114.827756 
L 201.070883 114.827756 
L 201.070883 114.42969 
L 202.124539 114.42969 
L 202.124539 113.633557 
L 202.651367 113.633557 
L 202.651367 112.439358 
L 203.705023 112.439358 
L 203.705023 112.041292 
L 205.812335 112.041292 
L 205.812335 111.643225 
L 206.339163 111.643225 
L 206.339163 109.652894 
L 206.865991 109.652894 
L 206.865991 108.060628 
L 208.446475 108.060628 
L 208.446475 106.468363 
L 208.973303 106.468363 
L 208.973303 105.274164 
L 209.500131 105.274164 
L 209.500131 104.478031 
L 210.553787 104.478031 
L 210.553787 102.4877 
L 211.080615 102.4877 
L 211.080615 102.089633 
L 213.714755 102.089633 
L 213.714755 101.691567 
L 214.241583 101.691567 
L 214.241583 101.293501 
L 214.768411 101.293501 
L 214.768411 100.099302 
L 215.295239 100.099302 
L 215.295239 99.701235 
L 215.822067 99.701235 
L 215.822067 99.303169 
L 216.348895 99.303169 
L 216.348895 98.905103 
L 217.929379 98.905103 
L 217.929379 98.507036 
L 219.509863 98.507036 
L 219.509863 94.924439 
L 220.563519 94.924439 
L 220.563519 94.128307 
L 221.090347 94.128307 
L 221.090347 93.73024 
L 222.670831 93.73024 
L 222.670831 93.332174 
L 224.778143 93.332174 
L 224.778143 92.536041 
L 225.304971 92.536041 
L 225.304971 92.137975 
L 226.358627 92.137975 
L 226.358627 90.943776 
L 228.992767 90.943776 
L 228.992767 90.147643 
L 229.519595 90.147643 
L 229.519595 89.749577 
L 230.57325 89.749577 
L 230.57325 89.351511 
L 233.20739 89.351511 
L 233.20739 88.953444 
L 234.787874 88.953444 
L 234.787874 87.759245 
L 236.895186 87.759245 
L 236.895186 87.361179 
L 237.422014 87.361179 
L 237.422014 86.565046 
L 237.948842 86.565046 
L 237.948842 86.16698 
L 238.47567 86.16698 
L 238.47567 85.768914 
L 239.529326 85.768914 
L 239.529326 84.972781 
L 240.056154 84.972781 
L 240.056154 84.574715 
L 241.10981 84.574715 
L 241.10981 82.186317 
L 243.74395 82.186317 
L 243.74395 80.992118 
L 247.431746 80.992118 
L 247.431746 80.594051 
L 249.01223 80.594051 
L 249.01223 80.195985 
L 249.539058 80.195985 
L 249.539058 79.797919 
L 250.065886 79.797919 
L 250.065886 79.399852 
L 251.64637 79.399852 
L 251.64637 79.001786 
L 252.700026 79.001786 
L 252.700026 78.60372 
L 255.334166 78.60372 
L 255.334166 78.205653 
L 257.441478 78.205653 
L 257.441478 77.807587 
L 259.54879 77.807587 
L 259.54879 77.011454 
L 260.075618 77.011454 
L 260.075618 75.817255 
L 260.602446 75.817255 
L 260.602446 75.419189 
L 261.129274 75.419189 
L 261.129274 75.021123 
L 263.763414 75.021123 
L 263.763414 74.22499 
L 265.343898 74.22499 
L 265.343898 73.826924 
L 267.45121 73.826924 
L 267.45121 73.030791 
L 267.978038 73.030791 
L 267.978038 72.632725 
L 269.031694 72.632725 
L 269.031694 72.234658 
L 270.612178 72.234658 
L 270.612178 71.836592 
L 271.665834 71.836592 
L 271.665834 71.040459 
L 273.246318 71.040459 
L 273.246318 70.244327 
L 275.35363 70.244327 
L 275.35363 69.84626 
L 276.934114 69.84626 
L 276.934114 68.652061 
L 282.202394 68.652061 
L 282.202394 68.253995 
L 282.729222 68.253995 
L 282.729222 67.855929 
L 286.417018 67.855929 
L 286.417018 67.457862 
L 289.051158 67.457862 
L 289.051158 66.66173 
L 289.577986 66.66173 
L 289.577986 66.263663 
L 291.685298 66.263663 
L 291.685298 65.865597 
L 292.212126 65.865597 
L 292.212126 64.671398 
L 299.060889 64.671398 
L 299.060889 64.273332 
L 302.221857 64.273332 
L 302.221857 63.875265 
L 304.855997 63.875265 
L 304.855997 63.477199 
L 305.909653 63.477199 
L 305.909653 63.079133 
L 308.016965 63.079133 
L 308.016965 62.681066 
L 310.124277 62.681066 
L 310.124277 61.884934 
L 313.812073 61.884934 
L 313.812073 61.486867 
L 318.026697 61.486867 
L 318.026697 61.088801 
L 319.607181 61.088801 
L 319.607181 60.690735 
L 321.714493 60.690735 
L 321.714493 59.894602 
L 325.929117 59.894602 
L 325.929117 59.098469 
L 329.090085 59.098469 
L 329.090085 58.700403 
L 331.724225 58.700403 
L 331.724225 58.302337 
L 332.251053 58.302337 
L 332.251053 57.90427 
L 332.777881 57.90427 
L 332.777881 57.108138 
L 333.304709 57.108138 
L 333.304709 56.710071 
L 336.465677 56.710071 
L 336.465677 56.312005 
L 340.153473 56.312005 
L 340.153473 55.913938 
L 342.260785 55.913938 
L 342.260785 55.515872 
L 345.948581 55.515872 
L 345.948581 55.117806 
L 350.163205 55.117806 
L 350.163205 54.719739 
L 350.690033 54.719739 
L 350.690033 54.321673 
L 354.904657 54.321673 
L 354.904657 53.923607 
L 360.699765 53.923607 
L 360.699765 53.127474 
L 361.226593 53.127474 
L 361.226593 52.729408 
L 370.182668 52.729408 
L 370.182668 51.535209 
L 374.92412 51.535209 
L 374.92412 51.137142 
L 376.504604 51.137142 
L 376.504604 50.739076 
L 379.138744 50.739076 
L 379.138744 50.34101 
L 380.1924 50.34101 
L 380.1924 49.942943 
L 388.621648 49.942943 
L 388.621648 49.544877 
L 398.104552 49.544877 
L 398.104552 49.146811 
L 400.738692 49.146811 
L 400.738692 48.748744 
L 402.846004 48.748744 
L 402.846004 48.350678 
L 408.114284 48.350678 
L 408.114284 47.952612 
L 418.124016 47.952612 
L 418.124016 47.554545 
L 446.572727 47.554545 
L 446.572727 47.554545 
" clip-path="url(#p809a8adc60)" style="fill: none; stroke: #000000; stroke-width: 1.5; stroke-linecap: square"/>
   </g>
   <g id="line2d_20">
    <path d="M -1 376.977674 
L 2.760055 374.210193 
L 13.855372 366.043802 
L 24.950689 357.87741 
L 36.046006 349.711019 
L 47.141322 341.544628 
L 58.236639 333.378237 
L 69.331956 325.211846 
L 80.427273 317.045455 
L 91.52259 308.879063 
L 102.617906 300.712672 
L 113.713223 292.546281 
L 124.80854 284.37989 
L 135.903857 276.213499 
L 146.999174 268.047107 
L 158.09449 259.880716 
L 169.189807 251.714325 
L 180.285124 243.547934 
L 191.380441 235.381543 
L 202.475758 227.215152 
L 213.571074 219.04876 
L 224.666391 210.882369 
L 235.761708 202.715978 
L 246.857025 194.549587 
L 257.952342 186.383196 
L 269.047658 178.216804 
L 280.142975 170.050413 
L 291.238292 161.884022 
L 302.333609 153.717631 
L 313.428926 145.55124 
L 324.524242 137.384848 
L 335.619559 129.218457 
L 346.714876 121.052066 
L 357.810193 112.885675 
L 368.90551 104.719284 
L 380.000826 96.552893 
L 391.096143 88.386501 
L 402.19146 80.22011 
L 413.286777 72.053719 
L 424.382094 63.887328 
L 435.47741 55.720937 
L 446.572727 47.554545 
L 457.668044 39.388154 
L 468.763361 31.221763 
L 479.858678 23.055372 
L 481 22.215334 
" clip-path="url(#p809a8adc60)" style="fill: none; stroke-dasharray: 5.55,2.4; stroke-dashoffset: 0; stroke: #000000; stroke-width: 1.5"/>
   </g>
   <g id="patch_3">
    <path d="M 62.12 330.52 
L 62.12 34.08 
" style="fill: none; stroke: #000000; stroke-width: 0.8; stroke-linejoin: miter; stroke-linecap: square"/>
   </g>
   <g id="patch_4">
    <path d="M 62.12 330.52 
L 464.88 330.52 
" style="fill: none; stroke: #000000; stroke-width: 0.8; stroke-linejoin: miter; stroke-linecap: square"/>
   </g>
   <g id="text_15">
    <!-- LOO Tuning, auc: 0.7727 -->
    <g transform="translate(160.412312 28.08) scale(0.168 -0.168)">
     <defs>
      <path id="DejaVuSans-4c" d="M 628 4666 
L 1259 4666 
L 1259 531 
L 3531 531 
L 3531 0 
L 628 0 
L 628 4666 
z
" transform="scale(0.015625)"/>
      <path id="DejaVuSans-4f" d="M 2522 4238 
Q 1834 4238 1429 3725 
Q 1025 3213 1025 2328 
Q 1025 1447 1429 934 
Q 1834 422 2522 422 
Q 3209 422 3611 934 
Q 4013 1447 4013 2328 
Q 4013 3213 3611 3725 
Q 3209 4238 2522 4238 
z
M 2522 4750 
Q 3503 4750 4090 4092 
Q 4678 3434 4678 2328 
Q 4678 1225 4090 567 
Q 3503 -91 2522 -91 
Q 1538 -91 948 565 
Q 359 1222 359 2328 
Q 359 3434 948 4092 
Q 1538 4750 2522 4750 
z
" transform="scale(0.015625)"/>
      <path id="DejaVuSans-6e" d="M 3513 2113 
L 3513 0 
L 2938 0 
L 2938 2094 
Q 2938 2591 2744 2837 
Q 2550 3084 2163 3084 
Q 1697 3084 1428 2787 
Q 1159 2491 1159 1978 
L 1159 0 
L 581 0 
L 581 3500 
L 1159 3500 
L 1159 2956 
Q 1366 3272 1645 3428 
Q 1925 3584 2291 3584 
Q 2894 3584 3203 3211 
Q 3513 2838 3513 2113 
z
" transform="scale(0.015625)"/>
      <path id="DejaVuSans-67" d="M 2906 1791 
Q 2906 2416 2648 2759 
Q 2391 3103 1925 3103 
Q 1463 3103 1205 2759 
Q 947 2416 947 1791 
Q 947 1169 1205 825 
Q 1463 481 1925 481 
Q 2391 481 2648 825 
Q 2906 1169 2906 1791 
z
M 3481 434 
Q 3481 -459 3084 -895 
Q 2688 -1331 1869 -1331 
Q 1566 -1331 1297 -1286 
Q 1028 -1241 775 -1147 
L 775 -588 
Q 1028 -725 1275 -790 
Q 1522 -856 1778 -856 
Q 2344 -856 2625 -561 
Q 2906 -266 2906 331 
L 2906 616 
Q 2728 306 2450 153 
Q 2172 0 1784 0 
Q 1141 0 747 490 
Q 353 981 353 1791 
Q 353 2603 747 3093 
Q 1141 3584 1784 3584 
Q 2172 3584 2450 3431 
Q 2728 3278 2906 2969 
L 2906 3500 
L 3481 3500 
L 3481 434 
z
" transform="scale(0.015625)"/>
      <path id="DejaVuSans-2c" d="M 750 794 
L 1409 794 
L 1409 256 
L 897 -744 
L 494 -744 
L 750 256 
L 750 794 
z
" transform="scale(0.015625)"/>
      <path id="DejaVuSans-63" d="M 3122 3366 
L 3122 2828 
Q 2878 2963 2633 3030 
Q 2388 3097 2138 3097 
Q 1578 3097 1268 2742 
Q 959 2388 959 1747 
Q 959 1106 1268 751 
Q 1578 397 2138 397 
Q 2388 397 2633 464 
Q 2878 531 3122 666 
L 3122 134 
Q 2881 22 2623 -34 
Q 2366 -91 2075 -91 
Q 1284 -91 818 406 
Q 353 903 353 1747 
Q 353 2603 823 3093 
Q 1294 3584 2113 3584 
Q 2378 3584 2631 3529 
Q 2884 3475 3122 3366 
z
" transform="scale(0.015625)"/>
      <path id="DejaVuSans-3a" d="M 750 794 
L 1409 794 
L 1409 0 
L 750 0 
L 750 794 
z
M 750 3309 
L 1409 3309 
L 1409 2516 
L 750 2516 
L 750 3309 
z
" transform="scale(0.015625)"/>
      <path id="DejaVuSans-37" d="M 525 4666 
L 3525 4666 
L 3525 4397 
L 1831 0 
L 1172 0 
L 2766 4134 
L 525 4134 
L 525 4666 
z
" transform="scale(0.015625)"/>
     </defs>
     <use xlink:href="#DejaVuSans-4c"/>
     <use xlink:href="#DejaVuSans-4f" x="52.087891"/>
     <use xlink:href="#DejaVuSans-4f" x="130.798828"/>
     <use xlink:href="#DejaVuSans-20" x="209.509766"/>
     <use xlink:href="#DejaVuSans-54" x="241.296875"/>
     <use xlink:href="#DejaVuSans-75" x="287.255859"/>
     <use xlink:href="#DejaVuSans-6e" x="350.634766"/>
     <use xlink:href="#DejaVuSans-69" x="414.013672"/>
     <use xlink:href="#DejaVuSans-6e" x="441.796875"/>
     <use xlink:href="#DejaVuSans-67" x="505.175781"/>
     <use xlink:href="#DejaVuSans-2c" x="568.652344"/>
     <use xlink:href="#DejaVuSans-20" x="600.439453"/>
     <use xlink:href="#DejaVuSans-61" x="632.226562"/>
     <use xlink:href="#DejaVuSans-75" x="693.505859"/>
     <use xlink:href="#DejaVuSans-63" x="756.884766"/>
     <use xlink:href="#DejaVuSans-3a" x="811.865234"/>
     <use xlink:href="#DejaVuSans-20" x="845.556641"/>
     <use xlink:href="#DejaVuSans-30" x="877.34375"/>
     <use xlink:href="#DejaVuSans-2e" x="940.966797"/>
     <use xlink:href="#DejaVuSans-37" x="972.753906"/>
     <use xlink:href="#DejaVuSans-37" x="1036.376953"/>
     <use xlink:href="#DejaVuSans-32" x="1100"/>
     <use xlink:href="#DejaVuSans-37" x="1163.623047"/>
    </g>
   </g>
  </g>
 </g>
 <defs>
  <clipPath id="p809a8adc60">
   <rect x="62.12" y="34.08" width="402.76" height="296.44"/>
  </clipPath>
 </defs>
</svg>
