<?xml version="1.0" encoding="utf-8" standalone="no"?>
<!DOCTYPE svg PUBLIC "-//W3C//DTD SVG 1.1//EN"
  "http://www.w3.org/Graphics/SVG/1.1/DTD/svg11.dtd">
<svg xmlns:xlink="http://www.w3.org/1999/xlink" width="480pt" height="384pt" viewBox="0 0 480 384" xmlns="http://www.w3.org/2000/svg" version="1.1">
 <metadata>
  <rdf:RDF xmlns:dc="http://purl.org/dc/elements/1.1/" xmlns:cc="http://creativecommons.org/ns#" xmlns:rdf="http://www.w3.org/1999/02/22-rdf-syntax-ns#">
   <cc:Work>
    <dc:type rdf:resource="http://purl.org/dc/dcmitype/StillImage"/>
    <dc:date>2024-02-27T11:20:08.243731</dc:date>
    <dc:format>image/svg+xml</dc:format>
    <dc:creator>
     <cc:Agent>
      <dc:title>Matplotlib v3.8.0, https://matplotlib.org/</dc:title>
     </cc:Agent>
    </dc:creator>
   </cc:Work>
  </rdf:RDF>
 </metadata>
 <defs>
  <style type="text/css">*{stroke-linejoin: round; stroke-linecap: butt}</style>
 </defs>
 <g id="figure_1">
  <g id="patch_1">
   <path d="M 0 384 
L 480 384 
L 480 0 
L 0 0 
z
" style="fill: #ffffff"/>
  </g>
  <g id="axes_1">
   <g id="patch_2">
    <path d="M 58.7 331.96 
L 464.88 331.96 
L 464.88 34.08 
L 58.7 34.08 
z
" style="fill: #ffffff"/>
   </g>
   <g id="PathCollection_1">
    <defs>
     <path id="mb330af1f2e" d="M 0 4.031129 
C 1.069068 4.031129 2.094493 3.606384 2.850439 2.850439 
C 3.606384 2.094493 4.031129 1.069068 4.031129 0 
C 4.031129 -1.069068 3.606384 -2.094493 2.850439 -2.850439 
C 2.094493 -3.606384 1.069068 -4.031129 0 -4.031129 
C -1.069068 -4.031129 -2.094493 -3.606384 -2.850439 -2.850439 
C -3.606384 -2.094493 -4.031129 -1.069068 -4.031129 0 
C -4.031129 1.069068 -3.606384 2.094493 -2.850439 2.850439 
C -2.094493 3.606384 -1.069068 4.031129 0 4.031129 
z
" style="stroke: #ff0000"/>
    </defs>
    <g clip-path="url(#p759f2c275b)">
     <use xlink:href="#mb330af1f2e" x="216.895023" y="147.62" style="fill: #ff0000; stroke: #ff0000"/>
    </g>
   </g>
   <g id="matplotlib.axis_1">
    <g id="xtick_1">
     <g id="line2d_1">
      <defs>
       <path id="m61b7c2e056" d="M 0 0 
L 0 3.5 
" style="stroke: #000000; stroke-width: 0.8"/>
      </defs>
      <g>
       <use xlink:href="#m61b7c2e056" x="77.162727" y="331.96" style="stroke: #000000; stroke-width: 0.8"/>
      </g>
     </g>
     <g id="text_1">
      <!-- 0.0 -->
      <g transform="translate(67.432727 348.980937) scale(0.14 -0.14)">
       <defs>
        <path id="ArialMT-30" d="M 266 2259 
Q 266 3072 433 3567 
Q 600 4063 929 4331 
Q 1259 4600 1759 4600 
Q 2128 4600 2406 4451 
Q 2684 4303 2865 4023 
Q 3047 3744 3150 3342 
Q 3253 2941 3253 2259 
Q 3253 1453 3087 958 
Q 2922 463 2592 192 
Q 2263 -78 1759 -78 
Q 1097 -78 719 397 
Q 266 969 266 2259 
z
M 844 2259 
Q 844 1131 1108 757 
Q 1372 384 1759 384 
Q 2147 384 2411 759 
Q 2675 1134 2675 2259 
Q 2675 3391 2411 3762 
Q 2147 4134 1753 4134 
Q 1366 4134 1134 3806 
Q 844 3388 844 2259 
z
" transform="scale(0.015625)"/>
        <path id="ArialMT-2e" d="M 581 0 
L 581 641 
L 1222 641 
L 1222 0 
L 581 0 
z
" transform="scale(0.015625)"/>
       </defs>
       <use xlink:href="#ArialMT-30"/>
       <use xlink:href="#ArialMT-2e" x="55.615234"/>
       <use xlink:href="#ArialMT-30" x="83.398438"/>
      </g>
     </g>
    </g>
    <g id="xtick_2">
     <g id="line2d_2">
      <g>
       <use xlink:href="#m61b7c2e056" x="151.013636" y="331.96" style="stroke: #000000; stroke-width: 0.8"/>
      </g>
     </g>
     <g id="text_2">
      <!-- 0.2 -->
      <g transform="translate(141.283636 348.980937) scale(0.14 -0.14)">
       <defs>
        <path id="ArialMT-32" d="M 3222 541 
L 3222 0 
L 194 0 
Q 188 203 259 391 
Q 375 700 629 1000 
Q 884 1300 1366 1694 
Q 2113 2306 2375 2664 
Q 2638 3022 2638 3341 
Q 2638 3675 2398 3904 
Q 2159 4134 1775 4134 
Q 1369 4134 1125 3890 
Q 881 3647 878 3216 
L 300 3275 
Q 359 3922 746 4261 
Q 1134 4600 1788 4600 
Q 2447 4600 2831 4234 
Q 3216 3869 3216 3328 
Q 3216 3053 3103 2787 
Q 2991 2522 2730 2228 
Q 2469 1934 1863 1422 
Q 1356 997 1212 845 
Q 1069 694 975 541 
L 3222 541 
z
" transform="scale(0.015625)"/>
       </defs>
       <use xlink:href="#ArialMT-30"/>
       <use xlink:href="#ArialMT-2e" x="55.615234"/>
       <use xlink:href="#ArialMT-32" x="83.398438"/>
      </g>
     </g>
    </g>
    <g id="xtick_3">
     <g id="line2d_3">
      <g>
       <use xlink:href="#m61b7c2e056" x="224.864545" y="331.96" style="stroke: #000000; stroke-width: 0.8"/>
      </g>
     </g>
     <g id="text_3">
      <!-- 0.4 -->
      <g transform="translate(215.134545 348.980937) scale(0.14 -0.14)">
       <defs>
        <path id="ArialMT-34" d="M 2069 0 
L 2069 1097 
L 81 1097 
L 81 1613 
L 2172 4581 
L 2631 4581 
L 2631 1613 
L 3250 1613 
L 3250 1097 
L 2631 1097 
L 2631 0 
L 2069 0 
z
M 2069 1613 
L 2069 3678 
L 634 1613 
L 2069 1613 
z
" transform="scale(0.015625)"/>
       </defs>
       <use xlink:href="#ArialMT-30"/>
       <use xlink:href="#ArialMT-2e" x="55.615234"/>
       <use xlink:href="#ArialMT-34" x="83.398438"/>
      </g>
     </g>
    </g>
    <g id="xtick_4">
     <g id="line2d_4">
      <g>
       <use xlink:href="#m61b7c2e056" x="298.715455" y="331.96" style="stroke: #000000; stroke-width: 0.8"/>
      </g>
     </g>
     <g id="text_4">
      <!-- 0.6 -->
      <g transform="translate(288.985455 348.980937) scale(0.14 -0.14)">
       <defs>
        <path id="ArialMT-36" d="M 3184 3459 
L 2625 3416 
Q 2550 3747 2413 3897 
Q 2184 4138 1850 4138 
Q 1581 4138 1378 3988 
Q 1113 3794 959 3422 
Q 806 3050 800 2363 
Q 1003 2672 1297 2822 
Q 1591 2972 1913 2972 
Q 2475 2972 2870 2558 
Q 3266 2144 3266 1488 
Q 3266 1056 3080 686 
Q 2894 316 2569 119 
Q 2244 -78 1831 -78 
Q 1128 -78 684 439 
Q 241 956 241 2144 
Q 241 3472 731 4075 
Q 1159 4600 1884 4600 
Q 2425 4600 2770 4297 
Q 3116 3994 3184 3459 
z
M 888 1484 
Q 888 1194 1011 928 
Q 1134 663 1356 523 
Q 1578 384 1822 384 
Q 2178 384 2434 671 
Q 2691 959 2691 1453 
Q 2691 1928 2437 2201 
Q 2184 2475 1800 2475 
Q 1419 2475 1153 2201 
Q 888 1928 888 1484 
z
" transform="scale(0.015625)"/>
       </defs>
       <use xlink:href="#ArialMT-30"/>
       <use xlink:href="#ArialMT-2e" x="55.615234"/>
       <use xlink:href="#ArialMT-36" x="83.398438"/>
      </g>
     </g>
    </g>
    <g id="xtick_5">
     <g id="line2d_5">
      <g>
       <use xlink:href="#m61b7c2e056" x="372.566364" y="331.96" style="stroke: #000000; stroke-width: 0.8"/>
      </g>
     </g>
     <g id="text_5">
      <!-- 0.8 -->
      <g transform="translate(362.836364 348.980937) scale(0.14 -0.14)">
       <defs>
        <path id="ArialMT-38" d="M 1131 2484 
Q 781 2613 612 2850 
Q 444 3088 444 3419 
Q 444 3919 803 4259 
Q 1163 4600 1759 4600 
Q 2359 4600 2725 4251 
Q 3091 3903 3091 3403 
Q 3091 3084 2923 2848 
Q 2756 2613 2416 2484 
Q 2838 2347 3058 2040 
Q 3278 1734 3278 1309 
Q 3278 722 2862 322 
Q 2447 -78 1769 -78 
Q 1091 -78 675 323 
Q 259 725 259 1325 
Q 259 1772 486 2073 
Q 713 2375 1131 2484 
z
M 1019 3438 
Q 1019 3113 1228 2906 
Q 1438 2700 1772 2700 
Q 2097 2700 2305 2904 
Q 2513 3109 2513 3406 
Q 2513 3716 2298 3927 
Q 2084 4138 1766 4138 
Q 1444 4138 1231 3931 
Q 1019 3725 1019 3438 
z
M 838 1322 
Q 838 1081 952 856 
Q 1066 631 1291 507 
Q 1516 384 1775 384 
Q 2178 384 2440 643 
Q 2703 903 2703 1303 
Q 2703 1709 2433 1975 
Q 2163 2241 1756 2241 
Q 1359 2241 1098 1978 
Q 838 1716 838 1322 
z
" transform="scale(0.015625)"/>
       </defs>
       <use xlink:href="#ArialMT-30"/>
       <use xlink:href="#ArialMT-2e" x="55.615234"/>
       <use xlink:href="#ArialMT-38" x="83.398438"/>
      </g>
     </g>
    </g>
    <g id="xtick_6">
     <g id="line2d_6">
      <g>
       <use xlink:href="#m61b7c2e056" x="446.417273" y="331.96" style="stroke: #000000; stroke-width: 0.8"/>
      </g>
     </g>
     <g id="text_6">
      <!-- 1.0 -->
      <g transform="translate(436.687273 348.980937) scale(0.14 -0.14)">
       <defs>
        <path id="ArialMT-31" d="M 2384 0 
L 1822 0 
L 1822 3584 
Q 1619 3391 1289 3197 
Q 959 3003 697 2906 
L 697 3450 
Q 1169 3672 1522 3987 
Q 1875 4303 2022 4600 
L 2384 4600 
L 2384 0 
z
" transform="scale(0.015625)"/>
       </defs>
       <use xlink:href="#ArialMT-31"/>
       <use xlink:href="#ArialMT-2e" x="55.615234"/>
       <use xlink:href="#ArialMT-30" x="83.398438"/>
      </g>
     </g>
    </g>
    <g id="text_7">
     <!-- False Positive Rate -->
     <g transform="translate(201.489375 365.784375) scale(0.14 -0.14)">
      <defs>
       <path id="ArialMT-46" d="M 525 0 
L 525 4581 
L 3616 4581 
L 3616 4041 
L 1131 4041 
L 1131 2622 
L 3281 2622 
L 3281 2081 
L 1131 2081 
L 1131 0 
L 525 0 
z
" transform="scale(0.015625)"/>
       <path id="ArialMT-61" d="M 2588 409 
Q 2275 144 1986 34 
Q 1697 -75 1366 -75 
Q 819 -75 525 192 
Q 231 459 231 875 
Q 231 1119 342 1320 
Q 453 1522 633 1644 
Q 813 1766 1038 1828 
Q 1203 1872 1538 1913 
Q 2219 1994 2541 2106 
Q 2544 2222 2544 2253 
Q 2544 2597 2384 2738 
Q 2169 2928 1744 2928 
Q 1347 2928 1158 2789 
Q 969 2650 878 2297 
L 328 2372 
Q 403 2725 575 2942 
Q 747 3159 1072 3276 
Q 1397 3394 1825 3394 
Q 2250 3394 2515 3294 
Q 2781 3194 2906 3042 
Q 3031 2891 3081 2659 
Q 3109 2516 3109 2141 
L 3109 1391 
Q 3109 606 3145 398 
Q 3181 191 3288 0 
L 2700 0 
Q 2613 175 2588 409 
z
M 2541 1666 
Q 2234 1541 1622 1453 
Q 1275 1403 1131 1340 
Q 988 1278 909 1158 
Q 831 1038 831 891 
Q 831 666 1001 516 
Q 1172 366 1500 366 
Q 1825 366 2078 508 
Q 2331 650 2450 897 
Q 2541 1088 2541 1459 
L 2541 1666 
z
" transform="scale(0.015625)"/>
       <path id="ArialMT-6c" d="M 409 0 
L 409 4581 
L 972 4581 
L 972 0 
L 409 0 
z
" transform="scale(0.015625)"/>
       <path id="ArialMT-73" d="M 197 991 
L 753 1078 
Q 800 744 1014 566 
Q 1228 388 1613 388 
Q 2000 388 2187 545 
Q 2375 703 2375 916 
Q 2375 1106 2209 1216 
Q 2094 1291 1634 1406 
Q 1016 1563 777 1677 
Q 538 1791 414 1992 
Q 291 2194 291 2438 
Q 291 2659 392 2848 
Q 494 3038 669 3163 
Q 800 3259 1026 3326 
Q 1253 3394 1513 3394 
Q 1903 3394 2198 3281 
Q 2494 3169 2634 2976 
Q 2775 2784 2828 2463 
L 2278 2388 
Q 2241 2644 2061 2787 
Q 1881 2931 1553 2931 
Q 1166 2931 1000 2803 
Q 834 2675 834 2503 
Q 834 2394 903 2306 
Q 972 2216 1119 2156 
Q 1203 2125 1616 2013 
Q 2213 1853 2448 1751 
Q 2684 1650 2818 1456 
Q 2953 1263 2953 975 
Q 2953 694 2789 445 
Q 2625 197 2315 61 
Q 2006 -75 1616 -75 
Q 969 -75 630 194 
Q 291 463 197 991 
z
" transform="scale(0.015625)"/>
       <path id="ArialMT-65" d="M 2694 1069 
L 3275 997 
Q 3138 488 2766 206 
Q 2394 -75 1816 -75 
Q 1088 -75 661 373 
Q 234 822 234 1631 
Q 234 2469 665 2931 
Q 1097 3394 1784 3394 
Q 2450 3394 2872 2941 
Q 3294 2488 3294 1666 
Q 3294 1616 3291 1516 
L 816 1516 
Q 847 969 1125 678 
Q 1403 388 1819 388 
Q 2128 388 2347 550 
Q 2566 713 2694 1069 
z
M 847 1978 
L 2700 1978 
Q 2663 2397 2488 2606 
Q 2219 2931 1791 2931 
Q 1403 2931 1139 2672 
Q 875 2413 847 1978 
z
" transform="scale(0.015625)"/>
       <path id="ArialMT-20" transform="scale(0.015625)"/>
       <path id="ArialMT-50" d="M 494 0 
L 494 4581 
L 2222 4581 
Q 2678 4581 2919 4538 
Q 3256 4481 3484 4323 
Q 3713 4166 3852 3881 
Q 3991 3597 3991 3256 
Q 3991 2672 3619 2267 
Q 3247 1863 2275 1863 
L 1100 1863 
L 1100 0 
L 494 0 
z
M 1100 2403 
L 2284 2403 
Q 2872 2403 3119 2622 
Q 3366 2841 3366 3238 
Q 3366 3525 3220 3729 
Q 3075 3934 2838 4000 
Q 2684 4041 2272 4041 
L 1100 4041 
L 1100 2403 
z
" transform="scale(0.015625)"/>
       <path id="ArialMT-6f" d="M 213 1659 
Q 213 2581 725 3025 
Q 1153 3394 1769 3394 
Q 2453 3394 2887 2945 
Q 3322 2497 3322 1706 
Q 3322 1066 3130 698 
Q 2938 331 2570 128 
Q 2203 -75 1769 -75 
Q 1072 -75 642 372 
Q 213 819 213 1659 
z
M 791 1659 
Q 791 1022 1069 705 
Q 1347 388 1769 388 
Q 2188 388 2466 706 
Q 2744 1025 2744 1678 
Q 2744 2294 2464 2611 
Q 2184 2928 1769 2928 
Q 1347 2928 1069 2612 
Q 791 2297 791 1659 
z
" transform="scale(0.015625)"/>
       <path id="ArialMT-69" d="M 425 3934 
L 425 4581 
L 988 4581 
L 988 3934 
L 425 3934 
z
M 425 0 
L 425 3319 
L 988 3319 
L 988 0 
L 425 0 
z
" transform="scale(0.015625)"/>
       <path id="ArialMT-74" d="M 1650 503 
L 1731 6 
Q 1494 -44 1306 -44 
Q 1000 -44 831 53 
Q 663 150 594 308 
Q 525 466 525 972 
L 525 2881 
L 113 2881 
L 113 3319 
L 525 3319 
L 525 4141 
L 1084 4478 
L 1084 3319 
L 1650 3319 
L 1650 2881 
L 1084 2881 
L 1084 941 
Q 1084 700 1114 631 
Q 1144 563 1211 522 
Q 1278 481 1403 481 
Q 1497 481 1650 503 
z
" transform="scale(0.015625)"/>
       <path id="ArialMT-76" d="M 1344 0 
L 81 3319 
L 675 3319 
L 1388 1331 
Q 1503 1009 1600 663 
Q 1675 925 1809 1294 
L 2547 3319 
L 3125 3319 
L 1869 0 
L 1344 0 
z
" transform="scale(0.015625)"/>
       <path id="ArialMT-52" d="M 503 0 
L 503 4581 
L 2534 4581 
Q 3147 4581 3465 4457 
Q 3784 4334 3975 4021 
Q 4166 3709 4166 3331 
Q 4166 2844 3850 2509 
Q 3534 2175 2875 2084 
Q 3116 1969 3241 1856 
Q 3506 1613 3744 1247 
L 4541 0 
L 3778 0 
L 3172 953 
Q 2906 1366 2734 1584 
Q 2563 1803 2427 1890 
Q 2291 1978 2150 2013 
Q 2047 2034 1813 2034 
L 1109 2034 
L 1109 0 
L 503 0 
z
M 1109 2559 
L 2413 2559 
Q 2828 2559 3062 2645 
Q 3297 2731 3419 2920 
Q 3541 3109 3541 3331 
Q 3541 3656 3305 3865 
Q 3069 4075 2559 4075 
L 1109 4075 
L 1109 2559 
z
" transform="scale(0.015625)"/>
      </defs>
      <use xlink:href="#ArialMT-46"/>
      <use xlink:href="#ArialMT-61" x="61.083984"/>
      <use xlink:href="#ArialMT-6c" x="116.699219"/>
      <use xlink:href="#ArialMT-73" x="138.916016"/>
      <use xlink:href="#ArialMT-65" x="188.916016"/>
      <use xlink:href="#ArialMT-20" x="244.53125"/>
      <use xlink:href="#ArialMT-50" x="272.314453"/>
      <use xlink:href="#ArialMT-6f" x="339.013672"/>
      <use xlink:href="#ArialMT-73" x="394.628906"/>
      <use xlink:href="#ArialMT-69" x="444.628906"/>
      <use xlink:href="#ArialMT-74" x="466.845703"/>
      <use xlink:href="#ArialMT-69" x="494.628906"/>
      <use xlink:href="#ArialMT-76" x="516.845703"/>
      <use xlink:href="#ArialMT-65" x="566.845703"/>
      <use xlink:href="#ArialMT-20" x="622.460938"/>
      <use xlink:href="#ArialMT-52" x="650.244141"/>
      <use xlink:href="#ArialMT-61" x="722.460938"/>
      <use xlink:href="#ArialMT-74" x="778.076172"/>
      <use xlink:href="#ArialMT-65" x="805.859375"/>
     </g>
    </g>
   </g>
   <g id="matplotlib.axis_2">
    <g id="ytick_1">
     <g id="line2d_7">
      <defs>
       <path id="mee81b8ce2b" d="M 0 0 
L -3.5 0 
" style="stroke: #000000; stroke-width: 0.8"/>
      </defs>
      <g>
       <use xlink:href="#mee81b8ce2b" x="58.7" y="318.42" style="stroke: #000000; stroke-width: 0.8"/>
      </g>
     </g>
     <g id="text_8">
      <!-- 0.0 -->
      <g transform="translate(32.24 323.430469) scale(0.14 -0.14)">
       <use xlink:href="#ArialMT-30"/>
       <use xlink:href="#ArialMT-2e" x="55.615234"/>
       <use xlink:href="#ArialMT-30" x="83.398438"/>
      </g>
     </g>
    </g>
    <g id="ytick_2">
     <g id="line2d_8">
      <g>
       <use xlink:href="#mee81b8ce2b" x="58.7" y="264.26" style="stroke: #000000; stroke-width: 0.8"/>
      </g>
     </g>
     <g id="text_9">
      <!-- 0.2 -->
      <g transform="translate(32.24 269.270469) scale(0.14 -0.14)">
       <use xlink:href="#ArialMT-30"/>
       <use xlink:href="#ArialMT-2e" x="55.615234"/>
       <use xlink:href="#ArialMT-32" x="83.398438"/>
      </g>
     </g>
    </g>
    <g id="ytick_3">
     <g id="line2d_9">
      <g>
       <use xlink:href="#mee81b8ce2b" x="58.7" y="210.1" style="stroke: #000000; stroke-width: 0.8"/>
      </g>
     </g>
     <g id="text_10">
      <!-- 0.4 -->
      <g transform="translate(32.24 215.110469) scale(0.14 -0.14)">
       <use xlink:href="#ArialMT-30"/>
       <use xlink:href="#ArialMT-2e" x="55.615234"/>
       <use xlink:href="#ArialMT-34" x="83.398438"/>
      </g>
     </g>
    </g>
    <g id="ytick_4">
     <g id="line2d_10">
      <g>
       <use xlink:href="#mee81b8ce2b" x="58.7" y="155.94" style="stroke: #000000; stroke-width: 0.8"/>
      </g>
     </g>
     <g id="text_11">
      <!-- 0.6 -->
      <g transform="translate(32.24 160.950469) scale(0.14 -0.14)">
       <use xlink:href="#ArialMT-30"/>
       <use xlink:href="#ArialMT-2e" x="55.615234"/>
       <use xlink:href="#ArialMT-36" x="83.398438"/>
      </g>
     </g>
    </g>
    <g id="ytick_5">
     <g id="line2d_11">
      <g>
       <use xlink:href="#mee81b8ce2b" x="58.7" y="101.78" style="stroke: #000000; stroke-width: 0.8"/>
      </g>
     </g>
     <g id="text_12">
      <!-- 0.8 -->
      <g transform="translate(32.24 106.790469) scale(0.14 -0.14)">
       <use xlink:href="#ArialMT-30"/>
       <use xlink:href="#ArialMT-2e" x="55.615234"/>
       <use xlink:href="#ArialMT-38" x="83.398438"/>
      </g>
     </g>
    </g>
    <g id="ytick_6">
     <g id="line2d_12">
      <g>
       <use xlink:href="#mee81b8ce2b" x="58.7" y="47.62" style="stroke: #000000; stroke-width: 0.8"/>
      </g>
     </g>
     <g id="text_13">
      <!-- 1.0 -->
      <g transform="translate(32.24 52.630469) scale(0.14 -0.14)">
       <use xlink:href="#ArialMT-31"/>
       <use xlink:href="#ArialMT-2e" x="55.615234"/>
       <use xlink:href="#ArialMT-30" x="83.398438"/>
      </g>
     </g>
    </g>
    <g id="text_14">
     <!-- True Positive Rate -->
     <g transform="translate(25.4575 240.333594) rotate(-90) scale(0.14 -0.14)">
      <defs>
       <path id="ArialMT-54" d="M 1659 0 
L 1659 4041 
L 150 4041 
L 150 4581 
L 3781 4581 
L 3781 4041 
L 2266 4041 
L 2266 0 
L 1659 0 
z
" transform="scale(0.015625)"/>
       <path id="ArialMT-72" d="M 416 0 
L 416 3319 
L 922 3319 
L 922 2816 
Q 1116 3169 1280 3281 
Q 1444 3394 1641 3394 
Q 1925 3394 2219 3213 
L 2025 2691 
Q 1819 2813 1613 2813 
Q 1428 2813 1281 2702 
Q 1134 2591 1072 2394 
Q 978 2094 978 1738 
L 978 0 
L 416 0 
z
" transform="scale(0.015625)"/>
       <path id="ArialMT-75" d="M 2597 0 
L 2597 488 
Q 2209 -75 1544 -75 
Q 1250 -75 995 37 
Q 741 150 617 320 
Q 494 491 444 738 
Q 409 903 409 1263 
L 409 3319 
L 972 3319 
L 972 1478 
Q 972 1038 1006 884 
Q 1059 663 1231 536 
Q 1403 409 1656 409 
Q 1909 409 2131 539 
Q 2353 669 2445 892 
Q 2538 1116 2538 1541 
L 2538 3319 
L 3100 3319 
L 3100 0 
L 2597 0 
z
" transform="scale(0.015625)"/>
      </defs>
      <use xlink:href="#ArialMT-54"/>
      <use xlink:href="#ArialMT-72" x="57.333984"/>
      <use xlink:href="#ArialMT-75" x="90.634766"/>
      <use xlink:href="#ArialMT-65" x="146.25"/>
      <use xlink:href="#ArialMT-20" x="201.865234"/>
      <use xlink:href="#ArialMT-50" x="229.648438"/>
      <use xlink:href="#ArialMT-6f" x="296.347656"/>
      <use xlink:href="#ArialMT-73" x="351.962891"/>
      <use xlink:href="#ArialMT-69" x="401.962891"/>
      <use xlink:href="#ArialMT-74" x="424.179688"/>
      <use xlink:href="#ArialMT-69" x="451.962891"/>
      <use xlink:href="#ArialMT-76" x="474.179688"/>
      <use xlink:href="#ArialMT-65" x="524.179688"/>
      <use xlink:href="#ArialMT-20" x="579.794922"/>
      <use xlink:href="#ArialMT-52" x="607.578125"/>
      <use xlink:href="#ArialMT-61" x="679.794922"/>
      <use xlink:href="#ArialMT-74" x="735.410156"/>
      <use xlink:href="#ArialMT-65" x="763.193359"/>
     </g>
    </g>
   </g>
   <g id="line2d_13">
    <path d="M 77.162727 318.42 
L 77.162727 315.539149 
L 77.162727 304.015745 
L 80.292003 304.015745 
L 80.292003 301.134894 
L 83.421279 301.134894 
L 83.421279 298.254043 
L 86.550555 298.254043 
L 86.550555 289.611489 
L 92.809106 289.611489 
L 92.809106 278.088085 
L 95.938382 278.088085 
L 95.938382 266.564681 
L 102.196934 266.564681 
L 102.196934 263.68383 
L 108.455485 263.68383 
L 108.455485 260.802979 
L 114.714037 260.802979 
L 114.714037 257.922128 
L 117.843313 257.922128 
L 117.843313 246.398723 
L 120.972589 246.398723 
L 120.972589 243.517872 
L 124.101864 243.517872 
L 124.101864 240.637021 
L 127.23114 240.637021 
L 127.23114 231.994468 
L 133.489692 231.994468 
L 133.489692 220.471064 
L 142.877519 220.471064 
L 142.877519 217.590213 
L 146.006795 217.590213 
L 146.006795 211.828511 
L 149.136071 211.828511 
L 149.136071 208.94766 
L 152.265347 208.94766 
L 152.265347 200.305106 
L 158.523898 200.305106 
L 158.523898 188.781702 
L 167.911726 188.781702 
L 167.911726 183.02 
L 174.170277 183.02 
L 174.170277 180.139149 
L 177.299553 180.139149 
L 177.299553 177.258298 
L 186.687381 177.258298 
L 186.687381 174.377447 
L 196.075208 174.377447 
L 196.075208 171.496596 
L 202.33376 171.496596 
L 202.33376 168.615745 
L 227.367966 168.615745 
L 227.367966 165.734894 
L 239.885069 165.734894 
L 239.885069 159.973191 
L 252.402173 159.973191 
L 252.402173 157.09234 
L 261.79 157.09234 
L 261.79 154.211489 
L 264.919276 154.211489 
L 264.919276 151.330638 
L 274.307103 151.330638 
L 274.307103 145.568936 
L 299.34131 145.568936 
L 299.34131 136.926383 
L 302.470586 136.926383 
L 302.470586 128.28383 
L 324.375516 128.28383 
L 324.375516 125.402979 
L 336.892619 125.402979 
L 336.892619 122.522128 
L 343.151171 122.522128 
L 343.151171 110.998723 
L 346.280447 110.998723 
L 346.280447 108.117872 
L 352.538998 108.117872 
L 352.538998 99.475319 
L 361.926826 99.475319 
L 361.926826 96.594468 
L 374.443929 96.594468 
L 374.443929 93.713617 
L 380.702481 93.713617 
L 380.702481 90.832766 
L 386.961032 90.832766 
L 386.961032 82.190213 
L 390.090308 82.190213 
L 390.090308 79.309362 
L 399.478136 79.309362 
L 399.478136 64.905106 
L 418.25379 64.905106 
L 418.25379 59.143404 
L 430.770894 59.143404 
L 430.770894 56.262553 
L 433.900169 56.262553 
L 433.900169 53.381702 
L 437.029445 53.381702 
L 437.029445 50.500851 
L 446.417273 50.500851 
L 446.417273 47.62 
" clip-path="url(#p759f2c275b)" style="fill: none; stroke: #1f77b4; stroke-opacity: 0.66; stroke-width: 1.5; stroke-linecap: square"/>
   </g>
   <g id="line2d_14">
    <path d="M 77.162727 318.42 
L 82.843566 318.42 
L 82.843566 306.646087 
L 99.886084 306.646087 
L 99.886084 294.872174 
L 105.566923 294.872174 
L 105.566923 247.776522 
L 116.928601 247.776522 
L 116.928601 224.228696 
L 133.971119 224.228696 
L 133.971119 212.454783 
L 179.417832 212.454783 
L 179.417832 188.906957 
L 185.098671 188.906957 
L 185.098671 177.133043 
L 190.77951 177.133043 
L 190.77951 165.35913 
L 213.502867 165.35913 
L 213.502867 153.585217 
L 275.992098 153.585217 
L 275.992098 141.811304 
L 304.396294 141.811304 
L 304.396294 118.263478 
L 315.757972 118.263478 
L 315.757972 106.489565 
L 327.11965 106.489565 
L 327.11965 94.715652 
L 332.80049 94.715652 
L 332.80049 82.941739 
L 344.162168 82.941739 
L 344.162168 71.167826 
L 349.843007 71.167826 
L 349.843007 59.393913 
L 366.885524 59.393913 
L 366.885524 47.62 
L 446.417273 47.62 
" clip-path="url(#p759f2c275b)" style="fill: none; stroke: #ff7f0e; stroke-opacity: 0.66; stroke-width: 1.5; stroke-linecap: square"/>
   </g>
   <g id="line2d_15">
    <path d="M 77.162727 318.42 
L 77.162727 314.378209 
L 77.162727 310.336418 
L 80.239848 310.336418 
L 80.239848 298.211045 
L 83.31697 298.211045 
L 83.31697 290.127463 
L 86.394091 290.127463 
L 86.394091 273.960299 
L 89.471212 273.960299 
L 89.471212 257.793134 
L 92.548333 257.793134 
L 92.548333 253.751343 
L 95.625455 253.751343 
L 95.625455 249.709552 
L 101.779697 249.709552 
L 101.779697 233.542388 
L 104.856818 233.542388 
L 104.856818 229.500597 
L 107.933939 229.500597 
L 107.933939 221.417015 
L 114.088182 221.417015 
L 114.088182 217.375224 
L 117.165303 217.375224 
L 117.165303 213.333433 
L 120.242424 213.333433 
L 120.242424 209.291642 
L 138.705152 209.291642 
L 138.705152 201.20806 
L 144.859394 201.20806 
L 144.859394 189.082687 
L 151.013636 189.082687 
L 151.013636 185.040896 
L 154.090758 185.040896 
L 154.090758 180.999104 
L 157.167879 180.999104 
L 157.167879 176.957313 
L 163.322121 176.957313 
L 163.322121 172.915522 
L 169.476364 172.915522 
L 169.476364 168.873731 
L 172.553485 168.873731 
L 172.553485 164.83194 
L 181.784848 164.83194 
L 181.784848 160.790149 
L 200.247576 160.790149 
L 200.247576 152.706567 
L 209.478939 152.706567 
L 209.478939 148.664776 
L 212.556061 148.664776 
L 212.556061 136.539403 
L 215.633182 136.539403 
L 215.633182 124.41403 
L 221.787424 124.41403 
L 221.787424 120.372239 
L 224.864545 120.372239 
L 224.864545 100.163284 
L 231.018788 100.163284 
L 231.018788 96.121493 
L 234.095909 96.121493 
L 234.095909 92.079701 
L 258.712879 92.079701 
L 258.712879 88.03791 
L 280.252727 88.03791 
L 280.252727 83.996119 
L 289.484091 83.996119 
L 289.484091 79.954328 
L 292.561212 79.954328 
L 292.561212 75.912537 
L 295.638333 75.912537 
L 295.638333 67.828955 
L 314.101061 67.828955 
L 314.101061 63.787164 
L 335.640909 63.787164 
L 335.640909 55.703582 
L 363.335 55.703582 
L 363.335 47.62 
L 446.417273 47.62 
" clip-path="url(#p759f2c275b)" style="fill: none; stroke: #2ca02c; stroke-opacity: 0.66; stroke-width: 1.5; stroke-linecap: square"/>
   </g>
   <g id="line2d_16">
    <path d="M 77.162727 318.42 
L 77.162727 316.125085 
L 77.162727 313.830169 
L 80.373636 313.830169 
L 80.373636 309.240339 
L 86.795455 309.240339 
L 86.795455 300.060678 
L 96.428182 300.060678 
L 96.428182 293.175932 
L 99.639091 293.175932 
L 99.639091 290.881017 
L 102.85 290.881017 
L 102.85 263.342034 
L 118.904545 263.342034 
L 118.904545 258.752203 
L 125.326364 258.752203 
L 125.326364 256.457288 
L 128.537273 256.457288 
L 128.537273 254.162373 
L 131.748182 254.162373 
L 131.748182 251.867458 
L 134.959091 251.867458 
L 134.959091 249.572542 
L 138.17 249.572542 
L 138.17 247.277627 
L 141.380909 247.277627 
L 141.380909 244.982712 
L 154.224545 244.982712 
L 154.224545 242.687797 
L 163.857273 242.687797 
L 163.857273 240.392881 
L 167.068182 240.392881 
L 167.068182 235.803051 
L 173.49 235.803051 
L 173.49 233.508136 
L 189.544545 233.508136 
L 189.544545 231.21322 
L 195.966364 231.21322 
L 195.966364 226.62339 
L 202.388182 226.62339 
L 202.388182 222.033559 
L 224.864545 222.033559 
L 224.864545 219.738644 
L 228.075455 219.738644 
L 228.075455 215.148814 
L 231.286364 215.148814 
L 231.286364 212.853898 
L 234.497273 212.853898 
L 234.497273 210.558983 
L 244.13 210.558983 
L 244.13 208.264068 
L 247.340909 208.264068 
L 247.340909 205.969153 
L 256.973636 205.969153 
L 256.973636 194.494576 
L 260.184545 194.494576 
L 260.184545 189.904746 
L 263.395455 189.904746 
L 263.395455 187.609831 
L 273.028182 187.609831 
L 273.028182 178.430169 
L 279.45 178.430169 
L 279.45 176.135254 
L 292.293636 176.135254 
L 292.293636 169.250508 
L 298.715455 169.250508 
L 298.715455 166.955593 
L 305.137273 166.955593 
L 305.137273 162.365763 
L 311.559091 162.365763 
L 311.559091 160.070847 
L 314.77 160.070847 
L 314.77 148.596271 
L 317.980909 148.596271 
L 317.980909 144.006441 
L 321.191818 144.006441 
L 321.191818 141.711525 
L 324.402727 141.711525 
L 324.402727 139.41661 
L 330.824545 139.41661 
L 330.824545 132.531864 
L 334.035455 132.531864 
L 334.035455 130.236949 
L 337.246364 130.236949 
L 337.246364 127.942034 
L 340.457273 127.942034 
L 340.457273 121.057288 
L 343.668182 121.057288 
L 343.668182 111.877627 
L 346.879091 111.877627 
L 346.879091 109.582712 
L 350.09 109.582712 
L 350.09 104.992881 
L 359.722727 104.992881 
L 359.722727 102.697966 
L 362.933636 102.697966 
L 362.933636 95.81322 
L 366.144545 95.81322 
L 366.144545 93.518305 
L 369.355455 93.518305 
L 369.355455 82.043729 
L 375.777273 82.043729 
L 375.777273 77.453898 
L 378.988182 77.453898 
L 378.988182 68.274237 
L 382.199091 68.274237 
L 382.199091 65.979322 
L 385.41 65.979322 
L 385.41 63.684407 
L 388.620909 63.684407 
L 388.620909 61.389492 
L 398.253636 61.389492 
L 398.253636 59.094576 
L 411.097273 59.094576 
L 411.097273 56.799661 
L 414.308182 56.799661 
L 414.308182 54.504746 
L 423.940909 54.504746 
L 423.940909 52.209831 
L 427.151818 52.209831 
L 427.151818 49.914915 
L 430.362727 49.914915 
L 430.362727 47.62 
L 446.417273 47.62 
" clip-path="url(#p759f2c275b)" style="fill: none; stroke: #d62728; stroke-opacity: 0.66; stroke-width: 1.5; stroke-linecap: square"/>
   </g>
   <g id="line2d_17">
    <path d="M 77.162727 318.42 
L 79.116455 318.42 
L 79.116455 311.878937 
L 81.070183 311.878937 
L 81.070183 310.570725 
L 83.023911 310.570725 
L 83.023911 309.262512 
L 84.977638 309.262512 
L 84.977638 305.337874 
L 86.931366 305.337874 
L 86.931366 302.721449 
L 88.885094 302.721449 
L 88.885094 301.413237 
L 90.838822 301.413237 
L 90.838822 292.255749 
L 92.792549 292.255749 
L 92.792549 290.947536 
L 94.746277 290.947536 
L 94.746277 288.331111 
L 96.700005 288.331111 
L 96.700005 287.022899 
L 100.60746 287.022899 
L 100.60746 284.406473 
L 102.561188 284.406473 
L 102.561188 283.098261 
L 104.514916 283.098261 
L 104.514916 281.790048 
L 106.468644 281.790048 
L 106.468644 280.481836 
L 108.422371 280.481836 
L 108.422371 271.324348 
L 112.329827 271.324348 
L 112.329827 270.016135 
L 114.283555 270.016135 
L 114.283555 255.625797 
L 116.237282 255.625797 
L 116.237282 253.009372 
L 120.144738 253.009372 
L 120.144738 247.776522 
L 126.005921 247.776522 
L 126.005921 243.851884 
L 127.959649 243.851884 
L 127.959649 241.235459 
L 129.913377 241.235459 
L 129.913377 238.619034 
L 131.867104 238.619034 
L 131.867104 234.694396 
L 135.77456 234.694396 
L 135.77456 232.077971 
L 139.682015 232.077971 
L 139.682015 230.769758 
L 143.589471 230.769758 
L 143.589471 228.153333 
L 147.496926 228.153333 
L 147.496926 222.920483 
L 161.173021 222.920483 
L 161.173021 217.687633 
L 163.126748 217.687633 
L 163.126748 215.071208 
L 165.080476 215.071208 
L 165.080476 211.14657 
L 168.987932 211.14657 
L 168.987932 208.530145 
L 170.941659 208.530145 
L 170.941659 207.221932 
L 172.895387 207.221932 
L 172.895387 196.756232 
L 174.849115 196.756232 
L 174.849115 195.448019 
L 176.802843 195.448019 
L 176.802843 192.831594 
L 188.525209 192.831594 
L 188.525209 191.523382 
L 192.432665 191.523382 
L 192.432665 186.290531 
L 194.386392 186.290531 
L 194.386392 184.982319 
L 198.293848 184.982319 
L 198.293848 181.057681 
L 200.247576 181.057681 
L 200.247576 179.749469 
L 202.201304 179.749469 
L 202.201304 178.441256 
L 204.155031 178.441256 
L 204.155031 174.516618 
L 210.016215 174.516618 
L 210.016215 173.208406 
L 215.877398 173.208406 
L 215.877398 171.900193 
L 217.831126 171.900193 
L 217.831126 166.667343 
L 223.692309 166.667343 
L 223.692309 164.050918 
L 229.553492 164.050918 
L 229.553492 161.434493 
L 233.460948 161.434493 
L 233.460948 157.509855 
L 235.414675 157.509855 
L 235.414675 149.66058 
L 239.322131 149.66058 
L 239.322131 148.352367 
L 241.275859 148.352367 
L 241.275859 144.427729 
L 243.229586 144.427729 
L 243.229586 141.811304 
L 245.183314 141.811304 
L 245.183314 140.503092 
L 249.09077 140.503092 
L 249.09077 137.886667 
L 254.951953 137.886667 
L 254.951953 136.578454 
L 256.905681 136.578454 
L 256.905681 132.653816 
L 262.766864 132.653816 
L 262.766864 131.345604 
L 276.442958 131.345604 
L 276.442958 130.037391 
L 284.257869 130.037391 
L 284.257869 128.729179 
L 294.026508 128.729179 
L 294.026508 123.496329 
L 297.933963 123.496329 
L 297.933963 120.879903 
L 305.748874 120.879903 
L 305.748874 115.647053 
L 307.702602 115.647053 
L 307.702602 113.030628 
L 311.610058 113.030628 
L 311.610058 109.10599 
L 313.563785 109.10599 
L 313.563785 105.181353 
L 319.424969 105.181353 
L 319.424969 101.256715 
L 321.378696 101.256715 
L 321.378696 94.715652 
L 327.23988 94.715652 
L 327.23988 90.791014 
L 331.147335 90.791014 
L 331.147335 88.174589 
L 335.054791 88.174589 
L 335.054791 86.866377 
L 340.915974 86.866377 
L 340.915974 85.558164 
L 354.592068 85.558164 
L 354.592068 84.249952 
L 356.545796 84.249952 
L 356.545796 77.708889 
L 364.360707 77.708889 
L 364.360707 75.092464 
L 368.268163 75.092464 
L 368.268163 72.476039 
L 370.22189 72.476039 
L 370.22189 71.167826 
L 376.083074 71.167826 
L 376.083074 69.859614 
L 379.990529 69.859614 
L 379.990529 67.243188 
L 381.944257 67.243188 
L 381.944257 65.934976 
L 383.897985 65.934976 
L 383.897985 64.626763 
L 387.80544 64.626763 
L 387.80544 63.318551 
L 393.666623 63.318551 
L 393.666623 62.010338 
L 395.620351 62.010338 
L 395.620351 58.0857 
L 405.38899 58.0857 
L 405.38899 55.469275 
L 415.157629 55.469275 
L 415.157629 54.161063 
L 419.065084 54.161063 
L 419.065084 50.236425 
L 422.97254 50.236425 
L 422.97254 48.928213 
L 438.602362 48.928213 
L 438.602362 47.62 
L 446.417273 47.62 
L 446.417273 47.62 
" clip-path="url(#p759f2c275b)" style="fill: none; stroke: #9467bd; stroke-opacity: 0.66; stroke-width: 1.5; stroke-linecap: square"/>
   </g>
   <g id="line2d_18">
    <path d="M 77.162727 318.42 
L 77.162727 316.808095 
L 77.162727 250.72 
L 81.358802 250.72 
L 81.358802 237.824762 
L 85.554876 237.824762 
L 85.554876 236.212857 
L 89.75095 236.212857 
L 89.75095 210.422381 
L 93.947025 210.422381 
L 93.947025 184.631905 
L 98.143099 184.631905 
L 98.143099 181.408095 
L 106.535248 181.408095 
L 106.535248 149.17 
L 114.927397 149.17 
L 114.927397 144.334286 
L 123.319545 144.334286 
L 123.319545 133.050952 
L 127.51562 133.050952 
L 127.51562 129.827143 
L 131.711694 129.827143 
L 131.711694 128.215238 
L 135.907769 128.215238 
L 135.907769 123.379524 
L 140.103843 123.379524 
L 140.103843 116.931905 
L 148.495992 116.931905 
L 148.495992 110.484286 
L 152.692066 110.484286 
L 152.692066 100.812857 
L 161.084215 100.812857 
L 161.084215 99.200952 
L 169.476364 99.200952 
L 169.476364 94.365238 
L 173.672438 94.365238 
L 173.672438 89.529524 
L 182.064587 89.529524 
L 182.064587 83.081905 
L 194.65281 83.081905 
L 194.65281 73.410476 
L 198.848884 73.410476 
L 198.848884 66.962857 
L 203.044959 66.962857 
L 203.044959 62.127143 
L 211.437107 62.127143 
L 211.437107 60.515238 
L 228.221405 60.515238 
L 228.221405 55.679524 
L 261.79 55.679524 
L 261.79 54.067619 
L 328.92719 54.067619 
L 328.92719 52.455714 
L 341.515413 52.455714 
L 341.515413 50.84381 
L 345.711488 50.84381 
L 345.711488 49.231905 
L 370.887934 49.231905 
L 370.887934 47.62 
L 446.417273 47.62 
" clip-path="url(#p759f2c275b)" style="fill: none; stroke: #8c564b; stroke-opacity: 0.66; stroke-width: 1.5; stroke-linecap: square"/>
   </g>
   <g id="line2d_19">
    <path d="M 77.162727 318.42 
L 77.162727 316.82 
L 77.694029 316.82 
L 77.694029 311.22 
L 78.22533 311.22 
L 78.22533 309.22 
L 78.756632 309.22 
L 78.756632 308.82 
L 79.287933 308.82 
L 79.287933 307.62 
L 80.350536 307.62 
L 80.350536 304.82 
L 80.881838 304.82 
L 80.881838 302.42 
L 81.413139 302.42 
L 81.413139 299.22 
L 81.944441 299.22 
L 81.944441 297.22 
L 82.475742 297.22 
L 82.475742 295.22 
L 83.007044 295.22 
L 83.007044 292.82 
L 83.538345 292.82 
L 83.538345 291.22 
L 84.069647 291.22 
L 84.069647 290.42 
L 84.600948 290.42 
L 84.600948 288.82 
L 85.13225 288.82 
L 85.13225 288.42 
L 86.194853 288.42 
L 86.194853 286.02 
L 86.726154 286.02 
L 86.726154 285.22 
L 87.257456 285.22 
L 87.257456 281.62 
L 87.788757 281.62 
L 87.788757 274.02 
L 88.320059 274.02 
L 88.320059 272.42 
L 88.85136 272.42 
L 88.85136 271.22 
L 89.382662 271.22 
L 89.382662 270.42 
L 89.913963 270.42 
L 89.913963 267.62 
L 90.445265 267.62 
L 90.445265 267.22 
L 90.976566 267.22 
L 90.976566 264.02 
L 92.039169 264.02 
L 92.039169 263.22 
L 92.570471 263.22 
L 92.570471 262.82 
L 93.633074 262.82 
L 93.633074 260.02 
L 94.164375 260.02 
L 94.164375 259.62 
L 95.75828 259.62 
L 95.75828 258.82 
L 96.289581 258.82 
L 96.289581 254.42 
L 96.820883 254.42 
L 96.820883 253.62 
L 97.352184 253.62 
L 97.352184 252.42 
L 97.883486 252.42 
L 97.883486 251.62 
L 99.47739 251.62 
L 99.47739 251.22 
L 100.539993 251.22 
L 100.539993 245.22 
L 101.071295 245.22 
L 101.071295 244.42 
L 101.602596 244.42 
L 101.602596 244.02 
L 102.665199 244.02 
L 102.665199 242.82 
L 103.196501 242.82 
L 103.196501 241.62 
L 103.727802 241.62 
L 103.727802 240.82 
L 104.790405 240.82 
L 104.790405 238.42 
L 105.321707 238.42 
L 105.321707 236.82 
L 106.38431 236.82 
L 106.38431 236.02 
L 106.915612 236.02 
L 106.915612 235.62 
L 107.446913 235.62 
L 107.446913 235.22 
L 107.978215 235.22 
L 107.978215 234.02 
L 108.509516 234.02 
L 108.509516 233.22 
L 109.572119 233.22 
L 109.572119 232.02 
L 110.103421 232.02 
L 110.103421 231.62 
L 111.166024 231.62 
L 111.166024 230.82 
L 112.228627 230.82 
L 112.228627 229.62 
L 112.759928 229.62 
L 112.759928 228.82 
L 113.29123 228.82 
L 113.29123 228.42 
L 113.822531 228.42 
L 113.822531 226.82 
L 114.885134 226.82 
L 114.885134 224.42 
L 115.416436 224.42 
L 115.416436 223.22 
L 115.947737 223.22 
L 115.947737 222.82 
L 117.541642 222.82 
L 117.541642 221.62 
L 118.072943 221.62 
L 118.072943 221.22 
L 118.604245 221.22 
L 118.604245 220.82 
L 120.198149 220.82 
L 120.198149 220.02 
L 121.260752 220.02 
L 121.260752 218.82 
L 121.792054 218.82 
L 121.792054 217.62 
L 122.323355 217.62 
L 122.323355 215.62 
L 122.854657 215.62 
L 122.854657 214.82 
L 123.385958 214.82 
L 123.385958 214.42 
L 124.979863 214.42 
L 124.979863 212.42 
L 125.511164 212.42 
L 125.511164 211.22 
L 126.042466 211.22 
L 126.042466 208.02 
L 127.105069 208.02 
L 127.105069 207.22 
L 127.63637 207.22 
L 127.63637 206.82 
L 128.167672 206.82 
L 128.167672 206.02 
L 130.292878 206.02 
L 130.292878 205.62 
L 130.824179 205.62 
L 130.824179 204.02 
L 132.418084 204.02 
L 132.418084 202.42 
L 132.949385 202.42 
L 132.949385 200.82 
L 133.480687 200.82 
L 133.480687 200.02 
L 134.011988 200.02 
L 134.011988 199.62 
L 134.54329 199.62 
L 134.54329 198.82 
L 135.074591 198.82 
L 135.074591 197.62 
L 135.605893 197.62 
L 135.605893 196.82 
L 137.199797 196.82 
L 137.199797 195.62 
L 138.2624 195.62 
L 138.2624 194.42 
L 140.918908 194.42 
L 140.918908 193.22 
L 141.450209 193.22 
L 141.450209 192.42 
L 141.981511 192.42 
L 141.981511 190.82 
L 142.512812 190.82 
L 142.512812 190.42 
L 143.575415 190.42 
L 143.575415 189.22 
L 145.16932 189.22 
L 145.16932 187.62 
L 145.700621 187.62 
L 145.700621 186.82 
L 146.763224 186.82 
L 146.763224 186.42 
L 147.825827 186.42 
L 147.825827 186.02 
L 152.076239 186.02 
L 152.076239 185.22 
L 152.607541 185.22 
L 152.607541 184.82 
L 154.732747 184.82 
L 154.732747 181.62 
L 155.264048 181.62 
L 155.264048 181.22 
L 156.326651 181.22 
L 156.326651 180.02 
L 157.389254 180.02 
L 157.389254 179.62 
L 158.451857 179.62 
L 158.451857 179.22 
L 159.51446 179.22 
L 159.51446 178.02 
L 160.045762 178.02 
L 160.045762 176.82 
L 161.108365 176.82 
L 161.108365 176.02 
L 162.702269 176.02 
L 162.702269 175.62 
L 163.233571 175.62 
L 163.233571 174.82 
L 164.827475 174.82 
L 164.827475 173.62 
L 165.890078 173.62 
L 165.890078 173.22 
L 168.015284 173.22 
L 168.015284 172.82 
L 168.546586 172.82 
L 168.546586 172.02 
L 169.609189 172.02 
L 169.609189 171.22 
L 170.140491 171.22 
L 170.140491 170.82 
L 171.203094 170.82 
L 171.203094 170.42 
L 172.265697 170.42 
L 172.265697 167.62 
L 172.796998 167.62 
L 172.796998 167.22 
L 173.859601 167.22 
L 173.859601 166.82 
L 174.390903 166.82 
L 174.390903 166.42 
L 177.04741 166.42 
L 177.04741 166.02 
L 178.641315 166.02 
L 178.641315 165.62 
L 179.703918 165.62 
L 179.703918 165.22 
L 180.235219 165.22 
L 180.235219 164.82 
L 180.766521 164.82 
L 180.766521 164.02 
L 181.297822 164.02 
L 181.297822 163.62 
L 181.829124 163.62 
L 181.829124 163.22 
L 185.016933 163.22 
L 185.016933 162.82 
L 185.548234 162.82 
L 185.548234 162.42 
L 186.610837 162.42 
L 186.610837 162.02 
L 187.142139 162.02 
L 187.142139 161.62 
L 189.267345 161.62 
L 189.267345 161.22 
L 194.049058 161.22 
L 194.049058 160.02 
L 195.642963 160.02 
L 195.642963 159.62 
L 196.705566 159.62 
L 196.705566 158.42 
L 197.236867 158.42 
L 197.236867 158.02 
L 198.830772 158.02 
L 198.830772 157.62 
L 201.487279 157.62 
L 201.487279 157.22 
L 202.018581 157.22 
L 202.018581 155.22 
L 205.737691 155.22 
L 205.737691 154.82 
L 207.862897 154.82 
L 207.862897 153.62 
L 208.394199 153.62 
L 208.394199 151.22 
L 211.582008 151.22 
L 211.582008 150.82 
L 213.175912 150.82 
L 213.175912 149.62 
L 213.707214 149.62 
L 213.707214 148.02 
L 215.83242 148.02 
L 215.83242 147.62 
L 219.55153 147.62 
L 219.55153 147.22 
L 220.082832 147.22 
L 220.082832 146.42 
L 221.145435 146.42 
L 221.145435 146.02 
L 222.739339 146.02 
L 222.739339 145.62 
L 224.333244 145.62 
L 224.333244 144.82 
L 226.989751 144.82 
L 226.989751 144.02 
L 228.052354 144.02 
L 228.052354 143.62 
L 231.240164 143.62 
L 231.240164 143.22 
L 231.771465 143.22 
L 231.771465 141.62 
L 233.36537 141.62 
L 233.36537 140.82 
L 233.896671 140.82 
L 233.896671 140.02 
L 234.427973 140.02 
L 234.427973 139.62 
L 234.959274 139.62 
L 234.959274 139.22 
L 237.615782 139.22 
L 237.615782 138.82 
L 238.147083 138.82 
L 238.147083 138.02 
L 239.209686 138.02 
L 239.209686 137.62 
L 239.740988 137.62 
L 239.740988 136.82 
L 240.272289 136.82 
L 240.272289 135.62 
L 241.334892 135.62 
L 241.334892 135.22 
L 242.397495 135.22 
L 242.397495 134.82 
L 244.522701 134.82 
L 244.522701 134.02 
L 245.054003 134.02 
L 245.054003 132.82 
L 246.647907 132.82 
L 246.647907 132.02 
L 247.71051 132.02 
L 247.71051 131.62 
L 248.241812 131.62 
L 248.241812 131.22 
L 249.304415 131.22 
L 249.304415 130.82 
L 249.835716 130.82 
L 249.835716 129.22 
L 251.429621 129.22 
L 251.429621 128.82 
L 251.960922 128.82 
L 251.960922 128.42 
L 254.086128 128.42 
L 254.086128 127.22 
L 254.61743 127.22 
L 254.61743 126.82 
L 256.211334 126.82 
L 256.211334 126.42 
L 257.805239 126.42 
L 257.805239 124.82 
L 258.33654 124.82 
L 258.33654 124.42 
L 260.993048 124.42 
L 260.993048 124.02 
L 261.524349 124.02 
L 261.524349 123.62 
L 263.649555 123.62 
L 263.649555 122.82 
L 266.837364 122.82 
L 266.837364 122.02 
L 267.368666 122.02 
L 267.368666 120.82 
L 268.431269 120.82 
L 268.431269 120.42 
L 270.556475 120.42 
L 270.556475 118.82 
L 272.150379 118.82 
L 272.150379 118.42 
L 273.744284 118.42 
L 273.744284 118.02 
L 274.275585 118.02 
L 274.275585 117.62 
L 276.932093 117.62 
L 276.932093 117.22 
L 277.994696 117.22 
L 277.994696 116.82 
L 278.525997 116.82 
L 278.525997 116.42 
L 279.5886 116.42 
L 279.5886 115.62 
L 280.119902 115.62 
L 280.119902 115.22 
L 281.182505 115.22 
L 281.182505 114.82 
L 283.839012 114.82 
L 283.839012 114.42 
L 284.901615 114.42 
L 284.901615 114.02 
L 285.964218 114.02 
L 285.964218 113.62 
L 288.089424 113.62 
L 288.089424 113.22 
L 290.21463 113.22 
L 290.21463 112.82 
L 290.745932 112.82 
L 290.745932 112.42 
L 291.277233 112.42 
L 291.277233 111.22 
L 296.058947 111.22 
L 296.058947 110.82 
L 296.590249 110.82 
L 296.590249 110.02 
L 302.434565 110.02 
L 302.434565 109.62 
L 302.965867 109.62 
L 302.965867 108.82 
L 303.497168 108.82 
L 303.497168 107.62 
L 304.02847 107.62 
L 304.02847 107.22 
L 305.091073 107.22 
L 305.091073 106.82 
L 305.622374 106.82 
L 305.622374 105.62 
L 310.404088 105.62 
L 310.404088 105.22 
L 310.935389 105.22 
L 310.935389 104.82 
L 311.466691 104.82 
L 311.466691 103.62 
L 313.060595 103.62 
L 313.060595 101.62 
L 313.591897 101.62 
L 313.591897 101.22 
L 314.123198 101.22 
L 314.123198 100.42 
L 317.842309 100.42 
L 317.842309 100.02 
L 318.904912 100.02 
L 318.904912 98.42 
L 319.436213 98.42 
L 319.436213 98.02 
L 319.967515 98.02 
L 319.967515 97.22 
L 320.498816 97.22 
L 320.498816 96.02 
L 321.030118 96.02 
L 321.030118 95.62 
L 321.561419 95.62 
L 321.561419 94.82 
L 322.092721 94.82 
L 322.092721 94.02 
L 322.624022 94.02 
L 322.624022 92.82 
L 323.686625 92.82 
L 323.686625 92.42 
L 324.217927 92.42 
L 324.217927 92.02 
L 325.811831 92.02 
L 325.811831 91.62 
L 326.343133 91.62 
L 326.343133 90.82 
L 326.874434 90.82 
L 326.874434 90.42 
L 327.405736 90.42 
L 327.405736 90.02 
L 328.468339 90.02 
L 328.468339 89.22 
L 328.99964 89.22 
L 328.99964 87.22 
L 330.593545 87.22 
L 330.593545 86.42 
L 331.124846 86.42 
L 331.124846 86.02 
L 334.312655 86.02 
L 334.312655 85.62 
L 335.375258 85.62 
L 335.375258 85.22 
L 336.969163 85.22 
L 336.969163 84.82 
L 338.563067 84.82 
L 338.563067 84.42 
L 340.688273 84.42 
L 340.688273 83.22 
L 341.219575 83.22 
L 341.219575 82.82 
L 343.344781 82.82 
L 343.344781 82.42 
L 344.407384 82.42 
L 344.407384 82.02 
L 346.001288 82.02 
L 346.001288 81.62 
L 347.063891 81.62 
L 347.063891 81.22 
L 348.657796 81.22 
L 348.657796 80.02 
L 349.189097 80.02 
L 349.189097 79.62 
L 351.314303 79.62 
L 351.314303 79.22 
L 352.908208 79.22 
L 352.908208 78.42 
L 353.439509 78.42 
L 353.439509 75.62 
L 356.096017 75.62 
L 356.096017 75.22 
L 357.689922 75.22 
L 357.689922 74.42 
L 359.815128 74.42 
L 359.815128 74.02 
L 360.877731 74.02 
L 360.877731 73.22 
L 362.471635 73.22 
L 362.471635 72.02 
L 363.002937 72.02 
L 363.002937 71.62 
L 364.06554 71.62 
L 364.06554 71.22 
L 364.596841 71.22 
L 364.596841 70.82 
L 366.190746 70.82 
L 366.190746 70.42 
L 366.722047 70.42 
L 366.722047 69.62 
L 367.253349 69.62 
L 367.253349 69.22 
L 367.78465 69.22 
L 367.78465 68.02 
L 368.315952 68.02 
L 368.315952 67.62 
L 369.378555 67.62 
L 369.378555 66.42 
L 370.441158 66.42 
L 370.441158 65.62 
L 371.503761 65.62 
L 371.503761 65.22 
L 373.097665 65.22 
L 373.097665 64.42 
L 373.628967 64.42 
L 373.628967 64.02 
L 374.69157 64.02 
L 374.69157 63.62 
L 375.222871 63.62 
L 375.222871 62.02 
L 377.348077 62.02 
L 377.348077 60.82 
L 378.941982 60.82 
L 378.941982 60.42 
L 379.473283 60.42 
L 379.473283 60.02 
L 380.535886 60.02 
L 380.535886 58.02 
L 383.723695 58.02 
L 383.723695 57.62 
L 386.380203 57.62 
L 386.380203 57.22 
L 386.911504 57.22 
L 386.911504 56.82 
L 387.442806 56.82 
L 387.442806 55.62 
L 392.224519 55.62 
L 392.224519 54.42 
L 393.287122 54.42 
L 393.287122 54.02 
L 399.131439 54.02 
L 399.131439 53.62 
L 400.194042 53.62 
L 400.194042 53.22 
L 403.381851 53.22 
L 403.381851 52.02 
L 404.975755 52.02 
L 404.975755 51.62 
L 406.038358 51.62 
L 406.038358 51.22 
L 408.694866 51.22 
L 408.694866 50.82 
L 409.226167 50.82 
L 409.226167 50.42 
L 411.351373 50.42 
L 411.351373 50.02 
L 412.413976 50.02 
L 412.413976 49.62 
L 414.539182 49.62 
L 414.539182 49.22 
L 415.070484 49.22 
L 415.070484 48.82 
L 418.258293 48.82 
L 418.258293 48.42 
L 423.571308 48.42 
L 423.571308 48.02 
L 433.134735 48.02 
L 433.134735 47.62 
L 446.417273 47.62 
L 446.417273 47.62 
" clip-path="url(#p759f2c275b)" style="fill: none; stroke: #000000; stroke-width: 1.5; stroke-linecap: square"/>
   </g>
   <g id="line2d_20">
    <path d="M -1 375.742156 
L 10.025537 367.656364 
L 21.215069 359.450303 
L 32.404601 351.244242 
L 43.594132 343.038182 
L 54.783664 334.832121 
L 65.973196 326.626061 
L 77.162727 318.42 
L 88.352259 310.213939 
L 99.541791 302.007879 
L 110.731322 293.801818 
L 121.920854 285.595758 
L 133.110386 277.389697 
L 144.299917 269.183636 
L 155.489449 260.977576 
L 166.678981 252.771515 
L 177.868512 244.565455 
L 189.058044 236.359394 
L 200.247576 228.153333 
L 211.437107 219.947273 
L 222.626639 211.741212 
L 233.816171 203.535152 
L 245.005702 195.329091 
L 256.195234 187.12303 
L 267.384766 178.91697 
L 278.574298 170.710909 
L 289.763829 162.504848 
L 300.953361 154.298788 
L 312.142893 146.092727 
L 323.332424 137.886667 
L 334.521956 129.680606 
L 345.711488 121.474545 
L 356.901019 113.268485 
L 368.090551 105.062424 
L 379.280083 96.856364 
L 390.469614 88.650303 
L 401.659146 80.444242 
L 412.848678 72.238182 
L 424.038209 64.032121 
L 435.227741 55.826061 
L 446.417273 47.62 
L 457.606804 39.413939 
L 468.796336 31.207879 
L 479.985868 23.001818 
L 481 22.258085 
" clip-path="url(#p759f2c275b)" style="fill: none; stroke-dasharray: 5.55,2.4; stroke-dashoffset: 0; stroke: #000000; stroke-width: 1.5"/>
   </g>
   <g id="patch_3">
    <path d="M 58.7 331.96 
L 58.7 34.08 
" style="fill: none; stroke: #000000; stroke-width: 0.8; stroke-linejoin: miter; stroke-linecap: square"/>
   </g>
   <g id="patch_4">
    <path d="M 58.7 331.96 
L 464.88 331.96 
" style="fill: none; stroke: #000000; stroke-width: 0.8; stroke-linejoin: miter; stroke-linecap: square"/>
   </g>
   <g id="text_15">
    <!-- No Tuning, auc: 0.6878 -->
    <g transform="translate(174.932688 28.08) scale(0.168 -0.168)">
     <defs>
      <path id="ArialMT-4e" d="M 488 0 
L 488 4581 
L 1109 4581 
L 3516 984 
L 3516 4581 
L 4097 4581 
L 4097 0 
L 3475 0 
L 1069 3600 
L 1069 0 
L 488 0 
z
" transform="scale(0.015625)"/>
      <path id="ArialMT-6e" d="M 422 0 
L 422 3319 
L 928 3319 
L 928 2847 
Q 1294 3394 1984 3394 
Q 2284 3394 2536 3286 
Q 2788 3178 2913 3003 
Q 3038 2828 3088 2588 
Q 3119 2431 3119 2041 
L 3119 0 
L 2556 0 
L 2556 2019 
Q 2556 2363 2490 2533 
Q 2425 2703 2258 2804 
Q 2091 2906 1866 2906 
Q 1506 2906 1245 2678 
Q 984 2450 984 1813 
L 984 0 
L 422 0 
z
" transform="scale(0.015625)"/>
      <path id="ArialMT-67" d="M 319 -275 
L 866 -356 
Q 900 -609 1056 -725 
Q 1266 -881 1628 -881 
Q 2019 -881 2231 -725 
Q 2444 -569 2519 -288 
Q 2563 -116 2559 434 
Q 2191 0 1641 0 
Q 956 0 581 494 
Q 206 988 206 1678 
Q 206 2153 378 2554 
Q 550 2956 876 3175 
Q 1203 3394 1644 3394 
Q 2231 3394 2613 2919 
L 2613 3319 
L 3131 3319 
L 3131 450 
Q 3131 -325 2973 -648 
Q 2816 -972 2473 -1159 
Q 2131 -1347 1631 -1347 
Q 1038 -1347 672 -1080 
Q 306 -813 319 -275 
z
M 784 1719 
Q 784 1066 1043 766 
Q 1303 466 1694 466 
Q 2081 466 2343 764 
Q 2606 1063 2606 1700 
Q 2606 2309 2336 2618 
Q 2066 2928 1684 2928 
Q 1309 2928 1046 2623 
Q 784 2319 784 1719 
z
" transform="scale(0.015625)"/>
      <path id="ArialMT-2c" d="M 569 0 
L 569 641 
L 1209 641 
L 1209 0 
Q 1209 -353 1084 -570 
Q 959 -788 688 -906 
L 531 -666 
Q 709 -588 793 -436 
Q 878 -284 888 0 
L 569 0 
z
" transform="scale(0.015625)"/>
      <path id="ArialMT-63" d="M 2588 1216 
L 3141 1144 
Q 3050 572 2676 248 
Q 2303 -75 1759 -75 
Q 1078 -75 664 370 
Q 250 816 250 1647 
Q 250 2184 428 2587 
Q 606 2991 970 3192 
Q 1334 3394 1763 3394 
Q 2303 3394 2647 3120 
Q 2991 2847 3088 2344 
L 2541 2259 
Q 2463 2594 2264 2762 
Q 2066 2931 1784 2931 
Q 1359 2931 1093 2626 
Q 828 2322 828 1663 
Q 828 994 1084 691 
Q 1341 388 1753 388 
Q 2084 388 2306 591 
Q 2528 794 2588 1216 
z
" transform="scale(0.015625)"/>
      <path id="ArialMT-3a" d="M 578 2678 
L 578 3319 
L 1219 3319 
L 1219 2678 
L 578 2678 
z
M 578 0 
L 578 641 
L 1219 641 
L 1219 0 
L 578 0 
z
" transform="scale(0.015625)"/>
      <path id="ArialMT-37" d="M 303 3981 
L 303 4522 
L 3269 4522 
L 3269 4084 
Q 2831 3619 2401 2847 
Q 1972 2075 1738 1259 
Q 1569 684 1522 0 
L 944 0 
Q 953 541 1156 1306 
Q 1359 2072 1739 2783 
Q 2119 3494 2547 3981 
L 303 3981 
z
" transform="scale(0.015625)"/>
     </defs>
     <use xlink:href="#ArialMT-4e"/>
     <use xlink:href="#ArialMT-6f" x="72.216797"/>
     <use xlink:href="#ArialMT-20" x="127.832031"/>
     <use xlink:href="#ArialMT-54" x="153.865234"/>
     <use xlink:href="#ArialMT-75" x="211.199219"/>
     <use xlink:href="#ArialMT-6e" x="266.814453"/>
     <use xlink:href="#ArialMT-69" x="322.429688"/>
     <use xlink:href="#ArialMT-6e" x="344.646484"/>
     <use xlink:href="#ArialMT-67" x="400.261719"/>
     <use xlink:href="#ArialMT-2c" x="455.876953"/>
     <use xlink:href="#ArialMT-20" x="483.660156"/>
     <use xlink:href="#ArialMT-61" x="511.443359"/>
     <use xlink:href="#ArialMT-75" x="567.058594"/>
     <use xlink:href="#ArialMT-63" x="622.673828"/>
     <use xlink:href="#ArialMT-3a" x="672.673828"/>
     <use xlink:href="#ArialMT-20" x="700.457031"/>
     <use xlink:href="#ArialMT-30" x="728.240234"/>
     <use xlink:href="#ArialMT-2e" x="783.855469"/>
     <use xlink:href="#ArialMT-36" x="811.638672"/>
     <use xlink:href="#ArialMT-38" x="867.253906"/>
     <use xlink:href="#ArialMT-37" x="922.869141"/>
     <use xlink:href="#ArialMT-38" x="978.484375"/>
    </g>
   </g>
   <g id="legend_1">
    <g id="patch_5">
     <path d="M 346.470625 324.96 
L 455.08 324.96 
Q 457.88 324.96 457.88 322.16 
L 457.88 184.935938 
Q 457.88 182.135938 455.08 182.135938 
L 346.470625 182.135938 
Q 343.670625 182.135938 343.670625 184.935938 
L 343.670625 322.16 
Q 343.670625 324.96 346.470625 324.96 
z
" style="fill: #ffffff; opacity: 0.8; stroke: #cccccc; stroke-linejoin: miter"/>
    </g>
    <g id="line2d_21">
     <path d="M 349.270625 192.856875 
L 363.270625 192.856875 
L 377.270625 192.856875 
" style="fill: none; stroke: #1f77b4; stroke-opacity: 0.66; stroke-width: 1.5; stroke-linecap: square"/>
    </g>
    <g id="text_16">
     <!-- 003 -->
     <g transform="translate(388.470625 197.756875) scale(0.14 -0.14)">
      <defs>
       <path id="ArialMT-33" d="M 269 1209 
L 831 1284 
Q 928 806 1161 595 
Q 1394 384 1728 384 
Q 2125 384 2398 659 
Q 2672 934 2672 1341 
Q 2672 1728 2419 1979 
Q 2166 2231 1775 2231 
Q 1616 2231 1378 2169 
L 1441 2663 
Q 1497 2656 1531 2656 
Q 1891 2656 2178 2843 
Q 2466 3031 2466 3422 
Q 2466 3731 2256 3934 
Q 2047 4138 1716 4138 
Q 1388 4138 1169 3931 
Q 950 3725 888 3313 
L 325 3413 
Q 428 3978 793 4289 
Q 1159 4600 1703 4600 
Q 2078 4600 2393 4439 
Q 2709 4278 2876 4000 
Q 3044 3722 3044 3409 
Q 3044 3113 2884 2869 
Q 2725 2625 2413 2481 
Q 2819 2388 3044 2092 
Q 3269 1797 3269 1353 
Q 3269 753 2831 336 
Q 2394 -81 1725 -81 
Q 1122 -81 723 278 
Q 325 638 269 1209 
z
" transform="scale(0.015625)"/>
      </defs>
      <use xlink:href="#ArialMT-30"/>
      <use xlink:href="#ArialMT-30" x="55.615234"/>
      <use xlink:href="#ArialMT-33" x="111.230469"/>
     </g>
    </g>
    <g id="line2d_22">
     <path d="M 349.270625 212.660313 
L 363.270625 212.660313 
L 377.270625 212.660313 
" style="fill: none; stroke: #ff7f0e; stroke-opacity: 0.66; stroke-width: 1.5; stroke-linecap: square"/>
    </g>
    <g id="text_17">
     <!-- 007 -->
     <g transform="translate(388.470625 217.560313) scale(0.14 -0.14)">
      <use xlink:href="#ArialMT-30"/>
      <use xlink:href="#ArialMT-30" x="55.615234"/>
      <use xlink:href="#ArialMT-37" x="111.230469"/>
     </g>
    </g>
    <g id="line2d_23">
     <path d="M 349.270625 232.46375 
L 363.270625 232.46375 
L 377.270625 232.46375 
" style="fill: none; stroke: #2ca02c; stroke-opacity: 0.66; stroke-width: 1.5; stroke-linecap: square"/>
    </g>
    <g id="text_18">
     <!-- 011 -->
     <g transform="translate(388.470625 237.36375) scale(0.14 -0.14)">
      <use xlink:href="#ArialMT-30"/>
      <use xlink:href="#ArialMT-31" x="55.615234"/>
      <use xlink:href="#ArialMT-31" x="103.855469"/>
     </g>
    </g>
    <g id="line2d_24">
     <path d="M 349.270625 252.267188 
L 363.270625 252.267188 
L 377.270625 252.267188 
" style="fill: none; stroke: #d62728; stroke-opacity: 0.66; stroke-width: 1.5; stroke-linecap: square"/>
    </g>
    <g id="text_19">
     <!-- 015 -->
     <g transform="translate(388.470625 257.167188) scale(0.14 -0.14)">
      <defs>
       <path id="ArialMT-35" d="M 266 1200 
L 856 1250 
Q 922 819 1161 601 
Q 1400 384 1738 384 
Q 2144 384 2425 690 
Q 2706 997 2706 1503 
Q 2706 1984 2436 2262 
Q 2166 2541 1728 2541 
Q 1456 2541 1237 2417 
Q 1019 2294 894 2097 
L 366 2166 
L 809 4519 
L 3088 4519 
L 3088 3981 
L 1259 3981 
L 1013 2750 
Q 1425 3038 1878 3038 
Q 2478 3038 2890 2622 
Q 3303 2206 3303 1553 
Q 3303 931 2941 478 
Q 2500 -78 1738 -78 
Q 1113 -78 717 272 
Q 322 622 266 1200 
z
" transform="scale(0.015625)"/>
      </defs>
      <use xlink:href="#ArialMT-30"/>
      <use xlink:href="#ArialMT-31" x="55.615234"/>
      <use xlink:href="#ArialMT-35" x="111.230469"/>
     </g>
    </g>
    <g id="line2d_25">
     <path d="M 349.270625 272.070625 
L 363.270625 272.070625 
L 377.270625 272.070625 
" style="fill: none; stroke: #9467bd; stroke-opacity: 0.66; stroke-width: 1.5; stroke-linecap: square"/>
    </g>
    <g id="text_20">
     <!-- 033 -->
     <g transform="translate(388.470625 276.970625) scale(0.14 -0.14)">
      <use xlink:href="#ArialMT-30"/>
      <use xlink:href="#ArialMT-33" x="55.615234"/>
      <use xlink:href="#ArialMT-33" x="111.230469"/>
     </g>
    </g>
    <g id="line2d_26">
     <path d="M 349.270625 291.874063 
L 363.270625 291.874063 
L 377.270625 291.874063 
" style="fill: none; stroke: #8c564b; stroke-opacity: 0.66; stroke-width: 1.5; stroke-linecap: square"/>
    </g>
    <g id="text_21">
     <!-- 043 -->
     <g transform="translate(388.470625 296.774063) scale(0.14 -0.14)">
      <use xlink:href="#ArialMT-30"/>
      <use xlink:href="#ArialMT-34" x="55.615234"/>
      <use xlink:href="#ArialMT-33" x="111.230469"/>
     </g>
    </g>
    <g id="line2d_27">
     <path d="M 349.270625 311.6775 
L 363.270625 311.6775 
L 377.270625 311.6775 
" style="fill: none; stroke: #000000; stroke-width: 1.5; stroke-linecap: square"/>
    </g>
    <g id="text_22">
     <!-- Combined -->
     <g transform="translate(388.470625 316.5775) scale(0.14 -0.14)">
      <defs>
       <path id="ArialMT-43" d="M 3763 1606 
L 4369 1453 
Q 4178 706 3683 314 
Q 3188 -78 2472 -78 
Q 1731 -78 1267 223 
Q 803 525 561 1097 
Q 319 1669 319 2325 
Q 319 3041 592 3573 
Q 866 4106 1370 4382 
Q 1875 4659 2481 4659 
Q 3169 4659 3637 4309 
Q 4106 3959 4291 3325 
L 3694 3184 
Q 3534 3684 3231 3912 
Q 2928 4141 2469 4141 
Q 1941 4141 1586 3887 
Q 1231 3634 1087 3207 
Q 944 2781 944 2328 
Q 944 1744 1114 1308 
Q 1284 872 1643 656 
Q 2003 441 2422 441 
Q 2931 441 3284 734 
Q 3638 1028 3763 1606 
z
" transform="scale(0.015625)"/>
       <path id="ArialMT-6d" d="M 422 0 
L 422 3319 
L 925 3319 
L 925 2853 
Q 1081 3097 1340 3245 
Q 1600 3394 1931 3394 
Q 2300 3394 2536 3241 
Q 2772 3088 2869 2813 
Q 3263 3394 3894 3394 
Q 4388 3394 4653 3120 
Q 4919 2847 4919 2278 
L 4919 0 
L 4359 0 
L 4359 2091 
Q 4359 2428 4304 2576 
Q 4250 2725 4106 2815 
Q 3963 2906 3769 2906 
Q 3419 2906 3187 2673 
Q 2956 2441 2956 1928 
L 2956 0 
L 2394 0 
L 2394 2156 
Q 2394 2531 2256 2718 
Q 2119 2906 1806 2906 
Q 1569 2906 1367 2781 
Q 1166 2656 1075 2415 
Q 984 2175 984 1722 
L 984 0 
L 422 0 
z
" transform="scale(0.015625)"/>
       <path id="ArialMT-62" d="M 941 0 
L 419 0 
L 419 4581 
L 981 4581 
L 981 2947 
Q 1338 3394 1891 3394 
Q 2197 3394 2470 3270 
Q 2744 3147 2920 2923 
Q 3097 2700 3197 2384 
Q 3297 2069 3297 1709 
Q 3297 856 2875 390 
Q 2453 -75 1863 -75 
Q 1275 -75 941 416 
L 941 0 
z
M 934 1684 
Q 934 1088 1097 822 
Q 1363 388 1816 388 
Q 2184 388 2453 708 
Q 2722 1028 2722 1663 
Q 2722 2313 2464 2622 
Q 2206 2931 1841 2931 
Q 1472 2931 1203 2611 
Q 934 2291 934 1684 
z
" transform="scale(0.015625)"/>
       <path id="ArialMT-64" d="M 2575 0 
L 2575 419 
Q 2259 -75 1647 -75 
Q 1250 -75 917 144 
Q 584 363 401 755 
Q 219 1147 219 1656 
Q 219 2153 384 2558 
Q 550 2963 881 3178 
Q 1213 3394 1622 3394 
Q 1922 3394 2156 3267 
Q 2391 3141 2538 2938 
L 2538 4581 
L 3097 4581 
L 3097 0 
L 2575 0 
z
M 797 1656 
Q 797 1019 1065 703 
Q 1334 388 1700 388 
Q 2069 388 2326 689 
Q 2584 991 2584 1609 
Q 2584 2291 2321 2609 
Q 2059 2928 1675 2928 
Q 1300 2928 1048 2622 
Q 797 2316 797 1656 
z
" transform="scale(0.015625)"/>
      </defs>
      <use xlink:href="#ArialMT-43"/>
      <use xlink:href="#ArialMT-6f" x="72.216797"/>
      <use xlink:href="#ArialMT-6d" x="127.832031"/>
      <use xlink:href="#ArialMT-62" x="211.132812"/>
      <use xlink:href="#ArialMT-69" x="266.748047"/>
      <use xlink:href="#ArialMT-6e" x="288.964844"/>
      <use xlink:href="#ArialMT-65" x="344.580078"/>
      <use xlink:href="#ArialMT-64" x="400.195312"/>
     </g>
    </g>
   </g>
  </g>
 </g>
 <defs>
  <clipPath id="p759f2c275b">
   <rect x="58.7" y="34.08" width="406.18" height="297.88"/>
  </clipPath>
 </defs>
</svg>
