<?xml version="1.0" encoding="utf-8" standalone="no"?>
<!DOCTYPE svg PUBLIC "-//W3C//DTD SVG 1.1//EN"
  "http://www.w3.org/Graphics/SVG/1.1/DTD/svg11.dtd">
<svg xmlns:xlink="http://www.w3.org/1999/xlink" width="480pt" height="384pt" viewBox="0 0 480 384" xmlns="http://www.w3.org/2000/svg" version="1.1">
 <metadata>
  <rdf:RDF xmlns:dc="http://purl.org/dc/elements/1.1/" xmlns:cc="http://creativecommons.org/ns#" xmlns:rdf="http://www.w3.org/1999/02/22-rdf-syntax-ns#">
   <cc:Work>
    <dc:type rdf:resource="http://purl.org/dc/dcmitype/StillImage"/>
    <dc:date>2024-02-27T18:35:56.602401</dc:date>
    <dc:format>image/svg+xml</dc:format>
    <dc:creator>
     <cc:Agent>
      <dc:title>Matplotlib v3.8.0, https://matplotlib.org/</dc:title>
     </cc:Agent>
    </dc:creator>
   </cc:Work>
  </rdf:RDF>
 </metadata>
 <defs>
  <style type="text/css">*{stroke-linejoin: round; stroke-linecap: butt}</style>
 </defs>
 <g id="figure_1">
  <g id="patch_1">
   <path d="M 0 384 
L 480 384 
L 480 0 
L 0 0 
z
" style="fill: #ffffff"/>
  </g>
  <g id="axes_1">
   <g id="patch_2">
    <path d="M 62.12 330.52 
L 464.88 330.52 
L 464.88 34.08 
L 62.12 34.08 
z
" style="fill: #ffffff"/>
   </g>
   <g id="PathCollection_1">
    <defs>
     <path id="mdf0a850154" d="M 0 4.031129 
C 1.069068 4.031129 2.094493 3.606384 2.850439 2.850439 
C 3.606384 2.094493 4.031129 1.069068 4.031129 0 
C 4.031129 -1.069068 3.606384 -2.094493 2.850439 -2.850439 
C 2.094493 -3.606384 1.069068 -4.031129 0 -4.031129 
C -1.069068 -4.031129 -2.094493 -3.606384 -2.850439 -2.850439 
C -3.606384 -2.094493 -4.031129 -1.069068 -4.031129 0 
C -4.031129 1.069068 -3.606384 2.094493 -2.850439 2.850439 
C -2.094493 3.606384 -1.069068 4.031129 0 4.031129 
z
" style="stroke: #ff0000"/>
    </defs>
    <g clip-path="url(#p22b4edbe4e)">
     <use xlink:href="#mdf0a850154" x="217.402551" y="145.87693" style="fill: #ff0000; stroke: #ff0000"/>
    </g>
   </g>
   <g id="matplotlib.axis_1">
    <g id="xtick_1">
     <g id="line2d_1">
      <defs>
       <path id="m7de12b55a2" d="M 0 0 
L 0 3.5 
" style="stroke: #000000; stroke-width: 0.8"/>
      </defs>
      <g>
       <use xlink:href="#m7de12b55a2" x="80.427273" y="330.52" style="stroke: #000000; stroke-width: 0.8"/>
      </g>
     </g>
     <g id="text_1">
      <!-- 0.0 -->
      <g transform="translate(69.295085 348.157812) scale(0.14 -0.14)">
       <defs>
        <path id="DejaVuSans-30" d="M 2034 4250 
Q 1547 4250 1301 3770 
Q 1056 3291 1056 2328 
Q 1056 1369 1301 889 
Q 1547 409 2034 409 
Q 2525 409 2770 889 
Q 3016 1369 3016 2328 
Q 3016 3291 2770 3770 
Q 2525 4250 2034 4250 
z
M 2034 4750 
Q 2819 4750 3233 4129 
Q 3647 3509 3647 2328 
Q 3647 1150 3233 529 
Q 2819 -91 2034 -91 
Q 1250 -91 836 529 
Q 422 1150 422 2328 
Q 422 3509 836 4129 
Q 1250 4750 2034 4750 
z
" transform="scale(0.015625)"/>
        <path id="DejaVuSans-2e" d="M 684 794 
L 1344 794 
L 1344 0 
L 684 0 
L 684 794 
z
" transform="scale(0.015625)"/>
       </defs>
       <use xlink:href="#DejaVuSans-30"/>
       <use xlink:href="#DejaVuSans-2e" x="63.623047"/>
       <use xlink:href="#DejaVuSans-30" x="95.410156"/>
      </g>
     </g>
    </g>
    <g id="xtick_2">
     <g id="line2d_2">
      <g>
       <use xlink:href="#m7de12b55a2" x="153.656364" y="330.52" style="stroke: #000000; stroke-width: 0.8"/>
      </g>
     </g>
     <g id="text_2">
      <!-- 0.2 -->
      <g transform="translate(142.524176 348.157812) scale(0.14 -0.14)">
       <defs>
        <path id="DejaVuSans-32" d="M 1228 531 
L 3431 531 
L 3431 0 
L 469 0 
L 469 531 
Q 828 903 1448 1529 
Q 2069 2156 2228 2338 
Q 2531 2678 2651 2914 
Q 2772 3150 2772 3378 
Q 2772 3750 2511 3984 
Q 2250 4219 1831 4219 
Q 1534 4219 1204 4116 
Q 875 4013 500 3803 
L 500 4441 
Q 881 4594 1212 4672 
Q 1544 4750 1819 4750 
Q 2544 4750 2975 4387 
Q 3406 4025 3406 3419 
Q 3406 3131 3298 2873 
Q 3191 2616 2906 2266 
Q 2828 2175 2409 1742 
Q 1991 1309 1228 531 
z
" transform="scale(0.015625)"/>
       </defs>
       <use xlink:href="#DejaVuSans-30"/>
       <use xlink:href="#DejaVuSans-2e" x="63.623047"/>
       <use xlink:href="#DejaVuSans-32" x="95.410156"/>
      </g>
     </g>
    </g>
    <g id="xtick_3">
     <g id="line2d_3">
      <g>
       <use xlink:href="#m7de12b55a2" x="226.885455" y="330.52" style="stroke: #000000; stroke-width: 0.8"/>
      </g>
     </g>
     <g id="text_3">
      <!-- 0.4 -->
      <g transform="translate(215.753267 348.157812) scale(0.14 -0.14)">
       <defs>
        <path id="DejaVuSans-34" d="M 2419 4116 
L 825 1625 
L 2419 1625 
L 2419 4116 
z
M 2253 4666 
L 3047 4666 
L 3047 1625 
L 3713 1625 
L 3713 1100 
L 3047 1100 
L 3047 0 
L 2419 0 
L 2419 1100 
L 313 1100 
L 313 1709 
L 2253 4666 
z
" transform="scale(0.015625)"/>
       </defs>
       <use xlink:href="#DejaVuSans-30"/>
       <use xlink:href="#DejaVuSans-2e" x="63.623047"/>
       <use xlink:href="#DejaVuSans-34" x="95.410156"/>
      </g>
     </g>
    </g>
    <g id="xtick_4">
     <g id="line2d_4">
      <g>
       <use xlink:href="#m7de12b55a2" x="300.114545" y="330.52" style="stroke: #000000; stroke-width: 0.8"/>
      </g>
     </g>
     <g id="text_4">
      <!-- 0.6 -->
      <g transform="translate(288.982358 348.157812) scale(0.14 -0.14)">
       <defs>
        <path id="DejaVuSans-36" d="M 2113 2584 
Q 1688 2584 1439 2293 
Q 1191 2003 1191 1497 
Q 1191 994 1439 701 
Q 1688 409 2113 409 
Q 2538 409 2786 701 
Q 3034 994 3034 1497 
Q 3034 2003 2786 2293 
Q 2538 2584 2113 2584 
z
M 3366 4563 
L 3366 3988 
Q 3128 4100 2886 4159 
Q 2644 4219 2406 4219 
Q 1781 4219 1451 3797 
Q 1122 3375 1075 2522 
Q 1259 2794 1537 2939 
Q 1816 3084 2150 3084 
Q 2853 3084 3261 2657 
Q 3669 2231 3669 1497 
Q 3669 778 3244 343 
Q 2819 -91 2113 -91 
Q 1303 -91 875 529 
Q 447 1150 447 2328 
Q 447 3434 972 4092 
Q 1497 4750 2381 4750 
Q 2619 4750 2861 4703 
Q 3103 4656 3366 4563 
z
" transform="scale(0.015625)"/>
       </defs>
       <use xlink:href="#DejaVuSans-30"/>
       <use xlink:href="#DejaVuSans-2e" x="63.623047"/>
       <use xlink:href="#DejaVuSans-36" x="95.410156"/>
      </g>
     </g>
    </g>
    <g id="xtick_5">
     <g id="line2d_5">
      <g>
       <use xlink:href="#m7de12b55a2" x="373.343636" y="330.52" style="stroke: #000000; stroke-width: 0.8"/>
      </g>
     </g>
     <g id="text_5">
      <!-- 0.8 -->
      <g transform="translate(362.211449 348.157812) scale(0.14 -0.14)">
       <defs>
        <path id="DejaVuSans-38" d="M 2034 2216 
Q 1584 2216 1326 1975 
Q 1069 1734 1069 1313 
Q 1069 891 1326 650 
Q 1584 409 2034 409 
Q 2484 409 2743 651 
Q 3003 894 3003 1313 
Q 3003 1734 2745 1975 
Q 2488 2216 2034 2216 
z
M 1403 2484 
Q 997 2584 770 2862 
Q 544 3141 544 3541 
Q 544 4100 942 4425 
Q 1341 4750 2034 4750 
Q 2731 4750 3128 4425 
Q 3525 4100 3525 3541 
Q 3525 3141 3298 2862 
Q 3072 2584 2669 2484 
Q 3125 2378 3379 2068 
Q 3634 1759 3634 1313 
Q 3634 634 3220 271 
Q 2806 -91 2034 -91 
Q 1263 -91 848 271 
Q 434 634 434 1313 
Q 434 1759 690 2068 
Q 947 2378 1403 2484 
z
M 1172 3481 
Q 1172 3119 1398 2916 
Q 1625 2713 2034 2713 
Q 2441 2713 2670 2916 
Q 2900 3119 2900 3481 
Q 2900 3844 2670 4047 
Q 2441 4250 2034 4250 
Q 1625 4250 1398 4047 
Q 1172 3844 1172 3481 
z
" transform="scale(0.015625)"/>
       </defs>
       <use xlink:href="#DejaVuSans-30"/>
       <use xlink:href="#DejaVuSans-2e" x="63.623047"/>
       <use xlink:href="#DejaVuSans-38" x="95.410156"/>
      </g>
     </g>
    </g>
    <g id="xtick_6">
     <g id="line2d_6">
      <g>
       <use xlink:href="#m7de12b55a2" x="446.572727" y="330.52" style="stroke: #000000; stroke-width: 0.8"/>
      </g>
     </g>
     <g id="text_6">
      <!-- 1.0 -->
      <g transform="translate(435.44054 348.157812) scale(0.14 -0.14)">
       <defs>
        <path id="DejaVuSans-31" d="M 794 531 
L 1825 531 
L 1825 4091 
L 703 3866 
L 703 4441 
L 1819 4666 
L 2450 4666 
L 2450 531 
L 3481 531 
L 3481 0 
L 794 0 
L 794 531 
z
" transform="scale(0.015625)"/>
       </defs>
       <use xlink:href="#DejaVuSans-31"/>
       <use xlink:href="#DejaVuSans-2e" x="63.623047"/>
       <use xlink:href="#DejaVuSans-30" x="95.410156"/>
      </g>
     </g>
    </g>
    <g id="text_7">
     <!-- False Positive Rate -->
     <g transform="translate(198.447031 365.707187) scale(0.14 -0.14)">
      <defs>
       <path id="DejaVuSans-46" d="M 628 4666 
L 3309 4666 
L 3309 4134 
L 1259 4134 
L 1259 2759 
L 3109 2759 
L 3109 2228 
L 1259 2228 
L 1259 0 
L 628 0 
L 628 4666 
z
" transform="scale(0.015625)"/>
       <path id="DejaVuSans-61" d="M 2194 1759 
Q 1497 1759 1228 1600 
Q 959 1441 959 1056 
Q 959 750 1161 570 
Q 1363 391 1709 391 
Q 2188 391 2477 730 
Q 2766 1069 2766 1631 
L 2766 1759 
L 2194 1759 
z
M 3341 1997 
L 3341 0 
L 2766 0 
L 2766 531 
Q 2569 213 2275 61 
Q 1981 -91 1556 -91 
Q 1019 -91 701 211 
Q 384 513 384 1019 
Q 384 1609 779 1909 
Q 1175 2209 1959 2209 
L 2766 2209 
L 2766 2266 
Q 2766 2663 2505 2880 
Q 2244 3097 1772 3097 
Q 1472 3097 1187 3025 
Q 903 2953 641 2809 
L 641 3341 
Q 956 3463 1253 3523 
Q 1550 3584 1831 3584 
Q 2591 3584 2966 3190 
Q 3341 2797 3341 1997 
z
" transform="scale(0.015625)"/>
       <path id="DejaVuSans-6c" d="M 603 4863 
L 1178 4863 
L 1178 0 
L 603 0 
L 603 4863 
z
" transform="scale(0.015625)"/>
       <path id="DejaVuSans-73" d="M 2834 3397 
L 2834 2853 
Q 2591 2978 2328 3040 
Q 2066 3103 1784 3103 
Q 1356 3103 1142 2972 
Q 928 2841 928 2578 
Q 928 2378 1081 2264 
Q 1234 2150 1697 2047 
L 1894 2003 
Q 2506 1872 2764 1633 
Q 3022 1394 3022 966 
Q 3022 478 2636 193 
Q 2250 -91 1575 -91 
Q 1294 -91 989 -36 
Q 684 19 347 128 
L 347 722 
Q 666 556 975 473 
Q 1284 391 1588 391 
Q 1994 391 2212 530 
Q 2431 669 2431 922 
Q 2431 1156 2273 1281 
Q 2116 1406 1581 1522 
L 1381 1569 
Q 847 1681 609 1914 
Q 372 2147 372 2553 
Q 372 3047 722 3315 
Q 1072 3584 1716 3584 
Q 2034 3584 2315 3537 
Q 2597 3491 2834 3397 
z
" transform="scale(0.015625)"/>
       <path id="DejaVuSans-65" d="M 3597 1894 
L 3597 1613 
L 953 1613 
Q 991 1019 1311 708 
Q 1631 397 2203 397 
Q 2534 397 2845 478 
Q 3156 559 3463 722 
L 3463 178 
Q 3153 47 2828 -22 
Q 2503 -91 2169 -91 
Q 1331 -91 842 396 
Q 353 884 353 1716 
Q 353 2575 817 3079 
Q 1281 3584 2069 3584 
Q 2775 3584 3186 3129 
Q 3597 2675 3597 1894 
z
M 3022 2063 
Q 3016 2534 2758 2815 
Q 2500 3097 2075 3097 
Q 1594 3097 1305 2825 
Q 1016 2553 972 2059 
L 3022 2063 
z
" transform="scale(0.015625)"/>
       <path id="DejaVuSans-20" transform="scale(0.015625)"/>
       <path id="DejaVuSans-50" d="M 1259 4147 
L 1259 2394 
L 2053 2394 
Q 2494 2394 2734 2622 
Q 2975 2850 2975 3272 
Q 2975 3691 2734 3919 
Q 2494 4147 2053 4147 
L 1259 4147 
z
M 628 4666 
L 2053 4666 
Q 2838 4666 3239 4311 
Q 3641 3956 3641 3272 
Q 3641 2581 3239 2228 
Q 2838 1875 2053 1875 
L 1259 1875 
L 1259 0 
L 628 0 
L 628 4666 
z
" transform="scale(0.015625)"/>
       <path id="DejaVuSans-6f" d="M 1959 3097 
Q 1497 3097 1228 2736 
Q 959 2375 959 1747 
Q 959 1119 1226 758 
Q 1494 397 1959 397 
Q 2419 397 2687 759 
Q 2956 1122 2956 1747 
Q 2956 2369 2687 2733 
Q 2419 3097 1959 3097 
z
M 1959 3584 
Q 2709 3584 3137 3096 
Q 3566 2609 3566 1747 
Q 3566 888 3137 398 
Q 2709 -91 1959 -91 
Q 1206 -91 779 398 
Q 353 888 353 1747 
Q 353 2609 779 3096 
Q 1206 3584 1959 3584 
z
" transform="scale(0.015625)"/>
       <path id="DejaVuSans-69" d="M 603 3500 
L 1178 3500 
L 1178 0 
L 603 0 
L 603 3500 
z
M 603 4863 
L 1178 4863 
L 1178 4134 
L 603 4134 
L 603 4863 
z
" transform="scale(0.015625)"/>
       <path id="DejaVuSans-74" d="M 1172 4494 
L 1172 3500 
L 2356 3500 
L 2356 3053 
L 1172 3053 
L 1172 1153 
Q 1172 725 1289 603 
Q 1406 481 1766 481 
L 2356 481 
L 2356 0 
L 1766 0 
Q 1100 0 847 248 
Q 594 497 594 1153 
L 594 3053 
L 172 3053 
L 172 3500 
L 594 3500 
L 594 4494 
L 1172 4494 
z
" transform="scale(0.015625)"/>
       <path id="DejaVuSans-76" d="M 191 3500 
L 800 3500 
L 1894 563 
L 2988 3500 
L 3597 3500 
L 2284 0 
L 1503 0 
L 191 3500 
z
" transform="scale(0.015625)"/>
       <path id="DejaVuSans-52" d="M 2841 2188 
Q 3044 2119 3236 1894 
Q 3428 1669 3622 1275 
L 4263 0 
L 3584 0 
L 2988 1197 
Q 2756 1666 2539 1819 
Q 2322 1972 1947 1972 
L 1259 1972 
L 1259 0 
L 628 0 
L 628 4666 
L 2053 4666 
Q 2853 4666 3247 4331 
Q 3641 3997 3641 3322 
Q 3641 2881 3436 2590 
Q 3231 2300 2841 2188 
z
M 1259 4147 
L 1259 2491 
L 2053 2491 
Q 2509 2491 2742 2702 
Q 2975 2913 2975 3322 
Q 2975 3731 2742 3939 
Q 2509 4147 2053 4147 
L 1259 4147 
z
" transform="scale(0.015625)"/>
      </defs>
      <use xlink:href="#DejaVuSans-46"/>
      <use xlink:href="#DejaVuSans-61" x="48.394531"/>
      <use xlink:href="#DejaVuSans-6c" x="109.673828"/>
      <use xlink:href="#DejaVuSans-73" x="137.457031"/>
      <use xlink:href="#DejaVuSans-65" x="189.556641"/>
      <use xlink:href="#DejaVuSans-20" x="251.080078"/>
      <use xlink:href="#DejaVuSans-50" x="282.867188"/>
      <use xlink:href="#DejaVuSans-6f" x="339.544922"/>
      <use xlink:href="#DejaVuSans-73" x="400.726562"/>
      <use xlink:href="#DejaVuSans-69" x="452.826172"/>
      <use xlink:href="#DejaVuSans-74" x="480.609375"/>
      <use xlink:href="#DejaVuSans-69" x="519.818359"/>
      <use xlink:href="#DejaVuSans-76" x="547.601562"/>
      <use xlink:href="#DejaVuSans-65" x="606.78125"/>
      <use xlink:href="#DejaVuSans-20" x="668.304688"/>
      <use xlink:href="#DejaVuSans-52" x="700.091797"/>
      <use xlink:href="#DejaVuSans-61" x="767.324219"/>
      <use xlink:href="#DejaVuSans-74" x="828.603516"/>
      <use xlink:href="#DejaVuSans-65" x="867.8125"/>
     </g>
    </g>
   </g>
   <g id="matplotlib.axis_2">
    <g id="ytick_1">
     <g id="line2d_7">
      <defs>
       <path id="m78077280ee" d="M 0 0 
L -3.5 0 
" style="stroke: #000000; stroke-width: 0.8"/>
      </defs>
      <g>
       <use xlink:href="#m78077280ee" x="62.12" y="317.045455" style="stroke: #000000; stroke-width: 0.8"/>
      </g>
     </g>
     <g id="text_8">
      <!-- 0.0 -->
      <g transform="translate(32.855625 322.364361) scale(0.14 -0.14)">
       <use xlink:href="#DejaVuSans-30"/>
       <use xlink:href="#DejaVuSans-2e" x="63.623047"/>
       <use xlink:href="#DejaVuSans-30" x="95.410156"/>
      </g>
     </g>
    </g>
    <g id="ytick_2">
     <g id="line2d_8">
      <g>
       <use xlink:href="#m78077280ee" x="62.12" y="263.147273" style="stroke: #000000; stroke-width: 0.8"/>
      </g>
     </g>
     <g id="text_9">
      <!-- 0.2 -->
      <g transform="translate(32.855625 268.466179) scale(0.14 -0.14)">
       <use xlink:href="#DejaVuSans-30"/>
       <use xlink:href="#DejaVuSans-2e" x="63.623047"/>
       <use xlink:href="#DejaVuSans-32" x="95.410156"/>
      </g>
     </g>
    </g>
    <g id="ytick_3">
     <g id="line2d_9">
      <g>
       <use xlink:href="#m78077280ee" x="62.12" y="209.249091" style="stroke: #000000; stroke-width: 0.8"/>
      </g>
     </g>
     <g id="text_10">
      <!-- 0.4 -->
      <g transform="translate(32.855625 214.567997) scale(0.14 -0.14)">
       <use xlink:href="#DejaVuSans-30"/>
       <use xlink:href="#DejaVuSans-2e" x="63.623047"/>
       <use xlink:href="#DejaVuSans-34" x="95.410156"/>
      </g>
     </g>
    </g>
    <g id="ytick_4">
     <g id="line2d_10">
      <g>
       <use xlink:href="#m78077280ee" x="62.12" y="155.350909" style="stroke: #000000; stroke-width: 0.8"/>
      </g>
     </g>
     <g id="text_11">
      <!-- 0.6 -->
      <g transform="translate(32.855625 160.669815) scale(0.14 -0.14)">
       <use xlink:href="#DejaVuSans-30"/>
       <use xlink:href="#DejaVuSans-2e" x="63.623047"/>
       <use xlink:href="#DejaVuSans-36" x="95.410156"/>
      </g>
     </g>
    </g>
    <g id="ytick_5">
     <g id="line2d_11">
      <g>
       <use xlink:href="#m78077280ee" x="62.12" y="101.452727" style="stroke: #000000; stroke-width: 0.8"/>
      </g>
     </g>
     <g id="text_12">
      <!-- 0.8 -->
      <g transform="translate(32.855625 106.771634) scale(0.14 -0.14)">
       <use xlink:href="#DejaVuSans-30"/>
       <use xlink:href="#DejaVuSans-2e" x="63.623047"/>
       <use xlink:href="#DejaVuSans-38" x="95.410156"/>
      </g>
     </g>
    </g>
    <g id="ytick_6">
     <g id="line2d_12">
      <g>
       <use xlink:href="#m78077280ee" x="62.12" y="47.554545" style="stroke: #000000; stroke-width: 0.8"/>
      </g>
     </g>
     <g id="text_13">
      <!-- 1.0 -->
      <g transform="translate(32.855625 52.873452) scale(0.14 -0.14)">
       <use xlink:href="#DejaVuSans-31"/>
       <use xlink:href="#DejaVuSans-2e" x="63.623047"/>
       <use xlink:href="#DejaVuSans-30" x="95.410156"/>
      </g>
     </g>
    </g>
    <g id="text_14">
     <!-- True Positive Rate -->
     <g transform="translate(25.944063 244.641563) rotate(-90) scale(0.14 -0.14)">
      <defs>
       <path id="DejaVuSans-54" d="M -19 4666 
L 3928 4666 
L 3928 4134 
L 2272 4134 
L 2272 0 
L 1638 0 
L 1638 4134 
L -19 4134 
L -19 4666 
z
" transform="scale(0.015625)"/>
       <path id="DejaVuSans-72" d="M 2631 2963 
Q 2534 3019 2420 3045 
Q 2306 3072 2169 3072 
Q 1681 3072 1420 2755 
Q 1159 2438 1159 1844 
L 1159 0 
L 581 0 
L 581 3500 
L 1159 3500 
L 1159 2956 
Q 1341 3275 1631 3429 
Q 1922 3584 2338 3584 
Q 2397 3584 2469 3576 
Q 2541 3569 2628 3553 
L 2631 2963 
z
" transform="scale(0.015625)"/>
       <path id="DejaVuSans-75" d="M 544 1381 
L 544 3500 
L 1119 3500 
L 1119 1403 
Q 1119 906 1312 657 
Q 1506 409 1894 409 
Q 2359 409 2629 706 
Q 2900 1003 2900 1516 
L 2900 3500 
L 3475 3500 
L 3475 0 
L 2900 0 
L 2900 538 
Q 2691 219 2414 64 
Q 2138 -91 1772 -91 
Q 1169 -91 856 284 
Q 544 659 544 1381 
z
M 1991 3584 
L 1991 3584 
z
" transform="scale(0.015625)"/>
      </defs>
      <use xlink:href="#DejaVuSans-54"/>
      <use xlink:href="#DejaVuSans-72" x="46.333984"/>
      <use xlink:href="#DejaVuSans-75" x="87.447266"/>
      <use xlink:href="#DejaVuSans-65" x="150.826172"/>
      <use xlink:href="#DejaVuSans-20" x="212.349609"/>
      <use xlink:href="#DejaVuSans-50" x="244.136719"/>
      <use xlink:href="#DejaVuSans-6f" x="300.814453"/>
      <use xlink:href="#DejaVuSans-73" x="361.996094"/>
      <use xlink:href="#DejaVuSans-69" x="414.095703"/>
      <use xlink:href="#DejaVuSans-74" x="441.878906"/>
      <use xlink:href="#DejaVuSans-69" x="481.087891"/>
      <use xlink:href="#DejaVuSans-76" x="508.871094"/>
      <use xlink:href="#DejaVuSans-65" x="568.050781"/>
      <use xlink:href="#DejaVuSans-20" x="629.574219"/>
      <use xlink:href="#DejaVuSans-52" x="661.361328"/>
      <use xlink:href="#DejaVuSans-61" x="728.59375"/>
      <use xlink:href="#DejaVuSans-74" x="789.873047"/>
      <use xlink:href="#DejaVuSans-65" x="829.082031"/>
     </g>
    </g>
   </g>
   <g id="line2d_13">
    <path d="M 80.427273 317.045455 
L 83.5302 317.045455 
L 83.5302 308.444681 
L 86.633128 305.577756 
L 86.633128 296.976983 
L 86.633128 265.440812 
L 89.736055 265.440812 
L 89.736055 245.37234 
L 95.941911 245.37234 
L 95.941911 225.303868 
L 95.941911 213.83617 
L 95.941911 210.969246 
L 99.044838 210.969246 
L 99.044838 202.368472 
L 102.147766 202.368472 
L 102.147766 199.501547 
L 105.250693 199.501547 
L 105.250693 196.634623 
L 108.353621 196.634623 
L 108.353621 193.767698 
L 111.456549 193.767698 
L 111.456549 190.900774 
L 114.559476 190.900774 
L 114.559476 188.033849 
L 117.662404 188.033849 
L 117.662404 185.166925 
L 120.765331 185.166925 
L 120.765331 182.3 
L 130.074114 182.3 
L 130.074114 173.699226 
L 133.177042 173.699226 
L 133.177042 170.832302 
L 139.382897 170.832302 
L 139.382897 165.098453 
L 142.485824 165.098453 
L 142.485824 162.231528 
L 145.588752 162.231528 
L 145.588752 156.497679 
L 151.794607 156.497679 
L 151.794607 150.76383 
L 154.897535 150.76383 
L 154.897535 147.896905 
L 158.000462 147.896905 
L 158.000462 139.296132 
L 164.206317 139.296132 
L 164.206317 136.429207 
L 170.412173 136.429207 
L 170.412173 133.562282 
L 176.618028 133.562282 
L 176.618028 110.626886 
L 179.720955 110.626886 
L 179.720955 102.026112 
L 182.823883 102.026112 
L 182.823883 99.159188 
L 185.92681 99.159188 
L 185.92681 96.292263 
L 195.235593 96.292263 
L 195.235593 87.691489 
L 201.441448 87.691489 
L 201.441448 76.223791 
L 204.544376 76.223791 
L 204.544376 73.356867 
L 207.647304 73.356867 
L 207.647304 67.623017 
L 210.750231 67.623017 
L 210.750231 64.756093 
L 213.853159 64.756093 
L 213.853159 61.889168 
L 216.956086 61.889168 
L 216.956086 59.022244 
L 229.367797 59.022244 
L 229.367797 56.155319 
L 247.985362 56.155319 
L 247.985362 53.288395 
L 251.08829 53.288395 
L 251.08829 50.42147 
L 266.602928 50.42147 
L 266.602928 47.554545 
L 446.572727 47.554545 
" clip-path="url(#p22b4edbe4e)" style="fill: none; stroke: #1f77b4; stroke-opacity: 0.66; stroke-width: 1.5; stroke-linecap: square"/>
   </g>
   <g id="line2d_14">
    <path d="M 80.427273 317.045455 
L 80.427273 305.328458 
L 80.427273 270.17747 
L 86.06028 270.17747 
L 86.06028 211.59249 
L 91.693287 211.59249 
L 91.693287 153.00751 
L 97.326294 153.00751 
L 97.326294 82.705534 
L 159.289371 82.705534 
L 159.289371 70.988538 
L 187.454406 70.988538 
L 187.454406 59.271542 
L 232.518462 59.271542 
L 232.518462 47.554545 
L 446.572727 47.554545 
" clip-path="url(#p22b4edbe4e)" style="fill: none; stroke: #ff7f0e; stroke-opacity: 0.66; stroke-width: 1.5; stroke-linecap: square"/>
   </g>
   <g id="line2d_15">
    <path d="M 80.427273 317.045455 
L 80.427273 313.023202 
L 80.427273 300.956445 
L 83.478485 300.956445 
L 83.478485 288.889688 
L 86.529697 288.889688 
L 86.529697 280.845183 
L 89.580909 280.845183 
L 89.580909 272.800678 
L 95.683333 272.800678 
L 95.683333 268.778426 
L 101.785758 268.778426 
L 101.785758 264.756174 
L 104.83697 264.756174 
L 104.83697 256.711669 
L 107.888182 256.711669 
L 107.888182 248.667164 
L 117.041818 248.667164 
L 117.041818 244.644912 
L 123.144242 244.644912 
L 123.144242 232.578155 
L 126.195455 232.578155 
L 126.195455 228.555902 
L 129.246667 228.555902 
L 129.246667 224.53365 
L 141.451515 224.53365 
L 141.451515 208.44464 
L 147.553939 208.44464 
L 147.553939 200.400136 
L 165.861212 200.400136 
L 165.861212 192.355631 
L 175.014848 192.355631 
L 175.014848 172.244369 
L 190.270909 172.244369 
L 190.270909 164.199864 
L 199.424545 164.199864 
L 199.424545 160.177612 
L 208.578182 160.177612 
L 208.578182 148.110855 
L 217.731818 148.110855 
L 217.731818 140.06635 
L 229.936667 140.06635 
L 229.936667 123.977341 
L 251.295152 123.977341 
L 251.295152 111.910583 
L 260.448788 111.910583 
L 260.448788 107.888331 
L 281.807273 107.888331 
L 281.807273 103.866079 
L 284.858485 103.866079 
L 284.858485 99.843826 
L 294.012121 99.843826 
L 294.012121 83.754817 
L 297.063333 83.754817 
L 297.063333 79.732564 
L 312.319394 79.732564 
L 312.319394 75.710312 
L 327.575455 75.710312 
L 327.575455 71.68806 
L 342.831515 71.68806 
L 342.831515 67.665807 
L 376.394848 67.665807 
L 376.394848 63.643555 
L 431.316667 63.643555 
L 431.316667 55.59905 
L 440.470303 55.59905 
L 440.470303 47.554545 
L 446.572727 47.554545 
" clip-path="url(#p22b4edbe4e)" style="fill: none; stroke: #2ca02c; stroke-opacity: 0.66; stroke-width: 1.5; stroke-linecap: square"/>
   </g>
   <g id="line2d_16">
    <path d="M 80.427273 317.045455 
L 80.427273 314.761633 
L 83.611146 314.761633 
L 83.611146 310.193991 
L 89.978893 310.193991 
L 89.978893 303.342527 
L 93.162767 303.342527 
L 93.162767 301.058706 
L 102.714387 301.058706 
L 102.714387 296.491063 
L 109.082134 296.491063 
L 109.082134 285.071957 
L 112.266008 285.071957 
L 112.266008 282.788136 
L 115.449881 282.788136 
L 115.449881 271.369029 
L 118.633755 271.369029 
L 118.633755 264.517565 
L 125.001502 264.517565 
L 125.001502 250.814638 
L 128.185375 250.814638 
L 128.185375 230.260247 
L 134.553123 230.260247 
L 134.553123 198.286749 
L 140.92087 198.286749 
L 140.92087 191.435285 
L 144.104743 191.435285 
L 144.104743 189.151464 
L 147.288617 189.151464 
L 147.288617 186.867643 
L 163.207984 186.867643 
L 163.207984 184.583821 
L 166.391858 184.583821 
L 166.391858 175.448536 
L 179.127352 175.448536 
L 179.127352 173.164715 
L 195.046719 173.164715 
L 195.046719 164.02943 
L 204.59834 164.02943 
L 204.59834 157.177966 
L 207.782213 157.177966 
L 207.782213 145.75886 
L 210.966087 145.75886 
L 210.966087 141.191217 
L 214.14996 141.191217 
L 214.14996 138.907396 
L 226.885455 138.907396 
L 226.885455 132.055932 
L 236.437075 132.055932 
L 236.437075 127.48829 
L 239.620949 127.48829 
L 239.620949 122.920647 
L 252.356443 122.920647 
L 252.356443 120.636826 
L 258.72419 120.636826 
L 258.72419 118.353005 
L 261.908063 118.353005 
L 261.908063 106.933898 
L 265.091937 106.933898 
L 265.091937 97.798613 
L 268.27581 97.798613 
L 268.27581 90.947149 
L 271.459684 90.947149 
L 271.459684 88.663328 
L 287.379051 88.663328 
L 287.379051 70.392758 
L 290.562925 70.392758 
L 290.562925 65.825116 
L 306.482292 65.825116 
L 306.482292 63.541294 
L 309.666166 63.541294 
L 309.666166 61.257473 
L 319.217787 61.257473 
L 319.217787 58.973652 
L 331.953281 58.973652 
L 331.953281 56.689831 
L 335.137154 56.689831 
L 335.137154 54.406009 
L 347.872648 54.406009 
L 347.872648 52.122188 
L 357.424269 52.122188 
L 357.424269 49.838367 
L 370.159763 49.838367 
L 370.159763 47.554545 
L 446.572727 47.554545 
" clip-path="url(#p22b4edbe4e)" style="fill: none; stroke: #d62728; stroke-opacity: 0.66; stroke-width: 1.5; stroke-linecap: square"/>
   </g>
   <g id="line2d_17">
    <path d="M 80.427273 317.045455 
L 80.427273 309.234124 
L 82.36455 309.234124 
L 82.36455 305.328458 
L 84.301828 305.328458 
L 84.301828 301.422793 
L 86.239105 301.422793 
L 86.239105 298.819016 
L 88.176383 298.819016 
L 88.176383 294.913351 
L 90.11366 294.913351 
L 90.11366 288.403909 
L 92.050938 288.403909 
L 92.050938 287.10202 
L 93.988215 287.10202 
L 93.988215 281.894466 
L 97.862771 281.894466 
L 97.862771 275.385024 
L 101.737326 275.385024 
L 101.737326 263.668028 
L 103.674603 263.668028 
L 103.674603 262.36614 
L 105.611881 262.36614 
L 105.611881 261.064251 
L 107.549158 261.064251 
L 107.549158 258.460474 
L 109.486436 258.460474 
L 109.486436 257.158586 
L 111.423713 257.158586 
L 111.423713 251.951032 
L 115.298268 251.951032 
L 115.298268 249.347255 
L 117.235546 249.347255 
L 117.235546 248.045367 
L 119.172823 248.045367 
L 119.172823 241.535924 
L 121.110101 241.535924 
L 121.110101 240.234036 
L 123.047379 240.234036 
L 123.047379 237.630259 
L 126.921934 237.630259 
L 126.921934 232.422705 
L 128.859211 232.422705 
L 128.859211 229.818928 
L 130.796489 229.818928 
L 130.796489 224.611375 
L 132.733766 224.611375 
L 132.733766 223.309486 
L 136.608321 223.309486 
L 136.608321 222.007598 
L 138.545599 222.007598 
L 138.545599 219.403821 
L 144.357431 219.403821 
L 144.357431 218.101932 
L 146.294709 218.101932 
L 146.294709 212.894379 
L 148.231987 212.894379 
L 148.231987 201.177383 
L 150.169264 201.177383 
L 150.169264 198.573606 
L 152.106542 198.573606 
L 152.106542 194.66794 
L 154.043819 194.66794 
L 154.043819 185.554721 
L 159.855652 185.554721 
L 159.855652 184.252833 
L 165.667484 184.252833 
L 165.667484 182.950944 
L 167.604762 182.950944 
L 167.604762 180.347167 
L 169.542039 180.347167 
L 169.542039 172.535837 
L 171.479317 172.535837 
L 171.479317 167.328283 
L 179.228427 167.328283 
L 179.228427 163.422617 
L 183.102982 163.422617 
L 183.102982 159.516952 
L 185.04026 159.516952 
L 185.04026 155.611287 
L 186.977537 155.611287 
L 186.977537 154.309398 
L 188.914815 154.309398 
L 188.914815 146.498068 
L 198.601203 146.498068 
L 198.601203 143.894291 
L 206.350313 143.894291 
L 206.350313 141.290514 
L 212.162145 141.290514 
L 212.162145 137.384848 
L 214.099423 137.384848 
L 214.099423 133.479183 
L 216.0367 133.479183 
L 216.0367 132.177295 
L 219.911255 132.177295 
L 219.911255 130.875406 
L 225.723088 130.875406 
L 225.723088 129.573518 
L 231.534921 129.573518 
L 231.534921 128.271629 
L 235.409476 128.271629 
L 235.409476 124.365964 
L 237.346753 124.365964 
L 237.346753 123.064076 
L 239.284031 123.064076 
L 239.284031 121.762187 
L 241.221308 121.762187 
L 241.221308 116.554633 
L 243.158586 116.554633 
L 243.158586 112.648968 
L 252.844974 112.648968 
L 252.844974 108.743303 
L 256.719529 108.743303 
L 256.719529 107.441414 
L 264.468639 107.441414 
L 264.468639 106.139526 
L 266.405916 106.139526 
L 266.405916 99.630083 
L 270.280471 99.630083 
L 270.280471 98.328195 
L 274.155026 98.328195 
L 274.155026 97.026307 
L 276.092304 97.026307 
L 276.092304 95.724418 
L 278.029582 95.724418 
L 278.029582 90.516864 
L 279.966859 90.516864 
L 279.966859 87.913087 
L 295.465079 87.913087 
L 295.465079 86.611199 
L 299.339634 86.611199 
L 299.339634 85.30931 
L 305.151467 85.30931 
L 305.151467 82.705534 
L 307.088745 82.705534 
L 307.088745 81.403645 
L 309.026022 81.403645 
L 309.026022 78.799868 
L 310.9633 78.799868 
L 310.9633 76.196091 
L 312.900577 76.196091 
L 312.900577 70.988538 
L 314.837855 70.988538 
L 314.837855 69.686649 
L 316.775132 69.686649 
L 316.775132 67.082872 
L 318.71241 67.082872 
L 318.71241 64.479095 
L 320.649687 64.479095 
L 320.649687 60.57343 
L 330.336075 60.57343 
L 330.336075 59.271542 
L 332.273353 59.271542 
L 332.273353 57.969653 
L 336.147908 57.969653 
L 336.147908 56.667765 
L 343.897018 56.667765 
L 343.897018 55.365876 
L 347.771573 55.365876 
L 347.771573 52.762099 
L 357.457961 52.762099 
L 357.457961 51.460211 
L 367.144348 51.460211 
L 367.144348 50.158322 
L 374.893458 50.158322 
L 374.893458 48.856434 
L 376.830736 48.856434 
L 376.830736 47.554545 
L 446.572727 47.554545 
L 446.572727 47.554545 
" clip-path="url(#p22b4edbe4e)" style="fill: none; stroke: #9467bd; stroke-opacity: 0.66; stroke-width: 1.5; stroke-linecap: square"/>
   </g>
   <g id="line2d_18">
    <path d="M 80.427273 317.045455 
L 80.427273 315.441342 
L 80.427273 313.837229 
L 88.74876 313.837229 
L 88.74876 301.004329 
L 92.909504 301.004329 
L 92.909504 292.983766 
L 97.070248 292.983766 
L 97.070248 291.379654 
L 101.230992 291.379654 
L 101.230992 288.171429 
L 109.552479 288.171429 
L 109.552479 283.359091 
L 113.713223 283.359091 
L 113.713223 275.338528 
L 117.873967 275.338528 
L 117.873967 267.317965 
L 122.034711 267.317965 
L 122.034711 264.10974 
L 126.195455 264.10974 
L 126.195455 252.880952 
L 130.356198 252.880952 
L 130.356198 251.27684 
L 134.516942 251.27684 
L 134.516942 244.86039 
L 138.677686 244.86039 
L 138.677686 243.256277 
L 142.83843 243.256277 
L 142.83843 224.006926 
L 146.999174 224.006926 
L 146.999174 222.402814 
L 151.159917 222.402814 
L 151.159917 219.194589 
L 155.320661 219.194589 
L 155.320661 206.361688 
L 159.481405 206.361688 
L 159.481405 201.549351 
L 163.642149 201.549351 
L 163.642149 182.3 
L 167.802893 182.3 
L 167.802893 177.487662 
L 171.963636 177.487662 
L 171.963636 171.071212 
L 176.12438 171.071212 
L 176.12438 161.446537 
L 180.285124 161.446537 
L 180.285124 159.842424 
L 184.445868 159.842424 
L 184.445868 145.405411 
L 192.767355 145.405411 
L 192.767355 140.593074 
L 196.928099 140.593074 
L 196.928099 137.384848 
L 201.088843 137.384848 
L 201.088843 129.364286 
L 205.249587 129.364286 
L 205.249587 113.32316 
L 209.410331 113.32316 
L 209.410331 108.510823 
L 213.571074 108.510823 
L 213.571074 106.90671 
L 221.892562 106.90671 
L 221.892562 105.302597 
L 226.053306 105.302597 
L 226.053306 90.865584 
L 234.374793 90.865584 
L 234.374793 86.053247 
L 238.535537 86.053247 
L 238.535537 82.845022 
L 242.696281 82.845022 
L 242.696281 81.240909 
L 246.857025 81.240909 
L 246.857025 76.428571 
L 251.017769 76.428571 
L 251.017769 74.824459 
L 259.339256 74.824459 
L 259.339256 71.616234 
L 275.982231 71.616234 
L 275.982231 66.803896 
L 280.142975 66.803896 
L 280.142975 63.595671 
L 305.107438 63.595671 
L 305.107438 58.783333 
L 309.268182 58.783333 
L 309.268182 55.575108 
L 325.911157 55.575108 
L 325.911157 50.762771 
L 330.071901 50.762771 
L 330.071901 49.158658 
L 413.286777 49.158658 
L 413.286777 47.554545 
L 446.572727 47.554545 
" clip-path="url(#p22b4edbe4e)" style="fill: none; stroke: #8c564b; stroke-opacity: 0.66; stroke-width: 1.5; stroke-linecap: square"/>
   </g>
   <g id="line2d_19">
    <path d="M 80.427273 317.045455 
L 80.954101 317.045455 
L 80.954101 315.851256 
L 81.480929 315.453189 
L 81.480929 307.093796 
L 82.007757 307.093796 
L 82.007757 305.103464 
L 82.534585 305.103464 
L 82.534585 301.918934 
L 83.061413 301.918934 
L 83.061413 301.520867 
L 84.115069 301.520867 
L 84.115069 301.122801 
L 84.641897 301.122801 
L 84.641897 299.928602 
L 85.168725 299.530536 
L 85.168725 298.734403 
L 85.695553 298.734403 
L 85.695553 294.75374 
L 86.222381 294.75374 
L 86.222381 291.171143 
L 86.749209 291.171143 
L 86.749209 289.578877 
L 87.276037 289.578877 
L 87.276037 289.180811 
L 87.802865 289.180811 
L 87.802865 288.782745 
L 88.856521 288.782745 
L 88.856521 286.792413 
L 89.383349 286.792413 
L 89.383349 285.598214 
L 89.910177 285.598214 
L 89.910177 285.200148 
L 90.437005 285.200148 
L 90.437005 284.802081 
L 92.544317 284.802081 
L 92.544317 282.413683 
L 94.124801 282.413683 
L 94.124801 278.43302 
L 96.232112 278.43302 
L 96.232112 277.636887 
L 96.75894 277.636887 
L 96.75894 276.044622 
L 97.812596 276.044622 
L 97.812596 274.452357 
L 99.39308 274.452357 
L 99.39308 274.05429 
L 99.919908 274.05429 
L 99.919908 272.462025 
L 100.446736 272.462025 
L 100.446736 271.665892 
L 102.02722 271.665892 
L 102.02722 270.86976 
L 103.080876 270.86976 
L 103.080876 270.073627 
L 103.607704 270.073627 
L 103.607704 266.889096 
L 104.134532 266.889096 
L 104.134532 265.694897 
L 105.188188 265.694897 
L 105.188188 264.102632 
L 106.241844 264.102632 
L 106.241844 262.1123 
L 106.768672 262.1123 
L 106.768672 261.316168 
L 107.2955 261.316168 
L 107.2955 260.121969 
L 108.349156 260.121969 
L 108.349156 259.723902 
L 109.402812 259.723902 
L 109.402812 258.131637 
L 110.456468 258.131637 
L 110.456468 257.335504 
L 110.983296 257.335504 
L 110.983296 256.937438 
L 112.036952 256.937438 
L 112.036952 256.141305 
L 112.56378 256.141305 
L 112.56378 255.345173 
L 113.617436 255.345173 
L 113.617436 254.947106 
L 115.724748 254.947106 
L 115.724748 253.752907 
L 116.778404 253.752907 
L 116.778404 251.762576 
L 117.305232 251.762576 
L 117.305232 248.578045 
L 118.358888 248.578045 
L 118.358888 248.179979 
L 118.885716 248.179979 
L 118.885716 246.98578 
L 119.412544 246.98578 
L 119.412544 246.189647 
L 119.939372 246.189647 
L 119.939372 244.597381 
L 120.4662 244.597381 
L 120.4662 242.60705 
L 120.993028 242.60705 
L 120.993028 241.810917 
L 122.046684 241.810917 
L 122.046684 240.616718 
L 122.573512 240.616718 
L 122.573512 239.024453 
L 123.10034 239.024453 
L 123.10034 237.034121 
L 123.627168 237.034121 
L 123.627168 236.237988 
L 125.207652 236.237988 
L 125.207652 235.441856 
L 125.73448 235.441856 
L 125.73448 234.247657 
L 126.261308 234.247657 
L 126.261308 231.461192 
L 128.36862 231.461192 
L 128.36862 231.063126 
L 128.895448 231.063126 
L 128.895448 230.66506 
L 129.422276 230.66506 
L 129.422276 229.868927 
L 129.949104 229.868927 
L 129.949104 224.295998 
L 131.00276 224.295998 
L 131.00276 222.703733 
L 131.529588 222.703733 
L 131.529588 221.509534 
L 132.056416 221.509534 
L 132.056416 220.713401 
L 133.110072 220.713401 
L 133.110072 219.519202 
L 133.6369 219.519202 
L 133.6369 219.121136 
L 134.690556 219.121136 
L 134.690556 216.732738 
L 135.744212 216.732738 
L 135.744212 216.334672 
L 136.797868 216.334672 
L 136.797868 215.538539 
L 137.324696 215.538539 
L 137.324696 215.140473 
L 137.851524 215.140473 
L 137.851524 213.946274 
L 138.378352 213.946274 
L 138.378352 212.752075 
L 138.90518 212.752075 
L 138.90518 211.955942 
L 139.432008 211.955942 
L 139.432008 211.159809 
L 139.958836 211.159809 
L 139.958836 210.761743 
L 140.485664 210.761743 
L 140.485664 205.188814 
L 141.012492 205.188814 
L 141.012492 204.790748 
L 143.646632 204.790748 
L 143.646632 204.392682 
L 144.17346 204.392682 
L 144.17346 202.004284 
L 145.753944 202.004284 
L 145.753944 201.606217 
L 147.334428 201.606217 
L 147.334428 201.208151 
L 148.914912 201.208151 
L 148.914912 200.810085 
L 149.968568 200.810085 
L 149.968568 200.013952 
L 152.602708 200.013952 
L 152.602708 198.02362 
L 153.129536 198.02362 
L 153.129536 197.227488 
L 153.656364 197.227488 
L 153.656364 196.829421 
L 154.183192 196.829421 
L 154.183192 196.431355 
L 154.71002 196.431355 
L 154.71002 194.042957 
L 155.236848 194.042957 
L 155.236848 192.848758 
L 155.763676 192.848758 
L 155.763676 192.450692 
L 156.290504 192.450692 
L 156.290504 192.052625 
L 156.817332 192.052625 
L 156.817332 191.654559 
L 159.451472 191.654559 
L 159.451472 191.256493 
L 162.085612 191.256493 
L 162.085612 190.46036 
L 162.61244 190.46036 
L 162.61244 190.062294 
L 164.192923 190.062294 
L 164.192923 189.266161 
L 164.719751 189.266161 
L 164.719751 188.868095 
L 166.300235 188.868095 
L 166.300235 188.470028 
L 167.353891 188.470028 
L 167.353891 187.673896 
L 167.880719 187.673896 
L 167.880719 187.275829 
L 168.407547 187.275829 
L 168.407547 186.877763 
L 168.934375 186.877763 
L 168.934375 184.091299 
L 169.461203 184.091299 
L 169.461203 182.100967 
L 169.988031 182.100967 
L 169.988031 181.7029 
L 170.514859 181.7029 
L 170.514859 181.304834 
L 174.202655 181.304834 
L 174.202655 178.916436 
L 175.783139 178.916436 
L 175.783139 178.120303 
L 176.309967 178.120303 
L 176.309967 177.324171 
L 176.836795 177.324171 
L 176.836795 176.528038 
L 177.363623 176.528038 
L 177.363623 175.731905 
L 177.890451 175.731905 
L 177.890451 175.333839 
L 178.417279 175.333839 
L 178.417279 174.935773 
L 179.470935 174.935773 
L 179.470935 174.537706 
L 179.997763 174.537706 
L 179.997763 174.13964 
L 181.578247 174.13964 
L 181.578247 172.945441 
L 182.105075 172.945441 
L 182.105075 172.149308 
L 182.631903 172.149308 
L 182.631903 171.751242 
L 183.685559 171.751242 
L 183.685559 171.353176 
L 184.212387 171.353176 
L 184.212387 170.158977 
L 184.739215 170.158977 
L 184.739215 169.76091 
L 185.266043 169.76091 
L 185.266043 169.362844 
L 186.319699 169.362844 
L 186.319699 168.566711 
L 187.900183 168.566711 
L 187.900183 167.770579 
L 189.480667 167.770579 
L 189.480667 167.372512 
L 191.061151 167.372512 
L 191.061151 166.974446 
L 192.114807 166.974446 
L 192.114807 166.57638 
L 193.168463 166.57638 
L 193.168463 166.178313 
L 193.695291 166.178313 
L 193.695291 165.382181 
L 194.748947 165.382181 
L 194.748947 162.595716 
L 195.275775 162.595716 
L 195.275775 162.19765 
L 195.802603 162.19765 
L 195.802603 161.401517 
L 196.329431 161.401517 
L 196.329431 161.003451 
L 197.383087 161.003451 
L 197.383087 160.207318 
L 197.909915 160.207318 
L 197.909915 159.809252 
L 198.436743 159.809252 
L 198.436743 159.411186 
L 201.597711 159.411186 
L 201.597711 159.013119 
L 202.651367 159.013119 
L 202.651367 158.615053 
L 204.758679 158.615053 
L 204.758679 157.81892 
L 205.812335 157.81892 
L 205.812335 157.420854 
L 207.919647 157.420854 
L 207.919647 157.022788 
L 208.446475 157.022788 
L 208.446475 156.624721 
L 210.553787 156.624721 
L 210.553787 156.226655 
L 211.080615 156.226655 
L 211.080615 153.042124 
L 212.134271 153.042124 
L 212.134271 151.847925 
L 212.661099 151.847925 
L 212.661099 151.051793 
L 213.187927 151.051793 
L 213.187927 150.25566 
L 213.714755 150.25566 
L 213.714755 149.459527 
L 214.241583 149.459527 
L 214.241583 148.663395 
L 214.768411 148.663395 
L 214.768411 147.867262 
L 215.822067 147.867262 
L 215.822067 147.071129 
L 216.348895 147.071129 
L 216.348895 145.87693 
L 217.402551 145.87693 
L 217.402551 144.682731 
L 217.929379 144.682731 
L 217.929379 141.100134 
L 220.036691 141.100134 
L 220.036691 140.702068 
L 220.563519 140.702068 
L 220.563519 139.905935 
L 221.090347 139.905935 
L 221.090347 138.711736 
L 223.197659 138.711736 
L 223.197659 137.915604 
L 225.304971 137.915604 
L 225.304971 135.925272 
L 228.465939 135.925272 
L 228.465939 135.527206 
L 228.992767 135.527206 
L 228.992767 131.148476 
L 229.519595 131.148476 
L 229.519595 129.158144 
L 230.046422 129.158144 
L 230.046422 128.760078 
L 230.57325 128.760078 
L 230.57325 127.963945 
L 231.100078 127.963945 
L 231.100078 127.167813 
L 231.626906 127.167813 
L 231.626906 125.973614 
L 233.20739 125.973614 
L 233.20739 125.575547 
L 233.734218 125.575547 
L 233.734218 124.779415 
L 235.84153 124.779415 
L 235.84153 123.585216 
L 236.368358 123.585216 
L 236.368358 122.391017 
L 237.422014 122.391017 
L 237.422014 121.196818 
L 238.47567 121.196818 
L 238.47567 120.400685 
L 239.002498 120.400685 
L 239.002498 119.604552 
L 239.529326 119.604552 
L 239.529326 118.808419 
L 241.636638 118.808419 
L 241.636638 118.410353 
L 243.217122 118.410353 
L 243.217122 114.031623 
L 244.270778 114.031623 
L 244.270778 112.837424 
L 244.797606 112.837424 
L 244.797606 112.439358 
L 246.904918 112.439358 
L 246.904918 110.847093 
L 247.958574 110.847093 
L 247.958574 110.449026 
L 248.485402 110.449026 
L 248.485402 108.458695 
L 249.539058 108.458695 
L 249.539058 107.662562 
L 250.065886 107.662562 
L 250.065886 106.468363 
L 252.173198 106.468363 
L 252.173198 105.67223 
L 252.700026 105.67223 
L 252.700026 103.283832 
L 253.753682 103.283832 
L 253.753682 102.885766 
L 255.334166 102.885766 
L 255.334166 102.4877 
L 256.387822 102.4877 
L 256.387822 102.089633 
L 256.91465 102.089633 
L 256.91465 99.701235 
L 257.441478 99.701235 
L 257.441478 99.303169 
L 257.968306 99.303169 
L 257.968306 98.905103 
L 259.54879 98.905103 
L 259.54879 98.507036 
L 260.602446 98.507036 
L 260.602446 98.10897 
L 263.763414 98.10897 
L 263.763414 97.710904 
L 265.870726 97.710904 
L 265.870726 97.312837 
L 267.45121 97.312837 
L 267.45121 96.118638 
L 267.978038 96.118638 
L 267.978038 95.322506 
L 269.031694 95.322506 
L 269.031694 94.924439 
L 269.558522 94.924439 
L 269.558522 94.128307 
L 270.612178 94.128307 
L 270.612178 93.73024 
L 271.139006 93.73024 
L 271.139006 93.332174 
L 272.192662 93.332174 
L 272.192662 92.934108 
L 273.246318 92.934108 
L 273.246318 92.137975 
L 274.299974 92.137975 
L 274.299974 91.739909 
L 275.35363 91.739909 
L 275.35363 91.341842 
L 276.407286 91.341842 
L 276.407286 90.943776 
L 276.934114 90.943776 
L 276.934114 90.54571 
L 278.514598 90.54571 
L 278.514598 89.749577 
L 279.041426 89.749577 
L 279.041426 88.953444 
L 280.095082 88.953444 
L 280.095082 88.555378 
L 280.62191 88.555378 
L 280.62191 86.963113 
L 282.729222 86.963113 
L 282.729222 84.972781 
L 283.25605 84.972781 
L 283.25605 84.176648 
L 283.782878 84.176648 
L 283.782878 83.778582 
L 284.836534 83.778582 
L 284.836534 83.380516 
L 285.363362 83.380516 
L 285.363362 82.584383 
L 289.051158 82.584383 
L 289.051158 82.186317 
L 290.631642 82.186317 
L 290.631642 81.78825 
L 291.15847 81.78825 
L 291.15847 81.390184 
L 292.738954 81.390184 
L 292.738954 80.992118 
L 293.79261 80.992118 
L 293.79261 80.195985 
L 294.846266 80.195985 
L 294.846266 78.60372 
L 295.373094 78.60372 
L 295.373094 77.807587 
L 295.899922 77.807587 
L 295.899922 77.011454 
L 296.42675 77.011454 
L 296.42675 76.613388 
L 297.480405 76.613388 
L 297.480405 76.215322 
L 298.007233 76.215322 
L 298.007233 75.817255 
L 298.534061 75.817255 
L 298.534061 75.021123 
L 299.060889 75.021123 
L 299.060889 74.623056 
L 302.221857 74.623056 
L 302.221857 74.22499 
L 302.748685 74.22499 
L 302.748685 73.428857 
L 307.490137 73.428857 
L 307.490137 73.030791 
L 309.070621 73.030791 
L 309.070621 72.632725 
L 310.651105 72.632725 
L 310.651105 71.836592 
L 311.704761 71.836592 
L 311.704761 71.438526 
L 315.392557 71.438526 
L 315.392557 70.244327 
L 315.919385 70.244327 
L 315.919385 69.84626 
L 318.026697 69.84626 
L 318.026697 69.448194 
L 318.553525 69.448194 
L 318.553525 69.050128 
L 324.348633 69.050128 
L 324.348633 68.253995 
L 329.616913 68.253995 
L 329.616913 67.457862 
L 330.143741 67.457862 
L 330.143741 66.66173 
L 330.670569 66.66173 
L 330.670569 66.263663 
L 332.251053 66.263663 
L 332.251053 65.865597 
L 332.777881 65.865597 
L 332.777881 65.467531 
L 334.358365 65.467531 
L 334.358365 65.069464 
L 336.992505 65.069464 
L 336.992505 64.671398 
L 339.099817 64.671398 
L 339.099817 63.875265 
L 342.787613 63.875265 
L 342.787613 63.477199 
L 343.841269 63.477199 
L 343.841269 63.079133 
L 351.216861 63.079133 
L 351.216861 62.681066 
L 355.958313 62.681066 
L 355.958313 61.884934 
L 357.011969 61.884934 
L 357.011969 61.088801 
L 357.538797 61.088801 
L 357.538797 60.690735 
L 358.592453 60.690735 
L 358.592453 59.496536 
L 362.807077 59.496536 
L 362.807077 58.700403 
L 368.075356 58.700403 
L 368.075356 58.302337 
L 371.763152 58.302337 
L 371.763152 57.90427 
L 372.28998 57.90427 
L 372.28998 57.108138 
L 373.870464 57.108138 
L 373.870464 56.312005 
L 374.397292 56.312005 
L 374.397292 55.913938 
L 374.92412 55.913938 
L 374.92412 55.515872 
L 391.255788 55.515872 
L 391.255788 54.321673 
L 398.104552 54.321673 
L 398.104552 53.923607 
L 404.426488 53.923607 
L 404.426488 53.52554 
L 405.480144 53.52554 
L 405.480144 53.127474 
L 406.5338 53.127474 
L 406.5338 52.729408 
L 413.382564 52.729408 
L 413.382564 51.933275 
L 415.489876 51.933275 
L 415.489876 51.137142 
L 418.650844 51.137142 
L 418.650844 50.739076 
L 421.811812 50.739076 
L 421.811812 50.34101 
L 424.445952 50.34101 
L 424.445952 49.942943 
L 427.60692 49.942943 
L 427.60692 49.544877 
L 433.928855 49.544877 
L 433.928855 49.146811 
L 443.938587 49.146811 
L 443.938587 48.350678 
L 445.519071 48.350678 
L 445.519071 47.554545 
L 446.572727 47.554545 
L 446.572727 47.554545 
" clip-path="url(#p22b4edbe4e)" style="fill: none; stroke: #000000; stroke-width: 1.5; stroke-linecap: square"/>
   </g>
   <g id="line2d_20">
    <path d="M -1 376.977674 
L 2.760055 374.210193 
L 13.855372 366.043802 
L 24.950689 357.87741 
L 36.046006 349.711019 
L 47.141322 341.544628 
L 58.236639 333.378237 
L 69.331956 325.211846 
L 80.427273 317.045455 
L 91.52259 308.879063 
L 102.617906 300.712672 
L 113.713223 292.546281 
L 124.80854 284.37989 
L 135.903857 276.213499 
L 146.999174 268.047107 
L 158.09449 259.880716 
L 169.189807 251.714325 
L 180.285124 243.547934 
L 191.380441 235.381543 
L 202.475758 227.215152 
L 213.571074 219.04876 
L 224.666391 210.882369 
L 235.761708 202.715978 
L 246.857025 194.549587 
L 257.952342 186.383196 
L 269.047658 178.216804 
L 280.142975 170.050413 
L 291.238292 161.884022 
L 302.333609 153.717631 
L 313.428926 145.55124 
L 324.524242 137.384848 
L 335.619559 129.218457 
L 346.714876 121.052066 
L 357.810193 112.885675 
L 368.90551 104.719284 
L 380.000826 96.552893 
L 391.096143 88.386501 
L 402.19146 80.22011 
L 413.286777 72.053719 
L 424.382094 63.887328 
L 435.47741 55.720937 
L 446.572727 47.554545 
L 457.668044 39.388154 
L 468.763361 31.221763 
L 479.858678 23.055372 
L 481 22.215334 
" clip-path="url(#p22b4edbe4e)" style="fill: none; stroke-dasharray: 5.55,2.4; stroke-dashoffset: 0; stroke: #000000; stroke-width: 1.5"/>
   </g>
   <g id="patch_3">
    <path d="M 62.12 330.52 
L 62.12 34.08 
" style="fill: none; stroke: #000000; stroke-width: 0.8; stroke-linejoin: miter; stroke-linecap: square"/>
   </g>
   <g id="patch_4">
    <path d="M 62.12 330.52 
L 464.88 330.52 
" style="fill: none; stroke: #000000; stroke-width: 0.8; stroke-linejoin: miter; stroke-linecap: square"/>
   </g>
   <g id="text_15">
    <!-- Priors Tuning, auc: 0.7065 -->
    <g transform="translate(154.339375 28.08) scale(0.168 -0.168)">
     <defs>
      <path id="DejaVuSans-6e" d="M 3513 2113 
L 3513 0 
L 2938 0 
L 2938 2094 
Q 2938 2591 2744 2837 
Q 2550 3084 2163 3084 
Q 1697 3084 1428 2787 
Q 1159 2491 1159 1978 
L 1159 0 
L 581 0 
L 581 3500 
L 1159 3500 
L 1159 2956 
Q 1366 3272 1645 3428 
Q 1925 3584 2291 3584 
Q 2894 3584 3203 3211 
Q 3513 2838 3513 2113 
z
" transform="scale(0.015625)"/>
      <path id="DejaVuSans-67" d="M 2906 1791 
Q 2906 2416 2648 2759 
Q 2391 3103 1925 3103 
Q 1463 3103 1205 2759 
Q 947 2416 947 1791 
Q 947 1169 1205 825 
Q 1463 481 1925 481 
Q 2391 481 2648 825 
Q 2906 1169 2906 1791 
z
M 3481 434 
Q 3481 -459 3084 -895 
Q 2688 -1331 1869 -1331 
Q 1566 -1331 1297 -1286 
Q 1028 -1241 775 -1147 
L 775 -588 
Q 1028 -725 1275 -790 
Q 1522 -856 1778 -856 
Q 2344 -856 2625 -561 
Q 2906 -266 2906 331 
L 2906 616 
Q 2728 306 2450 153 
Q 2172 0 1784 0 
Q 1141 0 747 490 
Q 353 981 353 1791 
Q 353 2603 747 3093 
Q 1141 3584 1784 3584 
Q 2172 3584 2450 3431 
Q 2728 3278 2906 2969 
L 2906 3500 
L 3481 3500 
L 3481 434 
z
" transform="scale(0.015625)"/>
      <path id="DejaVuSans-2c" d="M 750 794 
L 1409 794 
L 1409 256 
L 897 -744 
L 494 -744 
L 750 256 
L 750 794 
z
" transform="scale(0.015625)"/>
      <path id="DejaVuSans-63" d="M 3122 3366 
L 3122 2828 
Q 2878 2963 2633 3030 
Q 2388 3097 2138 3097 
Q 1578 3097 1268 2742 
Q 959 2388 959 1747 
Q 959 1106 1268 751 
Q 1578 397 2138 397 
Q 2388 397 2633 464 
Q 2878 531 3122 666 
L 3122 134 
Q 2881 22 2623 -34 
Q 2366 -91 2075 -91 
Q 1284 -91 818 406 
Q 353 903 353 1747 
Q 353 2603 823 3093 
Q 1294 3584 2113 3584 
Q 2378 3584 2631 3529 
Q 2884 3475 3122 3366 
z
" transform="scale(0.015625)"/>
      <path id="DejaVuSans-3a" d="M 750 794 
L 1409 794 
L 1409 0 
L 750 0 
L 750 794 
z
M 750 3309 
L 1409 3309 
L 1409 2516 
L 750 2516 
L 750 3309 
z
" transform="scale(0.015625)"/>
      <path id="DejaVuSans-37" d="M 525 4666 
L 3525 4666 
L 3525 4397 
L 1831 0 
L 1172 0 
L 2766 4134 
L 525 4134 
L 525 4666 
z
" transform="scale(0.015625)"/>
      <path id="DejaVuSans-35" d="M 691 4666 
L 3169 4666 
L 3169 4134 
L 1269 4134 
L 1269 2991 
Q 1406 3038 1543 3061 
Q 1681 3084 1819 3084 
Q 2600 3084 3056 2656 
Q 3513 2228 3513 1497 
Q 3513 744 3044 326 
Q 2575 -91 1722 -91 
Q 1428 -91 1123 -41 
Q 819 9 494 109 
L 494 744 
Q 775 591 1075 516 
Q 1375 441 1709 441 
Q 2250 441 2565 725 
Q 2881 1009 2881 1497 
Q 2881 1984 2565 2268 
Q 2250 2553 1709 2553 
Q 1456 2553 1204 2497 
Q 953 2441 691 2322 
L 691 4666 
z
" transform="scale(0.015625)"/>
     </defs>
     <use xlink:href="#DejaVuSans-50"/>
     <use xlink:href="#DejaVuSans-72" x="58.552734"/>
     <use xlink:href="#DejaVuSans-69" x="99.666016"/>
     <use xlink:href="#DejaVuSans-6f" x="127.449219"/>
     <use xlink:href="#DejaVuSans-72" x="188.630859"/>
     <use xlink:href="#DejaVuSans-73" x="229.744141"/>
     <use xlink:href="#DejaVuSans-20" x="281.84375"/>
     <use xlink:href="#DejaVuSans-54" x="313.630859"/>
     <use xlink:href="#DejaVuSans-75" x="359.589844"/>
     <use xlink:href="#DejaVuSans-6e" x="422.96875"/>
     <use xlink:href="#DejaVuSans-69" x="486.347656"/>
     <use xlink:href="#DejaVuSans-6e" x="514.130859"/>
     <use xlink:href="#DejaVuSans-67" x="577.509766"/>
     <use xlink:href="#DejaVuSans-2c" x="640.986328"/>
     <use xlink:href="#DejaVuSans-20" x="672.773438"/>
     <use xlink:href="#DejaVuSans-61" x="704.560547"/>
     <use xlink:href="#DejaVuSans-75" x="765.839844"/>
     <use xlink:href="#DejaVuSans-63" x="829.21875"/>
     <use xlink:href="#DejaVuSans-3a" x="884.199219"/>
     <use xlink:href="#DejaVuSans-20" x="917.890625"/>
     <use xlink:href="#DejaVuSans-30" x="949.677734"/>
     <use xlink:href="#DejaVuSans-2e" x="1013.300781"/>
     <use xlink:href="#DejaVuSans-37" x="1045.087891"/>
     <use xlink:href="#DejaVuSans-30" x="1108.710938"/>
     <use xlink:href="#DejaVuSans-36" x="1172.333984"/>
     <use xlink:href="#DejaVuSans-35" x="1235.957031"/>
    </g>
   </g>
  </g>
 </g>
 <defs>
  <clipPath id="p22b4edbe4e">
   <rect x="62.12" y="34.08" width="402.76" height="296.44"/>
  </clipPath>
 </defs>
</svg>
