<?xml version="1.0" encoding="utf-8" standalone="no"?>
<!DOCTYPE svg PUBLIC "-//W3C//DTD SVG 1.1//EN"
  "http://www.w3.org/Graphics/SVG/1.1/DTD/svg11.dtd">
<svg xmlns:xlink="http://www.w3.org/1999/xlink" width="480pt" height="384pt" viewBox="0 0 480 384" xmlns="http://www.w3.org/2000/svg" version="1.1">
 <metadata>
  <rdf:RDF xmlns:dc="http://purl.org/dc/elements/1.1/" xmlns:cc="http://creativecommons.org/ns#" xmlns:rdf="http://www.w3.org/1999/02/22-rdf-syntax-ns#">
   <cc:Work>
    <dc:type rdf:resource="http://purl.org/dc/dcmitype/StillImage"/>
    <dc:date>2024-02-27T11:33:50.723759</dc:date>
    <dc:format>image/svg+xml</dc:format>
    <dc:creator>
     <cc:Agent>
      <dc:title>Matplotlib v3.8.0, https://matplotlib.org/</dc:title>
     </cc:Agent>
    </dc:creator>
   </cc:Work>
  </rdf:RDF>
 </metadata>
 <defs>
  <style type="text/css">*{stroke-linejoin: round; stroke-linecap: butt}</style>
 </defs>
 <g id="figure_1">
  <g id="patch_1">
   <path d="M 0 384 
L 480 384 
L 480 0 
L 0 0 
z
" style="fill: #ffffff"/>
  </g>
  <g id="axes_1">
   <g id="patch_2">
    <path d="M 62.12 330.52 
L 464.88 330.52 
L 464.88 34.08 
L 62.12 34.08 
z
" style="fill: #ffffff"/>
   </g>
   <g id="PathCollection_1">
    <defs>
     <path id="mb72c106bfb" d="M 0 4.031129 
C 1.069068 4.031129 2.094493 3.606384 2.850439 2.850439 
C 3.606384 2.094493 4.031129 1.069068 4.031129 0 
C 4.031129 -1.069068 3.606384 -2.094493 2.850439 -2.850439 
C 2.094493 -3.606384 1.069068 -4.031129 0 -4.031129 
C -1.069068 -4.031129 -2.094493 -3.606384 -2.850439 -2.850439 
C -3.606384 -2.094493 -4.031129 -1.069068 -4.031129 0 
C -4.031129 1.069068 -3.606384 2.094493 -2.850439 2.850439 
C -2.094493 3.606384 -1.069068 4.031129 0 4.031129 
z
" style="stroke: #ff0000"/>
    </defs>
    <g clip-path="url(#p397e8583b8)">
     <use xlink:href="#mb72c106bfb" x="187.373355" y="124.381348" style="fill: #ff0000; stroke: #ff0000"/>
    </g>
   </g>
   <g id="matplotlib.axis_1">
    <g id="xtick_1">
     <g id="line2d_1">
      <defs>
       <path id="mfbd08838e8" d="M 0 0 
L 0 3.5 
" style="stroke: #000000; stroke-width: 0.8"/>
      </defs>
      <g>
       <use xlink:href="#mfbd08838e8" x="80.427273" y="330.52" style="stroke: #000000; stroke-width: 0.8"/>
      </g>
     </g>
     <g id="text_1">
      <!-- 0.0 -->
      <g transform="translate(69.295085 348.157812) scale(0.14 -0.14)">
       <defs>
        <path id="DejaVuSans-30" d="M 2034 4250 
Q 1547 4250 1301 3770 
Q 1056 3291 1056 2328 
Q 1056 1369 1301 889 
Q 1547 409 2034 409 
Q 2525 409 2770 889 
Q 3016 1369 3016 2328 
Q 3016 3291 2770 3770 
Q 2525 4250 2034 4250 
z
M 2034 4750 
Q 2819 4750 3233 4129 
Q 3647 3509 3647 2328 
Q 3647 1150 3233 529 
Q 2819 -91 2034 -91 
Q 1250 -91 836 529 
Q 422 1150 422 2328 
Q 422 3509 836 4129 
Q 1250 4750 2034 4750 
z
" transform="scale(0.015625)"/>
        <path id="DejaVuSans-2e" d="M 684 794 
L 1344 794 
L 1344 0 
L 684 0 
L 684 794 
z
" transform="scale(0.015625)"/>
       </defs>
       <use xlink:href="#DejaVuSans-30"/>
       <use xlink:href="#DejaVuSans-2e" x="63.623047"/>
       <use xlink:href="#DejaVuSans-30" x="95.410156"/>
      </g>
     </g>
    </g>
    <g id="xtick_2">
     <g id="line2d_2">
      <g>
       <use xlink:href="#mfbd08838e8" x="153.656364" y="330.52" style="stroke: #000000; stroke-width: 0.8"/>
      </g>
     </g>
     <g id="text_2">
      <!-- 0.2 -->
      <g transform="translate(142.524176 348.157812) scale(0.14 -0.14)">
       <defs>
        <path id="DejaVuSans-32" d="M 1228 531 
L 3431 531 
L 3431 0 
L 469 0 
L 469 531 
Q 828 903 1448 1529 
Q 2069 2156 2228 2338 
Q 2531 2678 2651 2914 
Q 2772 3150 2772 3378 
Q 2772 3750 2511 3984 
Q 2250 4219 1831 4219 
Q 1534 4219 1204 4116 
Q 875 4013 500 3803 
L 500 4441 
Q 881 4594 1212 4672 
Q 1544 4750 1819 4750 
Q 2544 4750 2975 4387 
Q 3406 4025 3406 3419 
Q 3406 3131 3298 2873 
Q 3191 2616 2906 2266 
Q 2828 2175 2409 1742 
Q 1991 1309 1228 531 
z
" transform="scale(0.015625)"/>
       </defs>
       <use xlink:href="#DejaVuSans-30"/>
       <use xlink:href="#DejaVuSans-2e" x="63.623047"/>
       <use xlink:href="#DejaVuSans-32" x="95.410156"/>
      </g>
     </g>
    </g>
    <g id="xtick_3">
     <g id="line2d_3">
      <g>
       <use xlink:href="#mfbd08838e8" x="226.885455" y="330.52" style="stroke: #000000; stroke-width: 0.8"/>
      </g>
     </g>
     <g id="text_3">
      <!-- 0.4 -->
      <g transform="translate(215.753267 348.157812) scale(0.14 -0.14)">
       <defs>
        <path id="DejaVuSans-34" d="M 2419 4116 
L 825 1625 
L 2419 1625 
L 2419 4116 
z
M 2253 4666 
L 3047 4666 
L 3047 1625 
L 3713 1625 
L 3713 1100 
L 3047 1100 
L 3047 0 
L 2419 0 
L 2419 1100 
L 313 1100 
L 313 1709 
L 2253 4666 
z
" transform="scale(0.015625)"/>
       </defs>
       <use xlink:href="#DejaVuSans-30"/>
       <use xlink:href="#DejaVuSans-2e" x="63.623047"/>
       <use xlink:href="#DejaVuSans-34" x="95.410156"/>
      </g>
     </g>
    </g>
    <g id="xtick_4">
     <g id="line2d_4">
      <g>
       <use xlink:href="#mfbd08838e8" x="300.114545" y="330.52" style="stroke: #000000; stroke-width: 0.8"/>
      </g>
     </g>
     <g id="text_4">
      <!-- 0.6 -->
      <g transform="translate(288.982358 348.157812) scale(0.14 -0.14)">
       <defs>
        <path id="DejaVuSans-36" d="M 2113 2584 
Q 1688 2584 1439 2293 
Q 1191 2003 1191 1497 
Q 1191 994 1439 701 
Q 1688 409 2113 409 
Q 2538 409 2786 701 
Q 3034 994 3034 1497 
Q 3034 2003 2786 2293 
Q 2538 2584 2113 2584 
z
M 3366 4563 
L 3366 3988 
Q 3128 4100 2886 4159 
Q 2644 4219 2406 4219 
Q 1781 4219 1451 3797 
Q 1122 3375 1075 2522 
Q 1259 2794 1537 2939 
Q 1816 3084 2150 3084 
Q 2853 3084 3261 2657 
Q 3669 2231 3669 1497 
Q 3669 778 3244 343 
Q 2819 -91 2113 -91 
Q 1303 -91 875 529 
Q 447 1150 447 2328 
Q 447 3434 972 4092 
Q 1497 4750 2381 4750 
Q 2619 4750 2861 4703 
Q 3103 4656 3366 4563 
z
" transform="scale(0.015625)"/>
       </defs>
       <use xlink:href="#DejaVuSans-30"/>
       <use xlink:href="#DejaVuSans-2e" x="63.623047"/>
       <use xlink:href="#DejaVuSans-36" x="95.410156"/>
      </g>
     </g>
    </g>
    <g id="xtick_5">
     <g id="line2d_5">
      <g>
       <use xlink:href="#mfbd08838e8" x="373.343636" y="330.52" style="stroke: #000000; stroke-width: 0.8"/>
      </g>
     </g>
     <g id="text_5">
      <!-- 0.8 -->
      <g transform="translate(362.211449 348.157812) scale(0.14 -0.14)">
       <defs>
        <path id="DejaVuSans-38" d="M 2034 2216 
Q 1584 2216 1326 1975 
Q 1069 1734 1069 1313 
Q 1069 891 1326 650 
Q 1584 409 2034 409 
Q 2484 409 2743 651 
Q 3003 894 3003 1313 
Q 3003 1734 2745 1975 
Q 2488 2216 2034 2216 
z
M 1403 2484 
Q 997 2584 770 2862 
Q 544 3141 544 3541 
Q 544 4100 942 4425 
Q 1341 4750 2034 4750 
Q 2731 4750 3128 4425 
Q 3525 4100 3525 3541 
Q 3525 3141 3298 2862 
Q 3072 2584 2669 2484 
Q 3125 2378 3379 2068 
Q 3634 1759 3634 1313 
Q 3634 634 3220 271 
Q 2806 -91 2034 -91 
Q 1263 -91 848 271 
Q 434 634 434 1313 
Q 434 1759 690 2068 
Q 947 2378 1403 2484 
z
M 1172 3481 
Q 1172 3119 1398 2916 
Q 1625 2713 2034 2713 
Q 2441 2713 2670 2916 
Q 2900 3119 2900 3481 
Q 2900 3844 2670 4047 
Q 2441 4250 2034 4250 
Q 1625 4250 1398 4047 
Q 1172 3844 1172 3481 
z
" transform="scale(0.015625)"/>
       </defs>
       <use xlink:href="#DejaVuSans-30"/>
       <use xlink:href="#DejaVuSans-2e" x="63.623047"/>
       <use xlink:href="#DejaVuSans-38" x="95.410156"/>
      </g>
     </g>
    </g>
    <g id="xtick_6">
     <g id="line2d_6">
      <g>
       <use xlink:href="#mfbd08838e8" x="446.572727" y="330.52" style="stroke: #000000; stroke-width: 0.8"/>
      </g>
     </g>
     <g id="text_6">
      <!-- 1.0 -->
      <g transform="translate(435.44054 348.157812) scale(0.14 -0.14)">
       <defs>
        <path id="DejaVuSans-31" d="M 794 531 
L 1825 531 
L 1825 4091 
L 703 3866 
L 703 4441 
L 1819 4666 
L 2450 4666 
L 2450 531 
L 3481 531 
L 3481 0 
L 794 0 
L 794 531 
z
" transform="scale(0.015625)"/>
       </defs>
       <use xlink:href="#DejaVuSans-31"/>
       <use xlink:href="#DejaVuSans-2e" x="63.623047"/>
       <use xlink:href="#DejaVuSans-30" x="95.410156"/>
      </g>
     </g>
    </g>
    <g id="text_7">
     <!-- False Positive Rate -->
     <g transform="translate(198.447031 365.707187) scale(0.14 -0.14)">
      <defs>
       <path id="DejaVuSans-46" d="M 628 4666 
L 3309 4666 
L 3309 4134 
L 1259 4134 
L 1259 2759 
L 3109 2759 
L 3109 2228 
L 1259 2228 
L 1259 0 
L 628 0 
L 628 4666 
z
" transform="scale(0.015625)"/>
       <path id="DejaVuSans-61" d="M 2194 1759 
Q 1497 1759 1228 1600 
Q 959 1441 959 1056 
Q 959 750 1161 570 
Q 1363 391 1709 391 
Q 2188 391 2477 730 
Q 2766 1069 2766 1631 
L 2766 1759 
L 2194 1759 
z
M 3341 1997 
L 3341 0 
L 2766 0 
L 2766 531 
Q 2569 213 2275 61 
Q 1981 -91 1556 -91 
Q 1019 -91 701 211 
Q 384 513 384 1019 
Q 384 1609 779 1909 
Q 1175 2209 1959 2209 
L 2766 2209 
L 2766 2266 
Q 2766 2663 2505 2880 
Q 2244 3097 1772 3097 
Q 1472 3097 1187 3025 
Q 903 2953 641 2809 
L 641 3341 
Q 956 3463 1253 3523 
Q 1550 3584 1831 3584 
Q 2591 3584 2966 3190 
Q 3341 2797 3341 1997 
z
" transform="scale(0.015625)"/>
       <path id="DejaVuSans-6c" d="M 603 4863 
L 1178 4863 
L 1178 0 
L 603 0 
L 603 4863 
z
" transform="scale(0.015625)"/>
       <path id="DejaVuSans-73" d="M 2834 3397 
L 2834 2853 
Q 2591 2978 2328 3040 
Q 2066 3103 1784 3103 
Q 1356 3103 1142 2972 
Q 928 2841 928 2578 
Q 928 2378 1081 2264 
Q 1234 2150 1697 2047 
L 1894 2003 
Q 2506 1872 2764 1633 
Q 3022 1394 3022 966 
Q 3022 478 2636 193 
Q 2250 -91 1575 -91 
Q 1294 -91 989 -36 
Q 684 19 347 128 
L 347 722 
Q 666 556 975 473 
Q 1284 391 1588 391 
Q 1994 391 2212 530 
Q 2431 669 2431 922 
Q 2431 1156 2273 1281 
Q 2116 1406 1581 1522 
L 1381 1569 
Q 847 1681 609 1914 
Q 372 2147 372 2553 
Q 372 3047 722 3315 
Q 1072 3584 1716 3584 
Q 2034 3584 2315 3537 
Q 2597 3491 2834 3397 
z
" transform="scale(0.015625)"/>
       <path id="DejaVuSans-65" d="M 3597 1894 
L 3597 1613 
L 953 1613 
Q 991 1019 1311 708 
Q 1631 397 2203 397 
Q 2534 397 2845 478 
Q 3156 559 3463 722 
L 3463 178 
Q 3153 47 2828 -22 
Q 2503 -91 2169 -91 
Q 1331 -91 842 396 
Q 353 884 353 1716 
Q 353 2575 817 3079 
Q 1281 3584 2069 3584 
Q 2775 3584 3186 3129 
Q 3597 2675 3597 1894 
z
M 3022 2063 
Q 3016 2534 2758 2815 
Q 2500 3097 2075 3097 
Q 1594 3097 1305 2825 
Q 1016 2553 972 2059 
L 3022 2063 
z
" transform="scale(0.015625)"/>
       <path id="DejaVuSans-20" transform="scale(0.015625)"/>
       <path id="DejaVuSans-50" d="M 1259 4147 
L 1259 2394 
L 2053 2394 
Q 2494 2394 2734 2622 
Q 2975 2850 2975 3272 
Q 2975 3691 2734 3919 
Q 2494 4147 2053 4147 
L 1259 4147 
z
M 628 4666 
L 2053 4666 
Q 2838 4666 3239 4311 
Q 3641 3956 3641 3272 
Q 3641 2581 3239 2228 
Q 2838 1875 2053 1875 
L 1259 1875 
L 1259 0 
L 628 0 
L 628 4666 
z
" transform="scale(0.015625)"/>
       <path id="DejaVuSans-6f" d="M 1959 3097 
Q 1497 3097 1228 2736 
Q 959 2375 959 1747 
Q 959 1119 1226 758 
Q 1494 397 1959 397 
Q 2419 397 2687 759 
Q 2956 1122 2956 1747 
Q 2956 2369 2687 2733 
Q 2419 3097 1959 3097 
z
M 1959 3584 
Q 2709 3584 3137 3096 
Q 3566 2609 3566 1747 
Q 3566 888 3137 398 
Q 2709 -91 1959 -91 
Q 1206 -91 779 398 
Q 353 888 353 1747 
Q 353 2609 779 3096 
Q 1206 3584 1959 3584 
z
" transform="scale(0.015625)"/>
       <path id="DejaVuSans-69" d="M 603 3500 
L 1178 3500 
L 1178 0 
L 603 0 
L 603 3500 
z
M 603 4863 
L 1178 4863 
L 1178 4134 
L 603 4134 
L 603 4863 
z
" transform="scale(0.015625)"/>
       <path id="DejaVuSans-74" d="M 1172 4494 
L 1172 3500 
L 2356 3500 
L 2356 3053 
L 1172 3053 
L 1172 1153 
Q 1172 725 1289 603 
Q 1406 481 1766 481 
L 2356 481 
L 2356 0 
L 1766 0 
Q 1100 0 847 248 
Q 594 497 594 1153 
L 594 3053 
L 172 3053 
L 172 3500 
L 594 3500 
L 594 4494 
L 1172 4494 
z
" transform="scale(0.015625)"/>
       <path id="DejaVuSans-76" d="M 191 3500 
L 800 3500 
L 1894 563 
L 2988 3500 
L 3597 3500 
L 2284 0 
L 1503 0 
L 191 3500 
z
" transform="scale(0.015625)"/>
       <path id="DejaVuSans-52" d="M 2841 2188 
Q 3044 2119 3236 1894 
Q 3428 1669 3622 1275 
L 4263 0 
L 3584 0 
L 2988 1197 
Q 2756 1666 2539 1819 
Q 2322 1972 1947 1972 
L 1259 1972 
L 1259 0 
L 628 0 
L 628 4666 
L 2053 4666 
Q 2853 4666 3247 4331 
Q 3641 3997 3641 3322 
Q 3641 2881 3436 2590 
Q 3231 2300 2841 2188 
z
M 1259 4147 
L 1259 2491 
L 2053 2491 
Q 2509 2491 2742 2702 
Q 2975 2913 2975 3322 
Q 2975 3731 2742 3939 
Q 2509 4147 2053 4147 
L 1259 4147 
z
" transform="scale(0.015625)"/>
      </defs>
      <use xlink:href="#DejaVuSans-46"/>
      <use xlink:href="#DejaVuSans-61" x="48.394531"/>
      <use xlink:href="#DejaVuSans-6c" x="109.673828"/>
      <use xlink:href="#DejaVuSans-73" x="137.457031"/>
      <use xlink:href="#DejaVuSans-65" x="189.556641"/>
      <use xlink:href="#DejaVuSans-20" x="251.080078"/>
      <use xlink:href="#DejaVuSans-50" x="282.867188"/>
      <use xlink:href="#DejaVuSans-6f" x="339.544922"/>
      <use xlink:href="#DejaVuSans-73" x="400.726562"/>
      <use xlink:href="#DejaVuSans-69" x="452.826172"/>
      <use xlink:href="#DejaVuSans-74" x="480.609375"/>
      <use xlink:href="#DejaVuSans-69" x="519.818359"/>
      <use xlink:href="#DejaVuSans-76" x="547.601562"/>
      <use xlink:href="#DejaVuSans-65" x="606.78125"/>
      <use xlink:href="#DejaVuSans-20" x="668.304688"/>
      <use xlink:href="#DejaVuSans-52" x="700.091797"/>
      <use xlink:href="#DejaVuSans-61" x="767.324219"/>
      <use xlink:href="#DejaVuSans-74" x="828.603516"/>
      <use xlink:href="#DejaVuSans-65" x="867.8125"/>
     </g>
    </g>
   </g>
   <g id="matplotlib.axis_2">
    <g id="ytick_1">
     <g id="line2d_7">
      <defs>
       <path id="me59e27a845" d="M 0 0 
L -3.5 0 
" style="stroke: #000000; stroke-width: 0.8"/>
      </defs>
      <g>
       <use xlink:href="#me59e27a845" x="62.12" y="317.045455" style="stroke: #000000; stroke-width: 0.8"/>
      </g>
     </g>
     <g id="text_8">
      <!-- 0.0 -->
      <g transform="translate(32.855625 322.364361) scale(0.14 -0.14)">
       <use xlink:href="#DejaVuSans-30"/>
       <use xlink:href="#DejaVuSans-2e" x="63.623047"/>
       <use xlink:href="#DejaVuSans-30" x="95.410156"/>
      </g>
     </g>
    </g>
    <g id="ytick_2">
     <g id="line2d_8">
      <g>
       <use xlink:href="#me59e27a845" x="62.12" y="263.147273" style="stroke: #000000; stroke-width: 0.8"/>
      </g>
     </g>
     <g id="text_9">
      <!-- 0.2 -->
      <g transform="translate(32.855625 268.466179) scale(0.14 -0.14)">
       <use xlink:href="#DejaVuSans-30"/>
       <use xlink:href="#DejaVuSans-2e" x="63.623047"/>
       <use xlink:href="#DejaVuSans-32" x="95.410156"/>
      </g>
     </g>
    </g>
    <g id="ytick_3">
     <g id="line2d_9">
      <g>
       <use xlink:href="#me59e27a845" x="62.12" y="209.249091" style="stroke: #000000; stroke-width: 0.8"/>
      </g>
     </g>
     <g id="text_10">
      <!-- 0.4 -->
      <g transform="translate(32.855625 214.567997) scale(0.14 -0.14)">
       <use xlink:href="#DejaVuSans-30"/>
       <use xlink:href="#DejaVuSans-2e" x="63.623047"/>
       <use xlink:href="#DejaVuSans-34" x="95.410156"/>
      </g>
     </g>
    </g>
    <g id="ytick_4">
     <g id="line2d_10">
      <g>
       <use xlink:href="#me59e27a845" x="62.12" y="155.350909" style="stroke: #000000; stroke-width: 0.8"/>
      </g>
     </g>
     <g id="text_11">
      <!-- 0.6 -->
      <g transform="translate(32.855625 160.669815) scale(0.14 -0.14)">
       <use xlink:href="#DejaVuSans-30"/>
       <use xlink:href="#DejaVuSans-2e" x="63.623047"/>
       <use xlink:href="#DejaVuSans-36" x="95.410156"/>
      </g>
     </g>
    </g>
    <g id="ytick_5">
     <g id="line2d_11">
      <g>
       <use xlink:href="#me59e27a845" x="62.12" y="101.452727" style="stroke: #000000; stroke-width: 0.8"/>
      </g>
     </g>
     <g id="text_12">
      <!-- 0.8 -->
      <g transform="translate(32.855625 106.771634) scale(0.14 -0.14)">
       <use xlink:href="#DejaVuSans-30"/>
       <use xlink:href="#DejaVuSans-2e" x="63.623047"/>
       <use xlink:href="#DejaVuSans-38" x="95.410156"/>
      </g>
     </g>
    </g>
    <g id="ytick_6">
     <g id="line2d_12">
      <g>
       <use xlink:href="#me59e27a845" x="62.12" y="47.554545" style="stroke: #000000; stroke-width: 0.8"/>
      </g>
     </g>
     <g id="text_13">
      <!-- 1.0 -->
      <g transform="translate(32.855625 52.873452) scale(0.14 -0.14)">
       <use xlink:href="#DejaVuSans-31"/>
       <use xlink:href="#DejaVuSans-2e" x="63.623047"/>
       <use xlink:href="#DejaVuSans-30" x="95.410156"/>
      </g>
     </g>
    </g>
    <g id="text_14">
     <!-- True Positive Rate -->
     <g transform="translate(25.944063 244.641563) rotate(-90) scale(0.14 -0.14)">
      <defs>
       <path id="DejaVuSans-54" d="M -19 4666 
L 3928 4666 
L 3928 4134 
L 2272 4134 
L 2272 0 
L 1638 0 
L 1638 4134 
L -19 4134 
L -19 4666 
z
" transform="scale(0.015625)"/>
       <path id="DejaVuSans-72" d="M 2631 2963 
Q 2534 3019 2420 3045 
Q 2306 3072 2169 3072 
Q 1681 3072 1420 2755 
Q 1159 2438 1159 1844 
L 1159 0 
L 581 0 
L 581 3500 
L 1159 3500 
L 1159 2956 
Q 1341 3275 1631 3429 
Q 1922 3584 2338 3584 
Q 2397 3584 2469 3576 
Q 2541 3569 2628 3553 
L 2631 2963 
z
" transform="scale(0.015625)"/>
       <path id="DejaVuSans-75" d="M 544 1381 
L 544 3500 
L 1119 3500 
L 1119 1403 
Q 1119 906 1312 657 
Q 1506 409 1894 409 
Q 2359 409 2629 706 
Q 2900 1003 2900 1516 
L 2900 3500 
L 3475 3500 
L 3475 0 
L 2900 0 
L 2900 538 
Q 2691 219 2414 64 
Q 2138 -91 1772 -91 
Q 1169 -91 856 284 
Q 544 659 544 1381 
z
M 1991 3584 
L 1991 3584 
z
" transform="scale(0.015625)"/>
      </defs>
      <use xlink:href="#DejaVuSans-54"/>
      <use xlink:href="#DejaVuSans-72" x="46.333984"/>
      <use xlink:href="#DejaVuSans-75" x="87.447266"/>
      <use xlink:href="#DejaVuSans-65" x="150.826172"/>
      <use xlink:href="#DejaVuSans-20" x="212.349609"/>
      <use xlink:href="#DejaVuSans-50" x="244.136719"/>
      <use xlink:href="#DejaVuSans-6f" x="300.814453"/>
      <use xlink:href="#DejaVuSans-73" x="361.996094"/>
      <use xlink:href="#DejaVuSans-69" x="414.095703"/>
      <use xlink:href="#DejaVuSans-74" x="441.878906"/>
      <use xlink:href="#DejaVuSans-69" x="481.087891"/>
      <use xlink:href="#DejaVuSans-76" x="508.871094"/>
      <use xlink:href="#DejaVuSans-65" x="568.050781"/>
      <use xlink:href="#DejaVuSans-20" x="629.574219"/>
      <use xlink:href="#DejaVuSans-52" x="661.361328"/>
      <use xlink:href="#DejaVuSans-61" x="728.59375"/>
      <use xlink:href="#DejaVuSans-74" x="789.873047"/>
      <use xlink:href="#DejaVuSans-65" x="829.082031"/>
     </g>
    </g>
   </g>
   <g id="line2d_13">
    <path d="M 80.427273 317.045455 
L 80.427273 314.17853 
L 80.427273 305.577756 
L 83.5302 305.577756 
L 83.5302 302.710832 
L 86.633128 302.710832 
L 86.633128 285.509284 
L 89.736055 285.509284 
L 89.736055 279.775435 
L 92.838983 279.775435 
L 92.838983 231.037718 
L 95.941911 231.037718 
L 95.941911 202.368472 
L 99.044838 202.368472 
L 99.044838 165.098453 
L 105.250693 165.098453 
L 105.250693 162.231528 
L 111.456549 162.231528 
L 111.456549 153.630754 
L 117.662404 153.630754 
L 117.662404 150.76383 
L 123.868259 150.76383 
L 123.868259 136.429207 
L 126.971186 136.429207 
L 126.971186 130.695358 
L 133.177042 130.695358 
L 133.177042 124.961509 
L 142.485824 124.961509 
L 142.485824 122.094584 
L 151.794607 122.094584 
L 151.794607 119.22766 
L 161.10339 119.22766 
L 161.10339 110.626886 
L 167.309245 110.626886 
L 167.309245 104.893037 
L 173.5151 104.893037 
L 173.5151 99.159188 
L 182.823883 99.159188 
L 182.823883 96.292263 
L 189.029738 96.292263 
L 189.029738 87.691489 
L 192.132666 87.691489 
L 192.132666 84.824565 
L 198.338521 84.824565 
L 198.338521 81.95764 
L 204.544376 81.95764 
L 204.544376 79.090716 
L 207.647304 79.090716 
L 207.647304 73.356867 
L 210.750231 73.356867 
L 210.750231 64.756093 
L 216.956086 64.756093 
L 216.956086 61.889168 
L 235.573652 61.889168 
L 235.573652 59.022244 
L 238.676579 59.022244 
L 238.676579 56.155319 
L 244.882435 56.155319 
L 244.882435 53.288395 
L 257.294145 53.288395 
L 257.294145 50.42147 
L 266.602928 50.42147 
L 266.602928 47.554545 
L 446.572727 47.554545 
" clip-path="url(#p397e8583b8)" style="fill: none; stroke: #1f77b4; stroke-opacity: 0.66; stroke-width: 1.5; stroke-linecap: square"/>
   </g>
   <g id="line2d_14">
    <path d="M 80.427273 317.045455 
L 80.427273 305.328458 
L 86.06028 305.328458 
L 86.06028 199.875494 
L 91.693287 199.875494 
L 91.693287 106.139526 
L 102.959301 106.139526 
L 102.959301 94.42253 
L 119.858322 94.42253 
L 119.858322 82.705534 
L 159.289371 82.705534 
L 159.289371 70.988538 
L 176.188392 70.988538 
L 176.188392 59.271542 
L 226.885455 59.271542 
L 226.885455 47.554545 
L 446.572727 47.554545 
" clip-path="url(#p397e8583b8)" style="fill: none; stroke: #ff7f0e; stroke-opacity: 0.66; stroke-width: 1.5; stroke-linecap: square"/>
   </g>
   <g id="line2d_15">
    <path d="M 80.427273 317.045455 
L 80.427273 313.023202 
L 80.427273 309.00095 
L 83.478485 309.00095 
L 83.478485 304.978697 
L 89.580909 304.978697 
L 89.580909 296.934193 
L 95.683333 296.934193 
L 95.683333 280.845183 
L 98.734545 280.845183 
L 98.734545 272.800678 
L 101.785758 272.800678 
L 101.785758 268.778426 
L 104.83697 268.778426 
L 104.83697 252.689417 
L 107.888182 252.689417 
L 107.888182 240.622659 
L 120.09303 240.622659 
L 120.09303 232.578155 
L 123.144242 232.578155 
L 123.144242 216.489145 
L 126.195455 216.489145 
L 126.195455 192.355631 
L 129.246667 192.355631 
L 129.246667 188.333379 
L 135.349091 188.333379 
L 135.349091 176.266621 
L 138.400303 176.266621 
L 138.400303 168.222117 
L 141.451515 168.222117 
L 141.451515 164.199864 
L 147.553939 164.199864 
L 147.553939 160.177612 
L 150.605152 160.177612 
L 150.605152 152.133107 
L 181.117273 152.133107 
L 181.117273 148.110855 
L 184.168485 148.110855 
L 184.168485 144.088602 
L 190.270909 144.088602 
L 190.270909 136.044098 
L 202.475758 136.044098 
L 202.475758 132.021845 
L 208.578182 132.021845 
L 208.578182 127.999593 
L 236.039091 127.999593 
L 236.039091 119.955088 
L 239.090303 119.955088 
L 239.090303 111.910583 
L 245.192727 111.910583 
L 245.192727 107.888331 
L 248.243939 107.888331 
L 248.243939 103.866079 
L 266.551212 103.866079 
L 266.551212 99.843826 
L 269.602424 99.843826 
L 269.602424 91.799322 
L 290.960909 91.799322 
L 290.960909 87.777069 
L 297.063333 87.777069 
L 297.063333 75.710312 
L 303.165758 75.710312 
L 303.165758 71.68806 
L 309.268182 71.68806 
L 309.268182 67.665807 
L 315.370606 67.665807 
L 315.370606 63.643555 
L 321.47303 63.643555 
L 321.47303 59.621303 
L 370.292424 59.621303 
L 370.292424 51.576798 
L 376.394848 51.576798 
L 376.394848 47.554545 
L 446.572727 47.554545 
" clip-path="url(#p397e8583b8)" style="fill: none; stroke: #2ca02c; stroke-opacity: 0.66; stroke-width: 1.5; stroke-linecap: square"/>
   </g>
   <g id="line2d_16">
    <path d="M 80.427273 317.045455 
L 83.611146 317.045455 
L 83.611146 312.477812 
L 86.79502 312.477812 
L 86.79502 298.774884 
L 89.978893 298.774884 
L 89.978893 269.085208 
L 93.162767 269.085208 
L 93.162767 253.098459 
L 99.530514 253.098459 
L 99.530514 241.679353 
L 105.898261 241.679353 
L 105.898261 239.395532 
L 112.266008 239.395532 
L 112.266008 237.11171 
L 115.449881 237.11171 
L 115.449881 230.260247 
L 118.633755 230.260247 
L 118.633755 223.408783 
L 121.817628 223.408783 
L 121.817628 221.124961 
L 125.001502 221.124961 
L 125.001502 207.422034 
L 128.185375 207.422034 
L 128.185375 191.435285 
L 131.369249 191.435285 
L 131.369249 186.867643 
L 134.553123 186.867643 
L 134.553123 182.3 
L 137.736996 182.3 
L 137.736996 175.448536 
L 144.104743 175.448536 
L 144.104743 161.745609 
L 147.288617 161.745609 
L 147.288617 152.610324 
L 150.47249 152.610324 
L 150.47249 148.042681 
L 153.656364 148.042681 
L 153.656364 143.475039 
L 156.840237 143.475039 
L 156.840237 141.191217 
L 163.207984 141.191217 
L 163.207984 138.907396 
L 166.391858 138.907396 
L 166.391858 132.055932 
L 169.575731 132.055932 
L 169.575731 127.48829 
L 172.759605 127.48829 
L 172.759605 125.204468 
L 175.943478 125.204468 
L 175.943478 120.636826 
L 179.127352 120.636826 
L 179.127352 113.785362 
L 185.495099 113.785362 
L 185.495099 111.501541 
L 195.046719 111.501541 
L 195.046719 102.366256 
L 198.230593 102.366256 
L 198.230593 100.082435 
L 204.59834 100.082435 
L 204.59834 95.514792 
L 207.782213 95.514792 
L 207.782213 93.230971 
L 217.333834 93.230971 
L 217.333834 90.947149 
L 220.517708 90.947149 
L 220.517708 84.095686 
L 226.885455 84.095686 
L 226.885455 81.811864 
L 239.620949 81.811864 
L 239.620949 79.528043 
L 242.804822 79.528043 
L 242.804822 77.244222 
L 261.908063 77.244222 
L 261.908063 72.676579 
L 265.091937 72.676579 
L 265.091937 70.392758 
L 277.827431 70.392758 
L 277.827431 68.108937 
L 281.011304 68.108937 
L 281.011304 63.541294 
L 284.195178 63.541294 
L 284.195178 56.689831 
L 316.033913 56.689831 
L 316.033913 49.838367 
L 335.137154 49.838367 
L 335.137154 47.554545 
L 446.572727 47.554545 
" clip-path="url(#p397e8583b8)" style="fill: none; stroke: #d62728; stroke-opacity: 0.66; stroke-width: 1.5; stroke-linecap: square"/>
   </g>
   <g id="line2d_17">
    <path d="M 80.427273 317.045455 
L 80.427273 305.328458 
L 82.36455 305.328458 
L 82.36455 294.913351 
L 84.301828 294.913351 
L 84.301828 293.611462 
L 86.239105 293.611462 
L 86.239105 272.781247 
L 88.176383 272.781247 
L 88.176383 268.875582 
L 90.11366 268.875582 
L 90.11366 255.856697 
L 92.050938 255.856697 
L 92.050938 245.44159 
L 93.988215 245.44159 
L 93.988215 244.139701 
L 95.925493 244.139701 
L 95.925493 242.837813 
L 97.862771 242.837813 
L 97.862771 235.026482 
L 99.800048 235.026482 
L 99.800048 227.215152 
L 103.674603 227.215152 
L 103.674603 224.611375 
L 105.611881 224.611375 
L 105.611881 219.403821 
L 107.549158 219.403821 
L 107.549158 218.101932 
L 109.486436 218.101932 
L 109.486436 216.800044 
L 111.423713 216.800044 
L 111.423713 215.498155 
L 113.360991 215.498155 
L 113.360991 214.196267 
L 117.235546 214.196267 
L 117.235546 212.894379 
L 121.110101 212.894379 
L 121.110101 208.988713 
L 123.047379 208.988713 
L 123.047379 207.686825 
L 126.921934 207.686825 
L 126.921934 203.781159 
L 128.859211 203.781159 
L 128.859211 202.479271 
L 134.671044 202.479271 
L 134.671044 199.875494 
L 136.608321 199.875494 
L 136.608321 195.969829 
L 138.545599 195.969829 
L 138.545599 186.85661 
L 140.482876 186.85661 
L 140.482876 185.554721 
L 142.420154 185.554721 
L 142.420154 177.74339 
L 144.357431 177.74339 
L 144.357431 176.441502 
L 146.294709 176.441502 
L 146.294709 173.837725 
L 148.231987 173.837725 
L 148.231987 172.535837 
L 155.981097 172.535837 
L 155.981097 171.233948 
L 161.792929 171.233948 
L 161.792929 168.630171 
L 163.730207 168.630171 
L 163.730207 164.724506 
L 165.667484 164.724506 
L 165.667484 162.120729 
L 167.604762 162.120729 
L 167.604762 160.818841 
L 171.479317 160.818841 
L 171.479317 153.00751 
L 175.353872 153.00751 
L 175.353872 151.705621 
L 177.29115 151.705621 
L 177.29115 150.403733 
L 181.165705 150.403733 
L 181.165705 149.101845 
L 183.102982 149.101845 
L 183.102982 147.799956 
L 190.852092 147.799956 
L 190.852092 143.894291 
L 192.78937 143.894291 
L 192.78937 142.592402 
L 194.726647 142.592402 
L 194.726647 141.290514 
L 198.601203 141.290514 
L 198.601203 139.988625 
L 200.53848 139.988625 
L 200.53848 133.479183 
L 202.475758 133.479183 
L 202.475758 132.177295 
L 204.413035 132.177295 
L 204.413035 130.875406 
L 206.350313 130.875406 
L 206.350313 129.573518 
L 216.0367 129.573518 
L 216.0367 128.271629 
L 221.848533 128.271629 
L 221.848533 126.969741 
L 223.78581 126.969741 
L 223.78581 125.667852 
L 227.660366 125.667852 
L 227.660366 123.064076 
L 231.534921 123.064076 
L 231.534921 117.856522 
L 233.472198 117.856522 
L 233.472198 115.252745 
L 237.346753 115.252745 
L 237.346753 112.648968 
L 239.284031 112.648968 
L 239.284031 110.045191 
L 243.158586 110.045191 
L 243.158586 104.837637 
L 247.033141 104.837637 
L 247.033141 103.535749 
L 250.907696 103.535749 
L 250.907696 99.630083 
L 258.656806 99.630083 
L 258.656806 98.328195 
L 260.594084 98.328195 
L 260.594084 97.026307 
L 262.531361 97.026307 
L 262.531361 95.724418 
L 268.343194 95.724418 
L 268.343194 93.120641 
L 274.155026 93.120641 
L 274.155026 90.516864 
L 276.092304 90.516864 
L 276.092304 85.30931 
L 278.029582 85.30931 
L 278.029582 84.007422 
L 291.590524 84.007422 
L 291.590524 81.403645 
L 295.465079 81.403645 
L 295.465079 80.101757 
L 297.402357 80.101757 
L 297.402357 78.799868 
L 305.151467 78.799868 
L 305.151467 77.49798 
L 307.088745 77.49798 
L 307.088745 76.196091 
L 312.900577 76.196091 
L 312.900577 73.592314 
L 314.837855 73.592314 
L 314.837855 70.988538 
L 324.524242 70.988538 
L 324.524242 67.082872 
L 328.398797 67.082872 
L 328.398797 63.177207 
L 334.21063 63.177207 
L 334.21063 59.271542 
L 343.897018 59.271542 
L 343.897018 57.969653 
L 353.583405 57.969653 
L 353.583405 56.667765 
L 357.457961 56.667765 
L 357.457961 55.365876 
L 365.207071 55.365876 
L 365.207071 54.063988 
L 369.081626 54.063988 
L 369.081626 52.762099 
L 380.705291 52.762099 
L 380.705291 51.460211 
L 409.764454 51.460211 
L 409.764454 50.158322 
L 438.823617 50.158322 
L 438.823617 47.554545 
L 446.572727 47.554545 
L 446.572727 47.554545 
" clip-path="url(#p397e8583b8)" style="fill: none; stroke: #9467bd; stroke-opacity: 0.66; stroke-width: 1.5; stroke-linecap: square"/>
   </g>
   <g id="line2d_18">
    <path d="M 80.427273 317.045455 
L 84.588017 317.045455 
L 84.588017 312.233117 
L 88.74876 312.233117 
L 88.74876 304.212554 
L 92.909504 304.212554 
L 92.909504 299.400216 
L 97.070248 299.400216 
L 97.070248 283.359091 
L 101.230992 283.359091 
L 101.230992 246.464502 
L 105.391736 246.464502 
L 105.391736 244.86039 
L 109.552479 244.86039 
L 109.552479 238.443939 
L 113.713223 238.443939 
L 113.713223 204.757576 
L 117.873967 204.757576 
L 117.873967 179.091775 
L 122.034711 179.091775 
L 122.034711 175.88355 
L 126.195455 175.88355 
L 126.195455 167.862987 
L 130.356198 167.862987 
L 130.356198 166.258874 
L 134.516942 166.258874 
L 134.516942 161.446537 
L 138.677686 161.446537 
L 138.677686 159.842424 
L 142.83843 159.842424 
L 142.83843 158.238312 
L 146.999174 158.238312 
L 146.999174 156.634199 
L 151.159917 156.634199 
L 151.159917 153.425974 
L 155.320661 153.425974 
L 155.320661 148.613636 
L 159.481405 148.613636 
L 159.481405 142.197186 
L 167.802893 142.197186 
L 167.802893 129.364286 
L 171.963636 129.364286 
L 171.963636 116.531385 
L 176.12438 116.531385 
L 176.12438 108.510823 
L 180.285124 108.510823 
L 180.285124 105.302597 
L 184.445868 105.302597 
L 184.445868 103.698485 
L 188.606612 103.698485 
L 188.606612 102.094372 
L 196.928099 102.094372 
L 196.928099 98.886147 
L 205.249587 98.886147 
L 205.249587 94.07381 
L 209.410331 94.07381 
L 209.410331 89.261472 
L 213.571074 89.261472 
L 213.571074 84.449134 
L 217.731818 84.449134 
L 217.731818 73.220346 
L 226.053306 73.220346 
L 226.053306 68.408009 
L 230.21405 68.408009 
L 230.21405 65.199784 
L 234.374793 65.199784 
L 234.374793 63.595671 
L 238.535537 63.595671 
L 238.535537 61.991558 
L 242.696281 61.991558 
L 242.696281 60.387446 
L 251.017769 60.387446 
L 251.017769 58.783333 
L 267.660744 58.783333 
L 267.660744 57.179221 
L 284.303719 57.179221 
L 284.303719 53.970996 
L 367.518595 53.970996 
L 367.518595 52.366883 
L 388.322314 52.366883 
L 388.322314 50.762771 
L 409.126033 50.762771 
L 409.126033 49.158658 
L 425.769008 49.158658 
L 425.769008 47.554545 
L 446.572727 47.554545 
" clip-path="url(#p397e8583b8)" style="fill: none; stroke: #8c564b; stroke-opacity: 0.66; stroke-width: 1.5; stroke-linecap: square"/>
   </g>
   <g id="line2d_19">
    <path d="M 80.427273 317.045455 
L 80.427273 315.453189 
L 81.480929 315.453189 
L 81.480929 314.25899 
L 82.534585 314.25899 
L 82.534585 309.084128 
L 83.061413 309.084128 
L 83.061413 308.686062 
L 83.588241 308.686062 
L 83.588241 307.889929 
L 84.115069 307.889929 
L 84.115069 305.899597 
L 85.168725 305.899597 
L 85.168725 301.122801 
L 85.695553 301.122801 
L 85.695553 300.326668 
L 86.222381 300.326668 
L 86.222381 299.928602 
L 86.749209 299.928602 
L 86.749209 296.346005 
L 87.276037 296.346005 
L 87.276037 287.190479 
L 87.802865 287.190479 
L 87.802865 286.394347 
L 88.329693 286.394347 
L 88.329693 285.598214 
L 88.856521 285.598214 
L 88.856521 283.607882 
L 89.383349 283.607882 
L 89.383349 273.656224 
L 89.910177 273.656224 
L 89.910177 266.49103 
L 90.437005 266.49103 
L 90.437005 265.694897 
L 90.963833 265.694897 
L 90.963833 264.898765 
L 91.490661 264.898765 
L 91.490661 261.316168 
L 92.017489 261.316168 
L 92.017489 257.733571 
L 92.544317 257.733571 
L 92.544317 256.539372 
L 93.071145 256.539372 
L 93.071145 254.150974 
L 93.597973 254.150974 
L 93.597973 252.956775 
L 94.124801 252.956775 
L 94.124801 250.17031 
L 95.178457 250.17031 
L 95.178457 249.374178 
L 95.705284 249.374178 
L 95.705284 245.791581 
L 96.232112 245.791581 
L 96.232112 245.393514 
L 96.75894 245.393514 
L 96.75894 244.995448 
L 97.285768 244.995448 
L 97.285768 244.199315 
L 97.812596 244.199315 
L 97.812596 243.403182 
L 98.339424 243.403182 
L 98.339424 241.014784 
L 98.866252 241.014784 
L 98.866252 239.422519 
L 99.919908 239.422519 
L 99.919908 238.22832 
L 100.446736 238.22832 
L 100.446736 237.830254 
L 100.973564 237.830254 
L 100.973564 227.082463 
L 101.500392 227.082463 
L 101.500392 226.684396 
L 102.02722 226.684396 
L 102.02722 226.28633 
L 103.080876 226.28633 
L 103.080876 225.092131 
L 103.607704 225.092131 
L 103.607704 223.897932 
L 104.134532 223.897932 
L 104.134532 222.305667 
L 104.66136 222.305667 
L 104.66136 221.509534 
L 105.188188 221.509534 
L 105.188188 221.111468 
L 105.715016 221.111468 
L 105.715016 220.315335 
L 106.768672 220.315335 
L 106.768672 218.325003 
L 107.2955 218.325003 
L 107.2955 217.130804 
L 108.349156 217.130804 
L 108.349156 216.334672 
L 108.875984 216.334672 
L 108.875984 214.34434 
L 109.402812 214.34434 
L 109.402812 211.955942 
L 109.92964 211.955942 
L 109.92964 211.159809 
L 110.983296 211.159809 
L 110.983296 210.761743 
L 112.036952 210.761743 
L 112.036952 206.78108 
L 112.56378 206.78108 
L 112.56378 202.800416 
L 113.617436 202.800416 
L 113.617436 201.606217 
L 114.144264 201.606217 
L 114.144264 199.615886 
L 114.671092 199.615886 
L 114.671092 198.421687 
L 115.19792 198.421687 
L 115.19792 197.625554 
L 115.724748 197.625554 
L 115.724748 197.227488 
L 117.305232 197.227488 
L 117.305232 196.829421 
L 117.83206 196.829421 
L 117.83206 196.431355 
L 118.358888 196.431355 
L 118.358888 196.033289 
L 118.885716 196.033289 
L 118.885716 194.042957 
L 119.412544 194.042957 
L 119.412544 192.450692 
L 119.939372 192.450692 
L 119.939372 191.654559 
L 120.4662 191.654559 
L 120.4662 190.858426 
L 122.573512 190.858426 
L 122.573512 190.062294 
L 124.153996 190.062294 
L 124.153996 189.664227 
L 125.73448 189.664227 
L 125.73448 188.868095 
L 126.261308 188.868095 
L 126.261308 187.673896 
L 126.788136 187.673896 
L 126.788136 185.683564 
L 128.36862 185.683564 
L 128.36862 184.887431 
L 128.895448 184.887431 
L 128.895448 184.489365 
L 129.949104 184.489365 
L 129.949104 183.295166 
L 130.475932 183.295166 
L 130.475932 182.8971 
L 131.529588 182.8971 
L 131.529588 181.7029 
L 132.056416 181.7029 
L 132.056416 179.314502 
L 132.583244 179.314502 
L 132.583244 178.51837 
L 133.110072 178.51837 
L 133.110072 177.722237 
L 133.6369 177.722237 
L 133.6369 176.926104 
L 134.163728 176.926104 
L 134.163728 176.129972 
L 135.217384 176.129972 
L 135.217384 174.935773 
L 135.744212 174.935773 
L 135.744212 174.537706 
L 136.27104 174.537706 
L 136.27104 173.741574 
L 136.797868 173.741574 
L 136.797868 173.343507 
L 137.324696 173.343507 
L 137.324696 171.751242 
L 137.851524 171.751242 
L 137.851524 170.955109 
L 139.432008 170.955109 
L 139.432008 169.76091 
L 139.958836 169.76091 
L 139.958836 168.964778 
L 140.485664 168.964778 
L 140.485664 167.770579 
L 141.53932 167.770579 
L 141.53932 167.372512 
L 142.066148 167.372512 
L 142.066148 166.974446 
L 143.119804 166.974446 
L 143.119804 166.178313 
L 143.646632 166.178313 
L 143.646632 165.780247 
L 144.17346 165.780247 
L 144.17346 165.382181 
L 144.700288 165.382181 
L 144.700288 164.984114 
L 145.227116 164.984114 
L 145.227116 164.586048 
L 145.753944 164.586048 
L 145.753944 163.789915 
L 147.334428 163.789915 
L 147.334428 162.19765 
L 147.861256 162.19765 
L 147.861256 161.799584 
L 148.388084 161.799584 
L 148.388084 161.401517 
L 148.914912 161.401517 
L 148.914912 161.003451 
L 149.44174 161.003451 
L 149.44174 160.207318 
L 149.968568 160.207318 
L 149.968568 158.615053 
L 150.495396 158.615053 
L 150.495396 157.420854 
L 151.549052 157.420854 
L 151.549052 155.828589 
L 152.07588 155.828589 
L 152.07588 155.430522 
L 153.129536 155.430522 
L 153.129536 155.032456 
L 153.656364 155.032456 
L 153.656364 154.236323 
L 155.236848 154.236323 
L 155.236848 153.838257 
L 155.763676 153.838257 
L 155.763676 153.440191 
L 156.290504 153.440191 
L 156.290504 153.042124 
L 156.817332 153.042124 
L 156.817332 152.245992 
L 157.34416 152.245992 
L 157.34416 151.051793 
L 157.870988 151.051793 
L 157.870988 150.653726 
L 158.397816 150.653726 
L 158.397816 149.857594 
L 158.924644 149.857594 
L 158.924644 149.459527 
L 159.9783 149.459527 
L 159.9783 149.061461 
L 160.505128 149.061461 
L 160.505128 148.265328 
L 161.031956 148.265328 
L 161.031956 147.867262 
L 161.558784 147.867262 
L 161.558784 147.469196 
L 162.61244 147.469196 
L 162.61244 147.071129 
L 163.139267 147.071129 
L 163.139267 145.87693 
L 163.666095 145.87693 
L 163.666095 143.488532 
L 166.300235 143.488532 
L 166.300235 143.090466 
L 166.827063 143.090466 
L 166.827063 142.294333 
L 167.353891 142.294333 
L 167.353891 141.896267 
L 169.461203 141.896267 
L 169.461203 141.498201 
L 169.988031 141.498201 
L 169.988031 141.100134 
L 171.041687 141.100134 
L 171.041687 140.702068 
L 171.568515 140.702068 
L 171.568515 139.905935 
L 172.095343 139.905935 
L 172.095343 139.507869 
L 172.622171 139.507869 
L 172.622171 138.711736 
L 173.675827 138.711736 
L 173.675827 138.31367 
L 174.202655 138.31367 
L 174.202655 137.915604 
L 174.729483 137.915604 
L 174.729483 135.925272 
L 176.309967 135.925272 
L 176.309967 135.527206 
L 177.890451 135.527206 
L 177.890451 134.731073 
L 178.417279 134.731073 
L 178.417279 134.333007 
L 178.944107 134.333007 
L 178.944107 133.536874 
L 179.470935 133.536874 
L 179.470935 131.944609 
L 179.997763 131.944609 
L 179.997763 130.75041 
L 181.578247 130.75041 
L 181.578247 129.556211 
L 182.631903 129.556211 
L 182.631903 129.158144 
L 183.158731 129.158144 
L 183.158731 128.760078 
L 183.685559 128.760078 
L 183.685559 127.963945 
L 184.212387 127.963945 
L 184.212387 127.167813 
L 185.266043 127.167813 
L 185.266043 126.37168 
L 185.792871 126.37168 
L 185.792871 125.973614 
L 186.319699 125.973614 
L 186.319699 124.381348 
L 187.373355 124.381348 
L 187.373355 123.983282 
L 188.953839 123.983282 
L 188.953839 123.585216 
L 189.480667 123.585216 
L 189.480667 123.187149 
L 190.007495 123.187149 
L 190.007495 120.798751 
L 190.534323 120.798751 
L 190.534323 120.002619 
L 191.061151 120.002619 
L 191.061151 119.604552 
L 192.641635 119.604552 
L 192.641635 119.206486 
L 193.695291 119.206486 
L 193.695291 118.410353 
L 194.222119 118.410353 
L 194.222119 117.61422 
L 194.748947 117.61422 
L 194.748947 117.216154 
L 195.275775 117.216154 
L 195.275775 116.420021 
L 196.329431 116.420021 
L 196.329431 116.021955 
L 197.383087 116.021955 
L 197.383087 115.623889 
L 199.490399 115.623889 
L 199.490399 114.827756 
L 201.070883 114.827756 
L 201.070883 114.031623 
L 201.597711 114.031623 
L 201.597711 113.235491 
L 202.124539 113.235491 
L 202.124539 112.837424 
L 203.178195 112.837424 
L 203.178195 112.439358 
L 204.231851 112.439358 
L 204.231851 110.449026 
L 205.285507 110.449026 
L 205.285507 110.05096 
L 206.865991 110.05096 
L 206.865991 109.652894 
L 207.919647 109.652894 
L 207.919647 109.254827 
L 208.973303 109.254827 
L 208.973303 108.856761 
L 209.500131 108.856761 
L 209.500131 108.458695 
L 210.553787 108.458695 
L 210.553787 107.662562 
L 212.134271 107.662562 
L 212.134271 107.264496 
L 212.661099 107.264496 
L 212.661099 106.468363 
L 213.714755 106.468363 
L 213.714755 104.478031 
L 214.768411 104.478031 
L 214.768411 103.283832 
L 215.822067 103.283832 
L 215.822067 102.4877 
L 217.402551 102.4877 
L 217.402551 102.089633 
L 218.456207 102.089633 
L 218.456207 101.293501 
L 219.509863 101.293501 
L 219.509863 100.895434 
L 220.036691 100.895434 
L 220.036691 100.497368 
L 220.563519 100.497368 
L 220.563519 100.099302 
L 222.144003 100.099302 
L 222.144003 98.905103 
L 223.197659 98.905103 
L 223.197659 98.507036 
L 223.724487 98.507036 
L 223.724487 98.10897 
L 224.251315 98.10897 
L 224.251315 96.914771 
L 226.358627 96.914771 
L 226.358627 96.118638 
L 226.885455 96.118638 
L 226.885455 95.720572 
L 227.412283 95.720572 
L 227.412283 95.322506 
L 227.939111 95.322506 
L 227.939111 94.526373 
L 230.046422 94.526373 
L 230.046422 94.128307 
L 230.57325 94.128307 
L 230.57325 93.73024 
L 232.680562 93.73024 
L 232.680562 93.332174 
L 233.20739 93.332174 
L 233.20739 92.536041 
L 235.84153 92.536041 
L 235.84153 92.137975 
L 236.368358 92.137975 
L 236.368358 90.54571 
L 236.895186 90.54571 
L 236.895186 89.749577 
L 237.948842 89.749577 
L 237.948842 88.555378 
L 238.47567 88.555378 
L 238.47567 87.759245 
L 242.163466 87.759245 
L 242.163466 87.361179 
L 242.690294 87.361179 
L 242.690294 86.963113 
L 243.217122 86.963113 
L 243.217122 86.565046 
L 244.270778 86.565046 
L 244.270778 85.768914 
L 244.797606 85.768914 
L 244.797606 85.370847 
L 245.324434 85.370847 
L 245.324434 84.972781 
L 246.37809 84.972781 
L 246.37809 84.574715 
L 249.539058 84.574715 
L 249.539058 84.176648 
L 251.64637 84.176648 
L 251.64637 83.380516 
L 252.173198 83.380516 
L 252.173198 82.584383 
L 255.334166 82.584383 
L 255.334166 82.186317 
L 257.441478 82.186317 
L 257.441478 81.390184 
L 257.968306 81.390184 
L 257.968306 80.594051 
L 259.54879 80.594051 
L 259.54879 80.195985 
L 260.602446 80.195985 
L 260.602446 78.60372 
L 261.129274 78.60372 
L 261.129274 77.409521 
L 262.18293 77.409521 
L 262.18293 77.011454 
L 262.709758 77.011454 
L 262.709758 76.613388 
L 264.81707 76.613388 
L 264.81707 75.817255 
L 266.924382 75.817255 
L 266.924382 75.419189 
L 267.45121 75.419189 
L 267.45121 74.623056 
L 267.978038 74.623056 
L 267.978038 73.826924 
L 269.031694 73.826924 
L 269.031694 73.030791 
L 269.558522 73.030791 
L 269.558522 72.632725 
L 270.08535 72.632725 
L 270.08535 72.234658 
L 276.407286 72.234658 
L 276.407286 71.836592 
L 277.98777 71.836592 
L 277.98777 71.040459 
L 279.041426 71.040459 
L 279.041426 70.642393 
L 280.095082 70.642393 
L 280.095082 69.448194 
L 283.782878 69.448194 
L 283.782878 69.050128 
L 284.309706 69.050128 
L 284.309706 68.652061 
L 284.836534 68.652061 
L 284.836534 68.253995 
L 285.89019 68.253995 
L 285.89019 67.855929 
L 287.470674 67.855929 
L 287.470674 67.457862 
L 289.577986 67.457862 
L 289.577986 65.865597 
L 292.738954 65.865597 
L 292.738954 65.467531 
L 295.899922 65.467531 
L 295.899922 64.671398 
L 296.42675 64.671398 
L 296.42675 64.273332 
L 298.534061 64.273332 
L 298.534061 63.875265 
L 300.641373 63.875265 
L 300.641373 63.079133 
L 301.168201 63.079133 
L 301.168201 62.681066 
L 303.275513 62.681066 
L 303.275513 62.283 
L 304.329169 62.283 
L 304.329169 61.884934 
L 310.124277 61.884934 
L 310.124277 61.486867 
L 314.865729 61.486867 
L 314.865729 61.088801 
L 315.919385 61.088801 
L 315.919385 60.292668 
L 330.143741 60.292668 
L 330.143741 59.894602 
L 336.992505 59.894602 
L 336.992505 59.496536 
L 338.046161 59.496536 
L 338.046161 59.098469 
L 341.207129 59.098469 
L 341.207129 58.302337 
L 342.260785 58.302337 
L 342.260785 57.90427 
L 345.421753 57.90427 
L 345.421753 57.506204 
L 346.475409 57.506204 
L 346.475409 57.108138 
L 360.172937 57.108138 
L 360.172937 56.312005 
L 365.441216 56.312005 
L 365.441216 55.515872 
L 368.075356 55.515872 
L 368.075356 55.117806 
L 370.709496 55.117806 
L 370.709496 54.719739 
L 374.92412 54.719739 
L 374.92412 54.321673 
L 377.031432 54.321673 
L 377.031432 53.923607 
L 378.085088 53.923607 
L 378.085088 53.52554 
L 378.611916 53.52554 
L 378.611916 53.127474 
L 387.041164 53.127474 
L 387.041164 52.729408 
L 388.621648 52.729408 
L 388.621648 52.331341 
L 392.836272 52.331341 
L 392.836272 51.535209 
L 393.3631 51.535209 
L 393.3631 51.137142 
L 393.889928 51.137142 
L 393.889928 50.739076 
L 394.943584 50.739076 
L 394.943584 50.34101 
L 400.738692 50.34101 
L 400.738692 49.942943 
L 406.006972 49.942943 
L 406.006972 49.544877 
L 411.80208 49.544877 
L 411.80208 49.146811 
L 415.489876 49.146811 
L 415.489876 48.748744 
L 430.24106 48.748744 
L 430.24106 47.952612 
L 431.821543 47.952612 
L 431.821543 47.554545 
L 446.572727 47.554545 
L 446.572727 47.554545 
" clip-path="url(#p397e8583b8)" style="fill: none; stroke: #000000; stroke-width: 1.5; stroke-linecap: square"/>
   </g>
   <g id="line2d_20">
    <path d="M -1 376.977674 
L 2.760055 374.210193 
L 13.855372 366.043802 
L 24.950689 357.87741 
L 36.046006 349.711019 
L 47.141322 341.544628 
L 58.236639 333.378237 
L 69.331956 325.211846 
L 80.427273 317.045455 
L 91.52259 308.879063 
L 102.617906 300.712672 
L 113.713223 292.546281 
L 124.80854 284.37989 
L 135.903857 276.213499 
L 146.999174 268.047107 
L 158.09449 259.880716 
L 169.189807 251.714325 
L 180.285124 243.547934 
L 191.380441 235.381543 
L 202.475758 227.215152 
L 213.571074 219.04876 
L 224.666391 210.882369 
L 235.761708 202.715978 
L 246.857025 194.549587 
L 257.952342 186.383196 
L 269.047658 178.216804 
L 280.142975 170.050413 
L 291.238292 161.884022 
L 302.333609 153.717631 
L 313.428926 145.55124 
L 324.524242 137.384848 
L 335.619559 129.218457 
L 346.714876 121.052066 
L 357.810193 112.885675 
L 368.90551 104.719284 
L 380.000826 96.552893 
L 391.096143 88.386501 
L 402.19146 80.22011 
L 413.286777 72.053719 
L 424.382094 63.887328 
L 435.47741 55.720937 
L 446.572727 47.554545 
L 457.668044 39.388154 
L 468.763361 31.221763 
L 479.858678 23.055372 
L 481 22.215334 
" clip-path="url(#p397e8583b8)" style="fill: none; stroke-dasharray: 5.55,2.4; stroke-dashoffset: 0; stroke: #000000; stroke-width: 1.5"/>
   </g>
   <g id="patch_3">
    <path d="M 62.12 330.52 
L 62.12 34.08 
" style="fill: none; stroke: #000000; stroke-width: 0.8; stroke-linejoin: miter; stroke-linecap: square"/>
   </g>
   <g id="patch_4">
    <path d="M 62.12 330.52 
L 464.88 330.52 
" style="fill: none; stroke: #000000; stroke-width: 0.8; stroke-linejoin: miter; stroke-linecap: square"/>
   </g>
   <g id="text_15">
    <!-- LOO Transfer, auc: 0.7889 -->
    <g transform="translate(154.138562 28.08) scale(0.168 -0.168)">
     <defs>
      <path id="DejaVuSans-4c" d="M 628 4666 
L 1259 4666 
L 1259 531 
L 3531 531 
L 3531 0 
L 628 0 
L 628 4666 
z
" transform="scale(0.015625)"/>
      <path id="DejaVuSans-4f" d="M 2522 4238 
Q 1834 4238 1429 3725 
Q 1025 3213 1025 2328 
Q 1025 1447 1429 934 
Q 1834 422 2522 422 
Q 3209 422 3611 934 
Q 4013 1447 4013 2328 
Q 4013 3213 3611 3725 
Q 3209 4238 2522 4238 
z
M 2522 4750 
Q 3503 4750 4090 4092 
Q 4678 3434 4678 2328 
Q 4678 1225 4090 567 
Q 3503 -91 2522 -91 
Q 1538 -91 948 565 
Q 359 1222 359 2328 
Q 359 3434 948 4092 
Q 1538 4750 2522 4750 
z
" transform="scale(0.015625)"/>
      <path id="DejaVuSans-6e" d="M 3513 2113 
L 3513 0 
L 2938 0 
L 2938 2094 
Q 2938 2591 2744 2837 
Q 2550 3084 2163 3084 
Q 1697 3084 1428 2787 
Q 1159 2491 1159 1978 
L 1159 0 
L 581 0 
L 581 3500 
L 1159 3500 
L 1159 2956 
Q 1366 3272 1645 3428 
Q 1925 3584 2291 3584 
Q 2894 3584 3203 3211 
Q 3513 2838 3513 2113 
z
" transform="scale(0.015625)"/>
      <path id="DejaVuSans-66" d="M 2375 4863 
L 2375 4384 
L 1825 4384 
Q 1516 4384 1395 4259 
Q 1275 4134 1275 3809 
L 1275 3500 
L 2222 3500 
L 2222 3053 
L 1275 3053 
L 1275 0 
L 697 0 
L 697 3053 
L 147 3053 
L 147 3500 
L 697 3500 
L 697 3744 
Q 697 4328 969 4595 
Q 1241 4863 1831 4863 
L 2375 4863 
z
" transform="scale(0.015625)"/>
      <path id="DejaVuSans-2c" d="M 750 794 
L 1409 794 
L 1409 256 
L 897 -744 
L 494 -744 
L 750 256 
L 750 794 
z
" transform="scale(0.015625)"/>
      <path id="DejaVuSans-63" d="M 3122 3366 
L 3122 2828 
Q 2878 2963 2633 3030 
Q 2388 3097 2138 3097 
Q 1578 3097 1268 2742 
Q 959 2388 959 1747 
Q 959 1106 1268 751 
Q 1578 397 2138 397 
Q 2388 397 2633 464 
Q 2878 531 3122 666 
L 3122 134 
Q 2881 22 2623 -34 
Q 2366 -91 2075 -91 
Q 1284 -91 818 406 
Q 353 903 353 1747 
Q 353 2603 823 3093 
Q 1294 3584 2113 3584 
Q 2378 3584 2631 3529 
Q 2884 3475 3122 3366 
z
" transform="scale(0.015625)"/>
      <path id="DejaVuSans-3a" d="M 750 794 
L 1409 794 
L 1409 0 
L 750 0 
L 750 794 
z
M 750 3309 
L 1409 3309 
L 1409 2516 
L 750 2516 
L 750 3309 
z
" transform="scale(0.015625)"/>
      <path id="DejaVuSans-37" d="M 525 4666 
L 3525 4666 
L 3525 4397 
L 1831 0 
L 1172 0 
L 2766 4134 
L 525 4134 
L 525 4666 
z
" transform="scale(0.015625)"/>
      <path id="DejaVuSans-39" d="M 703 97 
L 703 672 
Q 941 559 1184 500 
Q 1428 441 1663 441 
Q 2288 441 2617 861 
Q 2947 1281 2994 2138 
Q 2813 1869 2534 1725 
Q 2256 1581 1919 1581 
Q 1219 1581 811 2004 
Q 403 2428 403 3163 
Q 403 3881 828 4315 
Q 1253 4750 1959 4750 
Q 2769 4750 3195 4129 
Q 3622 3509 3622 2328 
Q 3622 1225 3098 567 
Q 2575 -91 1691 -91 
Q 1453 -91 1209 -44 
Q 966 3 703 97 
z
M 1959 2075 
Q 2384 2075 2632 2365 
Q 2881 2656 2881 3163 
Q 2881 3666 2632 3958 
Q 2384 4250 1959 4250 
Q 1534 4250 1286 3958 
Q 1038 3666 1038 3163 
Q 1038 2656 1286 2365 
Q 1534 2075 1959 2075 
z
" transform="scale(0.015625)"/>
     </defs>
     <use xlink:href="#DejaVuSans-4c"/>
     <use xlink:href="#DejaVuSans-4f" x="52.087891"/>
     <use xlink:href="#DejaVuSans-4f" x="130.798828"/>
     <use xlink:href="#DejaVuSans-20" x="209.509766"/>
     <use xlink:href="#DejaVuSans-54" x="241.296875"/>
     <use xlink:href="#DejaVuSans-72" x="287.630859"/>
     <use xlink:href="#DejaVuSans-61" x="328.744141"/>
     <use xlink:href="#DejaVuSans-6e" x="390.023438"/>
     <use xlink:href="#DejaVuSans-73" x="453.402344"/>
     <use xlink:href="#DejaVuSans-66" x="505.501953"/>
     <use xlink:href="#DejaVuSans-65" x="540.707031"/>
     <use xlink:href="#DejaVuSans-72" x="602.230469"/>
     <use xlink:href="#DejaVuSans-2c" x="643.34375"/>
     <use xlink:href="#DejaVuSans-20" x="675.130859"/>
     <use xlink:href="#DejaVuSans-61" x="706.917969"/>
     <use xlink:href="#DejaVuSans-75" x="768.197266"/>
     <use xlink:href="#DejaVuSans-63" x="831.576172"/>
     <use xlink:href="#DejaVuSans-3a" x="886.556641"/>
     <use xlink:href="#DejaVuSans-20" x="920.248047"/>
     <use xlink:href="#DejaVuSans-30" x="952.035156"/>
     <use xlink:href="#DejaVuSans-2e" x="1015.658203"/>
     <use xlink:href="#DejaVuSans-37" x="1047.445312"/>
     <use xlink:href="#DejaVuSans-38" x="1111.068359"/>
     <use xlink:href="#DejaVuSans-38" x="1174.691406"/>
     <use xlink:href="#DejaVuSans-39" x="1238.314453"/>
    </g>
   </g>
  </g>
 </g>
 <defs>
  <clipPath id="p397e8583b8">
   <rect x="62.12" y="34.08" width="402.76" height="296.44"/>
  </clipPath>
 </defs>
</svg>
