<?xml version="1.0" encoding="utf-8" standalone="no"?>
<!DOCTYPE svg PUBLIC "-//W3C//DTD SVG 1.1//EN"
  "http://www.w3.org/Graphics/SVG/1.1/DTD/svg11.dtd">
<svg xmlns:xlink="http://www.w3.org/1999/xlink" width="480pt" height="384pt" viewBox="0 0 480 384" xmlns="http://www.w3.org/2000/svg" version="1.1">
 <metadata>
  <rdf:RDF xmlns:dc="http://purl.org/dc/elements/1.1/" xmlns:cc="http://creativecommons.org/ns#" xmlns:rdf="http://www.w3.org/1999/02/22-rdf-syntax-ns#">
   <cc:Work>
    <dc:type rdf:resource="http://purl.org/dc/dcmitype/StillImage"/>
    <dc:date>2024-02-27T17:05:52.155658</dc:date>
    <dc:format>image/svg+xml</dc:format>
    <dc:creator>
     <cc:Agent>
      <dc:title>Matplotlib v3.8.0, https://matplotlib.org/</dc:title>
     </cc:Agent>
    </dc:creator>
   </cc:Work>
  </rdf:RDF>
 </metadata>
 <defs>
  <style type="text/css">*{stroke-linejoin: round; stroke-linecap: butt}</style>
 </defs>
 <g id="figure_1">
  <g id="patch_1">
   <path d="M 0 384 
L 480 384 
L 480 0 
L 0 0 
z
" style="fill: #ffffff"/>
  </g>
  <g id="axes_1">
   <g id="patch_2">
    <path d="M 62.12 330.52 
L 464.88 330.52 
L 464.88 34.08 
L 62.12 34.08 
z
" style="fill: #ffffff"/>
   </g>
   <g id="PathCollection_1">
    <defs>
     <path id="m7b3d186ac3" d="M 0 4.031129 
C 1.069068 4.031129 2.094493 3.606384 2.850439 2.850439 
C 3.606384 2.094493 4.031129 1.069068 4.031129 0 
C 4.031129 -1.069068 3.606384 -2.094493 2.850439 -2.850439 
C 2.094493 -3.606384 1.069068 -4.031129 0 -4.031129 
C -1.069068 -4.031129 -2.094493 -3.606384 -2.850439 -2.850439 
C -3.606384 -2.094493 -4.031129 -1.069068 -4.031129 0 
C -4.031129 1.069068 -3.606384 2.094493 -2.850439 2.850439 
C -2.094493 3.606384 -1.069068 4.031129 0 4.031129 
z
" style="stroke: #ff0000"/>
    </defs>
    <g clip-path="url(#pba952a918c)">
     <use xlink:href="#m7b3d186ac3" x="190.007495" y="125.973614" style="fill: #ff0000; stroke: #ff0000"/>
    </g>
   </g>
   <g id="matplotlib.axis_1">
    <g id="xtick_1">
     <g id="line2d_1">
      <defs>
       <path id="m6e90e37b41" d="M 0 0 
L 0 3.5 
" style="stroke: #000000; stroke-width: 0.8"/>
      </defs>
      <g>
       <use xlink:href="#m6e90e37b41" x="80.427273" y="330.52" style="stroke: #000000; stroke-width: 0.8"/>
      </g>
     </g>
     <g id="text_1">
      <!-- 0.0 -->
      <g transform="translate(69.295085 348.157812) scale(0.14 -0.14)">
       <defs>
        <path id="DejaVuSans-30" d="M 2034 4250 
Q 1547 4250 1301 3770 
Q 1056 3291 1056 2328 
Q 1056 1369 1301 889 
Q 1547 409 2034 409 
Q 2525 409 2770 889 
Q 3016 1369 3016 2328 
Q 3016 3291 2770 3770 
Q 2525 4250 2034 4250 
z
M 2034 4750 
Q 2819 4750 3233 4129 
Q 3647 3509 3647 2328 
Q 3647 1150 3233 529 
Q 2819 -91 2034 -91 
Q 1250 -91 836 529 
Q 422 1150 422 2328 
Q 422 3509 836 4129 
Q 1250 4750 2034 4750 
z
" transform="scale(0.015625)"/>
        <path id="DejaVuSans-2e" d="M 684 794 
L 1344 794 
L 1344 0 
L 684 0 
L 684 794 
z
" transform="scale(0.015625)"/>
       </defs>
       <use xlink:href="#DejaVuSans-30"/>
       <use xlink:href="#DejaVuSans-2e" x="63.623047"/>
       <use xlink:href="#DejaVuSans-30" x="95.410156"/>
      </g>
     </g>
    </g>
    <g id="xtick_2">
     <g id="line2d_2">
      <g>
       <use xlink:href="#m6e90e37b41" x="153.656364" y="330.52" style="stroke: #000000; stroke-width: 0.8"/>
      </g>
     </g>
     <g id="text_2">
      <!-- 0.2 -->
      <g transform="translate(142.524176 348.157812) scale(0.14 -0.14)">
       <defs>
        <path id="DejaVuSans-32" d="M 1228 531 
L 3431 531 
L 3431 0 
L 469 0 
L 469 531 
Q 828 903 1448 1529 
Q 2069 2156 2228 2338 
Q 2531 2678 2651 2914 
Q 2772 3150 2772 3378 
Q 2772 3750 2511 3984 
Q 2250 4219 1831 4219 
Q 1534 4219 1204 4116 
Q 875 4013 500 3803 
L 500 4441 
Q 881 4594 1212 4672 
Q 1544 4750 1819 4750 
Q 2544 4750 2975 4387 
Q 3406 4025 3406 3419 
Q 3406 3131 3298 2873 
Q 3191 2616 2906 2266 
Q 2828 2175 2409 1742 
Q 1991 1309 1228 531 
z
" transform="scale(0.015625)"/>
       </defs>
       <use xlink:href="#DejaVuSans-30"/>
       <use xlink:href="#DejaVuSans-2e" x="63.623047"/>
       <use xlink:href="#DejaVuSans-32" x="95.410156"/>
      </g>
     </g>
    </g>
    <g id="xtick_3">
     <g id="line2d_3">
      <g>
       <use xlink:href="#m6e90e37b41" x="226.885455" y="330.52" style="stroke: #000000; stroke-width: 0.8"/>
      </g>
     </g>
     <g id="text_3">
      <!-- 0.4 -->
      <g transform="translate(215.753267 348.157812) scale(0.14 -0.14)">
       <defs>
        <path id="DejaVuSans-34" d="M 2419 4116 
L 825 1625 
L 2419 1625 
L 2419 4116 
z
M 2253 4666 
L 3047 4666 
L 3047 1625 
L 3713 1625 
L 3713 1100 
L 3047 1100 
L 3047 0 
L 2419 0 
L 2419 1100 
L 313 1100 
L 313 1709 
L 2253 4666 
z
" transform="scale(0.015625)"/>
       </defs>
       <use xlink:href="#DejaVuSans-30"/>
       <use xlink:href="#DejaVuSans-2e" x="63.623047"/>
       <use xlink:href="#DejaVuSans-34" x="95.410156"/>
      </g>
     </g>
    </g>
    <g id="xtick_4">
     <g id="line2d_4">
      <g>
       <use xlink:href="#m6e90e37b41" x="300.114545" y="330.52" style="stroke: #000000; stroke-width: 0.8"/>
      </g>
     </g>
     <g id="text_4">
      <!-- 0.6 -->
      <g transform="translate(288.982358 348.157812) scale(0.14 -0.14)">
       <defs>
        <path id="DejaVuSans-36" d="M 2113 2584 
Q 1688 2584 1439 2293 
Q 1191 2003 1191 1497 
Q 1191 994 1439 701 
Q 1688 409 2113 409 
Q 2538 409 2786 701 
Q 3034 994 3034 1497 
Q 3034 2003 2786 2293 
Q 2538 2584 2113 2584 
z
M 3366 4563 
L 3366 3988 
Q 3128 4100 2886 4159 
Q 2644 4219 2406 4219 
Q 1781 4219 1451 3797 
Q 1122 3375 1075 2522 
Q 1259 2794 1537 2939 
Q 1816 3084 2150 3084 
Q 2853 3084 3261 2657 
Q 3669 2231 3669 1497 
Q 3669 778 3244 343 
Q 2819 -91 2113 -91 
Q 1303 -91 875 529 
Q 447 1150 447 2328 
Q 447 3434 972 4092 
Q 1497 4750 2381 4750 
Q 2619 4750 2861 4703 
Q 3103 4656 3366 4563 
z
" transform="scale(0.015625)"/>
       </defs>
       <use xlink:href="#DejaVuSans-30"/>
       <use xlink:href="#DejaVuSans-2e" x="63.623047"/>
       <use xlink:href="#DejaVuSans-36" x="95.410156"/>
      </g>
     </g>
    </g>
    <g id="xtick_5">
     <g id="line2d_5">
      <g>
       <use xlink:href="#m6e90e37b41" x="373.343636" y="330.52" style="stroke: #000000; stroke-width: 0.8"/>
      </g>
     </g>
     <g id="text_5">
      <!-- 0.8 -->
      <g transform="translate(362.211449 348.157812) scale(0.14 -0.14)">
       <defs>
        <path id="DejaVuSans-38" d="M 2034 2216 
Q 1584 2216 1326 1975 
Q 1069 1734 1069 1313 
Q 1069 891 1326 650 
Q 1584 409 2034 409 
Q 2484 409 2743 651 
Q 3003 894 3003 1313 
Q 3003 1734 2745 1975 
Q 2488 2216 2034 2216 
z
M 1403 2484 
Q 997 2584 770 2862 
Q 544 3141 544 3541 
Q 544 4100 942 4425 
Q 1341 4750 2034 4750 
Q 2731 4750 3128 4425 
Q 3525 4100 3525 3541 
Q 3525 3141 3298 2862 
Q 3072 2584 2669 2484 
Q 3125 2378 3379 2068 
Q 3634 1759 3634 1313 
Q 3634 634 3220 271 
Q 2806 -91 2034 -91 
Q 1263 -91 848 271 
Q 434 634 434 1313 
Q 434 1759 690 2068 
Q 947 2378 1403 2484 
z
M 1172 3481 
Q 1172 3119 1398 2916 
Q 1625 2713 2034 2713 
Q 2441 2713 2670 2916 
Q 2900 3119 2900 3481 
Q 2900 3844 2670 4047 
Q 2441 4250 2034 4250 
Q 1625 4250 1398 4047 
Q 1172 3844 1172 3481 
z
" transform="scale(0.015625)"/>
       </defs>
       <use xlink:href="#DejaVuSans-30"/>
       <use xlink:href="#DejaVuSans-2e" x="63.623047"/>
       <use xlink:href="#DejaVuSans-38" x="95.410156"/>
      </g>
     </g>
    </g>
    <g id="xtick_6">
     <g id="line2d_6">
      <g>
       <use xlink:href="#m6e90e37b41" x="446.572727" y="330.52" style="stroke: #000000; stroke-width: 0.8"/>
      </g>
     </g>
     <g id="text_6">
      <!-- 1.0 -->
      <g transform="translate(435.44054 348.157812) scale(0.14 -0.14)">
       <defs>
        <path id="DejaVuSans-31" d="M 794 531 
L 1825 531 
L 1825 4091 
L 703 3866 
L 703 4441 
L 1819 4666 
L 2450 4666 
L 2450 531 
L 3481 531 
L 3481 0 
L 794 0 
L 794 531 
z
" transform="scale(0.015625)"/>
       </defs>
       <use xlink:href="#DejaVuSans-31"/>
       <use xlink:href="#DejaVuSans-2e" x="63.623047"/>
       <use xlink:href="#DejaVuSans-30" x="95.410156"/>
      </g>
     </g>
    </g>
    <g id="text_7">
     <!-- False Positive Rate -->
     <g transform="translate(198.447031 365.707187) scale(0.14 -0.14)">
      <defs>
       <path id="DejaVuSans-46" d="M 628 4666 
L 3309 4666 
L 3309 4134 
L 1259 4134 
L 1259 2759 
L 3109 2759 
L 3109 2228 
L 1259 2228 
L 1259 0 
L 628 0 
L 628 4666 
z
" transform="scale(0.015625)"/>
       <path id="DejaVuSans-61" d="M 2194 1759 
Q 1497 1759 1228 1600 
Q 959 1441 959 1056 
Q 959 750 1161 570 
Q 1363 391 1709 391 
Q 2188 391 2477 730 
Q 2766 1069 2766 1631 
L 2766 1759 
L 2194 1759 
z
M 3341 1997 
L 3341 0 
L 2766 0 
L 2766 531 
Q 2569 213 2275 61 
Q 1981 -91 1556 -91 
Q 1019 -91 701 211 
Q 384 513 384 1019 
Q 384 1609 779 1909 
Q 1175 2209 1959 2209 
L 2766 2209 
L 2766 2266 
Q 2766 2663 2505 2880 
Q 2244 3097 1772 3097 
Q 1472 3097 1187 3025 
Q 903 2953 641 2809 
L 641 3341 
Q 956 3463 1253 3523 
Q 1550 3584 1831 3584 
Q 2591 3584 2966 3190 
Q 3341 2797 3341 1997 
z
" transform="scale(0.015625)"/>
       <path id="DejaVuSans-6c" d="M 603 4863 
L 1178 4863 
L 1178 0 
L 603 0 
L 603 4863 
z
" transform="scale(0.015625)"/>
       <path id="DejaVuSans-73" d="M 2834 3397 
L 2834 2853 
Q 2591 2978 2328 3040 
Q 2066 3103 1784 3103 
Q 1356 3103 1142 2972 
Q 928 2841 928 2578 
Q 928 2378 1081 2264 
Q 1234 2150 1697 2047 
L 1894 2003 
Q 2506 1872 2764 1633 
Q 3022 1394 3022 966 
Q 3022 478 2636 193 
Q 2250 -91 1575 -91 
Q 1294 -91 989 -36 
Q 684 19 347 128 
L 347 722 
Q 666 556 975 473 
Q 1284 391 1588 391 
Q 1994 391 2212 530 
Q 2431 669 2431 922 
Q 2431 1156 2273 1281 
Q 2116 1406 1581 1522 
L 1381 1569 
Q 847 1681 609 1914 
Q 372 2147 372 2553 
Q 372 3047 722 3315 
Q 1072 3584 1716 3584 
Q 2034 3584 2315 3537 
Q 2597 3491 2834 3397 
z
" transform="scale(0.015625)"/>
       <path id="DejaVuSans-65" d="M 3597 1894 
L 3597 1613 
L 953 1613 
Q 991 1019 1311 708 
Q 1631 397 2203 397 
Q 2534 397 2845 478 
Q 3156 559 3463 722 
L 3463 178 
Q 3153 47 2828 -22 
Q 2503 -91 2169 -91 
Q 1331 -91 842 396 
Q 353 884 353 1716 
Q 353 2575 817 3079 
Q 1281 3584 2069 3584 
Q 2775 3584 3186 3129 
Q 3597 2675 3597 1894 
z
M 3022 2063 
Q 3016 2534 2758 2815 
Q 2500 3097 2075 3097 
Q 1594 3097 1305 2825 
Q 1016 2553 972 2059 
L 3022 2063 
z
" transform="scale(0.015625)"/>
       <path id="DejaVuSans-20" transform="scale(0.015625)"/>
       <path id="DejaVuSans-50" d="M 1259 4147 
L 1259 2394 
L 2053 2394 
Q 2494 2394 2734 2622 
Q 2975 2850 2975 3272 
Q 2975 3691 2734 3919 
Q 2494 4147 2053 4147 
L 1259 4147 
z
M 628 4666 
L 2053 4666 
Q 2838 4666 3239 4311 
Q 3641 3956 3641 3272 
Q 3641 2581 3239 2228 
Q 2838 1875 2053 1875 
L 1259 1875 
L 1259 0 
L 628 0 
L 628 4666 
z
" transform="scale(0.015625)"/>
       <path id="DejaVuSans-6f" d="M 1959 3097 
Q 1497 3097 1228 2736 
Q 959 2375 959 1747 
Q 959 1119 1226 758 
Q 1494 397 1959 397 
Q 2419 397 2687 759 
Q 2956 1122 2956 1747 
Q 2956 2369 2687 2733 
Q 2419 3097 1959 3097 
z
M 1959 3584 
Q 2709 3584 3137 3096 
Q 3566 2609 3566 1747 
Q 3566 888 3137 398 
Q 2709 -91 1959 -91 
Q 1206 -91 779 398 
Q 353 888 353 1747 
Q 353 2609 779 3096 
Q 1206 3584 1959 3584 
z
" transform="scale(0.015625)"/>
       <path id="DejaVuSans-69" d="M 603 3500 
L 1178 3500 
L 1178 0 
L 603 0 
L 603 3500 
z
M 603 4863 
L 1178 4863 
L 1178 4134 
L 603 4134 
L 603 4863 
z
" transform="scale(0.015625)"/>
       <path id="DejaVuSans-74" d="M 1172 4494 
L 1172 3500 
L 2356 3500 
L 2356 3053 
L 1172 3053 
L 1172 1153 
Q 1172 725 1289 603 
Q 1406 481 1766 481 
L 2356 481 
L 2356 0 
L 1766 0 
Q 1100 0 847 248 
Q 594 497 594 1153 
L 594 3053 
L 172 3053 
L 172 3500 
L 594 3500 
L 594 4494 
L 1172 4494 
z
" transform="scale(0.015625)"/>
       <path id="DejaVuSans-76" d="M 191 3500 
L 800 3500 
L 1894 563 
L 2988 3500 
L 3597 3500 
L 2284 0 
L 1503 0 
L 191 3500 
z
" transform="scale(0.015625)"/>
       <path id="DejaVuSans-52" d="M 2841 2188 
Q 3044 2119 3236 1894 
Q 3428 1669 3622 1275 
L 4263 0 
L 3584 0 
L 2988 1197 
Q 2756 1666 2539 1819 
Q 2322 1972 1947 1972 
L 1259 1972 
L 1259 0 
L 628 0 
L 628 4666 
L 2053 4666 
Q 2853 4666 3247 4331 
Q 3641 3997 3641 3322 
Q 3641 2881 3436 2590 
Q 3231 2300 2841 2188 
z
M 1259 4147 
L 1259 2491 
L 2053 2491 
Q 2509 2491 2742 2702 
Q 2975 2913 2975 3322 
Q 2975 3731 2742 3939 
Q 2509 4147 2053 4147 
L 1259 4147 
z
" transform="scale(0.015625)"/>
      </defs>
      <use xlink:href="#DejaVuSans-46"/>
      <use xlink:href="#DejaVuSans-61" x="48.394531"/>
      <use xlink:href="#DejaVuSans-6c" x="109.673828"/>
      <use xlink:href="#DejaVuSans-73" x="137.457031"/>
      <use xlink:href="#DejaVuSans-65" x="189.556641"/>
      <use xlink:href="#DejaVuSans-20" x="251.080078"/>
      <use xlink:href="#DejaVuSans-50" x="282.867188"/>
      <use xlink:href="#DejaVuSans-6f" x="339.544922"/>
      <use xlink:href="#DejaVuSans-73" x="400.726562"/>
      <use xlink:href="#DejaVuSans-69" x="452.826172"/>
      <use xlink:href="#DejaVuSans-74" x="480.609375"/>
      <use xlink:href="#DejaVuSans-69" x="519.818359"/>
      <use xlink:href="#DejaVuSans-76" x="547.601562"/>
      <use xlink:href="#DejaVuSans-65" x="606.78125"/>
      <use xlink:href="#DejaVuSans-20" x="668.304688"/>
      <use xlink:href="#DejaVuSans-52" x="700.091797"/>
      <use xlink:href="#DejaVuSans-61" x="767.324219"/>
      <use xlink:href="#DejaVuSans-74" x="828.603516"/>
      <use xlink:href="#DejaVuSans-65" x="867.8125"/>
     </g>
    </g>
   </g>
   <g id="matplotlib.axis_2">
    <g id="ytick_1">
     <g id="line2d_7">
      <defs>
       <path id="m7c817979a2" d="M 0 0 
L -3.5 0 
" style="stroke: #000000; stroke-width: 0.8"/>
      </defs>
      <g>
       <use xlink:href="#m7c817979a2" x="62.12" y="317.045455" style="stroke: #000000; stroke-width: 0.8"/>
      </g>
     </g>
     <g id="text_8">
      <!-- 0.0 -->
      <g transform="translate(32.855625 322.364361) scale(0.14 -0.14)">
       <use xlink:href="#DejaVuSans-30"/>
       <use xlink:href="#DejaVuSans-2e" x="63.623047"/>
       <use xlink:href="#DejaVuSans-30" x="95.410156"/>
      </g>
     </g>
    </g>
    <g id="ytick_2">
     <g id="line2d_8">
      <g>
       <use xlink:href="#m7c817979a2" x="62.12" y="263.147273" style="stroke: #000000; stroke-width: 0.8"/>
      </g>
     </g>
     <g id="text_9">
      <!-- 0.2 -->
      <g transform="translate(32.855625 268.466179) scale(0.14 -0.14)">
       <use xlink:href="#DejaVuSans-30"/>
       <use xlink:href="#DejaVuSans-2e" x="63.623047"/>
       <use xlink:href="#DejaVuSans-32" x="95.410156"/>
      </g>
     </g>
    </g>
    <g id="ytick_3">
     <g id="line2d_9">
      <g>
       <use xlink:href="#m7c817979a2" x="62.12" y="209.249091" style="stroke: #000000; stroke-width: 0.8"/>
      </g>
     </g>
     <g id="text_10">
      <!-- 0.4 -->
      <g transform="translate(32.855625 214.567997) scale(0.14 -0.14)">
       <use xlink:href="#DejaVuSans-30"/>
       <use xlink:href="#DejaVuSans-2e" x="63.623047"/>
       <use xlink:href="#DejaVuSans-34" x="95.410156"/>
      </g>
     </g>
    </g>
    <g id="ytick_4">
     <g id="line2d_10">
      <g>
       <use xlink:href="#m7c817979a2" x="62.12" y="155.350909" style="stroke: #000000; stroke-width: 0.8"/>
      </g>
     </g>
     <g id="text_11">
      <!-- 0.6 -->
      <g transform="translate(32.855625 160.669815) scale(0.14 -0.14)">
       <use xlink:href="#DejaVuSans-30"/>
       <use xlink:href="#DejaVuSans-2e" x="63.623047"/>
       <use xlink:href="#DejaVuSans-36" x="95.410156"/>
      </g>
     </g>
    </g>
    <g id="ytick_5">
     <g id="line2d_11">
      <g>
       <use xlink:href="#m7c817979a2" x="62.12" y="101.452727" style="stroke: #000000; stroke-width: 0.8"/>
      </g>
     </g>
     <g id="text_12">
      <!-- 0.8 -->
      <g transform="translate(32.855625 106.771634) scale(0.14 -0.14)">
       <use xlink:href="#DejaVuSans-30"/>
       <use xlink:href="#DejaVuSans-2e" x="63.623047"/>
       <use xlink:href="#DejaVuSans-38" x="95.410156"/>
      </g>
     </g>
    </g>
    <g id="ytick_6">
     <g id="line2d_12">
      <g>
       <use xlink:href="#m7c817979a2" x="62.12" y="47.554545" style="stroke: #000000; stroke-width: 0.8"/>
      </g>
     </g>
     <g id="text_13">
      <!-- 1.0 -->
      <g transform="translate(32.855625 52.873452) scale(0.14 -0.14)">
       <use xlink:href="#DejaVuSans-31"/>
       <use xlink:href="#DejaVuSans-2e" x="63.623047"/>
       <use xlink:href="#DejaVuSans-30" x="95.410156"/>
      </g>
     </g>
    </g>
    <g id="text_14">
     <!-- True Positive Rate -->
     <g transform="translate(25.944063 244.641563) rotate(-90) scale(0.14 -0.14)">
      <defs>
       <path id="DejaVuSans-54" d="M -19 4666 
L 3928 4666 
L 3928 4134 
L 2272 4134 
L 2272 0 
L 1638 0 
L 1638 4134 
L -19 4134 
L -19 4666 
z
" transform="scale(0.015625)"/>
       <path id="DejaVuSans-72" d="M 2631 2963 
Q 2534 3019 2420 3045 
Q 2306 3072 2169 3072 
Q 1681 3072 1420 2755 
Q 1159 2438 1159 1844 
L 1159 0 
L 581 0 
L 581 3500 
L 1159 3500 
L 1159 2956 
Q 1341 3275 1631 3429 
Q 1922 3584 2338 3584 
Q 2397 3584 2469 3576 
Q 2541 3569 2628 3553 
L 2631 2963 
z
" transform="scale(0.015625)"/>
       <path id="DejaVuSans-75" d="M 544 1381 
L 544 3500 
L 1119 3500 
L 1119 1403 
Q 1119 906 1312 657 
Q 1506 409 1894 409 
Q 2359 409 2629 706 
Q 2900 1003 2900 1516 
L 2900 3500 
L 3475 3500 
L 3475 0 
L 2900 0 
L 2900 538 
Q 2691 219 2414 64 
Q 2138 -91 1772 -91 
Q 1169 -91 856 284 
Q 544 659 544 1381 
z
M 1991 3584 
L 1991 3584 
z
" transform="scale(0.015625)"/>
      </defs>
      <use xlink:href="#DejaVuSans-54"/>
      <use xlink:href="#DejaVuSans-72" x="46.333984"/>
      <use xlink:href="#DejaVuSans-75" x="87.447266"/>
      <use xlink:href="#DejaVuSans-65" x="150.826172"/>
      <use xlink:href="#DejaVuSans-20" x="212.349609"/>
      <use xlink:href="#DejaVuSans-50" x="244.136719"/>
      <use xlink:href="#DejaVuSans-6f" x="300.814453"/>
      <use xlink:href="#DejaVuSans-73" x="361.996094"/>
      <use xlink:href="#DejaVuSans-69" x="414.095703"/>
      <use xlink:href="#DejaVuSans-74" x="441.878906"/>
      <use xlink:href="#DejaVuSans-69" x="481.087891"/>
      <use xlink:href="#DejaVuSans-76" x="508.871094"/>
      <use xlink:href="#DejaVuSans-65" x="568.050781"/>
      <use xlink:href="#DejaVuSans-20" x="629.574219"/>
      <use xlink:href="#DejaVuSans-52" x="661.361328"/>
      <use xlink:href="#DejaVuSans-61" x="728.59375"/>
      <use xlink:href="#DejaVuSans-74" x="789.873047"/>
      <use xlink:href="#DejaVuSans-65" x="829.082031"/>
     </g>
    </g>
   </g>
   <g id="line2d_13">
    <path d="M 80.427273 317.045455 
L 80.427273 314.17853 
L 80.427273 305.577756 
L 83.5302 305.577756 
L 83.5302 296.976983 
L 86.633128 296.976983 
L 86.633128 282.64236 
L 89.736055 282.64236 
L 89.736055 279.775435 
L 92.838983 279.775435 
L 92.838983 253.973114 
L 95.941911 253.973114 
L 95.941911 231.037718 
L 99.044838 231.037718 
L 99.044838 196.634623 
L 102.147766 196.634623 
L 102.147766 165.098453 
L 105.250693 165.098453 
L 105.250693 156.497679 
L 108.353621 156.497679 
L 108.353621 153.630754 
L 120.765331 153.630754 
L 120.765331 150.76383 
L 126.971186 150.76383 
L 126.971186 147.896905 
L 130.074114 147.896905 
L 130.074114 133.562282 
L 133.177042 133.562282 
L 133.177042 130.695358 
L 139.382897 130.695358 
L 139.382897 124.961509 
L 151.794607 124.961509 
L 151.794607 119.22766 
L 167.309245 119.22766 
L 167.309245 116.360735 
L 170.412173 116.360735 
L 170.412173 99.159188 
L 173.5151 99.159188 
L 173.5151 96.292263 
L 185.92681 96.292263 
L 185.92681 93.425338 
L 198.338521 93.425338 
L 198.338521 84.824565 
L 201.441448 84.824565 
L 201.441448 81.95764 
L 210.750231 81.95764 
L 210.750231 79.090716 
L 213.853159 79.090716 
L 213.853159 76.223791 
L 216.956086 76.223791 
L 216.956086 73.356867 
L 220.059014 73.356867 
L 220.059014 64.756093 
L 226.264869 64.756093 
L 226.264869 61.889168 
L 241.779507 61.889168 
L 241.779507 56.155319 
L 251.08829 56.155319 
L 251.08829 53.288395 
L 263.5 53.288395 
L 263.5 50.42147 
L 266.602928 50.42147 
L 266.602928 47.554545 
L 446.572727 47.554545 
" clip-path="url(#pba952a918c)" style="fill: none; stroke: #1f77b4; stroke-opacity: 0.66; stroke-width: 1.5; stroke-linecap: square"/>
   </g>
   <g id="line2d_14">
    <path d="M 80.427273 317.045455 
L 80.427273 305.328458 
L 80.427273 270.17747 
L 86.06028 270.17747 
L 86.06028 211.59249 
L 91.693287 211.59249 
L 91.693287 106.139526 
L 97.326294 106.139526 
L 97.326294 94.42253 
L 136.757343 94.42253 
L 136.757343 82.705534 
L 159.289371 82.705534 
L 159.289371 70.988538 
L 181.821399 70.988538 
L 181.821399 59.271542 
L 209.986434 59.271542 
L 209.986434 47.554545 
L 446.572727 47.554545 
" clip-path="url(#pba952a918c)" style="fill: none; stroke: #ff7f0e; stroke-opacity: 0.66; stroke-width: 1.5; stroke-linecap: square"/>
   </g>
   <g id="line2d_15">
    <path d="M 80.427273 317.045455 
L 80.427273 313.023202 
L 83.478485 313.023202 
L 83.478485 309.00095 
L 86.529697 309.00095 
L 86.529697 304.978697 
L 89.580909 304.978697 
L 89.580909 292.91194 
L 92.632121 292.91194 
L 92.632121 280.845183 
L 95.683333 280.845183 
L 95.683333 276.822931 
L 98.734545 276.822931 
L 98.734545 272.800678 
L 104.83697 272.800678 
L 104.83697 236.600407 
L 110.939394 236.600407 
L 110.939394 232.578155 
L 113.990606 232.578155 
L 113.990606 228.555902 
L 123.144242 228.555902 
L 123.144242 200.400136 
L 129.246667 200.400136 
L 129.246667 176.266621 
L 132.297879 176.266621 
L 132.297879 172.244369 
L 135.349091 172.244369 
L 135.349091 168.222117 
L 141.451515 168.222117 
L 141.451515 164.199864 
L 162.81 164.199864 
L 162.81 160.177612 
L 165.861212 160.177612 
L 165.861212 152.133107 
L 168.912424 152.133107 
L 168.912424 144.088602 
L 184.168485 144.088602 
L 184.168485 140.06635 
L 190.270909 140.06635 
L 190.270909 123.977341 
L 202.475758 123.977341 
L 202.475758 119.955088 
L 205.52697 119.955088 
L 205.52697 115.932836 
L 251.295152 115.932836 
L 251.295152 107.888331 
L 263.5 107.888331 
L 263.5 99.843826 
L 266.551212 99.843826 
L 266.551212 95.821574 
L 281.807273 95.821574 
L 281.807273 91.799322 
L 284.858485 91.799322 
L 284.858485 87.777069 
L 303.165758 87.777069 
L 303.165758 75.710312 
L 309.268182 75.710312 
L 309.268182 67.665807 
L 321.47303 67.665807 
L 321.47303 59.621303 
L 327.575455 59.621303 
L 327.575455 55.59905 
L 370.292424 55.59905 
L 370.292424 51.576798 
L 373.343636 51.576798 
L 373.343636 47.554545 
L 446.572727 47.554545 
" clip-path="url(#pba952a918c)" style="fill: none; stroke: #2ca02c; stroke-opacity: 0.66; stroke-width: 1.5; stroke-linecap: square"/>
   </g>
   <g id="line2d_16">
    <path d="M 80.427273 317.045455 
L 83.611146 317.045455 
L 83.611146 312.477812 
L 86.79502 312.477812 
L 86.79502 301.058706 
L 89.978893 301.058706 
L 89.978893 280.504314 
L 93.162767 280.504314 
L 93.162767 275.936672 
L 96.34664 275.936672 
L 96.34664 259.949923 
L 99.530514 259.949923 
L 99.530514 255.38228 
L 102.714387 255.38228 
L 102.714387 239.395532 
L 109.082134 239.395532 
L 109.082134 227.976425 
L 112.266008 227.976425 
L 112.266008 221.124961 
L 118.633755 221.124961 
L 118.633755 218.84114 
L 121.817628 218.84114 
L 121.817628 200.57057 
L 125.001502 200.57057 
L 125.001502 191.435285 
L 131.369249 191.435285 
L 131.369249 182.3 
L 134.553123 182.3 
L 134.553123 177.732357 
L 137.736996 177.732357 
L 137.736996 170.880894 
L 140.92087 170.880894 
L 140.92087 161.745609 
L 150.47249 161.745609 
L 150.47249 150.326502 
L 153.656364 150.326502 
L 153.656364 138.907396 
L 156.840237 138.907396 
L 156.840237 134.339753 
L 163.207984 134.339753 
L 163.207984 132.055932 
L 172.759605 132.055932 
L 172.759605 118.353005 
L 175.943478 118.353005 
L 175.943478 116.069183 
L 179.127352 116.069183 
L 179.127352 111.501541 
L 185.495099 111.501541 
L 185.495099 106.933898 
L 188.678972 106.933898 
L 188.678972 102.366256 
L 198.230593 102.366256 
L 198.230593 100.082435 
L 201.414466 100.082435 
L 201.414466 95.514792 
L 204.59834 95.514792 
L 204.59834 93.230971 
L 210.966087 93.230971 
L 210.966087 88.663328 
L 217.333834 88.663328 
L 217.333834 86.379507 
L 220.517708 86.379507 
L 220.517708 84.095686 
L 223.701581 84.095686 
L 223.701581 81.811864 
L 230.069328 81.811864 
L 230.069328 77.244222 
L 239.620949 77.244222 
L 239.620949 74.960401 
L 249.172569 74.960401 
L 249.172569 70.392758 
L 255.540316 70.392758 
L 255.540316 68.108937 
L 261.908063 68.108937 
L 261.908063 65.825116 
L 274.643557 65.825116 
L 274.643557 61.257473 
L 287.379051 61.257473 
L 287.379051 56.689831 
L 316.033913 56.689831 
L 316.033913 49.838367 
L 328.769407 49.838367 
L 328.769407 47.554545 
L 446.572727 47.554545 
" clip-path="url(#pba952a918c)" style="fill: none; stroke: #d62728; stroke-opacity: 0.66; stroke-width: 1.5; stroke-linecap: square"/>
   </g>
   <g id="line2d_17">
    <path d="M 80.427273 317.045455 
L 80.427273 305.328458 
L 82.36455 305.328458 
L 82.36455 294.913351 
L 84.301828 294.913351 
L 84.301828 293.611462 
L 86.239105 293.611462 
L 86.239105 272.781247 
L 88.176383 272.781247 
L 88.176383 268.875582 
L 90.11366 268.875582 
L 90.11366 255.856697 
L 92.050938 255.856697 
L 92.050938 245.44159 
L 93.988215 245.44159 
L 93.988215 244.139701 
L 95.925493 244.139701 
L 95.925493 242.837813 
L 97.862771 242.837813 
L 97.862771 235.026482 
L 99.800048 235.026482 
L 99.800048 227.215152 
L 103.674603 227.215152 
L 103.674603 224.611375 
L 105.611881 224.611375 
L 105.611881 219.403821 
L 107.549158 219.403821 
L 107.549158 218.101932 
L 109.486436 218.101932 
L 109.486436 216.800044 
L 111.423713 216.800044 
L 111.423713 215.498155 
L 113.360991 215.498155 
L 113.360991 214.196267 
L 117.235546 214.196267 
L 117.235546 212.894379 
L 121.110101 212.894379 
L 121.110101 208.988713 
L 123.047379 208.988713 
L 123.047379 207.686825 
L 126.921934 207.686825 
L 126.921934 203.781159 
L 128.859211 203.781159 
L 128.859211 202.479271 
L 134.671044 202.479271 
L 134.671044 199.875494 
L 136.608321 199.875494 
L 136.608321 195.969829 
L 138.545599 195.969829 
L 138.545599 186.85661 
L 140.482876 186.85661 
L 140.482876 185.554721 
L 142.420154 185.554721 
L 142.420154 177.74339 
L 144.357431 177.74339 
L 144.357431 176.441502 
L 146.294709 176.441502 
L 146.294709 173.837725 
L 148.231987 173.837725 
L 148.231987 172.535837 
L 155.981097 172.535837 
L 155.981097 171.233948 
L 161.792929 171.233948 
L 161.792929 168.630171 
L 163.730207 168.630171 
L 163.730207 164.724506 
L 165.667484 164.724506 
L 165.667484 162.120729 
L 167.604762 162.120729 
L 167.604762 160.818841 
L 171.479317 160.818841 
L 171.479317 153.00751 
L 175.353872 153.00751 
L 175.353872 151.705621 
L 177.29115 151.705621 
L 177.29115 150.403733 
L 181.165705 150.403733 
L 181.165705 149.101845 
L 183.102982 149.101845 
L 183.102982 147.799956 
L 190.852092 147.799956 
L 190.852092 143.894291 
L 192.78937 143.894291 
L 192.78937 142.592402 
L 194.726647 142.592402 
L 194.726647 141.290514 
L 198.601203 141.290514 
L 198.601203 139.988625 
L 200.53848 139.988625 
L 200.53848 133.479183 
L 202.475758 133.479183 
L 202.475758 132.177295 
L 204.413035 132.177295 
L 204.413035 130.875406 
L 206.350313 130.875406 
L 206.350313 129.573518 
L 216.0367 129.573518 
L 216.0367 128.271629 
L 221.848533 128.271629 
L 221.848533 126.969741 
L 223.78581 126.969741 
L 223.78581 125.667852 
L 227.660366 125.667852 
L 227.660366 123.064076 
L 231.534921 123.064076 
L 231.534921 117.856522 
L 233.472198 117.856522 
L 233.472198 115.252745 
L 237.346753 115.252745 
L 237.346753 112.648968 
L 239.284031 112.648968 
L 239.284031 110.045191 
L 243.158586 110.045191 
L 243.158586 104.837637 
L 247.033141 104.837637 
L 247.033141 103.535749 
L 250.907696 103.535749 
L 250.907696 99.630083 
L 258.656806 99.630083 
L 258.656806 98.328195 
L 260.594084 98.328195 
L 260.594084 97.026307 
L 262.531361 97.026307 
L 262.531361 95.724418 
L 268.343194 95.724418 
L 268.343194 93.120641 
L 274.155026 93.120641 
L 274.155026 90.516864 
L 276.092304 90.516864 
L 276.092304 85.30931 
L 278.029582 85.30931 
L 278.029582 84.007422 
L 291.590524 84.007422 
L 291.590524 81.403645 
L 295.465079 81.403645 
L 295.465079 80.101757 
L 297.402357 80.101757 
L 297.402357 78.799868 
L 305.151467 78.799868 
L 305.151467 77.49798 
L 307.088745 77.49798 
L 307.088745 76.196091 
L 312.900577 76.196091 
L 312.900577 73.592314 
L 314.837855 73.592314 
L 314.837855 70.988538 
L 324.524242 70.988538 
L 324.524242 67.082872 
L 328.398797 67.082872 
L 328.398797 63.177207 
L 334.21063 63.177207 
L 334.21063 59.271542 
L 343.897018 59.271542 
L 343.897018 57.969653 
L 353.583405 57.969653 
L 353.583405 56.667765 
L 357.457961 56.667765 
L 357.457961 55.365876 
L 365.207071 55.365876 
L 365.207071 54.063988 
L 369.081626 54.063988 
L 369.081626 52.762099 
L 380.705291 52.762099 
L 380.705291 51.460211 
L 409.764454 51.460211 
L 409.764454 50.158322 
L 438.823617 50.158322 
L 438.823617 47.554545 
L 446.572727 47.554545 
L 446.572727 47.554545 
" clip-path="url(#pba952a918c)" style="fill: none; stroke: #9467bd; stroke-opacity: 0.66; stroke-width: 1.5; stroke-linecap: square"/>
   </g>
   <g id="line2d_18">
    <path d="M 80.427273 317.045455 
L 84.588017 317.045455 
L 84.588017 310.629004 
L 88.74876 310.629004 
L 88.74876 305.816667 
L 92.909504 305.816667 
L 92.909504 294.587879 
L 97.070248 294.587879 
L 97.070248 267.317965 
L 101.230992 267.317965 
L 101.230992 249.672727 
L 105.391736 249.672727 
L 105.391736 246.464502 
L 109.552479 246.464502 
L 109.552479 238.443939 
L 113.713223 238.443939 
L 113.713223 222.402814 
L 117.873967 222.402814 
L 117.873967 188.71645 
L 122.034711 188.71645 
L 122.034711 167.862987 
L 130.356198 167.862987 
L 130.356198 161.446537 
L 138.677686 161.446537 
L 138.677686 153.425974 
L 142.83843 153.425974 
L 142.83843 150.217749 
L 155.320661 150.217749 
L 155.320661 145.405411 
L 159.481405 145.405411 
L 159.481405 134.176623 
L 163.642149 134.176623 
L 163.642149 130.968398 
L 171.963636 130.968398 
L 171.963636 124.551948 
L 176.12438 124.551948 
L 176.12438 114.927273 
L 180.285124 114.927273 
L 180.285124 102.094372 
L 192.767355 102.094372 
L 192.767355 100.49026 
L 196.928099 100.49026 
L 196.928099 97.282035 
L 201.088843 97.282035 
L 201.088843 94.07381 
L 205.249587 94.07381 
L 205.249587 89.261472 
L 213.571074 89.261472 
L 213.571074 76.428571 
L 221.892562 76.428571 
L 221.892562 74.824459 
L 226.053306 74.824459 
L 226.053306 71.616234 
L 230.21405 71.616234 
L 230.21405 66.803896 
L 234.374793 66.803896 
L 234.374793 63.595671 
L 242.696281 63.595671 
L 242.696281 60.387446 
L 246.857025 60.387446 
L 246.857025 58.783333 
L 271.821488 58.783333 
L 271.821488 57.179221 
L 280.142975 57.179221 
L 280.142975 55.575108 
L 284.303719 55.575108 
L 284.303719 53.970996 
L 371.679339 53.970996 
L 371.679339 52.366883 
L 380.000826 52.366883 
L 380.000826 50.762771 
L 404.965289 50.762771 
L 404.965289 49.158658 
L 425.769008 49.158658 
L 425.769008 47.554545 
L 446.572727 47.554545 
" clip-path="url(#pba952a918c)" style="fill: none; stroke: #8c564b; stroke-opacity: 0.66; stroke-width: 1.5; stroke-linecap: square"/>
   </g>
   <g id="line2d_19">
    <path d="M 80.427273 317.045455 
L 80.427273 315.453189 
L 80.954101 315.453189 
L 80.954101 315.055123 
L 81.480929 315.055123 
L 81.480929 313.860924 
L 82.007757 313.860924 
L 82.007757 312.666725 
L 82.534585 312.666725 
L 82.534585 309.084128 
L 83.061413 309.084128 
L 83.061413 307.889929 
L 83.588241 307.889929 
L 83.588241 305.103464 
L 84.641897 305.103464 
L 84.641897 300.326668 
L 85.168725 300.326668 
L 85.168725 299.530536 
L 85.695553 299.530536 
L 85.695553 297.142138 
L 86.222381 297.142138 
L 86.222381 289.180811 
L 86.749209 289.180811 
L 86.749209 288.384678 
L 87.276037 288.384678 
L 87.276037 286.792413 
L 87.802865 286.792413 
L 87.802865 285.598214 
L 88.329693 285.598214 
L 88.329693 284.404015 
L 88.856521 284.404015 
L 88.856521 274.452357 
L 89.910177 274.452357 
L 89.910177 269.675561 
L 90.437005 269.675561 
L 90.437005 268.879428 
L 90.963833 268.879428 
L 90.963833 266.49103 
L 91.490661 266.49103 
L 91.490661 266.092964 
L 92.017489 266.092964 
L 92.017489 264.898765 
L 92.544317 264.898765 
L 92.544317 258.529703 
L 93.071145 258.529703 
L 93.071145 254.150974 
L 93.597973 254.150974 
L 93.597973 252.160642 
L 94.651629 252.160642 
L 94.651629 250.568377 
L 95.178457 250.568377 
L 95.178457 247.383846 
L 95.705284 247.383846 
L 95.705284 246.587713 
L 96.232112 246.587713 
L 96.232112 245.791581 
L 96.75894 245.791581 
L 96.75894 244.199315 
L 97.285768 244.199315 
L 97.285768 243.801249 
L 98.339424 243.801249 
L 98.339424 241.810917 
L 98.866252 241.810917 
L 98.866252 241.014784 
L 99.39308 241.014784 
L 99.39308 240.616718 
L 99.919908 240.616718 
L 99.919908 240.218652 
L 100.446736 240.218652 
L 100.446736 239.820585 
L 100.973564 239.820585 
L 100.973564 238.626386 
L 101.500392 238.626386 
L 101.500392 237.830254 
L 102.02722 237.830254 
L 102.02722 235.839922 
L 102.554048 235.839922 
L 102.554048 230.66506 
L 103.080876 230.66506 
L 103.080876 229.470861 
L 104.134532 229.470861 
L 104.134532 228.674728 
L 105.188188 228.674728 
L 105.188188 227.878595 
L 105.715016 227.878595 
L 105.715016 226.684396 
L 106.241844 226.684396 
L 106.241844 226.28633 
L 107.2955 226.28633 
L 107.2955 225.888264 
L 107.822328 225.888264 
L 107.822328 225.092131 
L 108.349156 225.092131 
L 108.349156 224.694065 
L 109.92964 224.694065 
L 109.92964 223.897932 
L 110.456468 223.897932 
L 110.456468 223.101799 
L 110.983296 223.101799 
L 110.983296 222.305667 
L 111.510124 222.305667 
L 111.510124 221.111468 
L 112.036952 221.111468 
L 112.036952 219.917269 
L 112.56378 219.917269 
L 112.56378 217.130804 
L 113.090608 217.130804 
L 113.090608 211.955942 
L 113.617436 211.955942 
L 113.617436 209.567544 
L 114.144264 209.567544 
L 114.144264 208.771411 
L 114.671092 208.771411 
L 114.671092 208.373345 
L 115.19792 208.373345 
L 115.19792 207.577212 
L 115.724748 207.577212 
L 115.724748 206.383013 
L 116.251576 206.383013 
L 116.251576 204.392682 
L 116.778404 204.392682 
L 116.778404 203.198483 
L 118.358888 203.198483 
L 118.358888 202.800416 
L 118.885716 202.800416 
L 118.885716 202.40235 
L 119.412544 202.40235 
L 119.412544 201.606217 
L 119.939372 201.606217 
L 119.939372 201.208151 
L 120.4662 201.208151 
L 120.4662 200.810085 
L 120.993028 200.810085 
L 120.993028 200.013952 
L 121.519856 200.013952 
L 121.519856 199.615886 
L 122.573512 199.615886 
L 122.573512 198.421687 
L 123.10034 198.421687 
L 123.10034 198.02362 
L 124.153996 198.02362 
L 124.153996 197.227488 
L 124.680824 197.227488 
L 124.680824 196.829421 
L 125.207652 196.829421 
L 125.207652 196.033289 
L 125.73448 196.033289 
L 125.73448 193.644891 
L 126.261308 193.644891 
L 126.261308 193.246824 
L 127.841792 193.246824 
L 127.841792 192.450692 
L 128.895448 192.450692 
L 128.895448 191.256493 
L 129.422276 191.256493 
L 129.422276 189.664227 
L 129.949104 189.664227 
L 129.949104 188.868095 
L 130.475932 188.868095 
L 130.475932 184.887431 
L 132.056416 184.887431 
L 132.056416 183.295166 
L 132.583244 183.295166 
L 132.583244 182.8971 
L 133.110072 182.8971 
L 133.110072 181.7029 
L 133.6369 181.7029 
L 133.6369 180.906768 
L 134.163728 180.906768 
L 134.163728 180.508701 
L 134.690556 180.508701 
L 134.690556 178.916436 
L 136.27104 178.916436 
L 136.27104 177.722237 
L 136.797868 177.722237 
L 136.797868 176.926104 
L 137.324696 176.926104 
L 137.324696 176.528038 
L 138.378352 176.528038 
L 138.378352 175.333839 
L 138.90518 175.333839 
L 138.90518 173.741574 
L 139.432008 173.741574 
L 139.432008 173.343507 
L 139.958836 173.343507 
L 139.958836 172.945441 
L 140.485664 172.945441 
L 140.485664 172.547375 
L 141.012492 172.547375 
L 141.012492 171.353176 
L 141.53932 171.353176 
L 141.53932 170.557043 
L 142.066148 170.557043 
L 142.066148 170.158977 
L 142.592976 170.158977 
L 142.592976 168.566711 
L 143.646632 168.566711 
L 143.646632 168.168645 
L 144.17346 168.168645 
L 144.17346 167.770579 
L 146.280772 167.770579 
L 146.280772 166.974446 
L 147.334428 166.974446 
L 147.334428 166.57638 
L 148.914912 166.57638 
L 148.914912 165.780247 
L 149.44174 165.780247 
L 149.44174 164.187982 
L 149.968568 164.187982 
L 149.968568 163.789915 
L 151.022224 163.789915 
L 151.022224 161.401517 
L 152.07588 161.401517 
L 152.07588 160.605385 
L 152.602708 160.605385 
L 152.602708 159.411186 
L 153.656364 159.411186 
L 153.656364 159.013119 
L 155.763676 159.013119 
L 155.763676 158.615053 
L 156.290504 158.615053 
L 156.290504 158.216987 
L 156.817332 158.216987 
L 156.817332 155.430522 
L 157.34416 155.430522 
L 157.34416 153.440191 
L 157.870988 153.440191 
L 157.870988 152.644058 
L 158.397816 152.644058 
L 158.397816 152.245992 
L 158.924644 152.245992 
L 158.924644 151.051793 
L 161.558784 151.051793 
L 161.558784 147.469196 
L 163.139267 147.469196 
L 163.139267 147.071129 
L 165.773407 147.071129 
L 165.773407 146.274997 
L 166.300235 146.274997 
L 166.300235 145.080798 
L 166.827063 145.080798 
L 166.827063 144.682731 
L 167.353891 144.682731 
L 167.353891 144.284665 
L 168.407547 144.284665 
L 168.407547 143.886599 
L 168.934375 143.886599 
L 168.934375 143.488532 
L 170.514859 143.488532 
L 170.514859 143.090466 
L 171.568515 143.090466 
L 171.568515 142.6924 
L 172.622171 142.6924 
L 172.622171 142.294333 
L 174.202655 142.294333 
L 174.202655 141.498201 
L 174.729483 141.498201 
L 174.729483 141.100134 
L 175.256311 141.100134 
L 175.256311 140.304002 
L 176.309967 140.304002 
L 176.309967 139.507869 
L 176.836795 139.507869 
L 176.836795 138.31367 
L 177.890451 138.31367 
L 177.890451 137.119471 
L 178.417279 137.119471 
L 178.417279 135.925272 
L 179.997763 135.925272 
L 179.997763 134.731073 
L 182.105075 134.731073 
L 182.105075 134.333007 
L 183.685559 134.333007 
L 183.685559 133.536874 
L 184.212387 133.536874 
L 184.212387 131.944609 
L 184.739215 131.944609 
L 184.739215 131.546542 
L 185.792871 131.546542 
L 185.792871 130.75041 
L 186.319699 130.75041 
L 186.319699 129.954277 
L 187.373355 129.954277 
L 187.373355 129.556211 
L 187.900183 129.556211 
L 187.900183 125.973614 
L 190.007495 125.973614 
L 190.007495 123.983282 
L 192.114807 123.983282 
L 192.114807 123.585216 
L 193.695291 123.585216 
L 193.695291 123.187149 
L 194.748947 123.187149 
L 194.748947 122.391017 
L 195.802603 122.391017 
L 195.802603 120.798751 
L 196.329431 120.798751 
L 196.329431 120.400685 
L 196.856259 120.400685 
L 196.856259 120.002619 
L 197.383087 120.002619 
L 197.383087 119.604552 
L 197.909915 119.604552 
L 197.909915 119.206486 
L 198.436743 119.206486 
L 198.436743 118.808419 
L 199.490399 118.808419 
L 199.490399 118.410353 
L 200.017227 118.410353 
L 200.017227 118.012287 
L 201.597711 118.012287 
L 201.597711 117.216154 
L 202.124539 117.216154 
L 202.124539 116.818088 
L 203.178195 116.818088 
L 203.178195 115.623889 
L 203.705023 115.623889 
L 203.705023 114.827756 
L 204.231851 114.827756 
L 204.231851 114.42969 
L 205.285507 114.42969 
L 205.285507 114.031623 
L 205.812335 114.031623 
L 205.812335 113.633557 
L 206.339163 113.633557 
L 206.339163 112.837424 
L 206.865991 112.837424 
L 206.865991 111.245159 
L 207.392819 111.245159 
L 207.392819 110.449026 
L 207.919647 110.449026 
L 207.919647 109.254827 
L 208.446475 109.254827 
L 208.446475 108.458695 
L 209.500131 108.458695 
L 209.500131 107.662562 
L 210.026959 107.662562 
L 210.026959 107.264496 
L 210.553787 107.264496 
L 210.553787 106.070297 
L 211.607443 106.070297 
L 211.607443 105.67223 
L 212.134271 105.67223 
L 212.134271 105.274164 
L 214.768411 105.274164 
L 214.768411 104.876098 
L 215.295239 104.876098 
L 215.295239 104.079965 
L 215.822067 104.079965 
L 215.822067 103.283832 
L 218.456207 103.283832 
L 218.456207 102.4877 
L 218.983035 102.4877 
L 218.983035 100.895434 
L 220.563519 100.895434 
L 220.563519 100.497368 
L 221.617175 100.497368 
L 221.617175 100.099302 
L 223.197659 100.099302 
L 223.197659 99.303169 
L 223.724487 99.303169 
L 223.724487 97.710904 
L 224.251315 97.710904 
L 224.251315 97.312837 
L 224.778143 97.312837 
L 224.778143 96.516705 
L 225.304971 96.516705 
L 225.304971 96.118638 
L 226.885455 96.118638 
L 226.885455 95.322506 
L 229.519595 95.322506 
L 229.519595 94.526373 
L 230.046422 94.526373 
L 230.046422 94.128307 
L 230.57325 94.128307 
L 230.57325 93.73024 
L 231.626906 93.73024 
L 231.626906 92.934108 
L 235.314702 92.934108 
L 235.314702 92.536041 
L 235.84153 92.536041 
L 235.84153 91.341842 
L 236.368358 91.341842 
L 236.368358 90.943776 
L 236.895186 90.943776 
L 236.895186 90.54571 
L 238.47567 90.54571 
L 238.47567 90.147643 
L 239.529326 90.147643 
L 239.529326 88.953444 
L 241.10981 88.953444 
L 241.10981 88.555378 
L 242.163466 88.555378 
L 242.163466 87.759245 
L 243.74395 87.759245 
L 243.74395 87.361179 
L 244.270778 87.361179 
L 244.270778 86.963113 
L 245.324434 86.963113 
L 245.324434 85.768914 
L 245.851262 85.768914 
L 245.851262 85.370847 
L 246.37809 85.370847 
L 246.37809 84.972781 
L 246.904918 84.972781 
L 246.904918 84.176648 
L 247.958574 84.176648 
L 247.958574 83.778582 
L 248.485402 83.778582 
L 248.485402 83.380516 
L 249.539058 83.380516 
L 249.539058 82.982449 
L 250.592714 82.982449 
L 250.592714 81.78825 
L 252.173198 81.78825 
L 252.173198 80.594051 
L 253.753682 80.594051 
L 253.753682 80.195985 
L 256.387822 80.195985 
L 256.387822 79.797919 
L 256.91465 79.797919 
L 256.91465 79.399852 
L 260.602446 79.399852 
L 260.602446 79.001786 
L 261.656102 79.001786 
L 261.656102 78.205653 
L 262.18293 78.205653 
L 262.18293 77.807587 
L 262.709758 77.807587 
L 262.709758 77.409521 
L 263.763414 77.409521 
L 263.763414 75.021123 
L 264.290242 75.021123 
L 264.290242 73.428857 
L 264.81707 73.428857 
L 264.81707 73.030791 
L 265.343898 73.030791 
L 265.343898 72.632725 
L 269.031694 72.632725 
L 269.031694 71.836592 
L 270.08535 71.836592 
L 270.08535 71.040459 
L 274.299974 71.040459 
L 274.299974 70.642393 
L 275.35363 70.642393 
L 275.35363 69.050128 
L 276.407286 69.050128 
L 276.407286 68.652061 
L 276.934114 68.652061 
L 276.934114 68.253995 
L 278.514598 68.253995 
L 278.514598 67.855929 
L 279.568254 67.855929 
L 279.568254 67.457862 
L 282.202394 67.457862 
L 282.202394 66.263663 
L 282.729222 66.263663 
L 282.729222 65.865597 
L 286.943846 65.865597 
L 286.943846 65.467531 
L 287.470674 65.467531 
L 287.470674 65.069464 
L 288.52433 65.069464 
L 288.52433 64.671398 
L 289.577986 64.671398 
L 289.577986 64.273332 
L 290.104814 64.273332 
L 290.104814 63.477199 
L 292.212126 63.477199 
L 292.212126 63.079133 
L 298.534061 63.079133 
L 298.534061 62.283 
L 299.587717 62.283 
L 299.587717 61.884934 
L 306.436481 61.884934 
L 306.436481 61.486867 
L 308.543793 61.486867 
L 308.543793 61.088801 
L 309.070621 61.088801 
L 309.070621 60.690735 
L 311.177933 60.690735 
L 311.177933 59.894602 
L 323.294977 59.894602 
L 323.294977 59.496536 
L 328.563257 59.496536 
L 328.563257 59.098469 
L 332.777881 59.098469 
L 332.777881 58.700403 
L 333.304709 58.700403 
L 333.304709 58.302337 
L 334.358365 58.302337 
L 334.358365 57.506204 
L 336.465677 57.506204 
L 336.465677 57.108138 
L 338.572989 57.108138 
L 338.572989 56.710071 
L 339.626645 56.710071 
L 339.626645 56.312005 
L 346.475409 56.312005 
L 346.475409 55.913938 
L 358.592453 55.913938 
L 358.592453 55.117806 
L 362.807077 55.117806 
L 362.807077 54.719739 
L 365.441216 54.719739 
L 365.441216 54.321673 
L 367.548528 54.321673 
L 367.548528 53.923607 
L 372.816808 53.923607 
L 372.816808 53.52554 
L 375.977776 53.52554 
L 375.977776 53.127474 
L 377.55826 53.127474 
L 377.55826 52.729408 
L 387.567992 52.729408 
L 387.567992 52.331341 
L 389.675304 52.331341 
L 389.675304 51.535209 
L 390.72896 51.535209 
L 390.72896 51.137142 
L 392.309444 51.137142 
L 392.309444 50.739076 
L 393.889928 50.739076 
L 393.889928 50.34101 
L 395.470412 50.34101 
L 395.470412 49.942943 
L 398.63138 49.942943 
L 398.63138 49.544877 
L 407.060628 49.544877 
L 407.060628 49.146811 
L 407.587456 49.146811 
L 407.587456 48.748744 
L 413.909392 48.748744 
L 413.909392 48.350678 
L 429.714232 48.350678 
L 429.714232 47.952612 
L 430.24106 47.952612 
L 430.24106 47.554545 
L 446.572727 47.554545 
L 446.572727 47.554545 
" clip-path="url(#pba952a918c)" style="fill: none; stroke: #000000; stroke-width: 1.5; stroke-linecap: square"/>
   </g>
   <g id="line2d_20">
    <path d="M -1 376.977674 
L 2.760055 374.210193 
L 13.855372 366.043802 
L 24.950689 357.87741 
L 36.046006 349.711019 
L 47.141322 341.544628 
L 58.236639 333.378237 
L 69.331956 325.211846 
L 80.427273 317.045455 
L 91.52259 308.879063 
L 102.617906 300.712672 
L 113.713223 292.546281 
L 124.80854 284.37989 
L 135.903857 276.213499 
L 146.999174 268.047107 
L 158.09449 259.880716 
L 169.189807 251.714325 
L 180.285124 243.547934 
L 191.380441 235.381543 
L 202.475758 227.215152 
L 213.571074 219.04876 
L 224.666391 210.882369 
L 235.761708 202.715978 
L 246.857025 194.549587 
L 257.952342 186.383196 
L 269.047658 178.216804 
L 280.142975 170.050413 
L 291.238292 161.884022 
L 302.333609 153.717631 
L 313.428926 145.55124 
L 324.524242 137.384848 
L 335.619559 129.218457 
L 346.714876 121.052066 
L 357.810193 112.885675 
L 368.90551 104.719284 
L 380.000826 96.552893 
L 391.096143 88.386501 
L 402.19146 80.22011 
L 413.286777 72.053719 
L 424.382094 63.887328 
L 435.47741 55.720937 
L 446.572727 47.554545 
L 457.668044 39.388154 
L 468.763361 31.221763 
L 479.858678 23.055372 
L 481 22.215334 
" clip-path="url(#pba952a918c)" style="fill: none; stroke-dasharray: 5.55,2.4; stroke-dashoffset: 0; stroke: #000000; stroke-width: 1.5"/>
   </g>
   <g id="patch_3">
    <path d="M 62.12 330.52 
L 62.12 34.08 
" style="fill: none; stroke: #000000; stroke-width: 0.8; stroke-linejoin: miter; stroke-linecap: square"/>
   </g>
   <g id="patch_4">
    <path d="M 62.12 330.52 
L 464.88 330.52 
" style="fill: none; stroke: #000000; stroke-width: 0.8; stroke-linejoin: miter; stroke-linecap: square"/>
   </g>
   <g id="text_15">
    <!-- LOO Transfer, auc: 0.7858 -->
    <g transform="translate(154.138562 28.08) scale(0.168 -0.168)">
     <defs>
      <path id="DejaVuSans-4c" d="M 628 4666 
L 1259 4666 
L 1259 531 
L 3531 531 
L 3531 0 
L 628 0 
L 628 4666 
z
" transform="scale(0.015625)"/>
      <path id="DejaVuSans-4f" d="M 2522 4238 
Q 1834 4238 1429 3725 
Q 1025 3213 1025 2328 
Q 1025 1447 1429 934 
Q 1834 422 2522 422 
Q 3209 422 3611 934 
Q 4013 1447 4013 2328 
Q 4013 3213 3611 3725 
Q 3209 4238 2522 4238 
z
M 2522 4750 
Q 3503 4750 4090 4092 
Q 4678 3434 4678 2328 
Q 4678 1225 4090 567 
Q 3503 -91 2522 -91 
Q 1538 -91 948 565 
Q 359 1222 359 2328 
Q 359 3434 948 4092 
Q 1538 4750 2522 4750 
z
" transform="scale(0.015625)"/>
      <path id="DejaVuSans-6e" d="M 3513 2113 
L 3513 0 
L 2938 0 
L 2938 2094 
Q 2938 2591 2744 2837 
Q 2550 3084 2163 3084 
Q 1697 3084 1428 2787 
Q 1159 2491 1159 1978 
L 1159 0 
L 581 0 
L 581 3500 
L 1159 3500 
L 1159 2956 
Q 1366 3272 1645 3428 
Q 1925 3584 2291 3584 
Q 2894 3584 3203 3211 
Q 3513 2838 3513 2113 
z
" transform="scale(0.015625)"/>
      <path id="DejaVuSans-66" d="M 2375 4863 
L 2375 4384 
L 1825 4384 
Q 1516 4384 1395 4259 
Q 1275 4134 1275 3809 
L 1275 3500 
L 2222 3500 
L 2222 3053 
L 1275 3053 
L 1275 0 
L 697 0 
L 697 3053 
L 147 3053 
L 147 3500 
L 697 3500 
L 697 3744 
Q 697 4328 969 4595 
Q 1241 4863 1831 4863 
L 2375 4863 
z
" transform="scale(0.015625)"/>
      <path id="DejaVuSans-2c" d="M 750 794 
L 1409 794 
L 1409 256 
L 897 -744 
L 494 -744 
L 750 256 
L 750 794 
z
" transform="scale(0.015625)"/>
      <path id="DejaVuSans-63" d="M 3122 3366 
L 3122 2828 
Q 2878 2963 2633 3030 
Q 2388 3097 2138 3097 
Q 1578 3097 1268 2742 
Q 959 2388 959 1747 
Q 959 1106 1268 751 
Q 1578 397 2138 397 
Q 2388 397 2633 464 
Q 2878 531 3122 666 
L 3122 134 
Q 2881 22 2623 -34 
Q 2366 -91 2075 -91 
Q 1284 -91 818 406 
Q 353 903 353 1747 
Q 353 2603 823 3093 
Q 1294 3584 2113 3584 
Q 2378 3584 2631 3529 
Q 2884 3475 3122 3366 
z
" transform="scale(0.015625)"/>
      <path id="DejaVuSans-3a" d="M 750 794 
L 1409 794 
L 1409 0 
L 750 0 
L 750 794 
z
M 750 3309 
L 1409 3309 
L 1409 2516 
L 750 2516 
L 750 3309 
z
" transform="scale(0.015625)"/>
      <path id="DejaVuSans-37" d="M 525 4666 
L 3525 4666 
L 3525 4397 
L 1831 0 
L 1172 0 
L 2766 4134 
L 525 4134 
L 525 4666 
z
" transform="scale(0.015625)"/>
      <path id="DejaVuSans-35" d="M 691 4666 
L 3169 4666 
L 3169 4134 
L 1269 4134 
L 1269 2991 
Q 1406 3038 1543 3061 
Q 1681 3084 1819 3084 
Q 2600 3084 3056 2656 
Q 3513 2228 3513 1497 
Q 3513 744 3044 326 
Q 2575 -91 1722 -91 
Q 1428 -91 1123 -41 
Q 819 9 494 109 
L 494 744 
Q 775 591 1075 516 
Q 1375 441 1709 441 
Q 2250 441 2565 725 
Q 2881 1009 2881 1497 
Q 2881 1984 2565 2268 
Q 2250 2553 1709 2553 
Q 1456 2553 1204 2497 
Q 953 2441 691 2322 
L 691 4666 
z
" transform="scale(0.015625)"/>
     </defs>
     <use xlink:href="#DejaVuSans-4c"/>
     <use xlink:href="#DejaVuSans-4f" x="52.087891"/>
     <use xlink:href="#DejaVuSans-4f" x="130.798828"/>
     <use xlink:href="#DejaVuSans-20" x="209.509766"/>
     <use xlink:href="#DejaVuSans-54" x="241.296875"/>
     <use xlink:href="#DejaVuSans-72" x="287.630859"/>
     <use xlink:href="#DejaVuSans-61" x="328.744141"/>
     <use xlink:href="#DejaVuSans-6e" x="390.023438"/>
     <use xlink:href="#DejaVuSans-73" x="453.402344"/>
     <use xlink:href="#DejaVuSans-66" x="505.501953"/>
     <use xlink:href="#DejaVuSans-65" x="540.707031"/>
     <use xlink:href="#DejaVuSans-72" x="602.230469"/>
     <use xlink:href="#DejaVuSans-2c" x="643.34375"/>
     <use xlink:href="#DejaVuSans-20" x="675.130859"/>
     <use xlink:href="#DejaVuSans-61" x="706.917969"/>
     <use xlink:href="#DejaVuSans-75" x="768.197266"/>
     <use xlink:href="#DejaVuSans-63" x="831.576172"/>
     <use xlink:href="#DejaVuSans-3a" x="886.556641"/>
     <use xlink:href="#DejaVuSans-20" x="920.248047"/>
     <use xlink:href="#DejaVuSans-30" x="952.035156"/>
     <use xlink:href="#DejaVuSans-2e" x="1015.658203"/>
     <use xlink:href="#DejaVuSans-37" x="1047.445312"/>
     <use xlink:href="#DejaVuSans-38" x="1111.068359"/>
     <use xlink:href="#DejaVuSans-35" x="1174.691406"/>
     <use xlink:href="#DejaVuSans-38" x="1238.314453"/>
    </g>
   </g>
  </g>
 </g>
 <defs>
  <clipPath id="pba952a918c">
   <rect x="62.12" y="34.08" width="402.76" height="296.44"/>
  </clipPath>
 </defs>
</svg>
